%TF.GenerationSoftware,KiCad,Pcbnew,5.99.0-unknown-e950278637~142~ubuntu18.04.1*%
%TF.CreationDate,2021-10-25T23:56:19+03:00*%
%TF.ProjectId,cdf-1,6364662d-312e-46b6-9963-61645f706362,rev?*%
%TF.SameCoordinates,Original*%
%TF.FileFunction,AssemblyDrawing,Top*%
%FSLAX46Y46*%
G04 Gerber Fmt 4.6, Leading zero omitted, Abs format (unit mm)*
G04 Created by KiCad (PCBNEW 5.99.0-unknown-e950278637~142~ubuntu18.04.1) date 2021-10-25 23:56:19*
%MOMM*%
%LPD*%
G01*
G04 APERTURE LIST*
%ADD10C,0.150000*%
%ADD11C,0.080000*%
%ADD12C,0.100000*%
%ADD13C,0.120000*%
G04 APERTURE END LIST*
D10*
%TO.C,D9*%
X165821380Y-101742738D02*
X166630904Y-101742738D01*
X166726142Y-101695119D01*
X166773761Y-101647500D01*
X166821380Y-101552261D01*
X166821380Y-101361785D01*
X166773761Y-101266547D01*
X166726142Y-101218928D01*
X166630904Y-101171309D01*
X165821380Y-101171309D01*
X166773761Y-100742738D02*
X166821380Y-100599880D01*
X166821380Y-100361785D01*
X166773761Y-100266547D01*
X166726142Y-100218928D01*
X166630904Y-100171309D01*
X166535666Y-100171309D01*
X166440428Y-100218928D01*
X166392809Y-100266547D01*
X166345190Y-100361785D01*
X166297571Y-100552261D01*
X166249952Y-100647500D01*
X166202333Y-100695119D01*
X166107095Y-100742738D01*
X166011857Y-100742738D01*
X165916619Y-100695119D01*
X165869000Y-100647500D01*
X165821380Y-100552261D01*
X165821380Y-100314166D01*
X165869000Y-100171309D01*
X166297571Y-99409404D02*
X166345190Y-99266547D01*
X166392809Y-99218928D01*
X166488047Y-99171309D01*
X166630904Y-99171309D01*
X166726142Y-99218928D01*
X166773761Y-99266547D01*
X166821380Y-99361785D01*
X166821380Y-99742738D01*
X165821380Y-99742738D01*
X165821380Y-99409404D01*
X165869000Y-99314166D01*
X165916619Y-99266547D01*
X166011857Y-99218928D01*
X166107095Y-99218928D01*
X166202333Y-99266547D01*
X166249952Y-99314166D01*
X166297571Y-99409404D01*
X166297571Y-99742738D01*
X166821380Y-97980833D02*
X165821380Y-97980833D01*
X165821380Y-97599880D01*
X165869000Y-97504642D01*
X165916619Y-97457023D01*
X166011857Y-97409404D01*
X166154714Y-97409404D01*
X166249952Y-97457023D01*
X166297571Y-97504642D01*
X166345190Y-97599880D01*
X166345190Y-97980833D01*
X165821380Y-96790357D02*
X165821380Y-96599880D01*
X165869000Y-96504642D01*
X165964238Y-96409404D01*
X166154714Y-96361785D01*
X166488047Y-96361785D01*
X166678523Y-96409404D01*
X166773761Y-96504642D01*
X166821380Y-96599880D01*
X166821380Y-96790357D01*
X166773761Y-96885595D01*
X166678523Y-96980833D01*
X166488047Y-97028452D01*
X166154714Y-97028452D01*
X165964238Y-96980833D01*
X165869000Y-96885595D01*
X165821380Y-96790357D01*
X165821380Y-96028452D02*
X166821380Y-95790357D01*
X166107095Y-95599880D01*
X166821380Y-95409404D01*
X165821380Y-95171309D01*
X166297571Y-94790357D02*
X166297571Y-94457023D01*
X166821380Y-94314166D02*
X166821380Y-94790357D01*
X165821380Y-94790357D01*
X165821380Y-94314166D01*
X166821380Y-93314166D02*
X166345190Y-93647500D01*
X166821380Y-93885595D02*
X165821380Y-93885595D01*
X165821380Y-93504642D01*
X165869000Y-93409404D01*
X165916619Y-93361785D01*
X166011857Y-93314166D01*
X166154714Y-93314166D01*
X166249952Y-93361785D01*
X166297571Y-93409404D01*
X166345190Y-93504642D01*
X166345190Y-93885595D01*
X166726142Y-91552261D02*
X166773761Y-91599880D01*
X166821380Y-91742738D01*
X166821380Y-91837976D01*
X166773761Y-91980833D01*
X166678523Y-92076071D01*
X166583285Y-92123690D01*
X166392809Y-92171309D01*
X166249952Y-92171309D01*
X166059476Y-92123690D01*
X165964238Y-92076071D01*
X165869000Y-91980833D01*
X165821380Y-91837976D01*
X165821380Y-91742738D01*
X165869000Y-91599880D01*
X165916619Y-91552261D01*
X165821380Y-91266547D02*
X165821380Y-90695119D01*
X166821380Y-90980833D02*
X165821380Y-90980833D01*
X166821380Y-89790357D02*
X166345190Y-90123690D01*
X166821380Y-90361785D02*
X165821380Y-90361785D01*
X165821380Y-89980833D01*
X165869000Y-89885595D01*
X165916619Y-89837976D01*
X166011857Y-89790357D01*
X166154714Y-89790357D01*
X166249952Y-89837976D01*
X166297571Y-89885595D01*
X166345190Y-89980833D01*
X166345190Y-90361785D01*
X166821380Y-88885595D02*
X166821380Y-89361785D01*
X165821380Y-89361785D01*
X166821380Y-87314166D02*
X166821380Y-87790357D01*
X165821380Y-87790357D01*
X166297571Y-86980833D02*
X166297571Y-86647500D01*
X166821380Y-86504642D02*
X166821380Y-86980833D01*
X165821380Y-86980833D01*
X165821380Y-86504642D01*
X166821380Y-86076071D02*
X165821380Y-86076071D01*
X165821380Y-85837976D01*
X165869000Y-85695119D01*
X165964238Y-85599880D01*
X166059476Y-85552261D01*
X166249952Y-85504642D01*
X166392809Y-85504642D01*
X166583285Y-85552261D01*
X166678523Y-85599880D01*
X166773761Y-85695119D01*
X166821380Y-85837976D01*
X166821380Y-86076071D01*
D11*
X164945190Y-94016547D02*
X164445190Y-94016547D01*
X164445190Y-93897500D01*
X164469000Y-93826071D01*
X164516619Y-93778452D01*
X164564238Y-93754642D01*
X164659476Y-93730833D01*
X164730904Y-93730833D01*
X164826142Y-93754642D01*
X164873761Y-93778452D01*
X164921380Y-93826071D01*
X164945190Y-93897500D01*
X164945190Y-94016547D01*
X164945190Y-93492738D02*
X164945190Y-93397500D01*
X164921380Y-93349880D01*
X164897571Y-93326071D01*
X164826142Y-93278452D01*
X164730904Y-93254642D01*
X164540428Y-93254642D01*
X164492809Y-93278452D01*
X164469000Y-93302261D01*
X164445190Y-93349880D01*
X164445190Y-93445119D01*
X164469000Y-93492738D01*
X164492809Y-93516547D01*
X164540428Y-93540357D01*
X164659476Y-93540357D01*
X164707095Y-93516547D01*
X164730904Y-93492738D01*
X164754714Y-93445119D01*
X164754714Y-93349880D01*
X164730904Y-93302261D01*
X164707095Y-93278452D01*
X164659476Y-93254642D01*
D10*
%TO.C,D10*%
X179578095Y-96479380D02*
X180149523Y-96479380D01*
X179863809Y-97479380D02*
X179863809Y-96479380D01*
X180387619Y-96479380D02*
X181054285Y-97479380D01*
X181054285Y-96479380D02*
X180387619Y-97479380D01*
D11*
X179732857Y-95603190D02*
X179732857Y-95103190D01*
X179851904Y-95103190D01*
X179923333Y-95127000D01*
X179970952Y-95174619D01*
X179994761Y-95222238D01*
X180018571Y-95317476D01*
X180018571Y-95388904D01*
X179994761Y-95484142D01*
X179970952Y-95531761D01*
X179923333Y-95579380D01*
X179851904Y-95603190D01*
X179732857Y-95603190D01*
X180494761Y-95603190D02*
X180209047Y-95603190D01*
X180351904Y-95603190D02*
X180351904Y-95103190D01*
X180304285Y-95174619D01*
X180256666Y-95222238D01*
X180209047Y-95246047D01*
X180804285Y-95103190D02*
X180851904Y-95103190D01*
X180899523Y-95127000D01*
X180923333Y-95150809D01*
X180947142Y-95198428D01*
X180970952Y-95293666D01*
X180970952Y-95412714D01*
X180947142Y-95507952D01*
X180923333Y-95555571D01*
X180899523Y-95579380D01*
X180851904Y-95603190D01*
X180804285Y-95603190D01*
X180756666Y-95579380D01*
X180732857Y-95555571D01*
X180709047Y-95507952D01*
X180685238Y-95412714D01*
X180685238Y-95293666D01*
X180709047Y-95198428D01*
X180732857Y-95150809D01*
X180756666Y-95127000D01*
X180804285Y-95103190D01*
D10*
%TO.C,D11*%
X180173333Y-92907380D02*
X179840000Y-92431190D01*
X179601904Y-92907380D02*
X179601904Y-91907380D01*
X179982857Y-91907380D01*
X180078095Y-91955000D01*
X180125714Y-92002619D01*
X180173333Y-92097857D01*
X180173333Y-92240714D01*
X180125714Y-92335952D01*
X180078095Y-92383571D01*
X179982857Y-92431190D01*
X179601904Y-92431190D01*
X180506666Y-91907380D02*
X181173333Y-92907380D01*
X181173333Y-91907380D02*
X180506666Y-92907380D01*
D11*
X179732857Y-91031190D02*
X179732857Y-90531190D01*
X179851904Y-90531190D01*
X179923333Y-90555000D01*
X179970952Y-90602619D01*
X179994761Y-90650238D01*
X180018571Y-90745476D01*
X180018571Y-90816904D01*
X179994761Y-90912142D01*
X179970952Y-90959761D01*
X179923333Y-91007380D01*
X179851904Y-91031190D01*
X179732857Y-91031190D01*
X180494761Y-91031190D02*
X180209047Y-91031190D01*
X180351904Y-91031190D02*
X180351904Y-90531190D01*
X180304285Y-90602619D01*
X180256666Y-90650238D01*
X180209047Y-90674047D01*
X180970952Y-91031190D02*
X180685238Y-91031190D01*
X180828095Y-91031190D02*
X180828095Y-90531190D01*
X180780476Y-90602619D01*
X180732857Y-90650238D01*
X180685238Y-90674047D01*
D10*
%TO.C,H5*%
X153146619Y-55722380D02*
X153765666Y-55722380D01*
X153432333Y-56103333D01*
X153575190Y-56103333D01*
X153670428Y-56150952D01*
X153718047Y-56198571D01*
X153765666Y-56293809D01*
X153765666Y-56531904D01*
X153718047Y-56627142D01*
X153670428Y-56674761D01*
X153575190Y-56722380D01*
X153289476Y-56722380D01*
X153194238Y-56674761D01*
X153146619Y-56627142D01*
X154194238Y-56722380D02*
X154194238Y-56055714D01*
X154194238Y-56150952D02*
X154241857Y-56103333D01*
X154337095Y-56055714D01*
X154479952Y-56055714D01*
X154575190Y-56103333D01*
X154622809Y-56198571D01*
X154622809Y-56722380D01*
X154622809Y-56198571D02*
X154670428Y-56103333D01*
X154765666Y-56055714D01*
X154908523Y-56055714D01*
X155003761Y-56103333D01*
X155051380Y-56198571D01*
X155051380Y-56722380D01*
X155527571Y-56722380D02*
X155527571Y-56055714D01*
X155527571Y-56150952D02*
X155575190Y-56103333D01*
X155670428Y-56055714D01*
X155813285Y-56055714D01*
X155908523Y-56103333D01*
X155956142Y-56198571D01*
X155956142Y-56722380D01*
X155956142Y-56198571D02*
X156003761Y-56103333D01*
X156099000Y-56055714D01*
X156241857Y-56055714D01*
X156337095Y-56103333D01*
X156384714Y-56198571D01*
X156384714Y-56722380D01*
X157622809Y-56722380D02*
X157622809Y-55722380D01*
X157622809Y-56198571D02*
X158194238Y-56198571D01*
X158194238Y-56722380D02*
X158194238Y-55722380D01*
X158860904Y-55722380D02*
X159051380Y-55722380D01*
X159146619Y-55770000D01*
X159241857Y-55865238D01*
X159289476Y-56055714D01*
X159289476Y-56389047D01*
X159241857Y-56579523D01*
X159146619Y-56674761D01*
X159051380Y-56722380D01*
X158860904Y-56722380D01*
X158765666Y-56674761D01*
X158670428Y-56579523D01*
X158622809Y-56389047D01*
X158622809Y-56055714D01*
X158670428Y-55865238D01*
X158765666Y-55770000D01*
X158860904Y-55722380D01*
X160194238Y-56722380D02*
X159718047Y-56722380D01*
X159718047Y-55722380D01*
X160527571Y-56198571D02*
X160860904Y-56198571D01*
X161003761Y-56722380D02*
X160527571Y-56722380D01*
X160527571Y-55722380D01*
X161003761Y-55722380D01*
X156637095Y-52522380D02*
X156637095Y-51522380D01*
X156637095Y-51998571D02*
X157208523Y-51998571D01*
X157208523Y-52522380D02*
X157208523Y-51522380D01*
X158160904Y-51522380D02*
X157684714Y-51522380D01*
X157637095Y-51998571D01*
X157684714Y-51950952D01*
X157779952Y-51903333D01*
X158018047Y-51903333D01*
X158113285Y-51950952D01*
X158160904Y-51998571D01*
X158208523Y-52093809D01*
X158208523Y-52331904D01*
X158160904Y-52427142D01*
X158113285Y-52474761D01*
X158018047Y-52522380D01*
X157779952Y-52522380D01*
X157684714Y-52474761D01*
X157637095Y-52427142D01*
%TO.C,H6*%
X244586619Y-55722380D02*
X245205666Y-55722380D01*
X244872333Y-56103333D01*
X245015190Y-56103333D01*
X245110428Y-56150952D01*
X245158047Y-56198571D01*
X245205666Y-56293809D01*
X245205666Y-56531904D01*
X245158047Y-56627142D01*
X245110428Y-56674761D01*
X245015190Y-56722380D01*
X244729476Y-56722380D01*
X244634238Y-56674761D01*
X244586619Y-56627142D01*
X245634238Y-56722380D02*
X245634238Y-56055714D01*
X245634238Y-56150952D02*
X245681857Y-56103333D01*
X245777095Y-56055714D01*
X245919952Y-56055714D01*
X246015190Y-56103333D01*
X246062809Y-56198571D01*
X246062809Y-56722380D01*
X246062809Y-56198571D02*
X246110428Y-56103333D01*
X246205666Y-56055714D01*
X246348523Y-56055714D01*
X246443761Y-56103333D01*
X246491380Y-56198571D01*
X246491380Y-56722380D01*
X246967571Y-56722380D02*
X246967571Y-56055714D01*
X246967571Y-56150952D02*
X247015190Y-56103333D01*
X247110428Y-56055714D01*
X247253285Y-56055714D01*
X247348523Y-56103333D01*
X247396142Y-56198571D01*
X247396142Y-56722380D01*
X247396142Y-56198571D02*
X247443761Y-56103333D01*
X247539000Y-56055714D01*
X247681857Y-56055714D01*
X247777095Y-56103333D01*
X247824714Y-56198571D01*
X247824714Y-56722380D01*
X249062809Y-56722380D02*
X249062809Y-55722380D01*
X249062809Y-56198571D02*
X249634238Y-56198571D01*
X249634238Y-56722380D02*
X249634238Y-55722380D01*
X250300904Y-55722380D02*
X250491380Y-55722380D01*
X250586619Y-55770000D01*
X250681857Y-55865238D01*
X250729476Y-56055714D01*
X250729476Y-56389047D01*
X250681857Y-56579523D01*
X250586619Y-56674761D01*
X250491380Y-56722380D01*
X250300904Y-56722380D01*
X250205666Y-56674761D01*
X250110428Y-56579523D01*
X250062809Y-56389047D01*
X250062809Y-56055714D01*
X250110428Y-55865238D01*
X250205666Y-55770000D01*
X250300904Y-55722380D01*
X251634238Y-56722380D02*
X251158047Y-56722380D01*
X251158047Y-55722380D01*
X251967571Y-56198571D02*
X252300904Y-56198571D01*
X252443761Y-56722380D02*
X251967571Y-56722380D01*
X251967571Y-55722380D01*
X252443761Y-55722380D01*
X248077095Y-52522380D02*
X248077095Y-51522380D01*
X248077095Y-51998571D02*
X248648523Y-51998571D01*
X248648523Y-52522380D02*
X248648523Y-51522380D01*
X249553285Y-51522380D02*
X249362809Y-51522380D01*
X249267571Y-51570000D01*
X249219952Y-51617619D01*
X249124714Y-51760476D01*
X249077095Y-51950952D01*
X249077095Y-52331904D01*
X249124714Y-52427142D01*
X249172333Y-52474761D01*
X249267571Y-52522380D01*
X249458047Y-52522380D01*
X249553285Y-52474761D01*
X249600904Y-52427142D01*
X249648523Y-52331904D01*
X249648523Y-52093809D01*
X249600904Y-51998571D01*
X249553285Y-51950952D01*
X249458047Y-51903333D01*
X249267571Y-51903333D01*
X249172333Y-51950952D01*
X249124714Y-51998571D01*
X249077095Y-52093809D01*
%TO.C,H8*%
X153146619Y-147162380D02*
X153765666Y-147162380D01*
X153432333Y-147543333D01*
X153575190Y-147543333D01*
X153670428Y-147590952D01*
X153718047Y-147638571D01*
X153765666Y-147733809D01*
X153765666Y-147971904D01*
X153718047Y-148067142D01*
X153670428Y-148114761D01*
X153575190Y-148162380D01*
X153289476Y-148162380D01*
X153194238Y-148114761D01*
X153146619Y-148067142D01*
X154194238Y-148162380D02*
X154194238Y-147495714D01*
X154194238Y-147590952D02*
X154241857Y-147543333D01*
X154337095Y-147495714D01*
X154479952Y-147495714D01*
X154575190Y-147543333D01*
X154622809Y-147638571D01*
X154622809Y-148162380D01*
X154622809Y-147638571D02*
X154670428Y-147543333D01*
X154765666Y-147495714D01*
X154908523Y-147495714D01*
X155003761Y-147543333D01*
X155051380Y-147638571D01*
X155051380Y-148162380D01*
X155527571Y-148162380D02*
X155527571Y-147495714D01*
X155527571Y-147590952D02*
X155575190Y-147543333D01*
X155670428Y-147495714D01*
X155813285Y-147495714D01*
X155908523Y-147543333D01*
X155956142Y-147638571D01*
X155956142Y-148162380D01*
X155956142Y-147638571D02*
X156003761Y-147543333D01*
X156099000Y-147495714D01*
X156241857Y-147495714D01*
X156337095Y-147543333D01*
X156384714Y-147638571D01*
X156384714Y-148162380D01*
X157622809Y-148162380D02*
X157622809Y-147162380D01*
X157622809Y-147638571D02*
X158194238Y-147638571D01*
X158194238Y-148162380D02*
X158194238Y-147162380D01*
X158860904Y-147162380D02*
X159051380Y-147162380D01*
X159146619Y-147210000D01*
X159241857Y-147305238D01*
X159289476Y-147495714D01*
X159289476Y-147829047D01*
X159241857Y-148019523D01*
X159146619Y-148114761D01*
X159051380Y-148162380D01*
X158860904Y-148162380D01*
X158765666Y-148114761D01*
X158670428Y-148019523D01*
X158622809Y-147829047D01*
X158622809Y-147495714D01*
X158670428Y-147305238D01*
X158765666Y-147210000D01*
X158860904Y-147162380D01*
X160194238Y-148162380D02*
X159718047Y-148162380D01*
X159718047Y-147162380D01*
X160527571Y-147638571D02*
X160860904Y-147638571D01*
X161003761Y-148162380D02*
X160527571Y-148162380D01*
X160527571Y-147162380D01*
X161003761Y-147162380D01*
X156637095Y-143962380D02*
X156637095Y-142962380D01*
X156637095Y-143438571D02*
X157208523Y-143438571D01*
X157208523Y-143962380D02*
X157208523Y-142962380D01*
X157827571Y-143390952D02*
X157732333Y-143343333D01*
X157684714Y-143295714D01*
X157637095Y-143200476D01*
X157637095Y-143152857D01*
X157684714Y-143057619D01*
X157732333Y-143010000D01*
X157827571Y-142962380D01*
X158018047Y-142962380D01*
X158113285Y-143010000D01*
X158160904Y-143057619D01*
X158208523Y-143152857D01*
X158208523Y-143200476D01*
X158160904Y-143295714D01*
X158113285Y-143343333D01*
X158018047Y-143390952D01*
X157827571Y-143390952D01*
X157732333Y-143438571D01*
X157684714Y-143486190D01*
X157637095Y-143581428D01*
X157637095Y-143771904D01*
X157684714Y-143867142D01*
X157732333Y-143914761D01*
X157827571Y-143962380D01*
X158018047Y-143962380D01*
X158113285Y-143914761D01*
X158160904Y-143867142D01*
X158208523Y-143771904D01*
X158208523Y-143581428D01*
X158160904Y-143486190D01*
X158113285Y-143438571D01*
X158018047Y-143390952D01*
%TO.C,J3*%
X149359952Y-120682380D02*
X149359952Y-119682380D01*
X149598047Y-119682380D01*
X149740904Y-119730000D01*
X149836142Y-119825238D01*
X149883761Y-119920476D01*
X149931380Y-120110952D01*
X149931380Y-120253809D01*
X149883761Y-120444285D01*
X149836142Y-120539523D01*
X149740904Y-120634761D01*
X149598047Y-120682380D01*
X149359952Y-120682380D01*
X150359952Y-119682380D02*
X150359952Y-120491904D01*
X150407571Y-120587142D01*
X150455190Y-120634761D01*
X150550428Y-120682380D01*
X150740904Y-120682380D01*
X150836142Y-120634761D01*
X150883761Y-120587142D01*
X150931380Y-120491904D01*
X150931380Y-119682380D01*
X151264714Y-119682380D02*
X151836142Y-119682380D01*
X151550428Y-120682380D02*
X151550428Y-119682380D01*
X152931380Y-120682380D02*
X152931380Y-119682380D01*
X153169476Y-119682380D01*
X153312333Y-119730000D01*
X153407571Y-119825238D01*
X153455190Y-119920476D01*
X153502809Y-120110952D01*
X153502809Y-120253809D01*
X153455190Y-120444285D01*
X153407571Y-120539523D01*
X153312333Y-120634761D01*
X153169476Y-120682380D01*
X152931380Y-120682380D01*
X154502809Y-120587142D02*
X154455190Y-120634761D01*
X154312333Y-120682380D01*
X154217095Y-120682380D01*
X154074238Y-120634761D01*
X153979000Y-120539523D01*
X153931380Y-120444285D01*
X153883761Y-120253809D01*
X153883761Y-120110952D01*
X153931380Y-119920476D01*
X153979000Y-119825238D01*
X154074238Y-119730000D01*
X154217095Y-119682380D01*
X154312333Y-119682380D01*
X154455190Y-119730000D01*
X154502809Y-119777619D01*
X155693285Y-120682380D02*
X155693285Y-119682380D01*
X156074238Y-119682380D01*
X156169476Y-119730000D01*
X156217095Y-119777619D01*
X156264714Y-119872857D01*
X156264714Y-120015714D01*
X156217095Y-120110952D01*
X156169476Y-120158571D01*
X156074238Y-120206190D01*
X155693285Y-120206190D01*
X156883761Y-119682380D02*
X157074238Y-119682380D01*
X157169476Y-119730000D01*
X157264714Y-119825238D01*
X157312333Y-120015714D01*
X157312333Y-120349047D01*
X157264714Y-120539523D01*
X157169476Y-120634761D01*
X157074238Y-120682380D01*
X156883761Y-120682380D01*
X156788523Y-120634761D01*
X156693285Y-120539523D01*
X156645666Y-120349047D01*
X156645666Y-120015714D01*
X156693285Y-119825238D01*
X156788523Y-119730000D01*
X156883761Y-119682380D01*
X157645666Y-119682380D02*
X157883761Y-120682380D01*
X158074238Y-119968095D01*
X158264714Y-120682380D01*
X158502809Y-119682380D01*
X158883761Y-120158571D02*
X159217095Y-120158571D01*
X159359952Y-120682380D02*
X158883761Y-120682380D01*
X158883761Y-119682380D01*
X159359952Y-119682380D01*
X160359952Y-120682380D02*
X160026619Y-120206190D01*
X159788523Y-120682380D02*
X159788523Y-119682380D01*
X160169476Y-119682380D01*
X160264714Y-119730000D01*
X160312333Y-119777619D01*
X160359952Y-119872857D01*
X160359952Y-120015714D01*
X160312333Y-120110952D01*
X160264714Y-120158571D01*
X160169476Y-120206190D01*
X159788523Y-120206190D01*
X161550428Y-120682380D02*
X161550428Y-119682380D01*
X162026619Y-120682380D02*
X162026619Y-119682380D01*
X162598047Y-120682380D01*
X162598047Y-119682380D01*
X158845666Y-122232380D02*
X158845666Y-122946666D01*
X158798047Y-123089523D01*
X158702809Y-123184761D01*
X158559952Y-123232380D01*
X158464714Y-123232380D01*
X159226619Y-122232380D02*
X159845666Y-122232380D01*
X159512333Y-122613333D01*
X159655190Y-122613333D01*
X159750428Y-122660952D01*
X159798047Y-122708571D01*
X159845666Y-122803809D01*
X159845666Y-123041904D01*
X159798047Y-123137142D01*
X159750428Y-123184761D01*
X159655190Y-123232380D01*
X159369476Y-123232380D01*
X159274238Y-123184761D01*
X159226619Y-123137142D01*
%TO.C,J17*%
X229545666Y-40562380D02*
X229545666Y-39562380D01*
X229783761Y-39562380D01*
X229926619Y-39610000D01*
X230021857Y-39705238D01*
X230069476Y-39800476D01*
X230117095Y-39990952D01*
X230117095Y-40133809D01*
X230069476Y-40324285D01*
X230021857Y-40419523D01*
X229926619Y-40514761D01*
X229783761Y-40562380D01*
X229545666Y-40562380D01*
X230545666Y-39562380D02*
X230545666Y-40371904D01*
X230593285Y-40467142D01*
X230640904Y-40514761D01*
X230736142Y-40562380D01*
X230926619Y-40562380D01*
X231021857Y-40514761D01*
X231069476Y-40467142D01*
X231117095Y-40371904D01*
X231117095Y-39562380D01*
X231450428Y-39562380D02*
X232021857Y-39562380D01*
X231736142Y-40562380D02*
X231736142Y-39562380D01*
X233117095Y-39562380D02*
X233117095Y-40371904D01*
X233164714Y-40467142D01*
X233212333Y-40514761D01*
X233307571Y-40562380D01*
X233498047Y-40562380D01*
X233593285Y-40514761D01*
X233640904Y-40467142D01*
X233688523Y-40371904D01*
X233688523Y-39562380D01*
X234117095Y-40514761D02*
X234259952Y-40562380D01*
X234498047Y-40562380D01*
X234593285Y-40514761D01*
X234640904Y-40467142D01*
X234688523Y-40371904D01*
X234688523Y-40276666D01*
X234640904Y-40181428D01*
X234593285Y-40133809D01*
X234498047Y-40086190D01*
X234307571Y-40038571D01*
X234212333Y-39990952D01*
X234164714Y-39943333D01*
X234117095Y-39848095D01*
X234117095Y-39752857D01*
X234164714Y-39657619D01*
X234212333Y-39610000D01*
X234307571Y-39562380D01*
X234545666Y-39562380D01*
X234688523Y-39610000D01*
X235450428Y-40038571D02*
X235593285Y-40086190D01*
X235640904Y-40133809D01*
X235688523Y-40229047D01*
X235688523Y-40371904D01*
X235640904Y-40467142D01*
X235593285Y-40514761D01*
X235498047Y-40562380D01*
X235117095Y-40562380D01*
X235117095Y-39562380D01*
X235450428Y-39562380D01*
X235545666Y-39610000D01*
X235593285Y-39657619D01*
X235640904Y-39752857D01*
X235640904Y-39848095D01*
X235593285Y-39943333D01*
X235545666Y-39990952D01*
X235450428Y-40038571D01*
X235117095Y-40038571D01*
X236879000Y-40562380D02*
X236879000Y-39562380D01*
X237259952Y-39562380D01*
X237355190Y-39610000D01*
X237402809Y-39657619D01*
X237450428Y-39752857D01*
X237450428Y-39895714D01*
X237402809Y-39990952D01*
X237355190Y-40038571D01*
X237259952Y-40086190D01*
X236879000Y-40086190D01*
X238069476Y-39562380D02*
X238259952Y-39562380D01*
X238355190Y-39610000D01*
X238450428Y-39705238D01*
X238498047Y-39895714D01*
X238498047Y-40229047D01*
X238450428Y-40419523D01*
X238355190Y-40514761D01*
X238259952Y-40562380D01*
X238069476Y-40562380D01*
X237974238Y-40514761D01*
X237879000Y-40419523D01*
X237831380Y-40229047D01*
X237831380Y-39895714D01*
X237879000Y-39705238D01*
X237974238Y-39610000D01*
X238069476Y-39562380D01*
X239498047Y-40562380D02*
X239164714Y-40086190D01*
X238926619Y-40562380D02*
X238926619Y-39562380D01*
X239307571Y-39562380D01*
X239402809Y-39610000D01*
X239450428Y-39657619D01*
X239498047Y-39752857D01*
X239498047Y-39895714D01*
X239450428Y-39990952D01*
X239402809Y-40038571D01*
X239307571Y-40086190D01*
X238926619Y-40086190D01*
X239783761Y-39562380D02*
X240355190Y-39562380D01*
X240069476Y-40562380D02*
X240069476Y-39562380D01*
X234069476Y-50362380D02*
X234069476Y-51076666D01*
X234021857Y-51219523D01*
X233926619Y-51314761D01*
X233783761Y-51362380D01*
X233688523Y-51362380D01*
X235069476Y-51362380D02*
X234498047Y-51362380D01*
X234783761Y-51362380D02*
X234783761Y-50362380D01*
X234688523Y-50505238D01*
X234593285Y-50600476D01*
X234498047Y-50648095D01*
X235402809Y-50362380D02*
X236069476Y-50362380D01*
X235640904Y-51362380D01*
%TO.C,JP1*%
X177665666Y-131830380D02*
X178284714Y-131830380D01*
X177951380Y-132211333D01*
X178094238Y-132211333D01*
X178189476Y-132258952D01*
X178237095Y-132306571D01*
X178284714Y-132401809D01*
X178284714Y-132639904D01*
X178237095Y-132735142D01*
X178189476Y-132782761D01*
X178094238Y-132830380D01*
X177808523Y-132830380D01*
X177713285Y-132782761D01*
X177665666Y-132735142D01*
X178713285Y-132735142D02*
X178760904Y-132782761D01*
X178713285Y-132830380D01*
X178665666Y-132782761D01*
X178713285Y-132735142D01*
X178713285Y-132830380D01*
X179094238Y-131830380D02*
X179713285Y-131830380D01*
X179379952Y-132211333D01*
X179522809Y-132211333D01*
X179618047Y-132258952D01*
X179665666Y-132306571D01*
X179713285Y-132401809D01*
X179713285Y-132639904D01*
X179665666Y-132735142D01*
X179618047Y-132782761D01*
X179522809Y-132830380D01*
X179237095Y-132830380D01*
X179141857Y-132782761D01*
X179094238Y-132735142D01*
X179999000Y-131830380D02*
X180332333Y-132830380D01*
X180665666Y-131830380D01*
X181713285Y-132782761D02*
X181856142Y-132830380D01*
X182094238Y-132830380D01*
X182189476Y-132782761D01*
X182237095Y-132735142D01*
X182284714Y-132639904D01*
X182284714Y-132544666D01*
X182237095Y-132449428D01*
X182189476Y-132401809D01*
X182094238Y-132354190D01*
X181903761Y-132306571D01*
X181808523Y-132258952D01*
X181760904Y-132211333D01*
X181713285Y-132116095D01*
X181713285Y-132020857D01*
X181760904Y-131925619D01*
X181808523Y-131878000D01*
X181903761Y-131830380D01*
X182141857Y-131830380D01*
X182284714Y-131878000D01*
X182903761Y-131830380D02*
X183094238Y-131830380D01*
X183189476Y-131878000D01*
X183284714Y-131973238D01*
X183332333Y-132163714D01*
X183332333Y-132497047D01*
X183284714Y-132687523D01*
X183189476Y-132782761D01*
X183094238Y-132830380D01*
X182903761Y-132830380D01*
X182808523Y-132782761D01*
X182713285Y-132687523D01*
X182665666Y-132497047D01*
X182665666Y-132163714D01*
X182713285Y-131973238D01*
X182808523Y-131878000D01*
X182903761Y-131830380D01*
X183760904Y-131830380D02*
X183760904Y-132639904D01*
X183808523Y-132735142D01*
X183856142Y-132782761D01*
X183951380Y-132830380D01*
X184141857Y-132830380D01*
X184237095Y-132782761D01*
X184284714Y-132735142D01*
X184332333Y-132639904D01*
X184332333Y-131830380D01*
X185379952Y-132830380D02*
X185046619Y-132354190D01*
X184808523Y-132830380D02*
X184808523Y-131830380D01*
X185189476Y-131830380D01*
X185284714Y-131878000D01*
X185332333Y-131925619D01*
X185379952Y-132020857D01*
X185379952Y-132163714D01*
X185332333Y-132258952D01*
X185284714Y-132306571D01*
X185189476Y-132354190D01*
X184808523Y-132354190D01*
X186379952Y-132735142D02*
X186332333Y-132782761D01*
X186189476Y-132830380D01*
X186094238Y-132830380D01*
X185951380Y-132782761D01*
X185856142Y-132687523D01*
X185808523Y-132592285D01*
X185760904Y-132401809D01*
X185760904Y-132258952D01*
X185808523Y-132068476D01*
X185856142Y-131973238D01*
X185951380Y-131878000D01*
X186094238Y-131830380D01*
X186189476Y-131830380D01*
X186332333Y-131878000D01*
X186379952Y-131925619D01*
X186808523Y-132306571D02*
X187141857Y-132306571D01*
X187284714Y-132830380D02*
X186808523Y-132830380D01*
X186808523Y-131830380D01*
X187284714Y-131830380D01*
X181951380Y-128341333D02*
X182665666Y-128341333D01*
X182808523Y-128388952D01*
X182903761Y-128484190D01*
X182951380Y-128627047D01*
X182951380Y-128722285D01*
X182951380Y-127865142D02*
X181951380Y-127865142D01*
X181951380Y-127484190D01*
X181999000Y-127388952D01*
X182046619Y-127341333D01*
X182141857Y-127293714D01*
X182284714Y-127293714D01*
X182379952Y-127341333D01*
X182427571Y-127388952D01*
X182475190Y-127484190D01*
X182475190Y-127865142D01*
X182951380Y-126341333D02*
X182951380Y-126912761D01*
X182951380Y-126627047D02*
X181951380Y-126627047D01*
X182094238Y-126722285D01*
X182189476Y-126817523D01*
X182237095Y-126912761D01*
%TO.C,JP4*%
X163156142Y-96873571D02*
X162822809Y-96873571D01*
X162822809Y-97397380D02*
X162822809Y-96397380D01*
X163299000Y-96397380D01*
X163870428Y-96397380D02*
X164060904Y-96397380D01*
X164156142Y-96445000D01*
X164251380Y-96540238D01*
X164299000Y-96730714D01*
X164299000Y-97064047D01*
X164251380Y-97254523D01*
X164156142Y-97349761D01*
X164060904Y-97397380D01*
X163870428Y-97397380D01*
X163775190Y-97349761D01*
X163679952Y-97254523D01*
X163632333Y-97064047D01*
X163632333Y-96730714D01*
X163679952Y-96540238D01*
X163775190Y-96445000D01*
X163870428Y-96397380D01*
X165299000Y-97397380D02*
X164965666Y-96921190D01*
X164727571Y-97397380D02*
X164727571Y-96397380D01*
X165108523Y-96397380D01*
X165203761Y-96445000D01*
X165251380Y-96492619D01*
X165299000Y-96587857D01*
X165299000Y-96730714D01*
X165251380Y-96825952D01*
X165203761Y-96873571D01*
X165108523Y-96921190D01*
X164727571Y-96921190D01*
X166299000Y-97302142D02*
X166251380Y-97349761D01*
X166108523Y-97397380D01*
X166013285Y-97397380D01*
X165870428Y-97349761D01*
X165775190Y-97254523D01*
X165727571Y-97159285D01*
X165679952Y-96968809D01*
X165679952Y-96825952D01*
X165727571Y-96635476D01*
X165775190Y-96540238D01*
X165870428Y-96445000D01*
X166013285Y-96397380D01*
X166108523Y-96397380D01*
X166251380Y-96445000D01*
X166299000Y-96492619D01*
X166727571Y-96873571D02*
X167060904Y-96873571D01*
X167203761Y-97397380D02*
X166727571Y-97397380D01*
X166727571Y-96397380D01*
X167203761Y-96397380D01*
X168394238Y-96397380D02*
X168394238Y-97206904D01*
X168441857Y-97302142D01*
X168489476Y-97349761D01*
X168584714Y-97397380D01*
X168775190Y-97397380D01*
X168870428Y-97349761D01*
X168918047Y-97302142D01*
X168965666Y-97206904D01*
X168965666Y-96397380D01*
X169394238Y-97349761D02*
X169537095Y-97397380D01*
X169775190Y-97397380D01*
X169870428Y-97349761D01*
X169918047Y-97302142D01*
X169965666Y-97206904D01*
X169965666Y-97111666D01*
X169918047Y-97016428D01*
X169870428Y-96968809D01*
X169775190Y-96921190D01*
X169584714Y-96873571D01*
X169489476Y-96825952D01*
X169441857Y-96778333D01*
X169394238Y-96683095D01*
X169394238Y-96587857D01*
X169441857Y-96492619D01*
X169489476Y-96445000D01*
X169584714Y-96397380D01*
X169822809Y-96397380D01*
X169965666Y-96445000D01*
X170727571Y-96873571D02*
X170870428Y-96921190D01*
X170918047Y-96968809D01*
X170965666Y-97064047D01*
X170965666Y-97206904D01*
X170918047Y-97302142D01*
X170870428Y-97349761D01*
X170775190Y-97397380D01*
X170394238Y-97397380D01*
X170394238Y-96397380D01*
X170727571Y-96397380D01*
X170822809Y-96445000D01*
X170870428Y-96492619D01*
X170918047Y-96587857D01*
X170918047Y-96683095D01*
X170870428Y-96778333D01*
X170822809Y-96825952D01*
X170727571Y-96873571D01*
X170394238Y-96873571D01*
X172156142Y-97397380D02*
X172156142Y-96397380D01*
X172537095Y-96397380D01*
X172632333Y-96445000D01*
X172679952Y-96492619D01*
X172727571Y-96587857D01*
X172727571Y-96730714D01*
X172679952Y-96825952D01*
X172632333Y-96873571D01*
X172537095Y-96921190D01*
X172156142Y-96921190D01*
X173346619Y-96397380D02*
X173537095Y-96397380D01*
X173632333Y-96445000D01*
X173727571Y-96540238D01*
X173775190Y-96730714D01*
X173775190Y-97064047D01*
X173727571Y-97254523D01*
X173632333Y-97349761D01*
X173537095Y-97397380D01*
X173346619Y-97397380D01*
X173251380Y-97349761D01*
X173156142Y-97254523D01*
X173108523Y-97064047D01*
X173108523Y-96730714D01*
X173156142Y-96540238D01*
X173251380Y-96445000D01*
X173346619Y-96397380D01*
X174108523Y-96397380D02*
X174346619Y-97397380D01*
X174537095Y-96683095D01*
X174727571Y-97397380D01*
X174965666Y-96397380D01*
X175346619Y-96873571D02*
X175679952Y-96873571D01*
X175822809Y-97397380D02*
X175346619Y-97397380D01*
X175346619Y-96397380D01*
X175822809Y-96397380D01*
X176822809Y-97397380D02*
X176489476Y-96921190D01*
X176251380Y-97397380D02*
X176251380Y-96397380D01*
X176632333Y-96397380D01*
X176727571Y-96445000D01*
X176775190Y-96492619D01*
X176822809Y-96587857D01*
X176822809Y-96730714D01*
X176775190Y-96825952D01*
X176727571Y-96873571D01*
X176632333Y-96921190D01*
X176251380Y-96921190D01*
X169251380Y-94178333D02*
X169965666Y-94178333D01*
X170108523Y-94225952D01*
X170203761Y-94321190D01*
X170251380Y-94464047D01*
X170251380Y-94559285D01*
X170251380Y-93702142D02*
X169251380Y-93702142D01*
X169251380Y-93321190D01*
X169299000Y-93225952D01*
X169346619Y-93178333D01*
X169441857Y-93130714D01*
X169584714Y-93130714D01*
X169679952Y-93178333D01*
X169727571Y-93225952D01*
X169775190Y-93321190D01*
X169775190Y-93702142D01*
X169584714Y-92273571D02*
X170251380Y-92273571D01*
X169203761Y-92511666D02*
X169918047Y-92749761D01*
X169918047Y-92130714D01*
%TO.C,J5*%
X167513523Y-128782380D02*
X167846857Y-129782380D01*
X168180190Y-128782380D01*
X169084952Y-129687142D02*
X169037333Y-129734761D01*
X168894476Y-129782380D01*
X168799238Y-129782380D01*
X168656380Y-129734761D01*
X168561142Y-129639523D01*
X168513523Y-129544285D01*
X168465904Y-129353809D01*
X168465904Y-129210952D01*
X168513523Y-129020476D01*
X168561142Y-128925238D01*
X168656380Y-128830000D01*
X168799238Y-128782380D01*
X168894476Y-128782380D01*
X169037333Y-128830000D01*
X169084952Y-128877619D01*
X170084952Y-129687142D02*
X170037333Y-129734761D01*
X169894476Y-129782380D01*
X169799238Y-129782380D01*
X169656380Y-129734761D01*
X169561142Y-129639523D01*
X169513523Y-129544285D01*
X169465904Y-129353809D01*
X169465904Y-129210952D01*
X169513523Y-129020476D01*
X169561142Y-128925238D01*
X169656380Y-128830000D01*
X169799238Y-128782380D01*
X169894476Y-128782380D01*
X170037333Y-128830000D01*
X170084952Y-128877619D01*
X171275428Y-129782380D02*
X171275428Y-128782380D01*
X171656380Y-128782380D01*
X171751619Y-128830000D01*
X171799238Y-128877619D01*
X171846857Y-128972857D01*
X171846857Y-129115714D01*
X171799238Y-129210952D01*
X171751619Y-129258571D01*
X171656380Y-129306190D01*
X171275428Y-129306190D01*
X172846857Y-129782380D02*
X172513523Y-129306190D01*
X172275428Y-129782380D02*
X172275428Y-128782380D01*
X172656380Y-128782380D01*
X172751619Y-128830000D01*
X172799238Y-128877619D01*
X172846857Y-128972857D01*
X172846857Y-129115714D01*
X172799238Y-129210952D01*
X172751619Y-129258571D01*
X172656380Y-129306190D01*
X172275428Y-129306190D01*
X173465904Y-128782380D02*
X173656380Y-128782380D01*
X173751619Y-128830000D01*
X173846857Y-128925238D01*
X173894476Y-129115714D01*
X173894476Y-129449047D01*
X173846857Y-129639523D01*
X173751619Y-129734761D01*
X173656380Y-129782380D01*
X173465904Y-129782380D01*
X173370666Y-129734761D01*
X173275428Y-129639523D01*
X173227809Y-129449047D01*
X173227809Y-129115714D01*
X173275428Y-128925238D01*
X173370666Y-128830000D01*
X173465904Y-128782380D01*
X174656380Y-129258571D02*
X174799238Y-129306190D01*
X174846857Y-129353809D01*
X174894476Y-129449047D01*
X174894476Y-129591904D01*
X174846857Y-129687142D01*
X174799238Y-129734761D01*
X174704000Y-129782380D01*
X174323047Y-129782380D01*
X174323047Y-128782380D01*
X174656380Y-128782380D01*
X174751619Y-128830000D01*
X174799238Y-128877619D01*
X174846857Y-128972857D01*
X174846857Y-129068095D01*
X174799238Y-129163333D01*
X174751619Y-129210952D01*
X174656380Y-129258571D01*
X174323047Y-129258571D01*
X175323047Y-129258571D02*
X175656380Y-129258571D01*
X175799238Y-129782380D02*
X175323047Y-129782380D01*
X175323047Y-128782380D01*
X175799238Y-128782380D01*
X171156380Y-126063333D02*
X171870666Y-126063333D01*
X172013523Y-126110952D01*
X172108761Y-126206190D01*
X172156380Y-126349047D01*
X172156380Y-126444285D01*
X171156380Y-125110952D02*
X171156380Y-125587142D01*
X171632571Y-125634761D01*
X171584952Y-125587142D01*
X171537333Y-125491904D01*
X171537333Y-125253809D01*
X171584952Y-125158571D01*
X171632571Y-125110952D01*
X171727809Y-125063333D01*
X171965904Y-125063333D01*
X172061142Y-125110952D01*
X172108761Y-125158571D01*
X172156380Y-125253809D01*
X172156380Y-125491904D01*
X172108761Y-125587142D01*
X172061142Y-125634761D01*
%TO.C,H7*%
X244586619Y-147162380D02*
X245205666Y-147162380D01*
X244872333Y-147543333D01*
X245015190Y-147543333D01*
X245110428Y-147590952D01*
X245158047Y-147638571D01*
X245205666Y-147733809D01*
X245205666Y-147971904D01*
X245158047Y-148067142D01*
X245110428Y-148114761D01*
X245015190Y-148162380D01*
X244729476Y-148162380D01*
X244634238Y-148114761D01*
X244586619Y-148067142D01*
X245634238Y-148162380D02*
X245634238Y-147495714D01*
X245634238Y-147590952D02*
X245681857Y-147543333D01*
X245777095Y-147495714D01*
X245919952Y-147495714D01*
X246015190Y-147543333D01*
X246062809Y-147638571D01*
X246062809Y-148162380D01*
X246062809Y-147638571D02*
X246110428Y-147543333D01*
X246205666Y-147495714D01*
X246348523Y-147495714D01*
X246443761Y-147543333D01*
X246491380Y-147638571D01*
X246491380Y-148162380D01*
X246967571Y-148162380D02*
X246967571Y-147495714D01*
X246967571Y-147590952D02*
X247015190Y-147543333D01*
X247110428Y-147495714D01*
X247253285Y-147495714D01*
X247348523Y-147543333D01*
X247396142Y-147638571D01*
X247396142Y-148162380D01*
X247396142Y-147638571D02*
X247443761Y-147543333D01*
X247539000Y-147495714D01*
X247681857Y-147495714D01*
X247777095Y-147543333D01*
X247824714Y-147638571D01*
X247824714Y-148162380D01*
X249062809Y-148162380D02*
X249062809Y-147162380D01*
X249062809Y-147638571D02*
X249634238Y-147638571D01*
X249634238Y-148162380D02*
X249634238Y-147162380D01*
X250300904Y-147162380D02*
X250491380Y-147162380D01*
X250586619Y-147210000D01*
X250681857Y-147305238D01*
X250729476Y-147495714D01*
X250729476Y-147829047D01*
X250681857Y-148019523D01*
X250586619Y-148114761D01*
X250491380Y-148162380D01*
X250300904Y-148162380D01*
X250205666Y-148114761D01*
X250110428Y-148019523D01*
X250062809Y-147829047D01*
X250062809Y-147495714D01*
X250110428Y-147305238D01*
X250205666Y-147210000D01*
X250300904Y-147162380D01*
X251634238Y-148162380D02*
X251158047Y-148162380D01*
X251158047Y-147162380D01*
X251967571Y-147638571D02*
X252300904Y-147638571D01*
X252443761Y-148162380D02*
X251967571Y-148162380D01*
X251967571Y-147162380D01*
X252443761Y-147162380D01*
X248077095Y-143962380D02*
X248077095Y-142962380D01*
X248077095Y-143438571D02*
X248648523Y-143438571D01*
X248648523Y-143962380D02*
X248648523Y-142962380D01*
X249029476Y-142962380D02*
X249696142Y-142962380D01*
X249267571Y-143962380D01*
%TO.C,JP5*%
X188381380Y-74648571D02*
X188048047Y-74648571D01*
X188048047Y-75172380D02*
X188048047Y-74172380D01*
X188524238Y-74172380D01*
X189095666Y-74172380D02*
X189286142Y-74172380D01*
X189381380Y-74220000D01*
X189476619Y-74315238D01*
X189524238Y-74505714D01*
X189524238Y-74839047D01*
X189476619Y-75029523D01*
X189381380Y-75124761D01*
X189286142Y-75172380D01*
X189095666Y-75172380D01*
X189000428Y-75124761D01*
X188905190Y-75029523D01*
X188857571Y-74839047D01*
X188857571Y-74505714D01*
X188905190Y-74315238D01*
X189000428Y-74220000D01*
X189095666Y-74172380D01*
X190524238Y-75172380D02*
X190190904Y-74696190D01*
X189952809Y-75172380D02*
X189952809Y-74172380D01*
X190333761Y-74172380D01*
X190429000Y-74220000D01*
X190476619Y-74267619D01*
X190524238Y-74362857D01*
X190524238Y-74505714D01*
X190476619Y-74600952D01*
X190429000Y-74648571D01*
X190333761Y-74696190D01*
X189952809Y-74696190D01*
X191524238Y-75077142D02*
X191476619Y-75124761D01*
X191333761Y-75172380D01*
X191238523Y-75172380D01*
X191095666Y-75124761D01*
X191000428Y-75029523D01*
X190952809Y-74934285D01*
X190905190Y-74743809D01*
X190905190Y-74600952D01*
X190952809Y-74410476D01*
X191000428Y-74315238D01*
X191095666Y-74220000D01*
X191238523Y-74172380D01*
X191333761Y-74172380D01*
X191476619Y-74220000D01*
X191524238Y-74267619D01*
X191952809Y-74648571D02*
X192286142Y-74648571D01*
X192429000Y-75172380D02*
X191952809Y-75172380D01*
X191952809Y-74172380D01*
X192429000Y-74172380D01*
X193524238Y-74172380D02*
X194143285Y-74172380D01*
X193809952Y-74553333D01*
X193952809Y-74553333D01*
X194048047Y-74600952D01*
X194095666Y-74648571D01*
X194143285Y-74743809D01*
X194143285Y-74981904D01*
X194095666Y-75077142D01*
X194048047Y-75124761D01*
X193952809Y-75172380D01*
X193667095Y-75172380D01*
X193571857Y-75124761D01*
X193524238Y-75077142D01*
X194429000Y-74172380D02*
X194762333Y-75172380D01*
X195095666Y-74172380D01*
X195333761Y-74172380D02*
X195952809Y-74172380D01*
X195619476Y-74553333D01*
X195762333Y-74553333D01*
X195857571Y-74600952D01*
X195905190Y-74648571D01*
X195952809Y-74743809D01*
X195952809Y-74981904D01*
X195905190Y-75077142D01*
X195857571Y-75124761D01*
X195762333Y-75172380D01*
X195476619Y-75172380D01*
X195381380Y-75124761D01*
X195333761Y-75077142D01*
X197143285Y-75172380D02*
X197143285Y-74172380D01*
X197476619Y-74886666D01*
X197809952Y-74172380D01*
X197809952Y-75172380D01*
X198286142Y-74172380D02*
X198286142Y-74981904D01*
X198333761Y-75077142D01*
X198381380Y-75124761D01*
X198476619Y-75172380D01*
X198667095Y-75172380D01*
X198762333Y-75124761D01*
X198809952Y-75077142D01*
X198857571Y-74981904D01*
X198857571Y-74172380D01*
X199238523Y-74172380D02*
X199905190Y-75172380D01*
X199905190Y-74172380D02*
X199238523Y-75172380D01*
X193381380Y-71953333D02*
X194095666Y-71953333D01*
X194238523Y-72000952D01*
X194333761Y-72096190D01*
X194381380Y-72239047D01*
X194381380Y-72334285D01*
X194381380Y-71477142D02*
X193381380Y-71477142D01*
X193381380Y-71096190D01*
X193429000Y-71000952D01*
X193476619Y-70953333D01*
X193571857Y-70905714D01*
X193714714Y-70905714D01*
X193809952Y-70953333D01*
X193857571Y-71000952D01*
X193905190Y-71096190D01*
X193905190Y-71477142D01*
X193381380Y-70000952D02*
X193381380Y-70477142D01*
X193857571Y-70524761D01*
X193809952Y-70477142D01*
X193762333Y-70381904D01*
X193762333Y-70143809D01*
X193809952Y-70048571D01*
X193857571Y-70000952D01*
X193952809Y-69953333D01*
X194190904Y-69953333D01*
X194286142Y-70000952D01*
X194333761Y-70048571D01*
X194381380Y-70143809D01*
X194381380Y-70381904D01*
X194333761Y-70477142D01*
X194286142Y-70524761D01*
%TO.C,JP8*%
X183000428Y-67552380D02*
X183000428Y-66552380D01*
X183238523Y-66552380D01*
X183381380Y-66600000D01*
X183476619Y-66695238D01*
X183524238Y-66790476D01*
X183571857Y-66980952D01*
X183571857Y-67123809D01*
X183524238Y-67314285D01*
X183476619Y-67409523D01*
X183381380Y-67504761D01*
X183238523Y-67552380D01*
X183000428Y-67552380D01*
X184000428Y-66552380D02*
X184000428Y-67361904D01*
X184048047Y-67457142D01*
X184095666Y-67504761D01*
X184190904Y-67552380D01*
X184381380Y-67552380D01*
X184476619Y-67504761D01*
X184524238Y-67457142D01*
X184571857Y-67361904D01*
X184571857Y-66552380D01*
X184905190Y-66552380D02*
X185476619Y-66552380D01*
X185190904Y-67552380D02*
X185190904Y-66552380D01*
X186524238Y-67504761D02*
X186667095Y-67552380D01*
X186905190Y-67552380D01*
X187000428Y-67504761D01*
X187048047Y-67457142D01*
X187095666Y-67361904D01*
X187095666Y-67266666D01*
X187048047Y-67171428D01*
X187000428Y-67123809D01*
X186905190Y-67076190D01*
X186714714Y-67028571D01*
X186619476Y-66980952D01*
X186571857Y-66933333D01*
X186524238Y-66838095D01*
X186524238Y-66742857D01*
X186571857Y-66647619D01*
X186619476Y-66600000D01*
X186714714Y-66552380D01*
X186952809Y-66552380D01*
X187095666Y-66600000D01*
X187524238Y-67552380D02*
X187524238Y-66552380D01*
X187905190Y-66552380D01*
X188000428Y-66600000D01*
X188048047Y-66647619D01*
X188095666Y-66742857D01*
X188095666Y-66885714D01*
X188048047Y-66980952D01*
X188000428Y-67028571D01*
X187905190Y-67076190D01*
X187524238Y-67076190D01*
X188524238Y-67552380D02*
X188524238Y-66552380D01*
X190095666Y-67028571D02*
X189762333Y-67028571D01*
X189762333Y-67552380D02*
X189762333Y-66552380D01*
X190238523Y-66552380D01*
X191095666Y-67552380D02*
X190619476Y-67552380D01*
X190619476Y-66552380D01*
X191381380Y-67266666D02*
X191857571Y-67266666D01*
X191286142Y-67552380D02*
X191619476Y-66552380D01*
X191952809Y-67552380D01*
X192238523Y-67504761D02*
X192381380Y-67552380D01*
X192619476Y-67552380D01*
X192714714Y-67504761D01*
X192762333Y-67457142D01*
X192809952Y-67361904D01*
X192809952Y-67266666D01*
X192762333Y-67171428D01*
X192714714Y-67123809D01*
X192619476Y-67076190D01*
X192429000Y-67028571D01*
X192333761Y-66980952D01*
X192286142Y-66933333D01*
X192238523Y-66838095D01*
X192238523Y-66742857D01*
X192286142Y-66647619D01*
X192333761Y-66600000D01*
X192429000Y-66552380D01*
X192667095Y-66552380D01*
X192809952Y-66600000D01*
X193238523Y-67552380D02*
X193238523Y-66552380D01*
X193238523Y-67028571D02*
X193809952Y-67028571D01*
X193809952Y-67552380D02*
X193809952Y-66552380D01*
X195048047Y-67552380D02*
X195048047Y-66552380D01*
X195429000Y-66552380D01*
X195524238Y-66600000D01*
X195571857Y-66647619D01*
X195619476Y-66742857D01*
X195619476Y-66885714D01*
X195571857Y-66980952D01*
X195524238Y-67028571D01*
X195429000Y-67076190D01*
X195048047Y-67076190D01*
X195952809Y-66552380D02*
X196190904Y-67552380D01*
X196381380Y-66838095D01*
X196571857Y-67552380D01*
X196809952Y-66552380D01*
X197905190Y-67504761D02*
X198048047Y-67552380D01*
X198286142Y-67552380D01*
X198381380Y-67504761D01*
X198429000Y-67457142D01*
X198476619Y-67361904D01*
X198476619Y-67266666D01*
X198429000Y-67171428D01*
X198381380Y-67123809D01*
X198286142Y-67076190D01*
X198095666Y-67028571D01*
X198000428Y-66980952D01*
X197952809Y-66933333D01*
X197905190Y-66838095D01*
X197905190Y-66742857D01*
X197952809Y-66647619D01*
X198000428Y-66600000D01*
X198095666Y-66552380D01*
X198333761Y-66552380D01*
X198476619Y-66600000D01*
X198905190Y-67028571D02*
X199238523Y-67028571D01*
X199381380Y-67552380D02*
X198905190Y-67552380D01*
X198905190Y-66552380D01*
X199381380Y-66552380D01*
X200286142Y-67552380D02*
X199809952Y-67552380D01*
X199809952Y-66552380D01*
X200619476Y-67028571D02*
X200952809Y-67028571D01*
X201095666Y-67552380D02*
X200619476Y-67552380D01*
X200619476Y-66552380D01*
X201095666Y-66552380D01*
X202095666Y-67457142D02*
X202048047Y-67504761D01*
X201905190Y-67552380D01*
X201809952Y-67552380D01*
X201667095Y-67504761D01*
X201571857Y-67409523D01*
X201524238Y-67314285D01*
X201476619Y-67123809D01*
X201476619Y-66980952D01*
X201524238Y-66790476D01*
X201571857Y-66695238D01*
X201667095Y-66600000D01*
X201809952Y-66552380D01*
X201905190Y-66552380D01*
X202048047Y-66600000D01*
X202095666Y-66647619D01*
X202381380Y-66552380D02*
X202952809Y-66552380D01*
X202667095Y-67552380D02*
X202667095Y-66552380D01*
X203476619Y-66552380D02*
X203667095Y-66552380D01*
X203762333Y-66600000D01*
X203857571Y-66695238D01*
X203905190Y-66885714D01*
X203905190Y-67219047D01*
X203857571Y-67409523D01*
X203762333Y-67504761D01*
X203667095Y-67552380D01*
X203476619Y-67552380D01*
X203381380Y-67504761D01*
X203286142Y-67409523D01*
X203238523Y-67219047D01*
X203238523Y-66885714D01*
X203286142Y-66695238D01*
X203381380Y-66600000D01*
X203476619Y-66552380D01*
X204905190Y-67552380D02*
X204571857Y-67076190D01*
X204333761Y-67552380D02*
X204333761Y-66552380D01*
X204714714Y-66552380D01*
X204809952Y-66600000D01*
X204857571Y-66647619D01*
X204905190Y-66742857D01*
X204905190Y-66885714D01*
X204857571Y-66980952D01*
X204809952Y-67028571D01*
X204714714Y-67076190D01*
X204333761Y-67076190D01*
X193381380Y-63063333D02*
X194095666Y-63063333D01*
X194238523Y-63110952D01*
X194333761Y-63206190D01*
X194381380Y-63349047D01*
X194381380Y-63444285D01*
X194381380Y-62587142D02*
X193381380Y-62587142D01*
X193381380Y-62206190D01*
X193429000Y-62110952D01*
X193476619Y-62063333D01*
X193571857Y-62015714D01*
X193714714Y-62015714D01*
X193809952Y-62063333D01*
X193857571Y-62110952D01*
X193905190Y-62206190D01*
X193905190Y-62587142D01*
X193809952Y-61444285D02*
X193762333Y-61539523D01*
X193714714Y-61587142D01*
X193619476Y-61634761D01*
X193571857Y-61634761D01*
X193476619Y-61587142D01*
X193429000Y-61539523D01*
X193381380Y-61444285D01*
X193381380Y-61253809D01*
X193429000Y-61158571D01*
X193476619Y-61110952D01*
X193571857Y-61063333D01*
X193619476Y-61063333D01*
X193714714Y-61110952D01*
X193762333Y-61158571D01*
X193809952Y-61253809D01*
X193809952Y-61444285D01*
X193857571Y-61539523D01*
X193905190Y-61587142D01*
X194000428Y-61634761D01*
X194190904Y-61634761D01*
X194286142Y-61587142D01*
X194333761Y-61539523D01*
X194381380Y-61444285D01*
X194381380Y-61253809D01*
X194333761Y-61158571D01*
X194286142Y-61110952D01*
X194190904Y-61063333D01*
X194000428Y-61063333D01*
X193905190Y-61110952D01*
X193857571Y-61158571D01*
X193809952Y-61253809D01*
%TO.C,D5*%
X190951380Y-58816190D02*
X189951380Y-58816190D01*
X190665666Y-58482857D01*
X189951380Y-58149523D01*
X190951380Y-58149523D01*
X189951380Y-57673333D02*
X190760904Y-57673333D01*
X190856142Y-57625714D01*
X190903761Y-57578095D01*
X190951380Y-57482857D01*
X190951380Y-57292380D01*
X190903761Y-57197142D01*
X190856142Y-57149523D01*
X190760904Y-57101904D01*
X189951380Y-57101904D01*
X189951380Y-56720952D02*
X190951380Y-56054285D01*
X189951380Y-56054285D02*
X190951380Y-56720952D01*
X190951380Y-54911428D02*
X189951380Y-54911428D01*
X189951380Y-54530476D01*
X189999000Y-54435238D01*
X190046619Y-54387619D01*
X190141857Y-54340000D01*
X190284714Y-54340000D01*
X190379952Y-54387619D01*
X190427571Y-54435238D01*
X190475190Y-54530476D01*
X190475190Y-54911428D01*
X190951380Y-53340000D02*
X190475190Y-53673333D01*
X190951380Y-53911428D02*
X189951380Y-53911428D01*
X189951380Y-53530476D01*
X189999000Y-53435238D01*
X190046619Y-53387619D01*
X190141857Y-53340000D01*
X190284714Y-53340000D01*
X190379952Y-53387619D01*
X190427571Y-53435238D01*
X190475190Y-53530476D01*
X190475190Y-53911428D01*
X189951380Y-52720952D02*
X189951380Y-52530476D01*
X189999000Y-52435238D01*
X190094238Y-52340000D01*
X190284714Y-52292380D01*
X190618047Y-52292380D01*
X190808523Y-52340000D01*
X190903761Y-52435238D01*
X190951380Y-52530476D01*
X190951380Y-52720952D01*
X190903761Y-52816190D01*
X190808523Y-52911428D01*
X190618047Y-52959047D01*
X190284714Y-52959047D01*
X190094238Y-52911428D01*
X189999000Y-52816190D01*
X189951380Y-52720952D01*
X189999000Y-51340000D02*
X189951380Y-51435238D01*
X189951380Y-51578095D01*
X189999000Y-51720952D01*
X190094238Y-51816190D01*
X190189476Y-51863809D01*
X190379952Y-51911428D01*
X190522809Y-51911428D01*
X190713285Y-51863809D01*
X190808523Y-51816190D01*
X190903761Y-51720952D01*
X190951380Y-51578095D01*
X190951380Y-51482857D01*
X190903761Y-51340000D01*
X190856142Y-51292380D01*
X190522809Y-51292380D01*
X190522809Y-51482857D01*
X190951380Y-49625714D02*
X190951380Y-50101904D01*
X189951380Y-50101904D01*
X190427571Y-49292380D02*
X190427571Y-48959047D01*
X190951380Y-48816190D02*
X190951380Y-49292380D01*
X189951380Y-49292380D01*
X189951380Y-48816190D01*
X190951380Y-48387619D02*
X189951380Y-48387619D01*
X189951380Y-48149523D01*
X189999000Y-48006666D01*
X190094238Y-47911428D01*
X190189476Y-47863809D01*
X190379952Y-47816190D01*
X190522809Y-47816190D01*
X190713285Y-47863809D01*
X190808523Y-47911428D01*
X190903761Y-48006666D01*
X190951380Y-48149523D01*
X190951380Y-48387619D01*
D11*
X189075190Y-53709047D02*
X188575190Y-53709047D01*
X188575190Y-53590000D01*
X188599000Y-53518571D01*
X188646619Y-53470952D01*
X188694238Y-53447142D01*
X188789476Y-53423333D01*
X188860904Y-53423333D01*
X188956142Y-53447142D01*
X189003761Y-53470952D01*
X189051380Y-53518571D01*
X189075190Y-53590000D01*
X189075190Y-53709047D01*
X188575190Y-52970952D02*
X188575190Y-53209047D01*
X188813285Y-53232857D01*
X188789476Y-53209047D01*
X188765666Y-53161428D01*
X188765666Y-53042380D01*
X188789476Y-52994761D01*
X188813285Y-52970952D01*
X188860904Y-52947142D01*
X188979952Y-52947142D01*
X189027571Y-52970952D01*
X189051380Y-52994761D01*
X189075190Y-53042380D01*
X189075190Y-53161428D01*
X189051380Y-53209047D01*
X189027571Y-53232857D01*
D10*
%TO.C,JP6*%
X189690904Y-56868571D02*
X189357571Y-56868571D01*
X189357571Y-57392380D02*
X189357571Y-56392380D01*
X189833761Y-56392380D01*
X190405190Y-56392380D02*
X190595666Y-56392380D01*
X190690904Y-56440000D01*
X190786142Y-56535238D01*
X190833761Y-56725714D01*
X190833761Y-57059047D01*
X190786142Y-57249523D01*
X190690904Y-57344761D01*
X190595666Y-57392380D01*
X190405190Y-57392380D01*
X190309952Y-57344761D01*
X190214714Y-57249523D01*
X190167095Y-57059047D01*
X190167095Y-56725714D01*
X190214714Y-56535238D01*
X190309952Y-56440000D01*
X190405190Y-56392380D01*
X191833761Y-57392380D02*
X191500428Y-56916190D01*
X191262333Y-57392380D02*
X191262333Y-56392380D01*
X191643285Y-56392380D01*
X191738523Y-56440000D01*
X191786142Y-56487619D01*
X191833761Y-56582857D01*
X191833761Y-56725714D01*
X191786142Y-56820952D01*
X191738523Y-56868571D01*
X191643285Y-56916190D01*
X191262333Y-56916190D01*
X192833761Y-57297142D02*
X192786142Y-57344761D01*
X192643285Y-57392380D01*
X192548047Y-57392380D01*
X192405190Y-57344761D01*
X192309952Y-57249523D01*
X192262333Y-57154285D01*
X192214714Y-56963809D01*
X192214714Y-56820952D01*
X192262333Y-56630476D01*
X192309952Y-56535238D01*
X192405190Y-56440000D01*
X192548047Y-56392380D01*
X192643285Y-56392380D01*
X192786142Y-56440000D01*
X192833761Y-56487619D01*
X193262333Y-56868571D02*
X193595666Y-56868571D01*
X193738523Y-57392380D02*
X193262333Y-57392380D01*
X193262333Y-56392380D01*
X193738523Y-56392380D01*
X194929000Y-57392380D02*
X194929000Y-56392380D01*
X195309952Y-56392380D01*
X195405190Y-56440000D01*
X195452809Y-56487619D01*
X195500428Y-56582857D01*
X195500428Y-56725714D01*
X195452809Y-56820952D01*
X195405190Y-56868571D01*
X195309952Y-56916190D01*
X194929000Y-56916190D01*
X196500428Y-57392380D02*
X196167095Y-56916190D01*
X195929000Y-57392380D02*
X195929000Y-56392380D01*
X196309952Y-56392380D01*
X196405190Y-56440000D01*
X196452809Y-56487619D01*
X196500428Y-56582857D01*
X196500428Y-56725714D01*
X196452809Y-56820952D01*
X196405190Y-56868571D01*
X196309952Y-56916190D01*
X195929000Y-56916190D01*
X197119476Y-56392380D02*
X197309952Y-56392380D01*
X197405190Y-56440000D01*
X197500428Y-56535238D01*
X197548047Y-56725714D01*
X197548047Y-57059047D01*
X197500428Y-57249523D01*
X197405190Y-57344761D01*
X197309952Y-57392380D01*
X197119476Y-57392380D01*
X197024238Y-57344761D01*
X196929000Y-57249523D01*
X196881380Y-57059047D01*
X196881380Y-56725714D01*
X196929000Y-56535238D01*
X197024238Y-56440000D01*
X197119476Y-56392380D01*
X198500428Y-56440000D02*
X198405190Y-56392380D01*
X198262333Y-56392380D01*
X198119476Y-56440000D01*
X198024238Y-56535238D01*
X197976619Y-56630476D01*
X197929000Y-56820952D01*
X197929000Y-56963809D01*
X197976619Y-57154285D01*
X198024238Y-57249523D01*
X198119476Y-57344761D01*
X198262333Y-57392380D01*
X198357571Y-57392380D01*
X198500428Y-57344761D01*
X198548047Y-57297142D01*
X198548047Y-56963809D01*
X198357571Y-56963809D01*
X193381380Y-54173333D02*
X194095666Y-54173333D01*
X194238523Y-54220952D01*
X194333761Y-54316190D01*
X194381380Y-54459047D01*
X194381380Y-54554285D01*
X194381380Y-53697142D02*
X193381380Y-53697142D01*
X193381380Y-53316190D01*
X193429000Y-53220952D01*
X193476619Y-53173333D01*
X193571857Y-53125714D01*
X193714714Y-53125714D01*
X193809952Y-53173333D01*
X193857571Y-53220952D01*
X193905190Y-53316190D01*
X193905190Y-53697142D01*
X193381380Y-52268571D02*
X193381380Y-52459047D01*
X193429000Y-52554285D01*
X193476619Y-52601904D01*
X193619476Y-52697142D01*
X193809952Y-52744761D01*
X194190904Y-52744761D01*
X194286142Y-52697142D01*
X194333761Y-52649523D01*
X194381380Y-52554285D01*
X194381380Y-52363809D01*
X194333761Y-52268571D01*
X194286142Y-52220952D01*
X194190904Y-52173333D01*
X193952809Y-52173333D01*
X193857571Y-52220952D01*
X193809952Y-52268571D01*
X193762333Y-52363809D01*
X193762333Y-52554285D01*
X193809952Y-52649523D01*
X193857571Y-52697142D01*
X193952809Y-52744761D01*
%TO.C,D8*%
X187603761Y-74096190D02*
X187651380Y-73953333D01*
X187651380Y-73715238D01*
X187603761Y-73620000D01*
X187556142Y-73572380D01*
X187460904Y-73524761D01*
X187365666Y-73524761D01*
X187270428Y-73572380D01*
X187222809Y-73620000D01*
X187175190Y-73715238D01*
X187127571Y-73905714D01*
X187079952Y-74000952D01*
X187032333Y-74048571D01*
X186937095Y-74096190D01*
X186841857Y-74096190D01*
X186746619Y-74048571D01*
X186699000Y-74000952D01*
X186651380Y-73905714D01*
X186651380Y-73667619D01*
X186699000Y-73524761D01*
X187651380Y-73096190D02*
X186651380Y-73096190D01*
X186651380Y-72715238D01*
X186699000Y-72620000D01*
X186746619Y-72572380D01*
X186841857Y-72524761D01*
X186984714Y-72524761D01*
X187079952Y-72572380D01*
X187127571Y-72620000D01*
X187175190Y-72715238D01*
X187175190Y-73096190D01*
X187651380Y-72096190D02*
X186651380Y-72096190D01*
X187651380Y-70858095D02*
X186651380Y-70858095D01*
X186651380Y-70477142D01*
X186699000Y-70381904D01*
X186746619Y-70334285D01*
X186841857Y-70286666D01*
X186984714Y-70286666D01*
X187079952Y-70334285D01*
X187127571Y-70381904D01*
X187175190Y-70477142D01*
X187175190Y-70858095D01*
X186651380Y-69953333D02*
X187651380Y-69715238D01*
X186937095Y-69524761D01*
X187651380Y-69334285D01*
X186651380Y-69096190D01*
X187651380Y-68143809D02*
X187175190Y-68477142D01*
X187651380Y-68715238D02*
X186651380Y-68715238D01*
X186651380Y-68334285D01*
X186699000Y-68239047D01*
X186746619Y-68191428D01*
X186841857Y-68143809D01*
X186984714Y-68143809D01*
X187079952Y-68191428D01*
X187127571Y-68239047D01*
X187175190Y-68334285D01*
X187175190Y-68715238D01*
D11*
X189075190Y-71489047D02*
X188575190Y-71489047D01*
X188575190Y-71370000D01*
X188599000Y-71298571D01*
X188646619Y-71250952D01*
X188694238Y-71227142D01*
X188789476Y-71203333D01*
X188860904Y-71203333D01*
X188956142Y-71227142D01*
X189003761Y-71250952D01*
X189051380Y-71298571D01*
X189075190Y-71370000D01*
X189075190Y-71489047D01*
X188789476Y-70917619D02*
X188765666Y-70965238D01*
X188741857Y-70989047D01*
X188694238Y-71012857D01*
X188670428Y-71012857D01*
X188622809Y-70989047D01*
X188599000Y-70965238D01*
X188575190Y-70917619D01*
X188575190Y-70822380D01*
X188599000Y-70774761D01*
X188622809Y-70750952D01*
X188670428Y-70727142D01*
X188694238Y-70727142D01*
X188741857Y-70750952D01*
X188765666Y-70774761D01*
X188789476Y-70822380D01*
X188789476Y-70917619D01*
X188813285Y-70965238D01*
X188837095Y-70989047D01*
X188884714Y-71012857D01*
X188979952Y-71012857D01*
X189027571Y-70989047D01*
X189051380Y-70965238D01*
X189075190Y-70917619D01*
X189075190Y-70822380D01*
X189051380Y-70774761D01*
X189027571Y-70750952D01*
X188979952Y-70727142D01*
X188884714Y-70727142D01*
X188837095Y-70750952D01*
X188813285Y-70774761D01*
X188789476Y-70822380D01*
D10*
%TO.C,D18*%
X166377452Y-82382380D02*
X166615547Y-83382380D01*
X166806023Y-82668095D01*
X166996500Y-83382380D01*
X167234595Y-82382380D01*
X167567928Y-83096666D02*
X168044119Y-83096666D01*
X167472690Y-83382380D02*
X167806023Y-82382380D01*
X168139357Y-83382380D01*
X168472690Y-83382380D02*
X168472690Y-82382380D01*
X169044119Y-83382380D01*
X169044119Y-82382380D01*
X170758404Y-83382380D02*
X170282214Y-83382380D01*
X170282214Y-82382380D01*
X171091738Y-82858571D02*
X171425071Y-82858571D01*
X171567928Y-83382380D02*
X171091738Y-83382380D01*
X171091738Y-82382380D01*
X171567928Y-82382380D01*
X171996500Y-83382380D02*
X171996500Y-82382380D01*
X172234595Y-82382380D01*
X172377452Y-82430000D01*
X172472690Y-82525238D01*
X172520309Y-82620476D01*
X172567928Y-82810952D01*
X172567928Y-82953809D01*
X172520309Y-83144285D01*
X172472690Y-83239523D01*
X172377452Y-83334761D01*
X172234595Y-83382380D01*
X171996500Y-83382380D01*
D11*
X168889357Y-81506190D02*
X168889357Y-81006190D01*
X169008404Y-81006190D01*
X169079833Y-81030000D01*
X169127452Y-81077619D01*
X169151261Y-81125238D01*
X169175071Y-81220476D01*
X169175071Y-81291904D01*
X169151261Y-81387142D01*
X169127452Y-81434761D01*
X169079833Y-81482380D01*
X169008404Y-81506190D01*
X168889357Y-81506190D01*
X169651261Y-81506190D02*
X169365547Y-81506190D01*
X169508404Y-81506190D02*
X169508404Y-81006190D01*
X169460785Y-81077619D01*
X169413166Y-81125238D01*
X169365547Y-81149047D01*
X169936976Y-81220476D02*
X169889357Y-81196666D01*
X169865547Y-81172857D01*
X169841738Y-81125238D01*
X169841738Y-81101428D01*
X169865547Y-81053809D01*
X169889357Y-81030000D01*
X169936976Y-81006190D01*
X170032214Y-81006190D01*
X170079833Y-81030000D01*
X170103642Y-81053809D01*
X170127452Y-81101428D01*
X170127452Y-81125238D01*
X170103642Y-81172857D01*
X170079833Y-81196666D01*
X170032214Y-81220476D01*
X169936976Y-81220476D01*
X169889357Y-81244285D01*
X169865547Y-81268095D01*
X169841738Y-81315714D01*
X169841738Y-81410952D01*
X169865547Y-81458571D01*
X169889357Y-81482380D01*
X169936976Y-81506190D01*
X170032214Y-81506190D01*
X170079833Y-81482380D01*
X170103642Y-81458571D01*
X170127452Y-81410952D01*
X170127452Y-81315714D01*
X170103642Y-81268095D01*
X170079833Y-81244285D01*
X170032214Y-81220476D01*
D10*
%TO.C,J1*%
X149927880Y-99438809D02*
X150737404Y-99438809D01*
X150832642Y-99391190D01*
X150880261Y-99343571D01*
X150927880Y-99248333D01*
X150927880Y-99057857D01*
X150880261Y-98962619D01*
X150832642Y-98915000D01*
X150737404Y-98867380D01*
X149927880Y-98867380D01*
X150880261Y-98438809D02*
X150927880Y-98295952D01*
X150927880Y-98057857D01*
X150880261Y-97962619D01*
X150832642Y-97915000D01*
X150737404Y-97867380D01*
X150642166Y-97867380D01*
X150546928Y-97915000D01*
X150499309Y-97962619D01*
X150451690Y-98057857D01*
X150404071Y-98248333D01*
X150356452Y-98343571D01*
X150308833Y-98391190D01*
X150213595Y-98438809D01*
X150118357Y-98438809D01*
X150023119Y-98391190D01*
X149975500Y-98343571D01*
X149927880Y-98248333D01*
X149927880Y-98010238D01*
X149975500Y-97867380D01*
X150404071Y-97105476D02*
X150451690Y-96962619D01*
X150499309Y-96915000D01*
X150594547Y-96867380D01*
X150737404Y-96867380D01*
X150832642Y-96915000D01*
X150880261Y-96962619D01*
X150927880Y-97057857D01*
X150927880Y-97438809D01*
X149927880Y-97438809D01*
X149927880Y-97105476D01*
X149975500Y-97010238D01*
X150023119Y-96962619D01*
X150118357Y-96915000D01*
X150213595Y-96915000D01*
X150308833Y-96962619D01*
X150356452Y-97010238D01*
X150404071Y-97105476D01*
X150404071Y-97438809D01*
X151023119Y-96676904D02*
X151023119Y-95915000D01*
X150404071Y-95343571D02*
X150451690Y-95200714D01*
X150499309Y-95153095D01*
X150594547Y-95105476D01*
X150737404Y-95105476D01*
X150832642Y-95153095D01*
X150880261Y-95200714D01*
X150927880Y-95295952D01*
X150927880Y-95676904D01*
X149927880Y-95676904D01*
X149927880Y-95343571D01*
X149975500Y-95248333D01*
X150023119Y-95200714D01*
X150118357Y-95153095D01*
X150213595Y-95153095D01*
X150308833Y-95200714D01*
X150356452Y-95248333D01*
X150404071Y-95343571D01*
X150404071Y-95676904D01*
X151023119Y-94915000D02*
X151023119Y-94153095D01*
X150927880Y-93915000D02*
X149927880Y-93915000D01*
X150642166Y-93581666D01*
X149927880Y-93248333D01*
X150927880Y-93248333D01*
X150927880Y-92772142D02*
X150261214Y-92772142D01*
X149927880Y-92772142D02*
X149975500Y-92819761D01*
X150023119Y-92772142D01*
X149975500Y-92724523D01*
X149927880Y-92772142D01*
X150023119Y-92772142D01*
X150880261Y-91867380D02*
X150927880Y-91962619D01*
X150927880Y-92153095D01*
X150880261Y-92248333D01*
X150832642Y-92295952D01*
X150737404Y-92343571D01*
X150451690Y-92343571D01*
X150356452Y-92295952D01*
X150308833Y-92248333D01*
X150261214Y-92153095D01*
X150261214Y-91962619D01*
X150308833Y-91867380D01*
X150927880Y-91438809D02*
X150261214Y-91438809D01*
X150451690Y-91438809D02*
X150356452Y-91391190D01*
X150308833Y-91343571D01*
X150261214Y-91248333D01*
X150261214Y-91153095D01*
X150927880Y-90676904D02*
X150880261Y-90772142D01*
X150832642Y-90819761D01*
X150737404Y-90867380D01*
X150451690Y-90867380D01*
X150356452Y-90819761D01*
X150308833Y-90772142D01*
X150261214Y-90676904D01*
X150261214Y-90534047D01*
X150308833Y-90438809D01*
X150356452Y-90391190D01*
X150451690Y-90343571D01*
X150737404Y-90343571D01*
X150832642Y-90391190D01*
X150880261Y-90438809D01*
X150927880Y-90534047D01*
X150927880Y-90676904D01*
X153377880Y-94948333D02*
X154092166Y-94948333D01*
X154235023Y-94995952D01*
X154330261Y-95091190D01*
X154377880Y-95234047D01*
X154377880Y-95329285D01*
X154377880Y-93948333D02*
X154377880Y-94519761D01*
X154377880Y-94234047D02*
X153377880Y-94234047D01*
X153520738Y-94329285D01*
X153615976Y-94424523D01*
X153663595Y-94519761D01*
%TO.C,J10*%
X204670685Y-68774761D02*
X204813542Y-68822380D01*
X205051638Y-68822380D01*
X205146876Y-68774761D01*
X205194495Y-68727142D01*
X205242114Y-68631904D01*
X205242114Y-68536666D01*
X205194495Y-68441428D01*
X205146876Y-68393809D01*
X205051638Y-68346190D01*
X204861161Y-68298571D01*
X204765923Y-68250952D01*
X204718304Y-68203333D01*
X204670685Y-68108095D01*
X204670685Y-68012857D01*
X204718304Y-67917619D01*
X204765923Y-67870000D01*
X204861161Y-67822380D01*
X205099257Y-67822380D01*
X205242114Y-67870000D01*
X205670685Y-68822380D02*
X205670685Y-67822380D01*
X206051638Y-67822380D01*
X206146876Y-67870000D01*
X206194495Y-67917619D01*
X206242114Y-68012857D01*
X206242114Y-68155714D01*
X206194495Y-68250952D01*
X206146876Y-68298571D01*
X206051638Y-68346190D01*
X205670685Y-68346190D01*
X206670685Y-68822380D02*
X206670685Y-67822380D01*
X208242114Y-68298571D02*
X207908780Y-68298571D01*
X207908780Y-68822380D02*
X207908780Y-67822380D01*
X208384971Y-67822380D01*
X209242114Y-68822380D02*
X208765923Y-68822380D01*
X208765923Y-67822380D01*
X209527828Y-68536666D02*
X210004019Y-68536666D01*
X209432590Y-68822380D02*
X209765923Y-67822380D01*
X210099257Y-68822380D01*
X210384971Y-68774761D02*
X210527828Y-68822380D01*
X210765923Y-68822380D01*
X210861161Y-68774761D01*
X210908780Y-68727142D01*
X210956400Y-68631904D01*
X210956400Y-68536666D01*
X210908780Y-68441428D01*
X210861161Y-68393809D01*
X210765923Y-68346190D01*
X210575447Y-68298571D01*
X210480209Y-68250952D01*
X210432590Y-68203333D01*
X210384971Y-68108095D01*
X210384971Y-68012857D01*
X210432590Y-67917619D01*
X210480209Y-67870000D01*
X210575447Y-67822380D01*
X210813542Y-67822380D01*
X210956400Y-67870000D01*
X211384971Y-68822380D02*
X211384971Y-67822380D01*
X211384971Y-68298571D02*
X211956400Y-68298571D01*
X211956400Y-68822380D02*
X211956400Y-67822380D01*
X213194495Y-68822380D02*
X213194495Y-67822380D01*
X213432590Y-67822380D01*
X213575447Y-67870000D01*
X213670685Y-67965238D01*
X213718304Y-68060476D01*
X213765923Y-68250952D01*
X213765923Y-68393809D01*
X213718304Y-68584285D01*
X213670685Y-68679523D01*
X213575447Y-68774761D01*
X213432590Y-68822380D01*
X213194495Y-68822380D01*
X214194495Y-68822380D02*
X214194495Y-67822380D01*
X214670685Y-68822380D02*
X214670685Y-67822380D01*
X215051638Y-67822380D01*
X215146876Y-67870000D01*
X215194495Y-67917619D01*
X215242114Y-68012857D01*
X215242114Y-68155714D01*
X215194495Y-68250952D01*
X215146876Y-68298571D01*
X215051638Y-68346190D01*
X214670685Y-68346190D01*
X209146876Y-61682380D02*
X209146876Y-62396666D01*
X209099257Y-62539523D01*
X209004019Y-62634761D01*
X208861161Y-62682380D01*
X208765923Y-62682380D01*
X210146876Y-62682380D02*
X209575447Y-62682380D01*
X209861161Y-62682380D02*
X209861161Y-61682380D01*
X209765923Y-61825238D01*
X209670685Y-61920476D01*
X209575447Y-61968095D01*
X210765923Y-61682380D02*
X210861161Y-61682380D01*
X210956400Y-61730000D01*
X211004019Y-61777619D01*
X211051638Y-61872857D01*
X211099257Y-62063333D01*
X211099257Y-62301428D01*
X211051638Y-62491904D01*
X211004019Y-62587142D01*
X210956400Y-62634761D01*
X210861161Y-62682380D01*
X210765923Y-62682380D01*
X210670685Y-62634761D01*
X210623066Y-62587142D01*
X210575447Y-62491904D01*
X210527828Y-62301428D01*
X210527828Y-62063333D01*
X210575447Y-61872857D01*
X210623066Y-61777619D01*
X210670685Y-61730000D01*
X210765923Y-61682380D01*
%TO.C,J6*%
X164339285Y-40562380D02*
X164339285Y-39562380D01*
X164672619Y-40276666D01*
X165005952Y-39562380D01*
X165005952Y-40562380D01*
X165339285Y-39562380D02*
X165910714Y-39562380D01*
X165625000Y-40562380D02*
X165625000Y-39562380D01*
X166148809Y-39562380D02*
X166815476Y-39562380D01*
X166386904Y-40562380D01*
X167625000Y-39562380D02*
X167434523Y-39562380D01*
X167339285Y-39610000D01*
X167291666Y-39657619D01*
X167196428Y-39800476D01*
X167148809Y-39990952D01*
X167148809Y-40371904D01*
X167196428Y-40467142D01*
X167244047Y-40514761D01*
X167339285Y-40562380D01*
X167529761Y-40562380D01*
X167625000Y-40514761D01*
X167672619Y-40467142D01*
X167720238Y-40371904D01*
X167720238Y-40133809D01*
X167672619Y-40038571D01*
X167625000Y-39990952D01*
X167529761Y-39943333D01*
X167339285Y-39943333D01*
X167244047Y-39990952D01*
X167196428Y-40038571D01*
X167148809Y-40133809D01*
X168291666Y-39990952D02*
X168196428Y-39943333D01*
X168148809Y-39895714D01*
X168101190Y-39800476D01*
X168101190Y-39752857D01*
X168148809Y-39657619D01*
X168196428Y-39610000D01*
X168291666Y-39562380D01*
X168482142Y-39562380D01*
X168577380Y-39610000D01*
X168625000Y-39657619D01*
X168672619Y-39752857D01*
X168672619Y-39800476D01*
X168625000Y-39895714D01*
X168577380Y-39943333D01*
X168482142Y-39990952D01*
X168291666Y-39990952D01*
X168196428Y-40038571D01*
X168148809Y-40086190D01*
X168101190Y-40181428D01*
X168101190Y-40371904D01*
X168148809Y-40467142D01*
X168196428Y-40514761D01*
X168291666Y-40562380D01*
X168482142Y-40562380D01*
X168577380Y-40514761D01*
X168625000Y-40467142D01*
X168672619Y-40371904D01*
X168672619Y-40181428D01*
X168625000Y-40086190D01*
X168577380Y-40038571D01*
X168482142Y-39990952D01*
X169244047Y-39990952D02*
X169148809Y-39943333D01*
X169101190Y-39895714D01*
X169053571Y-39800476D01*
X169053571Y-39752857D01*
X169101190Y-39657619D01*
X169148809Y-39610000D01*
X169244047Y-39562380D01*
X169434523Y-39562380D01*
X169529761Y-39610000D01*
X169577380Y-39657619D01*
X169625000Y-39752857D01*
X169625000Y-39800476D01*
X169577380Y-39895714D01*
X169529761Y-39943333D01*
X169434523Y-39990952D01*
X169244047Y-39990952D01*
X169148809Y-40038571D01*
X169101190Y-40086190D01*
X169053571Y-40181428D01*
X169053571Y-40371904D01*
X169101190Y-40467142D01*
X169148809Y-40514761D01*
X169244047Y-40562380D01*
X169434523Y-40562380D01*
X169529761Y-40514761D01*
X169577380Y-40467142D01*
X169625000Y-40371904D01*
X169625000Y-40181428D01*
X169577380Y-40086190D01*
X169529761Y-40038571D01*
X169434523Y-39990952D01*
X170815476Y-39562380D02*
X170815476Y-40371904D01*
X170863095Y-40467142D01*
X170910714Y-40514761D01*
X171005952Y-40562380D01*
X171196428Y-40562380D01*
X171291666Y-40514761D01*
X171339285Y-40467142D01*
X171386904Y-40371904D01*
X171386904Y-39562380D01*
X171815476Y-40514761D02*
X171958333Y-40562380D01*
X172196428Y-40562380D01*
X172291666Y-40514761D01*
X172339285Y-40467142D01*
X172386904Y-40371904D01*
X172386904Y-40276666D01*
X172339285Y-40181428D01*
X172291666Y-40133809D01*
X172196428Y-40086190D01*
X172005952Y-40038571D01*
X171910714Y-39990952D01*
X171863095Y-39943333D01*
X171815476Y-39848095D01*
X171815476Y-39752857D01*
X171863095Y-39657619D01*
X171910714Y-39610000D01*
X172005952Y-39562380D01*
X172244047Y-39562380D01*
X172386904Y-39610000D01*
X173148809Y-40038571D02*
X173291666Y-40086190D01*
X173339285Y-40133809D01*
X173386904Y-40229047D01*
X173386904Y-40371904D01*
X173339285Y-40467142D01*
X173291666Y-40514761D01*
X173196428Y-40562380D01*
X172815476Y-40562380D01*
X172815476Y-39562380D01*
X173148809Y-39562380D01*
X173244047Y-39610000D01*
X173291666Y-39657619D01*
X173339285Y-39752857D01*
X173339285Y-39848095D01*
X173291666Y-39943333D01*
X173244047Y-39990952D01*
X173148809Y-40038571D01*
X172815476Y-40038571D01*
X174577380Y-40562380D02*
X174577380Y-39562380D01*
X174577380Y-40038571D02*
X175148809Y-40038571D01*
X175148809Y-40562380D02*
X175148809Y-39562380D01*
X175815476Y-39562380D02*
X176005952Y-39562380D01*
X176101190Y-39610000D01*
X176196428Y-39705238D01*
X176244047Y-39895714D01*
X176244047Y-40229047D01*
X176196428Y-40419523D01*
X176101190Y-40514761D01*
X176005952Y-40562380D01*
X175815476Y-40562380D01*
X175720238Y-40514761D01*
X175625000Y-40419523D01*
X175577380Y-40229047D01*
X175577380Y-39895714D01*
X175625000Y-39705238D01*
X175720238Y-39610000D01*
X175815476Y-39562380D01*
X176625000Y-40514761D02*
X176767857Y-40562380D01*
X177005952Y-40562380D01*
X177101190Y-40514761D01*
X177148809Y-40467142D01*
X177196428Y-40371904D01*
X177196428Y-40276666D01*
X177148809Y-40181428D01*
X177101190Y-40133809D01*
X177005952Y-40086190D01*
X176815476Y-40038571D01*
X176720238Y-39990952D01*
X176672619Y-39943333D01*
X176625000Y-39848095D01*
X176625000Y-39752857D01*
X176672619Y-39657619D01*
X176720238Y-39610000D01*
X176815476Y-39562380D01*
X177053571Y-39562380D01*
X177196428Y-39610000D01*
X177482142Y-39562380D02*
X178053571Y-39562380D01*
X177767857Y-40562380D02*
X177767857Y-39562380D01*
X170791666Y-50362380D02*
X170791666Y-51076666D01*
X170744047Y-51219523D01*
X170648809Y-51314761D01*
X170505952Y-51362380D01*
X170410714Y-51362380D01*
X171696428Y-50362380D02*
X171505952Y-50362380D01*
X171410714Y-50410000D01*
X171363095Y-50457619D01*
X171267857Y-50600476D01*
X171220238Y-50790952D01*
X171220238Y-51171904D01*
X171267857Y-51267142D01*
X171315476Y-51314761D01*
X171410714Y-51362380D01*
X171601190Y-51362380D01*
X171696428Y-51314761D01*
X171744047Y-51267142D01*
X171791666Y-51171904D01*
X171791666Y-50933809D01*
X171744047Y-50838571D01*
X171696428Y-50790952D01*
X171601190Y-50743333D01*
X171410714Y-50743333D01*
X171315476Y-50790952D01*
X171267857Y-50838571D01*
X171220238Y-50933809D01*
%TO.C,JP3*%
X155058809Y-86001571D02*
X154725476Y-86001571D01*
X154725476Y-86525380D02*
X154725476Y-85525380D01*
X155201666Y-85525380D01*
X155773095Y-85525380D02*
X155963571Y-85525380D01*
X156058809Y-85573000D01*
X156154047Y-85668238D01*
X156201666Y-85858714D01*
X156201666Y-86192047D01*
X156154047Y-86382523D01*
X156058809Y-86477761D01*
X155963571Y-86525380D01*
X155773095Y-86525380D01*
X155677857Y-86477761D01*
X155582619Y-86382523D01*
X155535000Y-86192047D01*
X155535000Y-85858714D01*
X155582619Y-85668238D01*
X155677857Y-85573000D01*
X155773095Y-85525380D01*
X157201666Y-86525380D02*
X156868333Y-86049190D01*
X156630238Y-86525380D02*
X156630238Y-85525380D01*
X157011190Y-85525380D01*
X157106428Y-85573000D01*
X157154047Y-85620619D01*
X157201666Y-85715857D01*
X157201666Y-85858714D01*
X157154047Y-85953952D01*
X157106428Y-86001571D01*
X157011190Y-86049190D01*
X156630238Y-86049190D01*
X158201666Y-86430142D02*
X158154047Y-86477761D01*
X158011190Y-86525380D01*
X157915952Y-86525380D01*
X157773095Y-86477761D01*
X157677857Y-86382523D01*
X157630238Y-86287285D01*
X157582619Y-86096809D01*
X157582619Y-85953952D01*
X157630238Y-85763476D01*
X157677857Y-85668238D01*
X157773095Y-85573000D01*
X157915952Y-85525380D01*
X158011190Y-85525380D01*
X158154047Y-85573000D01*
X158201666Y-85620619D01*
X158630238Y-86001571D02*
X158963571Y-86001571D01*
X159106428Y-86525380D02*
X158630238Y-86525380D01*
X158630238Y-85525380D01*
X159106428Y-85525380D01*
X160868333Y-86525380D02*
X160535000Y-86049190D01*
X160296904Y-86525380D02*
X160296904Y-85525380D01*
X160677857Y-85525380D01*
X160773095Y-85573000D01*
X160820714Y-85620619D01*
X160868333Y-85715857D01*
X160868333Y-85858714D01*
X160820714Y-85953952D01*
X160773095Y-86001571D01*
X160677857Y-86049190D01*
X160296904Y-86049190D01*
X161296904Y-86001571D02*
X161630238Y-86001571D01*
X161773095Y-86525380D02*
X161296904Y-86525380D01*
X161296904Y-85525380D01*
X161773095Y-85525380D01*
X162154047Y-86477761D02*
X162296904Y-86525380D01*
X162535000Y-86525380D01*
X162630238Y-86477761D01*
X162677857Y-86430142D01*
X162725476Y-86334904D01*
X162725476Y-86239666D01*
X162677857Y-86144428D01*
X162630238Y-86096809D01*
X162535000Y-86049190D01*
X162344523Y-86001571D01*
X162249285Y-85953952D01*
X162201666Y-85906333D01*
X162154047Y-85811095D01*
X162154047Y-85715857D01*
X162201666Y-85620619D01*
X162249285Y-85573000D01*
X162344523Y-85525380D01*
X162582619Y-85525380D01*
X162725476Y-85573000D01*
X163154047Y-86001571D02*
X163487380Y-86001571D01*
X163630238Y-86525380D02*
X163154047Y-86525380D01*
X163154047Y-85525380D01*
X163630238Y-85525380D01*
X163915952Y-85525380D02*
X164487380Y-85525380D01*
X164201666Y-86525380D02*
X164201666Y-85525380D01*
X158987380Y-83306333D02*
X159701666Y-83306333D01*
X159844523Y-83353952D01*
X159939761Y-83449190D01*
X159987380Y-83592047D01*
X159987380Y-83687285D01*
X159987380Y-82830142D02*
X158987380Y-82830142D01*
X158987380Y-82449190D01*
X159035000Y-82353952D01*
X159082619Y-82306333D01*
X159177857Y-82258714D01*
X159320714Y-82258714D01*
X159415952Y-82306333D01*
X159463571Y-82353952D01*
X159511190Y-82449190D01*
X159511190Y-82830142D01*
X158987380Y-81925380D02*
X158987380Y-81306333D01*
X159368333Y-81639666D01*
X159368333Y-81496809D01*
X159415952Y-81401571D01*
X159463571Y-81353952D01*
X159558809Y-81306333D01*
X159796904Y-81306333D01*
X159892142Y-81353952D01*
X159939761Y-81401571D01*
X159987380Y-81496809D01*
X159987380Y-81782523D01*
X159939761Y-81877761D01*
X159892142Y-81925380D01*
%TO.C,J7*%
X146576380Y-110600952D02*
X147576380Y-110362857D01*
X146862095Y-110172380D01*
X147576380Y-109981904D01*
X146576380Y-109743809D01*
X147290666Y-109410476D02*
X147290666Y-108934285D01*
X147576380Y-109505714D02*
X146576380Y-109172380D01*
X147576380Y-108839047D01*
X147576380Y-108505714D02*
X146576380Y-108505714D01*
X147576380Y-107934285D01*
X146576380Y-107934285D01*
X158436380Y-109553333D02*
X159150666Y-109553333D01*
X159293523Y-109600952D01*
X159388761Y-109696190D01*
X159436380Y-109839047D01*
X159436380Y-109934285D01*
X158436380Y-109172380D02*
X158436380Y-108505714D01*
X159436380Y-108934285D01*
%TO.C,SW2*%
X227958371Y-132793095D02*
X227958371Y-132459761D01*
X228482180Y-132316904D02*
X228482180Y-132793095D01*
X227482180Y-132793095D01*
X227482180Y-132316904D01*
X227815514Y-131888333D02*
X228482180Y-131888333D01*
X227910752Y-131888333D02*
X227863133Y-131840714D01*
X227815514Y-131745476D01*
X227815514Y-131602619D01*
X227863133Y-131507380D01*
X227958371Y-131459761D01*
X228482180Y-131459761D01*
X228434561Y-130555000D02*
X228482180Y-130650238D01*
X228482180Y-130840714D01*
X228434561Y-130935952D01*
X228386942Y-130983571D01*
X228291704Y-131031190D01*
X228005990Y-131031190D01*
X227910752Y-130983571D01*
X227863133Y-130935952D01*
X227815514Y-130840714D01*
X227815514Y-130650238D01*
X227863133Y-130555000D01*
X228482180Y-129983571D02*
X228434561Y-130078809D01*
X228386942Y-130126428D01*
X228291704Y-130174047D01*
X228005990Y-130174047D01*
X227910752Y-130126428D01*
X227863133Y-130078809D01*
X227815514Y-129983571D01*
X227815514Y-129840714D01*
X227863133Y-129745476D01*
X227910752Y-129697857D01*
X228005990Y-129650238D01*
X228291704Y-129650238D01*
X228386942Y-129697857D01*
X228434561Y-129745476D01*
X228482180Y-129840714D01*
X228482180Y-129983571D01*
X228482180Y-128793095D02*
X227482180Y-128793095D01*
X228434561Y-128793095D02*
X228482180Y-128888333D01*
X228482180Y-129078809D01*
X228434561Y-129174047D01*
X228386942Y-129221666D01*
X228291704Y-129269285D01*
X228005990Y-129269285D01*
X227910752Y-129221666D01*
X227863133Y-129174047D01*
X227815514Y-129078809D01*
X227815514Y-128888333D01*
X227863133Y-128793095D01*
X228434561Y-127935952D02*
X228482180Y-128031190D01*
X228482180Y-128221666D01*
X228434561Y-128316904D01*
X228339323Y-128364523D01*
X227958371Y-128364523D01*
X227863133Y-128316904D01*
X227815514Y-128221666D01*
X227815514Y-128031190D01*
X227863133Y-127935952D01*
X227958371Y-127888333D01*
X228053609Y-127888333D01*
X228148847Y-128364523D01*
X228482180Y-127459761D02*
X227815514Y-127459761D01*
X228005990Y-127459761D02*
X227910752Y-127412142D01*
X227863133Y-127364523D01*
X227815514Y-127269285D01*
X227815514Y-127174047D01*
X232534561Y-134988333D02*
X232582180Y-134845476D01*
X232582180Y-134607380D01*
X232534561Y-134512142D01*
X232486942Y-134464523D01*
X232391704Y-134416904D01*
X232296466Y-134416904D01*
X232201228Y-134464523D01*
X232153609Y-134512142D01*
X232105990Y-134607380D01*
X232058371Y-134797857D01*
X232010752Y-134893095D01*
X231963133Y-134940714D01*
X231867895Y-134988333D01*
X231772657Y-134988333D01*
X231677419Y-134940714D01*
X231629800Y-134893095D01*
X231582180Y-134797857D01*
X231582180Y-134559761D01*
X231629800Y-134416904D01*
X231582180Y-134083571D02*
X232582180Y-133845476D01*
X231867895Y-133655000D01*
X232582180Y-133464523D01*
X231582180Y-133226428D01*
X231677419Y-132893095D02*
X231629800Y-132845476D01*
X231582180Y-132750238D01*
X231582180Y-132512142D01*
X231629800Y-132416904D01*
X231677419Y-132369285D01*
X231772657Y-132321666D01*
X231867895Y-132321666D01*
X232010752Y-132369285D01*
X232582180Y-132940714D01*
X232582180Y-132321666D01*
%TO.C,J20*%
X235712571Y-87237380D02*
X235712571Y-86237380D01*
X235950666Y-86237380D01*
X236093523Y-86285000D01*
X236188761Y-86380238D01*
X236236380Y-86475476D01*
X236284000Y-86665952D01*
X236284000Y-86808809D01*
X236236380Y-86999285D01*
X236188761Y-87094523D01*
X236093523Y-87189761D01*
X235950666Y-87237380D01*
X235712571Y-87237380D01*
X236712571Y-86237380D02*
X236712571Y-87046904D01*
X236760190Y-87142142D01*
X236807809Y-87189761D01*
X236903047Y-87237380D01*
X237093523Y-87237380D01*
X237188761Y-87189761D01*
X237236380Y-87142142D01*
X237284000Y-87046904D01*
X237284000Y-86237380D01*
X237617333Y-86237380D02*
X238188761Y-86237380D01*
X237903047Y-87237380D02*
X237903047Y-86237380D01*
X239284000Y-87237380D02*
X239284000Y-86237380D01*
X239664952Y-86237380D01*
X239760190Y-86285000D01*
X239807809Y-86332619D01*
X239855428Y-86427857D01*
X239855428Y-86570714D01*
X239807809Y-86665952D01*
X239760190Y-86713571D01*
X239664952Y-86761190D01*
X239284000Y-86761190D01*
X240474476Y-86237380D02*
X240664952Y-86237380D01*
X240760190Y-86285000D01*
X240855428Y-86380238D01*
X240903047Y-86570714D01*
X240903047Y-86904047D01*
X240855428Y-87094523D01*
X240760190Y-87189761D01*
X240664952Y-87237380D01*
X240474476Y-87237380D01*
X240379238Y-87189761D01*
X240284000Y-87094523D01*
X240236380Y-86904047D01*
X240236380Y-86570714D01*
X240284000Y-86380238D01*
X240379238Y-86285000D01*
X240474476Y-86237380D01*
X241236380Y-86237380D02*
X241474476Y-87237380D01*
X241664952Y-86523095D01*
X241855428Y-87237380D01*
X242093523Y-86237380D01*
X242474476Y-86713571D02*
X242807809Y-86713571D01*
X242950666Y-87237380D02*
X242474476Y-87237380D01*
X242474476Y-86237380D01*
X242950666Y-86237380D01*
X243950666Y-87237380D02*
X243617333Y-86761190D01*
X243379238Y-87237380D02*
X243379238Y-86237380D01*
X243760190Y-86237380D01*
X243855428Y-86285000D01*
X243903047Y-86332619D01*
X243950666Y-86427857D01*
X243950666Y-86570714D01*
X243903047Y-86665952D01*
X243855428Y-86713571D01*
X243760190Y-86761190D01*
X243379238Y-86761190D01*
X244331619Y-86332619D02*
X244379238Y-86285000D01*
X244474476Y-86237380D01*
X244712571Y-86237380D01*
X244807809Y-86285000D01*
X244855428Y-86332619D01*
X244903047Y-86427857D01*
X244903047Y-86523095D01*
X244855428Y-86665952D01*
X244284000Y-87237380D01*
X244903047Y-87237380D01*
X239736380Y-83994523D02*
X240450666Y-83994523D01*
X240593523Y-84042142D01*
X240688761Y-84137380D01*
X240736380Y-84280238D01*
X240736380Y-84375476D01*
X239831619Y-83565952D02*
X239784000Y-83518333D01*
X239736380Y-83423095D01*
X239736380Y-83185000D01*
X239784000Y-83089761D01*
X239831619Y-83042142D01*
X239926857Y-82994523D01*
X240022095Y-82994523D01*
X240164952Y-83042142D01*
X240736380Y-83613571D01*
X240736380Y-82994523D01*
X239736380Y-82375476D02*
X239736380Y-82280238D01*
X239784000Y-82185000D01*
X239831619Y-82137380D01*
X239926857Y-82089761D01*
X240117333Y-82042142D01*
X240355428Y-82042142D01*
X240545904Y-82089761D01*
X240641142Y-82137380D01*
X240688761Y-82185000D01*
X240736380Y-82280238D01*
X240736380Y-82375476D01*
X240688761Y-82470714D01*
X240641142Y-82518333D01*
X240545904Y-82565952D01*
X240355428Y-82613571D01*
X240117333Y-82613571D01*
X239926857Y-82565952D01*
X239831619Y-82518333D01*
X239784000Y-82470714D01*
X239736380Y-82375476D01*
%TO.C,JP12*%
X231641142Y-66917380D02*
X231641142Y-65917380D01*
X231879238Y-65917380D01*
X232022095Y-65965000D01*
X232117333Y-66060238D01*
X232164952Y-66155476D01*
X232212571Y-66345952D01*
X232212571Y-66488809D01*
X232164952Y-66679285D01*
X232117333Y-66774523D01*
X232022095Y-66869761D01*
X231879238Y-66917380D01*
X231641142Y-66917380D01*
X232641142Y-65917380D02*
X232641142Y-66726904D01*
X232688761Y-66822142D01*
X232736380Y-66869761D01*
X232831619Y-66917380D01*
X233022095Y-66917380D01*
X233117333Y-66869761D01*
X233164952Y-66822142D01*
X233212571Y-66726904D01*
X233212571Y-65917380D01*
X233545904Y-65917380D02*
X234117333Y-65917380D01*
X233831619Y-66917380D02*
X233831619Y-65917380D01*
X235212571Y-66917380D02*
X235212571Y-65917380D01*
X235593523Y-65917380D01*
X235688761Y-65965000D01*
X235736380Y-66012619D01*
X235784000Y-66107857D01*
X235784000Y-66250714D01*
X235736380Y-66345952D01*
X235688761Y-66393571D01*
X235593523Y-66441190D01*
X235212571Y-66441190D01*
X236403047Y-65917380D02*
X236593523Y-65917380D01*
X236688761Y-65965000D01*
X236784000Y-66060238D01*
X236831619Y-66250714D01*
X236831619Y-66584047D01*
X236784000Y-66774523D01*
X236688761Y-66869761D01*
X236593523Y-66917380D01*
X236403047Y-66917380D01*
X236307809Y-66869761D01*
X236212571Y-66774523D01*
X236164952Y-66584047D01*
X236164952Y-66250714D01*
X236212571Y-66060238D01*
X236307809Y-65965000D01*
X236403047Y-65917380D01*
X237164952Y-65917380D02*
X237403047Y-66917380D01*
X237593523Y-66203095D01*
X237784000Y-66917380D01*
X238022095Y-65917380D01*
X238403047Y-66393571D02*
X238736380Y-66393571D01*
X238879238Y-66917380D02*
X238403047Y-66917380D01*
X238403047Y-65917380D01*
X238879238Y-65917380D01*
X239879238Y-66917380D02*
X239545904Y-66441190D01*
X239307809Y-66917380D02*
X239307809Y-65917380D01*
X239688761Y-65917380D01*
X239784000Y-65965000D01*
X239831619Y-66012619D01*
X239879238Y-66107857D01*
X239879238Y-66250714D01*
X239831619Y-66345952D01*
X239784000Y-66393571D01*
X239688761Y-66441190D01*
X239307809Y-66441190D01*
X241260190Y-65917380D02*
X241450666Y-65917380D01*
X241545904Y-65965000D01*
X241641142Y-66060238D01*
X241688761Y-66250714D01*
X241688761Y-66584047D01*
X241641142Y-66774523D01*
X241545904Y-66869761D01*
X241450666Y-66917380D01*
X241260190Y-66917380D01*
X241164952Y-66869761D01*
X241069714Y-66774523D01*
X241022095Y-66584047D01*
X241022095Y-66250714D01*
X241069714Y-66060238D01*
X241164952Y-65965000D01*
X241260190Y-65917380D01*
X242450666Y-66393571D02*
X242117333Y-66393571D01*
X242117333Y-66917380D02*
X242117333Y-65917380D01*
X242593523Y-65917380D01*
X243307809Y-66393571D02*
X242974476Y-66393571D01*
X242974476Y-66917380D02*
X242974476Y-65917380D01*
X243450666Y-65917380D01*
X244926857Y-66393571D02*
X244593523Y-66393571D01*
X244593523Y-66917380D02*
X244593523Y-65917380D01*
X245069714Y-65917380D01*
X245641142Y-65917380D02*
X245831619Y-65917380D01*
X245926857Y-65965000D01*
X246022095Y-66060238D01*
X246069714Y-66250714D01*
X246069714Y-66584047D01*
X246022095Y-66774523D01*
X245926857Y-66869761D01*
X245831619Y-66917380D01*
X245641142Y-66917380D01*
X245545904Y-66869761D01*
X245450666Y-66774523D01*
X245403047Y-66584047D01*
X245403047Y-66250714D01*
X245450666Y-66060238D01*
X245545904Y-65965000D01*
X245641142Y-65917380D01*
X247069714Y-66917380D02*
X246736380Y-66441190D01*
X246498285Y-66917380D02*
X246498285Y-65917380D01*
X246879238Y-65917380D01*
X246974476Y-65965000D01*
X247022095Y-66012619D01*
X247069714Y-66107857D01*
X247069714Y-66250714D01*
X247022095Y-66345952D01*
X246974476Y-66393571D01*
X246879238Y-66441190D01*
X246498285Y-66441190D01*
X248069714Y-66822142D02*
X248022095Y-66869761D01*
X247879238Y-66917380D01*
X247784000Y-66917380D01*
X247641142Y-66869761D01*
X247545904Y-66774523D01*
X247498285Y-66679285D01*
X247450666Y-66488809D01*
X247450666Y-66345952D01*
X247498285Y-66155476D01*
X247545904Y-66060238D01*
X247641142Y-65965000D01*
X247784000Y-65917380D01*
X247879238Y-65917380D01*
X248022095Y-65965000D01*
X248069714Y-66012619D01*
X248498285Y-66393571D02*
X248831619Y-66393571D01*
X248974476Y-66917380D02*
X248498285Y-66917380D01*
X248498285Y-65917380D01*
X248974476Y-65917380D01*
X239736380Y-64174523D02*
X240450666Y-64174523D01*
X240593523Y-64222142D01*
X240688761Y-64317380D01*
X240736380Y-64460238D01*
X240736380Y-64555476D01*
X240736380Y-63698333D02*
X239736380Y-63698333D01*
X239736380Y-63317380D01*
X239784000Y-63222142D01*
X239831619Y-63174523D01*
X239926857Y-63126904D01*
X240069714Y-63126904D01*
X240164952Y-63174523D01*
X240212571Y-63222142D01*
X240260190Y-63317380D01*
X240260190Y-63698333D01*
X240736380Y-62174523D02*
X240736380Y-62745952D01*
X240736380Y-62460238D02*
X239736380Y-62460238D01*
X239879238Y-62555476D01*
X239974476Y-62650714D01*
X240022095Y-62745952D01*
X239831619Y-61793571D02*
X239784000Y-61745952D01*
X239736380Y-61650714D01*
X239736380Y-61412619D01*
X239784000Y-61317380D01*
X239831619Y-61269761D01*
X239926857Y-61222142D01*
X240022095Y-61222142D01*
X240164952Y-61269761D01*
X240736380Y-61841190D01*
X240736380Y-61222142D01*
%TO.C,JP14*%
X229260190Y-76696380D02*
X229260190Y-75696380D01*
X229498285Y-75696380D01*
X229641142Y-75744000D01*
X229736380Y-75839238D01*
X229784000Y-75934476D01*
X229831619Y-76124952D01*
X229831619Y-76267809D01*
X229784000Y-76458285D01*
X229736380Y-76553523D01*
X229641142Y-76648761D01*
X229498285Y-76696380D01*
X229260190Y-76696380D01*
X230260190Y-75696380D02*
X230260190Y-76505904D01*
X230307809Y-76601142D01*
X230355428Y-76648761D01*
X230450666Y-76696380D01*
X230641142Y-76696380D01*
X230736380Y-76648761D01*
X230784000Y-76601142D01*
X230831619Y-76505904D01*
X230831619Y-75696380D01*
X231164952Y-75696380D02*
X231736380Y-75696380D01*
X231450666Y-76696380D02*
X231450666Y-75696380D01*
X232831619Y-76696380D02*
X232831619Y-75696380D01*
X233212571Y-75696380D01*
X233307809Y-75744000D01*
X233355428Y-75791619D01*
X233403047Y-75886857D01*
X233403047Y-76029714D01*
X233355428Y-76124952D01*
X233307809Y-76172571D01*
X233212571Y-76220190D01*
X232831619Y-76220190D01*
X234022095Y-75696380D02*
X234212571Y-75696380D01*
X234307809Y-75744000D01*
X234403047Y-75839238D01*
X234450666Y-76029714D01*
X234450666Y-76363047D01*
X234403047Y-76553523D01*
X234307809Y-76648761D01*
X234212571Y-76696380D01*
X234022095Y-76696380D01*
X233926857Y-76648761D01*
X233831619Y-76553523D01*
X233784000Y-76363047D01*
X233784000Y-76029714D01*
X233831619Y-75839238D01*
X233926857Y-75744000D01*
X234022095Y-75696380D01*
X234784000Y-75696380D02*
X235022095Y-76696380D01*
X235212571Y-75982095D01*
X235403047Y-76696380D01*
X235641142Y-75696380D01*
X236022095Y-76172571D02*
X236355428Y-76172571D01*
X236498285Y-76696380D02*
X236022095Y-76696380D01*
X236022095Y-75696380D01*
X236498285Y-75696380D01*
X237498285Y-76696380D02*
X237164952Y-76220190D01*
X236926857Y-76696380D02*
X236926857Y-75696380D01*
X237307809Y-75696380D01*
X237403047Y-75744000D01*
X237450666Y-75791619D01*
X237498285Y-75886857D01*
X237498285Y-76029714D01*
X237450666Y-76124952D01*
X237403047Y-76172571D01*
X237307809Y-76220190D01*
X236926857Y-76220190D01*
X239260190Y-76601142D02*
X239212571Y-76648761D01*
X239069714Y-76696380D01*
X238974476Y-76696380D01*
X238831619Y-76648761D01*
X238736380Y-76553523D01*
X238688761Y-76458285D01*
X238641142Y-76267809D01*
X238641142Y-76124952D01*
X238688761Y-75934476D01*
X238736380Y-75839238D01*
X238831619Y-75744000D01*
X238974476Y-75696380D01*
X239069714Y-75696380D01*
X239212571Y-75744000D01*
X239260190Y-75791619D01*
X239879238Y-75696380D02*
X240069714Y-75696380D01*
X240164952Y-75744000D01*
X240260190Y-75839238D01*
X240307809Y-76029714D01*
X240307809Y-76363047D01*
X240260190Y-76553523D01*
X240164952Y-76648761D01*
X240069714Y-76696380D01*
X239879238Y-76696380D01*
X239784000Y-76648761D01*
X239688761Y-76553523D01*
X239641142Y-76363047D01*
X239641142Y-76029714D01*
X239688761Y-75839238D01*
X239784000Y-75744000D01*
X239879238Y-75696380D01*
X240736380Y-76696380D02*
X240736380Y-75696380D01*
X241307809Y-76696380D01*
X241307809Y-75696380D01*
X241641142Y-75696380D02*
X242212571Y-75696380D01*
X241926857Y-76696380D02*
X241926857Y-75696380D01*
X243117333Y-76696380D02*
X242783999Y-76220190D01*
X242545904Y-76696380D02*
X242545904Y-75696380D01*
X242926857Y-75696380D01*
X243022095Y-75744000D01*
X243069714Y-75791619D01*
X243117333Y-75886857D01*
X243117333Y-76029714D01*
X243069714Y-76124952D01*
X243022095Y-76172571D01*
X242926857Y-76220190D01*
X242545904Y-76220190D01*
X243736380Y-75696380D02*
X243926857Y-75696380D01*
X244022095Y-75744000D01*
X244117333Y-75839238D01*
X244164952Y-76029714D01*
X244164952Y-76363047D01*
X244117333Y-76553523D01*
X244022095Y-76648761D01*
X243926857Y-76696380D01*
X243736380Y-76696380D01*
X243641142Y-76648761D01*
X243545904Y-76553523D01*
X243498285Y-76363047D01*
X243498285Y-76029714D01*
X243545904Y-75839238D01*
X243641142Y-75744000D01*
X243736380Y-75696380D01*
X245069714Y-76696380D02*
X244593523Y-76696380D01*
X244593523Y-75696380D01*
X246498285Y-76172571D02*
X246641142Y-76220190D01*
X246688761Y-76267809D01*
X246736380Y-76363047D01*
X246736380Y-76505904D01*
X246688761Y-76601142D01*
X246641142Y-76648761D01*
X246545904Y-76696380D01*
X246164952Y-76696380D01*
X246164952Y-75696380D01*
X246498285Y-75696380D01*
X246593523Y-75744000D01*
X246641142Y-75791619D01*
X246688761Y-75886857D01*
X246688761Y-75982095D01*
X246641142Y-76077333D01*
X246593523Y-76124952D01*
X246498285Y-76172571D01*
X246164952Y-76172571D01*
X247355428Y-76220190D02*
X247355428Y-76696380D01*
X247022095Y-75696380D02*
X247355428Y-76220190D01*
X247688761Y-75696380D01*
X248022095Y-76696380D02*
X248022095Y-75696380D01*
X248403047Y-75696380D01*
X248498285Y-75744000D01*
X248545904Y-75791619D01*
X248593523Y-75886857D01*
X248593523Y-76029714D01*
X248545904Y-76124952D01*
X248498285Y-76172571D01*
X248403047Y-76220190D01*
X248022095Y-76220190D01*
X248974476Y-76410666D02*
X249450666Y-76410666D01*
X248879238Y-76696380D02*
X249212571Y-75696380D01*
X249545904Y-76696380D01*
X249831619Y-76648761D02*
X249974476Y-76696380D01*
X250212571Y-76696380D01*
X250307809Y-76648761D01*
X250355428Y-76601142D01*
X250403047Y-76505904D01*
X250403047Y-76410666D01*
X250355428Y-76315428D01*
X250307809Y-76267809D01*
X250212571Y-76220190D01*
X250022095Y-76172571D01*
X249926857Y-76124952D01*
X249879238Y-76077333D01*
X249831619Y-75982095D01*
X249831619Y-75886857D01*
X249879238Y-75791619D01*
X249926857Y-75744000D01*
X250022095Y-75696380D01*
X250260190Y-75696380D01*
X250403047Y-75744000D01*
X250783999Y-76648761D02*
X250926857Y-76696380D01*
X251164952Y-76696380D01*
X251260190Y-76648761D01*
X251307809Y-76601142D01*
X251355428Y-76505904D01*
X251355428Y-76410666D01*
X251307809Y-76315428D01*
X251260190Y-76267809D01*
X251164952Y-76220190D01*
X250974476Y-76172571D01*
X250879238Y-76124952D01*
X250831619Y-76077333D01*
X250783999Y-75982095D01*
X250783999Y-75886857D01*
X250831619Y-75791619D01*
X250879238Y-75744000D01*
X250974476Y-75696380D01*
X251212571Y-75696380D01*
X251355428Y-75744000D01*
X239736380Y-73953523D02*
X240450666Y-73953523D01*
X240593523Y-74001142D01*
X240688761Y-74096380D01*
X240736380Y-74239238D01*
X240736380Y-74334476D01*
X240736380Y-73477333D02*
X239736380Y-73477333D01*
X239736380Y-73096380D01*
X239784000Y-73001142D01*
X239831619Y-72953523D01*
X239926857Y-72905904D01*
X240069714Y-72905904D01*
X240164952Y-72953523D01*
X240212571Y-73001142D01*
X240260190Y-73096380D01*
X240260190Y-73477333D01*
X240736380Y-71953523D02*
X240736380Y-72524952D01*
X240736380Y-72239238D02*
X239736380Y-72239238D01*
X239879238Y-72334476D01*
X239974476Y-72429714D01*
X240022095Y-72524952D01*
X240069714Y-71096380D02*
X240736380Y-71096380D01*
X239688761Y-71334476D02*
X240403047Y-71572571D01*
X240403047Y-70953523D01*
%TO.C,D13*%
X237306380Y-70865000D02*
X236306380Y-70865000D01*
X236306380Y-70626904D01*
X236354000Y-70484047D01*
X236449238Y-70388809D01*
X236544476Y-70341190D01*
X236734952Y-70293571D01*
X236877809Y-70293571D01*
X237068285Y-70341190D01*
X237163523Y-70388809D01*
X237258761Y-70484047D01*
X237306380Y-70626904D01*
X237306380Y-70865000D01*
X236306380Y-69865000D02*
X237115904Y-69865000D01*
X237211142Y-69817380D01*
X237258761Y-69769761D01*
X237306380Y-69674523D01*
X237306380Y-69484047D01*
X237258761Y-69388809D01*
X237211142Y-69341190D01*
X237115904Y-69293571D01*
X236306380Y-69293571D01*
X236306380Y-68960238D02*
X236306380Y-68388809D01*
X237306380Y-68674523D02*
X236306380Y-68674523D01*
X237306380Y-67293571D02*
X236306380Y-67293571D01*
X236306380Y-66912619D01*
X236354000Y-66817380D01*
X236401619Y-66769761D01*
X236496857Y-66722142D01*
X236639714Y-66722142D01*
X236734952Y-66769761D01*
X236782571Y-66817380D01*
X236830190Y-66912619D01*
X236830190Y-67293571D01*
X236306380Y-66103095D02*
X236306380Y-65912619D01*
X236354000Y-65817380D01*
X236449238Y-65722142D01*
X236639714Y-65674523D01*
X236973047Y-65674523D01*
X237163523Y-65722142D01*
X237258761Y-65817380D01*
X237306380Y-65912619D01*
X237306380Y-66103095D01*
X237258761Y-66198333D01*
X237163523Y-66293571D01*
X236973047Y-66341190D01*
X236639714Y-66341190D01*
X236449238Y-66293571D01*
X236354000Y-66198333D01*
X236306380Y-66103095D01*
X236306380Y-65341190D02*
X237306380Y-65103095D01*
X236592095Y-64912619D01*
X237306380Y-64722142D01*
X236306380Y-64484047D01*
X236782571Y-64103095D02*
X236782571Y-63769761D01*
X237306380Y-63626904D02*
X237306380Y-64103095D01*
X236306380Y-64103095D01*
X236306380Y-63626904D01*
X237306380Y-62626904D02*
X236830190Y-62960238D01*
X237306380Y-63198333D02*
X236306380Y-63198333D01*
X236306380Y-62817380D01*
X236354000Y-62722142D01*
X236401619Y-62674523D01*
X236496857Y-62626904D01*
X236639714Y-62626904D01*
X236734952Y-62674523D01*
X236782571Y-62722142D01*
X236830190Y-62817380D01*
X236830190Y-63198333D01*
X237211142Y-60865000D02*
X237258761Y-60912619D01*
X237306380Y-61055476D01*
X237306380Y-61150714D01*
X237258761Y-61293571D01*
X237163523Y-61388809D01*
X237068285Y-61436428D01*
X236877809Y-61484047D01*
X236734952Y-61484047D01*
X236544476Y-61436428D01*
X236449238Y-61388809D01*
X236354000Y-61293571D01*
X236306380Y-61150714D01*
X236306380Y-61055476D01*
X236354000Y-60912619D01*
X236401619Y-60865000D01*
X236306380Y-60579285D02*
X236306380Y-60007857D01*
X237306380Y-60293571D02*
X236306380Y-60293571D01*
X237306380Y-59103095D02*
X236830190Y-59436428D01*
X237306380Y-59674523D02*
X236306380Y-59674523D01*
X236306380Y-59293571D01*
X236354000Y-59198333D01*
X236401619Y-59150714D01*
X236496857Y-59103095D01*
X236639714Y-59103095D01*
X236734952Y-59150714D01*
X236782571Y-59198333D01*
X236830190Y-59293571D01*
X236830190Y-59674523D01*
X237306380Y-58198333D02*
X237306380Y-58674523D01*
X236306380Y-58674523D01*
X237306380Y-56626904D02*
X237306380Y-57103095D01*
X236306380Y-57103095D01*
X236782571Y-56293571D02*
X236782571Y-55960238D01*
X237306380Y-55817380D02*
X237306380Y-56293571D01*
X236306380Y-56293571D01*
X236306380Y-55817380D01*
X237306380Y-55388809D02*
X236306380Y-55388809D01*
X236306380Y-55150714D01*
X236354000Y-55007857D01*
X236449238Y-54912619D01*
X236544476Y-54865000D01*
X236734952Y-54817380D01*
X236877809Y-54817380D01*
X237068285Y-54865000D01*
X237163523Y-54912619D01*
X237258761Y-55007857D01*
X237306380Y-55150714D01*
X237306380Y-55388809D01*
D11*
X235430190Y-63472142D02*
X234930190Y-63472142D01*
X234930190Y-63353095D01*
X234954000Y-63281666D01*
X235001619Y-63234047D01*
X235049238Y-63210238D01*
X235144476Y-63186428D01*
X235215904Y-63186428D01*
X235311142Y-63210238D01*
X235358761Y-63234047D01*
X235406380Y-63281666D01*
X235430190Y-63353095D01*
X235430190Y-63472142D01*
X235430190Y-62710238D02*
X235430190Y-62995952D01*
X235430190Y-62853095D02*
X234930190Y-62853095D01*
X235001619Y-62900714D01*
X235049238Y-62948333D01*
X235073047Y-62995952D01*
X234930190Y-62543571D02*
X234930190Y-62234047D01*
X235120666Y-62400714D01*
X235120666Y-62329285D01*
X235144476Y-62281666D01*
X235168285Y-62257857D01*
X235215904Y-62234047D01*
X235334952Y-62234047D01*
X235382571Y-62257857D01*
X235406380Y-62281666D01*
X235430190Y-62329285D01*
X235430190Y-62472142D01*
X235406380Y-62519761D01*
X235382571Y-62543571D01*
D10*
%TO.C,D17*%
X237306380Y-77501142D02*
X236306380Y-77501142D01*
X236306380Y-77263047D01*
X236354000Y-77120190D01*
X236449238Y-77024952D01*
X236544476Y-76977333D01*
X236734952Y-76929714D01*
X236877809Y-76929714D01*
X237068285Y-76977333D01*
X237163523Y-77024952D01*
X237258761Y-77120190D01*
X237306380Y-77263047D01*
X237306380Y-77501142D01*
X236306380Y-76501142D02*
X237115904Y-76501142D01*
X237211142Y-76453523D01*
X237258761Y-76405904D01*
X237306380Y-76310666D01*
X237306380Y-76120190D01*
X237258761Y-76024952D01*
X237211142Y-75977333D01*
X237115904Y-75929714D01*
X236306380Y-75929714D01*
X236306380Y-75596380D02*
X236306380Y-75024952D01*
X237306380Y-75310666D02*
X236306380Y-75310666D01*
X237306380Y-73929714D02*
X236306380Y-73929714D01*
X236306380Y-73548761D01*
X236354000Y-73453523D01*
X236401619Y-73405904D01*
X236496857Y-73358285D01*
X236639714Y-73358285D01*
X236734952Y-73405904D01*
X236782571Y-73453523D01*
X236830190Y-73548761D01*
X236830190Y-73929714D01*
X236306380Y-73024952D02*
X237306380Y-72786857D01*
X236592095Y-72596380D01*
X237306380Y-72405904D01*
X236306380Y-72167809D01*
X237306380Y-71215428D02*
X236830190Y-71548761D01*
X237306380Y-71786857D02*
X236306380Y-71786857D01*
X236306380Y-71405904D01*
X236354000Y-71310666D01*
X236401619Y-71263047D01*
X236496857Y-71215428D01*
X236639714Y-71215428D01*
X236734952Y-71263047D01*
X236782571Y-71310666D01*
X236830190Y-71405904D01*
X236830190Y-71786857D01*
X237306380Y-69548761D02*
X237306380Y-70024952D01*
X236306380Y-70024952D01*
X236782571Y-69215428D02*
X236782571Y-68882095D01*
X237306380Y-68739238D02*
X237306380Y-69215428D01*
X236306380Y-69215428D01*
X236306380Y-68739238D01*
X237306380Y-68310666D02*
X236306380Y-68310666D01*
X236306380Y-68072571D01*
X236354000Y-67929714D01*
X236449238Y-67834476D01*
X236544476Y-67786857D01*
X236734952Y-67739238D01*
X236877809Y-67739238D01*
X237068285Y-67786857D01*
X237163523Y-67834476D01*
X237258761Y-67929714D01*
X237306380Y-68072571D01*
X237306380Y-68310666D01*
D11*
X235430190Y-73251142D02*
X234930190Y-73251142D01*
X234930190Y-73132095D01*
X234954000Y-73060666D01*
X235001619Y-73013047D01*
X235049238Y-72989238D01*
X235144476Y-72965428D01*
X235215904Y-72965428D01*
X235311142Y-72989238D01*
X235358761Y-73013047D01*
X235406380Y-73060666D01*
X235430190Y-73132095D01*
X235430190Y-73251142D01*
X235430190Y-72489238D02*
X235430190Y-72774952D01*
X235430190Y-72632095D02*
X234930190Y-72632095D01*
X235001619Y-72679714D01*
X235049238Y-72727333D01*
X235073047Y-72774952D01*
X234930190Y-72322571D02*
X234930190Y-71989238D01*
X235430190Y-72203523D01*
D10*
%TO.C,J15*%
X220456904Y-87618380D02*
X220456904Y-86618380D01*
X220695000Y-86618380D01*
X220837857Y-86666000D01*
X220933095Y-86761238D01*
X220980714Y-86856476D01*
X221028333Y-87046952D01*
X221028333Y-87189809D01*
X220980714Y-87380285D01*
X220933095Y-87475523D01*
X220837857Y-87570761D01*
X220695000Y-87618380D01*
X220456904Y-87618380D01*
X221456904Y-86618380D02*
X221456904Y-87427904D01*
X221504523Y-87523142D01*
X221552142Y-87570761D01*
X221647380Y-87618380D01*
X221837857Y-87618380D01*
X221933095Y-87570761D01*
X221980714Y-87523142D01*
X222028333Y-87427904D01*
X222028333Y-86618380D01*
X222361666Y-86618380D02*
X222933095Y-86618380D01*
X222647380Y-87618380D02*
X222647380Y-86618380D01*
X224028333Y-86618380D02*
X224028333Y-87427904D01*
X224075952Y-87523142D01*
X224123571Y-87570761D01*
X224218809Y-87618380D01*
X224409285Y-87618380D01*
X224504523Y-87570761D01*
X224552142Y-87523142D01*
X224599761Y-87427904D01*
X224599761Y-86618380D01*
X225028333Y-87332666D02*
X225504523Y-87332666D01*
X224933095Y-87618380D02*
X225266428Y-86618380D01*
X225599761Y-87618380D01*
X226504523Y-87618380D02*
X226171190Y-87142190D01*
X225933095Y-87618380D02*
X225933095Y-86618380D01*
X226314047Y-86618380D01*
X226409285Y-86666000D01*
X226456904Y-86713619D01*
X226504523Y-86808857D01*
X226504523Y-86951714D01*
X226456904Y-87046952D01*
X226409285Y-87094571D01*
X226314047Y-87142190D01*
X225933095Y-87142190D01*
X226790238Y-86618380D02*
X227361666Y-86618380D01*
X227075952Y-87618380D02*
X227075952Y-86618380D01*
X228456904Y-87618380D02*
X228456904Y-86618380D01*
X228837857Y-86618380D01*
X228933095Y-86666000D01*
X228980714Y-86713619D01*
X229028333Y-86808857D01*
X229028333Y-86951714D01*
X228980714Y-87046952D01*
X228933095Y-87094571D01*
X228837857Y-87142190D01*
X228456904Y-87142190D01*
X230028333Y-87618380D02*
X229695000Y-87142190D01*
X229456904Y-87618380D02*
X229456904Y-86618380D01*
X229837857Y-86618380D01*
X229933095Y-86666000D01*
X229980714Y-86713619D01*
X230028333Y-86808857D01*
X230028333Y-86951714D01*
X229980714Y-87046952D01*
X229933095Y-87094571D01*
X229837857Y-87142190D01*
X229456904Y-87142190D01*
X230647380Y-86618380D02*
X230837857Y-86618380D01*
X230933095Y-86666000D01*
X231028333Y-86761238D01*
X231075952Y-86951714D01*
X231075952Y-87285047D01*
X231028333Y-87475523D01*
X230933095Y-87570761D01*
X230837857Y-87618380D01*
X230647380Y-87618380D01*
X230552142Y-87570761D01*
X230456904Y-87475523D01*
X230409285Y-87285047D01*
X230409285Y-86951714D01*
X230456904Y-86761238D01*
X230552142Y-86666000D01*
X230647380Y-86618380D01*
X231837857Y-87094571D02*
X231980714Y-87142190D01*
X232028333Y-87189809D01*
X232075952Y-87285047D01*
X232075952Y-87427904D01*
X232028333Y-87523142D01*
X231980714Y-87570761D01*
X231885476Y-87618380D01*
X231504523Y-87618380D01*
X231504523Y-86618380D01*
X231837857Y-86618380D01*
X231933095Y-86666000D01*
X231980714Y-86713619D01*
X232028333Y-86808857D01*
X232028333Y-86904095D01*
X231980714Y-86999333D01*
X231933095Y-87046952D01*
X231837857Y-87094571D01*
X231504523Y-87094571D01*
X232504523Y-87094571D02*
X232837857Y-87094571D01*
X232980714Y-87618380D02*
X232504523Y-87618380D01*
X232504523Y-86618380D01*
X232980714Y-86618380D01*
X226147380Y-83105523D02*
X226861666Y-83105523D01*
X227004523Y-83153142D01*
X227099761Y-83248380D01*
X227147380Y-83391238D01*
X227147380Y-83486476D01*
X227147380Y-82105523D02*
X227147380Y-82676952D01*
X227147380Y-82391238D02*
X226147380Y-82391238D01*
X226290238Y-82486476D01*
X226385476Y-82581714D01*
X226433095Y-82676952D01*
X226147380Y-81200761D02*
X226147380Y-81676952D01*
X226623571Y-81724571D01*
X226575952Y-81676952D01*
X226528333Y-81581714D01*
X226528333Y-81343619D01*
X226575952Y-81248380D01*
X226623571Y-81200761D01*
X226718809Y-81153142D01*
X226956904Y-81153142D01*
X227052142Y-81200761D01*
X227099761Y-81248380D01*
X227147380Y-81343619D01*
X227147380Y-81581714D01*
X227099761Y-81676952D01*
X227052142Y-81724571D01*
%TO.C,JP11*%
X219806142Y-76442380D02*
X219806142Y-75442380D01*
X220044238Y-75442380D01*
X220187095Y-75490000D01*
X220282333Y-75585238D01*
X220329952Y-75680476D01*
X220377571Y-75870952D01*
X220377571Y-76013809D01*
X220329952Y-76204285D01*
X220282333Y-76299523D01*
X220187095Y-76394761D01*
X220044238Y-76442380D01*
X219806142Y-76442380D01*
X220806142Y-75442380D02*
X220806142Y-76251904D01*
X220853761Y-76347142D01*
X220901380Y-76394761D01*
X220996619Y-76442380D01*
X221187095Y-76442380D01*
X221282333Y-76394761D01*
X221329952Y-76347142D01*
X221377571Y-76251904D01*
X221377571Y-75442380D01*
X221710904Y-75442380D02*
X222282333Y-75442380D01*
X221996619Y-76442380D02*
X221996619Y-75442380D01*
X223377571Y-76442380D02*
X223377571Y-75442380D01*
X223758523Y-75442380D01*
X223853761Y-75490000D01*
X223901380Y-75537619D01*
X223949000Y-75632857D01*
X223949000Y-75775714D01*
X223901380Y-75870952D01*
X223853761Y-75918571D01*
X223758523Y-75966190D01*
X223377571Y-75966190D01*
X224568047Y-75442380D02*
X224758523Y-75442380D01*
X224853761Y-75490000D01*
X224949000Y-75585238D01*
X224996619Y-75775714D01*
X224996619Y-76109047D01*
X224949000Y-76299523D01*
X224853761Y-76394761D01*
X224758523Y-76442380D01*
X224568047Y-76442380D01*
X224472809Y-76394761D01*
X224377571Y-76299523D01*
X224329952Y-76109047D01*
X224329952Y-75775714D01*
X224377571Y-75585238D01*
X224472809Y-75490000D01*
X224568047Y-75442380D01*
X225329952Y-75442380D02*
X225568047Y-76442380D01*
X225758523Y-75728095D01*
X225949000Y-76442380D01*
X226187095Y-75442380D01*
X226568047Y-75918571D02*
X226901380Y-75918571D01*
X227044238Y-76442380D02*
X226568047Y-76442380D01*
X226568047Y-75442380D01*
X227044238Y-75442380D01*
X228044238Y-76442380D02*
X227710904Y-75966190D01*
X227472809Y-76442380D02*
X227472809Y-75442380D01*
X227853761Y-75442380D01*
X227949000Y-75490000D01*
X227996619Y-75537619D01*
X228044238Y-75632857D01*
X228044238Y-75775714D01*
X227996619Y-75870952D01*
X227949000Y-75918571D01*
X227853761Y-75966190D01*
X227472809Y-75966190D01*
X229187095Y-76394761D02*
X229329952Y-76442380D01*
X229568047Y-76442380D01*
X229663285Y-76394761D01*
X229710904Y-76347142D01*
X229758523Y-76251904D01*
X229758523Y-76156666D01*
X229710904Y-76061428D01*
X229663285Y-76013809D01*
X229568047Y-75966190D01*
X229377571Y-75918571D01*
X229282333Y-75870952D01*
X229234714Y-75823333D01*
X229187095Y-75728095D01*
X229187095Y-75632857D01*
X229234714Y-75537619D01*
X229282333Y-75490000D01*
X229377571Y-75442380D01*
X229615666Y-75442380D01*
X229758523Y-75490000D01*
X230187095Y-75918571D02*
X230520428Y-75918571D01*
X230663285Y-76442380D02*
X230187095Y-76442380D01*
X230187095Y-75442380D01*
X230663285Y-75442380D01*
X231568047Y-76442380D02*
X231091857Y-76442380D01*
X231091857Y-75442380D01*
X231901380Y-75918571D02*
X232234714Y-75918571D01*
X232377571Y-76442380D02*
X231901380Y-76442380D01*
X231901380Y-75442380D01*
X232377571Y-75442380D01*
X233377571Y-76347142D02*
X233329952Y-76394761D01*
X233187095Y-76442380D01*
X233091857Y-76442380D01*
X232949000Y-76394761D01*
X232853761Y-76299523D01*
X232806142Y-76204285D01*
X232758523Y-76013809D01*
X232758523Y-75870952D01*
X232806142Y-75680476D01*
X232853761Y-75585238D01*
X232949000Y-75490000D01*
X233091857Y-75442380D01*
X233187095Y-75442380D01*
X233329952Y-75490000D01*
X233377571Y-75537619D01*
X233663285Y-75442380D02*
X234234714Y-75442380D01*
X233949000Y-76442380D02*
X233949000Y-75442380D01*
X226401380Y-72429523D02*
X227115666Y-72429523D01*
X227258523Y-72477142D01*
X227353761Y-72572380D01*
X227401380Y-72715238D01*
X227401380Y-72810476D01*
X227401380Y-71953333D02*
X226401380Y-71953333D01*
X226401380Y-71572380D01*
X226449000Y-71477142D01*
X226496619Y-71429523D01*
X226591857Y-71381904D01*
X226734714Y-71381904D01*
X226829952Y-71429523D01*
X226877571Y-71477142D01*
X226925190Y-71572380D01*
X226925190Y-71953333D01*
X227401380Y-70429523D02*
X227401380Y-71000952D01*
X227401380Y-70715238D02*
X226401380Y-70715238D01*
X226544238Y-70810476D01*
X226639476Y-70905714D01*
X226687095Y-71000952D01*
X227401380Y-69477142D02*
X227401380Y-70048571D01*
X227401380Y-69762857D02*
X226401380Y-69762857D01*
X226544238Y-69858095D01*
X226639476Y-69953333D01*
X226687095Y-70048571D01*
%TO.C,D12*%
X222306142Y-64967380D02*
X222306142Y-63967380D01*
X222544238Y-63967380D01*
X222687095Y-64015000D01*
X222782333Y-64110238D01*
X222829952Y-64205476D01*
X222877571Y-64395952D01*
X222877571Y-64538809D01*
X222829952Y-64729285D01*
X222782333Y-64824523D01*
X222687095Y-64919761D01*
X222544238Y-64967380D01*
X222306142Y-64967380D01*
X223306142Y-63967380D02*
X223306142Y-64776904D01*
X223353761Y-64872142D01*
X223401380Y-64919761D01*
X223496619Y-64967380D01*
X223687095Y-64967380D01*
X223782333Y-64919761D01*
X223829952Y-64872142D01*
X223877571Y-64776904D01*
X223877571Y-63967380D01*
X224210904Y-63967380D02*
X224782333Y-63967380D01*
X224496619Y-64967380D02*
X224496619Y-63967380D01*
X225877571Y-64443571D02*
X226210904Y-64443571D01*
X226353761Y-64967380D02*
X225877571Y-64967380D01*
X225877571Y-63967380D01*
X226353761Y-63967380D01*
X226639476Y-63967380D02*
X227210904Y-63967380D01*
X226925190Y-64967380D02*
X226925190Y-63967380D01*
X227544238Y-64967380D02*
X227544238Y-63967380D01*
X227544238Y-64443571D02*
X228115666Y-64443571D01*
X228115666Y-64967380D02*
X228115666Y-63967380D01*
X229829952Y-64967380D02*
X229353761Y-64967380D01*
X229353761Y-63967380D01*
X230163285Y-64443571D02*
X230496619Y-64443571D01*
X230639476Y-64967380D02*
X230163285Y-64967380D01*
X230163285Y-63967380D01*
X230639476Y-63967380D01*
X231068047Y-64967380D02*
X231068047Y-63967380D01*
X231306142Y-63967380D01*
X231449000Y-64015000D01*
X231544238Y-64110238D01*
X231591857Y-64205476D01*
X231639476Y-64395952D01*
X231639476Y-64538809D01*
X231591857Y-64729285D01*
X231544238Y-64824523D01*
X231449000Y-64919761D01*
X231306142Y-64967380D01*
X231068047Y-64967380D01*
D11*
X226341857Y-63091190D02*
X226341857Y-62591190D01*
X226460904Y-62591190D01*
X226532333Y-62615000D01*
X226579952Y-62662619D01*
X226603761Y-62710238D01*
X226627571Y-62805476D01*
X226627571Y-62876904D01*
X226603761Y-62972142D01*
X226579952Y-63019761D01*
X226532333Y-63067380D01*
X226460904Y-63091190D01*
X226341857Y-63091190D01*
X227103761Y-63091190D02*
X226818047Y-63091190D01*
X226960904Y-63091190D02*
X226960904Y-62591190D01*
X226913285Y-62662619D01*
X226865666Y-62710238D01*
X226818047Y-62734047D01*
X227294238Y-62638809D02*
X227318047Y-62615000D01*
X227365666Y-62591190D01*
X227484714Y-62591190D01*
X227532333Y-62615000D01*
X227556142Y-62638809D01*
X227579952Y-62686428D01*
X227579952Y-62734047D01*
X227556142Y-62805476D01*
X227270428Y-63091190D01*
X227579952Y-63091190D01*
D10*
%TO.C,JP16*%
X168013523Y-59352380D02*
X168346857Y-60352380D01*
X168680190Y-59352380D01*
X169346857Y-59828571D02*
X169489714Y-59876190D01*
X169537333Y-59923809D01*
X169584952Y-60019047D01*
X169584952Y-60161904D01*
X169537333Y-60257142D01*
X169489714Y-60304761D01*
X169394476Y-60352380D01*
X169013523Y-60352380D01*
X169013523Y-59352380D01*
X169346857Y-59352380D01*
X169442095Y-59400000D01*
X169489714Y-59447619D01*
X169537333Y-59542857D01*
X169537333Y-59638095D01*
X169489714Y-59733333D01*
X169442095Y-59780952D01*
X169346857Y-59828571D01*
X169013523Y-59828571D01*
X170013523Y-59352380D02*
X170013523Y-60161904D01*
X170061142Y-60257142D01*
X170108761Y-60304761D01*
X170204000Y-60352380D01*
X170394476Y-60352380D01*
X170489714Y-60304761D01*
X170537333Y-60257142D01*
X170584952Y-60161904D01*
X170584952Y-59352380D01*
X171013523Y-60304761D02*
X171156380Y-60352380D01*
X171394476Y-60352380D01*
X171489714Y-60304761D01*
X171537333Y-60257142D01*
X171584952Y-60161904D01*
X171584952Y-60066666D01*
X171537333Y-59971428D01*
X171489714Y-59923809D01*
X171394476Y-59876190D01*
X171204000Y-59828571D01*
X171108761Y-59780952D01*
X171061142Y-59733333D01*
X171013523Y-59638095D01*
X171013523Y-59542857D01*
X171061142Y-59447619D01*
X171108761Y-59400000D01*
X171204000Y-59352380D01*
X171442095Y-59352380D01*
X171584952Y-59400000D01*
X172727809Y-60304761D02*
X172870666Y-60352380D01*
X173108761Y-60352380D01*
X173204000Y-60304761D01*
X173251619Y-60257142D01*
X173299238Y-60161904D01*
X173299238Y-60066666D01*
X173251619Y-59971428D01*
X173204000Y-59923809D01*
X173108761Y-59876190D01*
X172918285Y-59828571D01*
X172823047Y-59780952D01*
X172775428Y-59733333D01*
X172727809Y-59638095D01*
X172727809Y-59542857D01*
X172775428Y-59447619D01*
X172823047Y-59400000D01*
X172918285Y-59352380D01*
X173156380Y-59352380D01*
X173299238Y-59400000D01*
X174299238Y-60352380D02*
X173965904Y-59876190D01*
X173727809Y-60352380D02*
X173727809Y-59352380D01*
X174108761Y-59352380D01*
X174204000Y-59400000D01*
X174251619Y-59447619D01*
X174299238Y-59542857D01*
X174299238Y-59685714D01*
X174251619Y-59780952D01*
X174204000Y-59828571D01*
X174108761Y-59876190D01*
X173727809Y-59876190D01*
X175299238Y-60257142D02*
X175251619Y-60304761D01*
X175108761Y-60352380D01*
X175013523Y-60352380D01*
X174870666Y-60304761D01*
X174775428Y-60209523D01*
X174727809Y-60114285D01*
X174680190Y-59923809D01*
X174680190Y-59780952D01*
X174727809Y-59590476D01*
X174775428Y-59495238D01*
X174870666Y-59400000D01*
X175013523Y-59352380D01*
X175108761Y-59352380D01*
X175251619Y-59400000D01*
X175299238Y-59447619D01*
X171156380Y-66079523D02*
X171870666Y-66079523D01*
X172013523Y-66127142D01*
X172108761Y-66222380D01*
X172156380Y-66365238D01*
X172156380Y-66460476D01*
X172156380Y-65603333D02*
X171156380Y-65603333D01*
X171156380Y-65222380D01*
X171204000Y-65127142D01*
X171251619Y-65079523D01*
X171346857Y-65031904D01*
X171489714Y-65031904D01*
X171584952Y-65079523D01*
X171632571Y-65127142D01*
X171680190Y-65222380D01*
X171680190Y-65603333D01*
X172156380Y-64079523D02*
X172156380Y-64650952D01*
X172156380Y-64365238D02*
X171156380Y-64365238D01*
X171299238Y-64460476D01*
X171394476Y-64555714D01*
X171442095Y-64650952D01*
X171156380Y-63222380D02*
X171156380Y-63412857D01*
X171204000Y-63508095D01*
X171251619Y-63555714D01*
X171394476Y-63650952D01*
X171584952Y-63698571D01*
X171965904Y-63698571D01*
X172061142Y-63650952D01*
X172108761Y-63603333D01*
X172156380Y-63508095D01*
X172156380Y-63317619D01*
X172108761Y-63222380D01*
X172061142Y-63174761D01*
X171965904Y-63127142D01*
X171727809Y-63127142D01*
X171632571Y-63174761D01*
X171584952Y-63222380D01*
X171537333Y-63317619D01*
X171537333Y-63508095D01*
X171584952Y-63603333D01*
X171632571Y-63650952D01*
X171727809Y-63698571D01*
%TO.C,D1*%
X166425071Y-85557380D02*
X166663166Y-86557380D01*
X166853642Y-85843095D01*
X167044119Y-86557380D01*
X167282214Y-85557380D01*
X167663166Y-86557380D02*
X167663166Y-85557380D01*
X168472690Y-86033571D02*
X168139357Y-86033571D01*
X168139357Y-86557380D02*
X168139357Y-85557380D01*
X168615547Y-85557380D01*
X168996500Y-86557380D02*
X168996500Y-85557380D01*
X170710785Y-86557380D02*
X170234595Y-86557380D01*
X170234595Y-85557380D01*
X171044119Y-86033571D02*
X171377452Y-86033571D01*
X171520309Y-86557380D02*
X171044119Y-86557380D01*
X171044119Y-85557380D01*
X171520309Y-85557380D01*
X171948880Y-86557380D02*
X171948880Y-85557380D01*
X172186976Y-85557380D01*
X172329833Y-85605000D01*
X172425071Y-85700238D01*
X172472690Y-85795476D01*
X172520309Y-85985952D01*
X172520309Y-86128809D01*
X172472690Y-86319285D01*
X172425071Y-86414523D01*
X172329833Y-86509761D01*
X172186976Y-86557380D01*
X171948880Y-86557380D01*
D11*
X169127452Y-84681190D02*
X169127452Y-84181190D01*
X169246500Y-84181190D01*
X169317928Y-84205000D01*
X169365547Y-84252619D01*
X169389357Y-84300238D01*
X169413166Y-84395476D01*
X169413166Y-84466904D01*
X169389357Y-84562142D01*
X169365547Y-84609761D01*
X169317928Y-84657380D01*
X169246500Y-84681190D01*
X169127452Y-84681190D01*
X169889357Y-84681190D02*
X169603642Y-84681190D01*
X169746500Y-84681190D02*
X169746500Y-84181190D01*
X169698880Y-84252619D01*
X169651261Y-84300238D01*
X169603642Y-84324047D01*
D10*
%TO.C,SW1*%
X158107619Y-79670380D02*
X157774285Y-79194190D01*
X157536190Y-79670380D02*
X157536190Y-78670380D01*
X157917142Y-78670380D01*
X158012380Y-78718000D01*
X158060000Y-78765619D01*
X158107619Y-78860857D01*
X158107619Y-79003714D01*
X158060000Y-79098952D01*
X158012380Y-79146571D01*
X157917142Y-79194190D01*
X157536190Y-79194190D01*
X158536190Y-79146571D02*
X158869523Y-79146571D01*
X159012380Y-79670380D02*
X158536190Y-79670380D01*
X158536190Y-78670380D01*
X159012380Y-78670380D01*
X159393333Y-79622761D02*
X159536190Y-79670380D01*
X159774285Y-79670380D01*
X159869523Y-79622761D01*
X159917142Y-79575142D01*
X159964761Y-79479904D01*
X159964761Y-79384666D01*
X159917142Y-79289428D01*
X159869523Y-79241809D01*
X159774285Y-79194190D01*
X159583809Y-79146571D01*
X159488571Y-79098952D01*
X159440952Y-79051333D01*
X159393333Y-78956095D01*
X159393333Y-78860857D01*
X159440952Y-78765619D01*
X159488571Y-78718000D01*
X159583809Y-78670380D01*
X159821904Y-78670380D01*
X159964761Y-78718000D01*
X160393333Y-79146571D02*
X160726666Y-79146571D01*
X160869523Y-79670380D02*
X160393333Y-79670380D01*
X160393333Y-78670380D01*
X160869523Y-78670380D01*
X161155238Y-78670380D02*
X161726666Y-78670380D01*
X161440952Y-79670380D02*
X161440952Y-78670380D01*
X158226666Y-71422761D02*
X158369523Y-71470380D01*
X158607619Y-71470380D01*
X158702857Y-71422761D01*
X158750476Y-71375142D01*
X158798095Y-71279904D01*
X158798095Y-71184666D01*
X158750476Y-71089428D01*
X158702857Y-71041809D01*
X158607619Y-70994190D01*
X158417142Y-70946571D01*
X158321904Y-70898952D01*
X158274285Y-70851333D01*
X158226666Y-70756095D01*
X158226666Y-70660857D01*
X158274285Y-70565619D01*
X158321904Y-70518000D01*
X158417142Y-70470380D01*
X158655238Y-70470380D01*
X158798095Y-70518000D01*
X159131428Y-70470380D02*
X159369523Y-71470380D01*
X159560000Y-70756095D01*
X159750476Y-71470380D01*
X159988571Y-70470380D01*
X160893333Y-71470380D02*
X160321904Y-71470380D01*
X160607619Y-71470380D02*
X160607619Y-70470380D01*
X160512380Y-70613238D01*
X160417142Y-70708476D01*
X160321904Y-70756095D01*
%TO.C,J4*%
X164394476Y-80252380D02*
X164394476Y-79252380D01*
X164632571Y-79252380D01*
X164775428Y-79300000D01*
X164870666Y-79395238D01*
X164918285Y-79490476D01*
X164965904Y-79680952D01*
X164965904Y-79823809D01*
X164918285Y-80014285D01*
X164870666Y-80109523D01*
X164775428Y-80204761D01*
X164632571Y-80252380D01*
X164394476Y-80252380D01*
X165394476Y-79728571D02*
X165727809Y-79728571D01*
X165870666Y-80252380D02*
X165394476Y-80252380D01*
X165394476Y-79252380D01*
X165870666Y-79252380D01*
X166632571Y-79728571D02*
X166775428Y-79776190D01*
X166823047Y-79823809D01*
X166870666Y-79919047D01*
X166870666Y-80061904D01*
X166823047Y-80157142D01*
X166775428Y-80204761D01*
X166680190Y-80252380D01*
X166299238Y-80252380D01*
X166299238Y-79252380D01*
X166632571Y-79252380D01*
X166727809Y-79300000D01*
X166775428Y-79347619D01*
X166823047Y-79442857D01*
X166823047Y-79538095D01*
X166775428Y-79633333D01*
X166727809Y-79680952D01*
X166632571Y-79728571D01*
X166299238Y-79728571D01*
X167299238Y-79252380D02*
X167299238Y-80061904D01*
X167346857Y-80157142D01*
X167394476Y-80204761D01*
X167489714Y-80252380D01*
X167680190Y-80252380D01*
X167775428Y-80204761D01*
X167823047Y-80157142D01*
X167870666Y-80061904D01*
X167870666Y-79252380D01*
X168870666Y-79300000D02*
X168775428Y-79252380D01*
X168632571Y-79252380D01*
X168489714Y-79300000D01*
X168394476Y-79395238D01*
X168346857Y-79490476D01*
X168299238Y-79680952D01*
X168299238Y-79823809D01*
X168346857Y-80014285D01*
X168394476Y-80109523D01*
X168489714Y-80204761D01*
X168632571Y-80252380D01*
X168727809Y-80252380D01*
X168870666Y-80204761D01*
X168918285Y-80157142D01*
X168918285Y-79823809D01*
X168727809Y-79823809D01*
X170108761Y-79252380D02*
X170108761Y-80061904D01*
X170156380Y-80157142D01*
X170204000Y-80204761D01*
X170299238Y-80252380D01*
X170489714Y-80252380D01*
X170584952Y-80204761D01*
X170632571Y-80157142D01*
X170680190Y-80061904D01*
X170680190Y-79252380D01*
X171108761Y-79966666D02*
X171584952Y-79966666D01*
X171013523Y-80252380D02*
X171346857Y-79252380D01*
X171680190Y-80252380D01*
X172584952Y-80252380D02*
X172251619Y-79776190D01*
X172013523Y-80252380D02*
X172013523Y-79252380D01*
X172394476Y-79252380D01*
X172489714Y-79300000D01*
X172537333Y-79347619D01*
X172584952Y-79442857D01*
X172584952Y-79585714D01*
X172537333Y-79680952D01*
X172489714Y-79728571D01*
X172394476Y-79776190D01*
X172013523Y-79776190D01*
X172870666Y-79252380D02*
X173442095Y-79252380D01*
X173156380Y-80252380D02*
X173156380Y-79252380D01*
X174537333Y-80252380D02*
X174537333Y-79252380D01*
X174918285Y-79252380D01*
X175013523Y-79300000D01*
X175061142Y-79347619D01*
X175108761Y-79442857D01*
X175108761Y-79585714D01*
X175061142Y-79680952D01*
X175013523Y-79728571D01*
X174918285Y-79776190D01*
X174537333Y-79776190D01*
X176108761Y-80252380D02*
X175775428Y-79776190D01*
X175537333Y-80252380D02*
X175537333Y-79252380D01*
X175918285Y-79252380D01*
X176013523Y-79300000D01*
X176061142Y-79347619D01*
X176108761Y-79442857D01*
X176108761Y-79585714D01*
X176061142Y-79680952D01*
X176013523Y-79728571D01*
X175918285Y-79776190D01*
X175537333Y-79776190D01*
X176727809Y-79252380D02*
X176918285Y-79252380D01*
X177013523Y-79300000D01*
X177108761Y-79395238D01*
X177156380Y-79585714D01*
X177156380Y-79919047D01*
X177108761Y-80109523D01*
X177013523Y-80204761D01*
X176918285Y-80252380D01*
X176727809Y-80252380D01*
X176632571Y-80204761D01*
X176537333Y-80109523D01*
X176489714Y-79919047D01*
X176489714Y-79585714D01*
X176537333Y-79395238D01*
X176632571Y-79300000D01*
X176727809Y-79252380D01*
X177918285Y-79728571D02*
X178061142Y-79776190D01*
X178108761Y-79823809D01*
X178156380Y-79919047D01*
X178156380Y-80061904D01*
X178108761Y-80157142D01*
X178061142Y-80204761D01*
X177965904Y-80252380D01*
X177584952Y-80252380D01*
X177584952Y-79252380D01*
X177918285Y-79252380D01*
X178013523Y-79300000D01*
X178061142Y-79347619D01*
X178108761Y-79442857D01*
X178108761Y-79538095D01*
X178061142Y-79633333D01*
X178013523Y-79680952D01*
X177918285Y-79728571D01*
X177584952Y-79728571D01*
X178584952Y-79728571D02*
X178918285Y-79728571D01*
X179061142Y-80252380D02*
X178584952Y-80252380D01*
X178584952Y-79252380D01*
X179061142Y-79252380D01*
X171156380Y-75263333D02*
X171870666Y-75263333D01*
X172013523Y-75310952D01*
X172108761Y-75406190D01*
X172156380Y-75549047D01*
X172156380Y-75644285D01*
X171489714Y-74358571D02*
X172156380Y-74358571D01*
X171108761Y-74596666D02*
X171823047Y-74834761D01*
X171823047Y-74215714D01*
%TO.C,J13*%
X191532333Y-128782380D02*
X192151380Y-128782380D01*
X191818047Y-129163333D01*
X191960904Y-129163333D01*
X192056142Y-129210952D01*
X192103761Y-129258571D01*
X192151380Y-129353809D01*
X192151380Y-129591904D01*
X192103761Y-129687142D01*
X192056142Y-129734761D01*
X191960904Y-129782380D01*
X191675190Y-129782380D01*
X191579952Y-129734761D01*
X191532333Y-129687142D01*
X192484714Y-129115714D02*
X192722809Y-129782380D01*
X192960904Y-129115714D01*
X193246619Y-128782380D02*
X193865666Y-128782380D01*
X193532333Y-129163333D01*
X193675190Y-129163333D01*
X193770428Y-129210952D01*
X193818047Y-129258571D01*
X193865666Y-129353809D01*
X193865666Y-129591904D01*
X193818047Y-129687142D01*
X193770428Y-129734761D01*
X193675190Y-129782380D01*
X193389476Y-129782380D01*
X193294238Y-129734761D01*
X193246619Y-129687142D01*
X195056142Y-129115714D02*
X195056142Y-130115714D01*
X195056142Y-129163333D02*
X195151380Y-129115714D01*
X195341857Y-129115714D01*
X195437095Y-129163333D01*
X195484714Y-129210952D01*
X195532333Y-129306190D01*
X195532333Y-129591904D01*
X195484714Y-129687142D01*
X195437095Y-129734761D01*
X195341857Y-129782380D01*
X195151380Y-129782380D01*
X195056142Y-129734761D01*
X195960904Y-129782380D02*
X195960904Y-129115714D01*
X195960904Y-129306190D02*
X196008523Y-129210952D01*
X196056142Y-129163333D01*
X196151380Y-129115714D01*
X196246619Y-129115714D01*
X196722809Y-129782380D02*
X196627571Y-129734761D01*
X196579952Y-129687142D01*
X196532333Y-129591904D01*
X196532333Y-129306190D01*
X196579952Y-129210952D01*
X196627571Y-129163333D01*
X196722809Y-129115714D01*
X196865666Y-129115714D01*
X196960904Y-129163333D01*
X197008523Y-129210952D01*
X197056142Y-129306190D01*
X197056142Y-129591904D01*
X197008523Y-129687142D01*
X196960904Y-129734761D01*
X196865666Y-129782380D01*
X196722809Y-129782380D01*
X197484714Y-129782380D02*
X197484714Y-128782380D01*
X197484714Y-129163333D02*
X197579952Y-129115714D01*
X197770428Y-129115714D01*
X197865666Y-129163333D01*
X197913285Y-129210952D01*
X197960904Y-129306190D01*
X197960904Y-129591904D01*
X197913285Y-129687142D01*
X197865666Y-129734761D01*
X197770428Y-129782380D01*
X197579952Y-129782380D01*
X197484714Y-129734761D01*
X198770428Y-129734761D02*
X198675190Y-129782380D01*
X198484714Y-129782380D01*
X198389476Y-129734761D01*
X198341857Y-129639523D01*
X198341857Y-129258571D01*
X198389476Y-129163333D01*
X198484714Y-129115714D01*
X198675190Y-129115714D01*
X198770428Y-129163333D01*
X198818047Y-129258571D01*
X198818047Y-129353809D01*
X198341857Y-129449047D01*
X194651380Y-126539523D02*
X195365666Y-126539523D01*
X195508523Y-126587142D01*
X195603761Y-126682380D01*
X195651380Y-126825238D01*
X195651380Y-126920476D01*
X195651380Y-125539523D02*
X195651380Y-126110952D01*
X195651380Y-125825238D02*
X194651380Y-125825238D01*
X194794238Y-125920476D01*
X194889476Y-126015714D01*
X194937095Y-126110952D01*
X194651380Y-125206190D02*
X194651380Y-124587142D01*
X195032333Y-124920476D01*
X195032333Y-124777619D01*
X195079952Y-124682380D01*
X195127571Y-124634761D01*
X195222809Y-124587142D01*
X195460904Y-124587142D01*
X195556142Y-124634761D01*
X195603761Y-124682380D01*
X195651380Y-124777619D01*
X195651380Y-125063333D01*
X195603761Y-125158571D01*
X195556142Y-125206190D01*
%TO.C,D3*%
X191221380Y-131872857D02*
X191221380Y-131253809D01*
X191602333Y-131587142D01*
X191602333Y-131444285D01*
X191649952Y-131349047D01*
X191697571Y-131301428D01*
X191792809Y-131253809D01*
X192030904Y-131253809D01*
X192126142Y-131301428D01*
X192173761Y-131349047D01*
X192221380Y-131444285D01*
X192221380Y-131730000D01*
X192173761Y-131825238D01*
X192126142Y-131872857D01*
X192126142Y-130825238D02*
X192173761Y-130777619D01*
X192221380Y-130825238D01*
X192173761Y-130872857D01*
X192126142Y-130825238D01*
X192221380Y-130825238D01*
X191221380Y-130444285D02*
X191221380Y-129825238D01*
X191602333Y-130158571D01*
X191602333Y-130015714D01*
X191649952Y-129920476D01*
X191697571Y-129872857D01*
X191792809Y-129825238D01*
X192030904Y-129825238D01*
X192126142Y-129872857D01*
X192173761Y-129920476D01*
X192221380Y-130015714D01*
X192221380Y-130301428D01*
X192173761Y-130396666D01*
X192126142Y-130444285D01*
X191221380Y-129539523D02*
X192221380Y-129206190D01*
X191221380Y-128872857D01*
X192221380Y-127777619D02*
X191221380Y-127777619D01*
X191221380Y-127396666D01*
X191269000Y-127301428D01*
X191316619Y-127253809D01*
X191411857Y-127206190D01*
X191554714Y-127206190D01*
X191649952Y-127253809D01*
X191697571Y-127301428D01*
X191745190Y-127396666D01*
X191745190Y-127777619D01*
X191221380Y-126587142D02*
X191221380Y-126396666D01*
X191269000Y-126301428D01*
X191364238Y-126206190D01*
X191554714Y-126158571D01*
X191888047Y-126158571D01*
X192078523Y-126206190D01*
X192173761Y-126301428D01*
X192221380Y-126396666D01*
X192221380Y-126587142D01*
X192173761Y-126682380D01*
X192078523Y-126777619D01*
X191888047Y-126825238D01*
X191554714Y-126825238D01*
X191364238Y-126777619D01*
X191269000Y-126682380D01*
X191221380Y-126587142D01*
X191221380Y-125825238D02*
X192221380Y-125587142D01*
X191507095Y-125396666D01*
X192221380Y-125206190D01*
X191221380Y-124968095D01*
X191697571Y-124587142D02*
X191697571Y-124253809D01*
X192221380Y-124110952D02*
X192221380Y-124587142D01*
X191221380Y-124587142D01*
X191221380Y-124110952D01*
X192221380Y-123110952D02*
X191745190Y-123444285D01*
X192221380Y-123682380D02*
X191221380Y-123682380D01*
X191221380Y-123301428D01*
X191269000Y-123206190D01*
X191316619Y-123158571D01*
X191411857Y-123110952D01*
X191554714Y-123110952D01*
X191649952Y-123158571D01*
X191697571Y-123206190D01*
X191745190Y-123301428D01*
X191745190Y-123682380D01*
X192221380Y-121444285D02*
X192221380Y-121920476D01*
X191221380Y-121920476D01*
X191697571Y-121110952D02*
X191697571Y-120777619D01*
X192221380Y-120634761D02*
X192221380Y-121110952D01*
X191221380Y-121110952D01*
X191221380Y-120634761D01*
X192221380Y-120206190D02*
X191221380Y-120206190D01*
X191221380Y-119968095D01*
X191269000Y-119825238D01*
X191364238Y-119730000D01*
X191459476Y-119682380D01*
X191649952Y-119634761D01*
X191792809Y-119634761D01*
X191983285Y-119682380D01*
X192078523Y-119730000D01*
X192173761Y-119825238D01*
X192221380Y-119968095D01*
X192221380Y-120206190D01*
D11*
X190345190Y-126099047D02*
X189845190Y-126099047D01*
X189845190Y-125980000D01*
X189869000Y-125908571D01*
X189916619Y-125860952D01*
X189964238Y-125837142D01*
X190059476Y-125813333D01*
X190130904Y-125813333D01*
X190226142Y-125837142D01*
X190273761Y-125860952D01*
X190321380Y-125908571D01*
X190345190Y-125980000D01*
X190345190Y-126099047D01*
X189845190Y-125646666D02*
X189845190Y-125337142D01*
X190035666Y-125503809D01*
X190035666Y-125432380D01*
X190059476Y-125384761D01*
X190083285Y-125360952D01*
X190130904Y-125337142D01*
X190249952Y-125337142D01*
X190297571Y-125360952D01*
X190321380Y-125384761D01*
X190345190Y-125432380D01*
X190345190Y-125575238D01*
X190321380Y-125622857D01*
X190297571Y-125646666D01*
D12*
%TO.C,D9*%
X165319000Y-94647500D02*
X165319000Y-92647500D01*
X164419000Y-94647500D02*
X165319000Y-94647500D01*
X164119000Y-92647500D02*
X164119000Y-94347500D01*
X164119000Y-94347500D02*
X164419000Y-94647500D01*
X165319000Y-92647500D02*
X164119000Y-92647500D01*
%TO.C,D10*%
X179340000Y-95977000D02*
X181340000Y-95977000D01*
X179640000Y-94777000D02*
X179340000Y-95077000D01*
X179340000Y-95077000D02*
X179340000Y-95977000D01*
X181340000Y-94777000D02*
X179640000Y-94777000D01*
X181340000Y-95977000D02*
X181340000Y-94777000D01*
%TO.C,D11*%
X181340000Y-91405000D02*
X181340000Y-90205000D01*
X179640000Y-90205000D02*
X179340000Y-90505000D01*
X181340000Y-90205000D02*
X179640000Y-90205000D01*
X179340000Y-91405000D02*
X181340000Y-91405000D01*
X179340000Y-90505000D02*
X179340000Y-91405000D01*
%TO.C,J3*%
X162979000Y-130230000D02*
X162979000Y-121980000D01*
X162179000Y-121230000D02*
X148479000Y-121230000D01*
X148479000Y-130230000D02*
X162979000Y-130230000D01*
X162175787Y-121224575D02*
X162979000Y-121980000D01*
X148479000Y-121230000D02*
X148479000Y-130230000D01*
X151979000Y-121230000D02*
X151979000Y-130230000D01*
%TO.C,J17*%
X242079000Y-41920000D02*
X242079000Y-41620000D01*
X238379000Y-55880000D02*
X237379000Y-56880000D01*
X241429000Y-41920000D02*
X241429000Y-56880000D01*
X228329000Y-56880000D02*
X228329000Y-41920000D01*
X239379000Y-56880000D02*
X238379000Y-55880000D01*
X227679000Y-41620000D02*
X227679000Y-41920000D01*
X241429000Y-56880000D02*
X228329000Y-56880000D01*
X241429000Y-45340000D02*
X228329000Y-45340000D01*
X242079000Y-41620000D02*
X227679000Y-41620000D01*
X227679000Y-41920000D02*
X228329000Y-41920000D01*
X241429000Y-41920000D02*
X242079000Y-41920000D01*
%TO.C,JP1*%
X181229000Y-131318000D02*
X181229000Y-124648000D01*
X179959000Y-130368000D02*
X181229000Y-130368000D01*
X183769000Y-123698000D02*
X183769000Y-131318000D01*
X181229000Y-124648000D02*
X179959000Y-124648000D01*
X185039000Y-127828000D02*
X183769000Y-127828000D01*
X183769000Y-127188000D02*
X185039000Y-127188000D01*
X185039000Y-127188000D02*
X185039000Y-127828000D01*
X179959000Y-125288000D02*
X181229000Y-125288000D01*
X182179000Y-123698000D02*
X183769000Y-123698000D01*
X179959000Y-129728000D02*
X179959000Y-130368000D01*
X181229000Y-129728000D02*
X179959000Y-129728000D01*
X179959000Y-124648000D02*
X179959000Y-125288000D01*
X181229000Y-124648000D02*
X182179000Y-123698000D01*
X183769000Y-131318000D02*
X181229000Y-131318000D01*
%TO.C,JP4*%
X168529000Y-95885000D02*
X168529000Y-91755000D01*
X171069000Y-95885000D02*
X168529000Y-95885000D01*
X167259000Y-92395000D02*
X168529000Y-92395000D01*
X169479000Y-90805000D02*
X171069000Y-90805000D01*
X168529000Y-91755000D02*
X167259000Y-91755000D01*
X168529000Y-91755000D02*
X169479000Y-90805000D01*
X171069000Y-94295000D02*
X172339000Y-94295000D01*
X171069000Y-90805000D02*
X171069000Y-95885000D01*
X172339000Y-94295000D02*
X172339000Y-94935000D01*
X167259000Y-91755000D02*
X167259000Y-92395000D01*
X172339000Y-94935000D02*
X171069000Y-94935000D01*
%TO.C,J5*%
X174244000Y-126680000D02*
X174244000Y-127320000D01*
X169164000Y-124140000D02*
X169164000Y-124780000D01*
X170434000Y-128270000D02*
X170434000Y-124140000D01*
X172974000Y-126680000D02*
X174244000Y-126680000D01*
X170434000Y-124140000D02*
X169164000Y-124140000D01*
X171384000Y-123190000D02*
X172974000Y-123190000D01*
X172974000Y-128270000D02*
X170434000Y-128270000D01*
X174244000Y-127320000D02*
X172974000Y-127320000D01*
X172974000Y-123190000D02*
X172974000Y-128270000D01*
X169164000Y-124780000D02*
X170434000Y-124780000D01*
X170434000Y-124140000D02*
X171384000Y-123190000D01*
%TO.C,JP5*%
X195199000Y-72070000D02*
X196469000Y-72070000D01*
X196469000Y-72070000D02*
X196469000Y-72710000D01*
X192659000Y-69530000D02*
X191389000Y-69530000D01*
X195199000Y-73660000D02*
X192659000Y-73660000D01*
X191389000Y-70170000D02*
X192659000Y-70170000D01*
X196469000Y-72710000D02*
X195199000Y-72710000D01*
X195199000Y-68580000D02*
X195199000Y-73660000D01*
X192659000Y-69530000D02*
X193609000Y-68580000D01*
X193609000Y-68580000D02*
X195199000Y-68580000D01*
X192659000Y-73660000D02*
X192659000Y-69530000D01*
X191389000Y-69530000D02*
X191389000Y-70170000D01*
%TO.C,JP8*%
X192659000Y-59370000D02*
X193609000Y-58420000D01*
X196469000Y-61910000D02*
X196469000Y-62550000D01*
X195199000Y-58420000D02*
X195199000Y-66040000D01*
X195199000Y-66040000D02*
X192659000Y-66040000D01*
X191389000Y-65090000D02*
X192659000Y-65090000D01*
X192659000Y-66040000D02*
X192659000Y-59370000D01*
X192659000Y-59370000D02*
X191389000Y-59370000D01*
X196469000Y-62550000D02*
X195199000Y-62550000D01*
X191389000Y-59370000D02*
X191389000Y-60010000D01*
X191389000Y-60010000D02*
X192659000Y-60010000D01*
X191389000Y-64450000D02*
X191389000Y-65090000D01*
X192659000Y-64450000D02*
X191389000Y-64450000D01*
X193609000Y-58420000D02*
X195199000Y-58420000D01*
X195199000Y-61910000D02*
X196469000Y-61910000D01*
%TO.C,D5*%
X188249000Y-52340000D02*
X188249000Y-54040000D01*
X188249000Y-54040000D02*
X188549000Y-54340000D01*
X189449000Y-54340000D02*
X189449000Y-52340000D01*
X188549000Y-54340000D02*
X189449000Y-54340000D01*
X189449000Y-52340000D02*
X188249000Y-52340000D01*
%TO.C,JP6*%
X195199000Y-54290000D02*
X196469000Y-54290000D01*
X195199000Y-55880000D02*
X192659000Y-55880000D01*
X196469000Y-54930000D02*
X195199000Y-54930000D01*
X192659000Y-55880000D02*
X192659000Y-51750000D01*
X192659000Y-51750000D02*
X193609000Y-50800000D01*
X192659000Y-51750000D02*
X191389000Y-51750000D01*
X195199000Y-50800000D02*
X195199000Y-55880000D01*
X191389000Y-51750000D02*
X191389000Y-52390000D01*
X196469000Y-54290000D02*
X196469000Y-54930000D01*
X191389000Y-52390000D02*
X192659000Y-52390000D01*
X193609000Y-50800000D02*
X195199000Y-50800000D01*
%TO.C,D8*%
X188249000Y-70120000D02*
X188249000Y-72120000D01*
X189149000Y-70120000D02*
X188249000Y-70120000D01*
X189449000Y-72120000D02*
X189449000Y-70420000D01*
X189449000Y-70420000D02*
X189149000Y-70120000D01*
X188249000Y-72120000D02*
X189449000Y-72120000D01*
%TO.C,D18*%
X168496500Y-81880000D02*
X170496500Y-81880000D01*
X170496500Y-80680000D02*
X168796500Y-80680000D01*
X168796500Y-80680000D02*
X168496500Y-80980000D01*
X168496500Y-80980000D02*
X168496500Y-81880000D01*
X170496500Y-81880000D02*
X170496500Y-80680000D01*
%TO.C,J1*%
X156935500Y-93515000D02*
X156725500Y-93515000D01*
X156935500Y-93115000D02*
X156725500Y-93115000D01*
X151423796Y-90865000D02*
X151423796Y-98365000D01*
X156425500Y-90865000D02*
X156425500Y-98365000D01*
X156525500Y-93315000D02*
X156725500Y-93115000D01*
X151425500Y-90865000D02*
X156425500Y-90865000D01*
X156935500Y-93115000D02*
X156935500Y-93515000D01*
X151425500Y-98365000D02*
X156425500Y-98365000D01*
X152123796Y-91615000D02*
X152123796Y-97615000D01*
X156725500Y-93515000D02*
X156525500Y-93315000D01*
%TO.C,J10*%
X204876400Y-57090000D02*
X204876400Y-67370000D01*
X213131400Y-67310000D02*
X206781400Y-67310000D01*
X206781400Y-58150000D02*
X207781400Y-57150000D01*
X207781400Y-57150000D02*
X213131400Y-57150000D01*
X206781400Y-67310000D02*
X206781400Y-58150000D01*
X204876400Y-67370000D02*
X215036400Y-67370000D01*
X215036400Y-57090000D02*
X204876400Y-57090000D01*
X215036400Y-67370000D02*
X215036400Y-57090000D01*
X213131400Y-57150000D02*
X213131400Y-67310000D01*
%TO.C,J6*%
X177675000Y-56880000D02*
X164575000Y-56880000D01*
X177675000Y-41920000D02*
X178325000Y-41920000D01*
X164575000Y-56880000D02*
X164575000Y-41920000D01*
X175625000Y-56880000D02*
X174625000Y-55880000D01*
X178325000Y-41620000D02*
X163925000Y-41620000D01*
X178325000Y-41920000D02*
X178325000Y-41620000D01*
X163925000Y-41920000D02*
X164575000Y-41920000D01*
X163925000Y-41620000D02*
X163925000Y-41920000D01*
X177675000Y-45340000D02*
X164575000Y-45340000D01*
X174625000Y-55880000D02*
X173625000Y-56880000D01*
X177675000Y-41920000D02*
X177675000Y-56880000D01*
%TO.C,JP3*%
X156995000Y-80883000D02*
X156995000Y-81523000D01*
X159215000Y-79933000D02*
X160805000Y-79933000D01*
X158265000Y-80883000D02*
X159215000Y-79933000D01*
X156995000Y-81523000D02*
X158265000Y-81523000D01*
X160805000Y-79933000D02*
X160805000Y-85013000D01*
X160805000Y-83423000D02*
X162075000Y-83423000D01*
X162075000Y-84063000D02*
X160805000Y-84063000D01*
X158265000Y-85013000D02*
X158265000Y-80883000D01*
X160805000Y-85013000D02*
X158265000Y-85013000D01*
X158265000Y-80883000D02*
X156995000Y-80883000D01*
X162075000Y-83423000D02*
X162075000Y-84063000D01*
%TO.C,J7*%
X168844000Y-101345000D02*
X169844000Y-102345000D01*
X169844000Y-117095000D02*
X148124000Y-117095000D01*
X148124000Y-101345000D02*
X168844000Y-101345000D01*
X148124000Y-117095000D02*
X148124000Y-101345000D01*
X169844000Y-102345000D02*
X169844000Y-117095000D01*
D13*
%TO.C,SW2*%
X238929800Y-130055000D02*
X232929800Y-130055000D01*
X241729800Y-125055000D02*
X241729800Y-136055000D01*
X235929800Y-127055000D02*
X235929800Y-133055000D01*
X230129800Y-136055000D02*
X230129800Y-124055000D01*
X230129800Y-124055000D02*
X240629800Y-124055000D01*
X240629800Y-124055000D02*
X241729800Y-125055000D01*
X241729800Y-136055000D02*
X230129800Y-136055000D01*
X238929800Y-130055000D02*
G75*
G03*
X238929800Y-130055000I-3000000J0D01*
G01*
D12*
%TO.C,J20*%
X239014000Y-81595000D02*
X237744000Y-81595000D01*
X241554000Y-85725000D02*
X239014000Y-85725000D01*
X242824000Y-84135000D02*
X242824000Y-84775000D01*
X237744000Y-81595000D02*
X237744000Y-82235000D01*
X237744000Y-82235000D02*
X239014000Y-82235000D01*
X239014000Y-85725000D02*
X239014000Y-81595000D01*
X241554000Y-80645000D02*
X241554000Y-85725000D01*
X239014000Y-81595000D02*
X239964000Y-80645000D01*
X239964000Y-80645000D02*
X241554000Y-80645000D01*
X242824000Y-84775000D02*
X241554000Y-84775000D01*
X241554000Y-84135000D02*
X242824000Y-84135000D01*
%TO.C,JP12*%
X241554000Y-63815000D02*
X242824000Y-63815000D01*
X239964000Y-60325000D02*
X241554000Y-60325000D01*
X239014000Y-61275000D02*
X239964000Y-60325000D01*
X242824000Y-64455000D02*
X241554000Y-64455000D01*
X239014000Y-61275000D02*
X237744000Y-61275000D01*
X239014000Y-65405000D02*
X239014000Y-61275000D01*
X241554000Y-60325000D02*
X241554000Y-65405000D01*
X241554000Y-65405000D02*
X239014000Y-65405000D01*
X237744000Y-61915000D02*
X239014000Y-61915000D01*
X242824000Y-63815000D02*
X242824000Y-64455000D01*
X237744000Y-61275000D02*
X237744000Y-61915000D01*
%TO.C,JP14*%
X237744000Y-71694000D02*
X239014000Y-71694000D01*
X239014000Y-71054000D02*
X237744000Y-71054000D01*
X239014000Y-75184000D02*
X239014000Y-71054000D01*
X239014000Y-71054000D02*
X239964000Y-70104000D01*
X239964000Y-70104000D02*
X241554000Y-70104000D01*
X237744000Y-71054000D02*
X237744000Y-71694000D01*
X241554000Y-75184000D02*
X239014000Y-75184000D01*
X241554000Y-73594000D02*
X242824000Y-73594000D01*
X242824000Y-74234000D02*
X241554000Y-74234000D01*
X242824000Y-73594000D02*
X242824000Y-74234000D01*
X241554000Y-70104000D02*
X241554000Y-75184000D01*
%TO.C,D13*%
X235804000Y-63865000D02*
X235804000Y-61865000D01*
X234904000Y-63865000D02*
X235804000Y-63865000D01*
X235804000Y-61865000D02*
X234604000Y-61865000D01*
X234604000Y-61865000D02*
X234604000Y-63565000D01*
X234604000Y-63565000D02*
X234904000Y-63865000D01*
%TO.C,D17*%
X234904000Y-73644000D02*
X235804000Y-73644000D01*
X235804000Y-71644000D02*
X234604000Y-71644000D01*
X235804000Y-73644000D02*
X235804000Y-71644000D01*
X234604000Y-71644000D02*
X234604000Y-73344000D01*
X234604000Y-73344000D02*
X234904000Y-73644000D01*
%TO.C,J15*%
X229235000Y-82616000D02*
X227965000Y-82616000D01*
X227965000Y-86106000D02*
X225425000Y-86106000D01*
X226375000Y-78486000D02*
X227965000Y-78486000D01*
X225425000Y-79436000D02*
X224155000Y-79436000D01*
X225425000Y-86106000D02*
X225425000Y-79436000D01*
X227965000Y-81976000D02*
X229235000Y-81976000D01*
X227965000Y-78486000D02*
X227965000Y-86106000D01*
X224155000Y-80076000D02*
X225425000Y-80076000D01*
X224155000Y-84516000D02*
X224155000Y-85156000D01*
X229235000Y-81976000D02*
X229235000Y-82616000D01*
X225425000Y-79436000D02*
X226375000Y-78486000D01*
X225425000Y-84516000D02*
X224155000Y-84516000D01*
X224155000Y-85156000D02*
X225425000Y-85156000D01*
X224155000Y-79436000D02*
X224155000Y-80076000D01*
%TO.C,JP11*%
X228219000Y-70800000D02*
X229489000Y-70800000D01*
X224409000Y-73980000D02*
X225679000Y-73980000D01*
X224409000Y-68900000D02*
X225679000Y-68900000D01*
X228219000Y-74930000D02*
X225679000Y-74930000D01*
X226629000Y-67310000D02*
X228219000Y-67310000D01*
X225679000Y-68260000D02*
X226629000Y-67310000D01*
X224409000Y-73340000D02*
X224409000Y-73980000D01*
X225679000Y-68260000D02*
X224409000Y-68260000D01*
X229489000Y-71440000D02*
X228219000Y-71440000D01*
X228219000Y-67310000D02*
X228219000Y-74930000D01*
X224409000Y-68260000D02*
X224409000Y-68900000D01*
X229489000Y-70800000D02*
X229489000Y-71440000D01*
X225679000Y-74930000D02*
X225679000Y-68260000D01*
X225679000Y-73340000D02*
X224409000Y-73340000D01*
%TO.C,D12*%
X227949000Y-63465000D02*
X227949000Y-62265000D01*
X227949000Y-62265000D02*
X226249000Y-62265000D01*
X225949000Y-62565000D02*
X225949000Y-63465000D01*
X225949000Y-63465000D02*
X227949000Y-63465000D01*
X226249000Y-62265000D02*
X225949000Y-62565000D01*
%TO.C,JP16*%
X174244000Y-67630000D02*
X175304000Y-67630000D01*
X174244000Y-65090000D02*
X175304000Y-65090000D01*
X168104000Y-67630000D02*
X168104000Y-66990000D01*
X169164000Y-67630000D02*
X168104000Y-67630000D01*
X175304000Y-61910000D02*
X174244000Y-61910000D01*
X175304000Y-64450000D02*
X174244000Y-64450000D01*
X169164000Y-68580000D02*
X169164000Y-60960000D01*
X168104000Y-61910000D02*
X169164000Y-61910000D01*
X174244000Y-60960000D02*
X174244000Y-67630000D01*
X174244000Y-62550000D02*
X175304000Y-62550000D01*
X175304000Y-65090000D02*
X175304000Y-64450000D01*
X168104000Y-65090000D02*
X168104000Y-64450000D01*
X175304000Y-62550000D02*
X175304000Y-61910000D01*
X168104000Y-66990000D02*
X169164000Y-66990000D01*
X168104000Y-64450000D02*
X169164000Y-64450000D01*
X168104000Y-62550000D02*
X168104000Y-61910000D01*
X169164000Y-65090000D02*
X168104000Y-65090000D01*
X173294000Y-68580000D02*
X169164000Y-68580000D01*
X169164000Y-60960000D02*
X174244000Y-60960000D01*
X175304000Y-67630000D02*
X175304000Y-66990000D01*
X174244000Y-67630000D02*
X173294000Y-68580000D01*
X175304000Y-66990000D02*
X174244000Y-66990000D01*
X169164000Y-62550000D02*
X168104000Y-62550000D01*
%TO.C,D1*%
X170496500Y-85055000D02*
X170496500Y-83855000D01*
X168796500Y-83855000D02*
X168496500Y-84155000D01*
X168496500Y-85055000D02*
X170496500Y-85055000D01*
X170496500Y-83855000D02*
X168796500Y-83855000D01*
X168496500Y-84155000D02*
X168496500Y-85055000D01*
%TO.C,SW1*%
X162560000Y-72068000D02*
X156560000Y-72068000D01*
X162560000Y-78068000D02*
X162560000Y-72068000D01*
X156560000Y-72068000D02*
X156560000Y-78068000D01*
X156560000Y-78068000D02*
X162560000Y-78068000D01*
X161310714Y-75068000D02*
G75*
G03*
X161310714Y-75068000I-1750714J0D01*
G01*
%TO.C,J4*%
X169164000Y-77150000D02*
X169164000Y-77790000D01*
X172974000Y-74610000D02*
X174244000Y-74610000D01*
X169164000Y-72070000D02*
X169164000Y-72710000D01*
X170434000Y-72070000D02*
X169164000Y-72070000D01*
X172974000Y-78740000D02*
X170434000Y-78740000D01*
X169164000Y-77790000D02*
X170434000Y-77790000D01*
X169164000Y-72710000D02*
X170434000Y-72710000D01*
X174244000Y-74610000D02*
X174244000Y-75250000D01*
X174244000Y-75250000D02*
X172974000Y-75250000D01*
X172974000Y-71120000D02*
X172974000Y-78740000D01*
X170434000Y-72070000D02*
X171384000Y-71120000D01*
X171384000Y-71120000D02*
X172974000Y-71120000D01*
X170434000Y-77150000D02*
X169164000Y-77150000D01*
X170434000Y-78740000D02*
X170434000Y-72070000D01*
%TO.C,J13*%
X196469000Y-126680000D02*
X197739000Y-126680000D01*
X197739000Y-127320000D02*
X196469000Y-127320000D01*
X193929000Y-128270000D02*
X193929000Y-124140000D01*
X194879000Y-123190000D02*
X196469000Y-123190000D01*
X196469000Y-123190000D02*
X196469000Y-128270000D01*
X197739000Y-126680000D02*
X197739000Y-127320000D01*
X193929000Y-124140000D02*
X192659000Y-124140000D01*
X192659000Y-124780000D02*
X193929000Y-124780000D01*
X196469000Y-128270000D02*
X193929000Y-128270000D01*
X193929000Y-124140000D02*
X194879000Y-123190000D01*
X192659000Y-124140000D02*
X192659000Y-124780000D01*
%TO.C,D3*%
X190719000Y-126730000D02*
X190719000Y-124730000D01*
X190719000Y-124730000D02*
X189519000Y-124730000D01*
X189519000Y-124730000D02*
X189519000Y-126430000D01*
X189519000Y-126430000D02*
X189819000Y-126730000D01*
X189819000Y-126730000D02*
X190719000Y-126730000D01*
%TD*%
M02*
