%TF.GenerationSoftware,KiCad,Pcbnew,5.99.0-unknown-e950278637~142~ubuntu18.04.1*%
%TF.CreationDate,2021-10-25T23:56:18+03:00*%
%TF.ProjectId,cdf-1,6364662d-312e-46b6-9963-61645f706362,rev?*%
%TF.SameCoordinates,Original*%
%TF.FileFunction,Other,User*%
%FSLAX46Y46*%
G04 Gerber Fmt 4.6, Leading zero omitted, Abs format (unit mm)*
G04 Created by KiCad (PCBNEW 5.99.0-unknown-e950278637~142~ubuntu18.04.1) date 2021-10-25 23:56:18*
%MOMM*%
%LPD*%
G01*
G04 APERTURE LIST*
%ADD10C,0.050000*%
G04 APERTURE END LIST*
D10*
%TO.C,D9*%
X165669000Y-91967500D02*
X165669000Y-95327500D01*
X163769000Y-91967500D02*
X165669000Y-91967500D01*
X163769000Y-95327500D02*
X163769000Y-91967500D01*
X165669000Y-95327500D02*
X163769000Y-95327500D01*
%TO.C,D10*%
X178660000Y-94427000D02*
X182020000Y-94427000D01*
X182020000Y-94427000D02*
X182020000Y-96327000D01*
X178660000Y-96327000D02*
X178660000Y-94427000D01*
X182020000Y-96327000D02*
X178660000Y-96327000D01*
%TO.C,D11*%
X182020000Y-89855000D02*
X182020000Y-91755000D01*
X178660000Y-89855000D02*
X182020000Y-89855000D01*
X178660000Y-91755000D02*
X178660000Y-89855000D01*
X182020000Y-91755000D02*
X178660000Y-91755000D01*
%TO.C,H5*%
X160549000Y-52070000D02*
G75*
G03*
X160549000Y-52070000I-3450000J0D01*
G01*
%TO.C,H6*%
X251989000Y-52070000D02*
G75*
G03*
X251989000Y-52070000I-3450000J0D01*
G01*
%TO.C,H8*%
X160549000Y-143510000D02*
G75*
G03*
X160549000Y-143510000I-3450000J0D01*
G01*
%TO.C,J3*%
X163179000Y-120980000D02*
X148179000Y-120980000D01*
X161179000Y-130480000D02*
X161179000Y-132480000D01*
X157179000Y-132480000D02*
X157179000Y-130480000D01*
X163179000Y-127730000D02*
X163179000Y-130480000D01*
X163179000Y-123730000D02*
X164179000Y-123730000D01*
X148179000Y-130480000D02*
X148179000Y-120980000D01*
X164179000Y-123730000D02*
X164179000Y-127730000D01*
X164179000Y-127730000D02*
X163179000Y-127730000D01*
X163179000Y-130480000D02*
X161179000Y-130480000D01*
X163179000Y-121230000D02*
X163179000Y-123730000D01*
X161179000Y-132480000D02*
X157179000Y-132480000D01*
X163179000Y-121230000D02*
X163179000Y-120980000D01*
X157179000Y-130480000D02*
X148179000Y-130480000D01*
%TO.C,J17*%
X227179000Y-42420000D02*
X227829000Y-42420000D01*
X241929000Y-57380000D02*
X241929000Y-53850000D01*
X242579000Y-41120000D02*
X242579000Y-42420000D01*
X241929000Y-57380000D02*
X227829000Y-57380000D01*
X227179000Y-41120000D02*
X227179000Y-42420000D01*
X242579000Y-41120000D02*
X227179000Y-41120000D01*
X227829000Y-42420000D02*
X227829000Y-49950000D01*
X241929000Y-42420000D02*
X241929000Y-49950000D01*
X242579000Y-42420000D02*
X241929000Y-42420000D01*
X227829000Y-57380000D02*
X227829000Y-53850000D01*
X227829000Y-49950000D02*
G75*
G03*
X227829000Y-53850000I480000J-1950000D01*
G01*
X241929000Y-53850000D02*
G75*
G03*
X241929000Y-49950000I-480000J1950000D01*
G01*
%TO.C,JP1*%
X185949000Y-123158000D02*
X179049000Y-123158000D01*
X179049000Y-131858000D02*
X185949000Y-131858000D01*
X179049000Y-123158000D02*
X179049000Y-131858000D01*
X185949000Y-131858000D02*
X185949000Y-123158000D01*
%TO.C,JP4*%
X173249000Y-90295000D02*
X166349000Y-90295000D01*
X173249000Y-96395000D02*
X173249000Y-90295000D01*
X166349000Y-96395000D02*
X173249000Y-96395000D01*
X166349000Y-90295000D02*
X166349000Y-96395000D01*
%TO.C,J5*%
X168254000Y-122680000D02*
X168254000Y-128780000D01*
X175154000Y-122680000D02*
X168254000Y-122680000D01*
X175154000Y-128780000D02*
X175154000Y-122680000D01*
X168254000Y-128780000D02*
X175154000Y-128780000D01*
%TO.C,H7*%
X251989000Y-143510000D02*
G75*
G03*
X251989000Y-143510000I-3450000J0D01*
G01*
%TO.C,JP5*%
X190479000Y-68070000D02*
X190479000Y-74170000D01*
X190479000Y-74170000D02*
X197379000Y-74170000D01*
X197379000Y-68070000D02*
X190479000Y-68070000D01*
X197379000Y-74170000D02*
X197379000Y-68070000D01*
%TO.C,JP8*%
X190479000Y-57880000D02*
X190479000Y-66580000D01*
X197379000Y-57880000D02*
X190479000Y-57880000D01*
X190479000Y-66580000D02*
X197379000Y-66580000D01*
X197379000Y-66580000D02*
X197379000Y-57880000D01*
%TO.C,D5*%
X187899000Y-51660000D02*
X189799000Y-51660000D01*
X187899000Y-55020000D02*
X187899000Y-51660000D01*
X189799000Y-51660000D02*
X189799000Y-55020000D01*
X189799000Y-55020000D02*
X187899000Y-55020000D01*
%TO.C,JP6*%
X197379000Y-56390000D02*
X197379000Y-50290000D01*
X190479000Y-50290000D02*
X190479000Y-56390000D01*
X197379000Y-50290000D02*
X190479000Y-50290000D01*
X190479000Y-56390000D02*
X197379000Y-56390000D01*
%TO.C,D8*%
X187899000Y-72800000D02*
X187899000Y-69440000D01*
X189799000Y-72800000D02*
X187899000Y-72800000D01*
X189799000Y-69440000D02*
X189799000Y-72800000D01*
X187899000Y-69440000D02*
X189799000Y-69440000D01*
%TO.C,D18*%
X167816500Y-82230000D02*
X167816500Y-80330000D01*
X171176500Y-82230000D02*
X167816500Y-82230000D01*
X171176500Y-80330000D02*
X171176500Y-82230000D01*
X167816500Y-80330000D02*
X171176500Y-80330000D01*
%TO.C,J1*%
X151173000Y-90215000D02*
X151173000Y-99015000D01*
X157273000Y-99015000D02*
X151173000Y-99015000D01*
X157273000Y-90215000D02*
X157273000Y-99015000D01*
X151173000Y-90215000D02*
X157273000Y-90215000D01*
%TO.C,J10*%
X204596400Y-56820000D02*
X204596400Y-67620000D01*
X215296400Y-56820000D02*
X204596400Y-56820000D01*
X215296400Y-67620000D02*
X215296400Y-56820000D01*
X204596400Y-67620000D02*
X215296400Y-67620000D01*
%TO.C,J6*%
X178825000Y-42420000D02*
X178175000Y-42420000D01*
X163425000Y-42420000D02*
X164075000Y-42420000D01*
X178825000Y-41120000D02*
X163425000Y-41120000D01*
X164075000Y-42420000D02*
X164075000Y-49950000D01*
X164075000Y-57380000D02*
X164075000Y-53850000D01*
X178175000Y-57380000D02*
X164075000Y-57380000D01*
X178175000Y-42420000D02*
X178175000Y-49950000D01*
X163425000Y-41120000D02*
X163425000Y-42420000D01*
X178175000Y-57380000D02*
X178175000Y-53850000D01*
X178825000Y-41120000D02*
X178825000Y-42420000D01*
X178175000Y-53850000D02*
G75*
G03*
X178175000Y-49950000I-480000J1950000D01*
G01*
X164075000Y-49950000D02*
G75*
G03*
X164075000Y-53850000I480000J-1950000D01*
G01*
%TO.C,JP3*%
X162985000Y-85523000D02*
X162985000Y-79423000D01*
X156085000Y-85523000D02*
X162985000Y-85523000D01*
X156085000Y-79423000D02*
X156085000Y-85523000D01*
X162985000Y-79423000D02*
X156085000Y-79423000D01*
%TO.C,J7*%
X170344000Y-99645000D02*
X147624000Y-99645000D01*
X170344000Y-118795000D02*
X170344000Y-99645000D01*
X147624000Y-99645000D02*
X147624000Y-118795000D01*
X147624000Y-118795000D02*
X170344000Y-118795000D01*
%TO.C,SW2*%
X243029800Y-121055000D02*
X243029800Y-138555000D01*
X228829800Y-138555000D02*
X228829800Y-121055000D01*
X228829800Y-138555000D02*
X243029800Y-138555000D01*
X243029800Y-121055000D02*
X228829800Y-121055000D01*
%TO.C,J20*%
X236834000Y-80135000D02*
X236834000Y-86235000D01*
X236834000Y-86235000D02*
X243734000Y-86235000D01*
X243734000Y-86235000D02*
X243734000Y-80135000D01*
X243734000Y-80135000D02*
X236834000Y-80135000D01*
%TO.C,JP12*%
X236834000Y-65915000D02*
X243734000Y-65915000D01*
X236834000Y-59815000D02*
X236834000Y-65915000D01*
X243734000Y-65915000D02*
X243734000Y-59815000D01*
X243734000Y-59815000D02*
X236834000Y-59815000D01*
%TO.C,JP14*%
X243734000Y-69594000D02*
X236834000Y-69594000D01*
X236834000Y-69594000D02*
X236834000Y-75694000D01*
X243734000Y-75694000D02*
X243734000Y-69594000D01*
X236834000Y-75694000D02*
X243734000Y-75694000D01*
%TO.C,D13*%
X234254000Y-64545000D02*
X234254000Y-61185000D01*
X236154000Y-61185000D02*
X236154000Y-64545000D01*
X236154000Y-64545000D02*
X234254000Y-64545000D01*
X234254000Y-61185000D02*
X236154000Y-61185000D01*
%TO.C,D17*%
X234254000Y-70964000D02*
X236154000Y-70964000D01*
X236154000Y-70964000D02*
X236154000Y-74324000D01*
X236154000Y-74324000D02*
X234254000Y-74324000D01*
X234254000Y-74324000D02*
X234254000Y-70964000D01*
%TO.C,J15*%
X230145000Y-86646000D02*
X230145000Y-77946000D01*
X230145000Y-77946000D02*
X223245000Y-77946000D01*
X223245000Y-86646000D02*
X230145000Y-86646000D01*
X223245000Y-77946000D02*
X223245000Y-86646000D01*
%TO.C,JP11*%
X230399000Y-66770000D02*
X223499000Y-66770000D01*
X230399000Y-75470000D02*
X230399000Y-66770000D01*
X223499000Y-66770000D02*
X223499000Y-75470000D01*
X223499000Y-75470000D02*
X230399000Y-75470000D01*
%TO.C,D12*%
X225269000Y-61915000D02*
X228629000Y-61915000D01*
X225269000Y-63815000D02*
X225269000Y-61915000D01*
X228629000Y-63815000D02*
X225269000Y-63815000D01*
X228629000Y-61915000D02*
X228629000Y-63815000D01*
%TO.C,JP16*%
X177604000Y-69120000D02*
X177604000Y-60420000D01*
X165804000Y-69120000D02*
X177604000Y-69120000D01*
X165804000Y-60420000D02*
X165804000Y-69120000D01*
X177604000Y-60420000D02*
X165804000Y-60420000D01*
%TO.C,D1*%
X171176500Y-83505000D02*
X171176500Y-85405000D01*
X171176500Y-85405000D02*
X167816500Y-85405000D01*
X167816500Y-85405000D02*
X167816500Y-83505000D01*
X167816500Y-83505000D02*
X171176500Y-83505000D01*
%TO.C,SW1*%
X154560000Y-78318000D02*
X164560000Y-78318000D01*
X154560000Y-71818000D02*
X164560000Y-71818000D01*
X154560000Y-71818000D02*
X154560000Y-78318000D01*
X164560000Y-78318000D02*
X164560000Y-71818000D01*
%TO.C,J4*%
X175154000Y-79280000D02*
X175154000Y-70580000D01*
X168254000Y-70580000D02*
X168254000Y-79280000D01*
X175154000Y-70580000D02*
X168254000Y-70580000D01*
X168254000Y-79280000D02*
X175154000Y-79280000D01*
%TO.C,J13*%
X198649000Y-128780000D02*
X198649000Y-122680000D01*
X198649000Y-122680000D02*
X191749000Y-122680000D01*
X191749000Y-122680000D02*
X191749000Y-128780000D01*
X191749000Y-128780000D02*
X198649000Y-128780000D01*
%TO.C,D3*%
X191069000Y-127410000D02*
X189169000Y-127410000D01*
X191069000Y-124050000D02*
X191069000Y-127410000D01*
X189169000Y-124050000D02*
X191069000Y-124050000D01*
X189169000Y-127410000D02*
X189169000Y-124050000D01*
%TD*%
M02*
