%TF.GenerationSoftware,KiCad,Pcbnew,5.99.0-unknown-e950278637~142~ubuntu18.04.1*%
%TF.CreationDate,2021-10-25T23:56:18+03:00*%
%TF.ProjectId,cdf-1,6364662d-312e-46b6-9963-61645f706362,rev?*%
%TF.SameCoordinates,Original*%
%TF.FileFunction,Soldermask,Bot*%
%TF.FilePolarity,Negative*%
%FSLAX46Y46*%
G04 Gerber Fmt 4.6, Leading zero omitted, Abs format (unit mm)*
G04 Created by KiCad (PCBNEW 5.99.0-unknown-e950278637~142~ubuntu18.04.1) date 2021-10-25 23:56:18*
%MOMM*%
%LPD*%
G01*
G04 APERTURE LIST*
G04 Aperture macros list*
%AMRoundRect*
0 Rectangle with rounded corners*
0 $1 Rounding radius*
0 $2 $3 $4 $5 $6 $7 $8 $9 X,Y pos of 4 corners*
0 Add a 4 corners polygon primitive as box body*
4,1,4,$2,$3,$4,$5,$6,$7,$8,$9,$2,$3,0*
0 Add four circle primitives for the rounded corners*
1,1,$1+$1,$2,$3*
1,1,$1+$1,$4,$5*
1,1,$1+$1,$6,$7*
1,1,$1+$1,$8,$9*
0 Add four rect primitives between the rounded corners*
20,1,$1+$1,$2,$3,$4,$5,0*
20,1,$1+$1,$4,$5,$6,$7,0*
20,1,$1+$1,$6,$7,$8,$9,0*
20,1,$1+$1,$8,$9,$2,$3,0*%
%AMFreePoly0*
4,1,22,0.500000,-0.750000,0.000000,-0.750000,0.000000,-0.745033,-0.079941,-0.743568,-0.215256,-0.701293,-0.333266,-0.622738,-0.424486,-0.514219,-0.481581,-0.384460,-0.499164,-0.250000,-0.500000,-0.250000,-0.500000,0.250000,-0.499164,0.250000,-0.499963,0.256109,-0.478152,0.396186,-0.417904,0.524511,-0.324060,0.630769,-0.204165,0.706417,-0.067858,0.745374,0.000000,0.744959,0.000000,0.750000,
0.500000,0.750000,0.500000,-0.750000,0.500000,-0.750000,$1*%
%AMFreePoly1*
4,1,20,0.000000,0.744959,0.073905,0.744508,0.209726,0.703889,0.328688,0.626782,0.421226,0.519385,0.479903,0.390333,0.500000,0.250000,0.500000,-0.250000,0.499851,-0.262216,0.476331,-0.402017,0.414519,-0.529596,0.319384,-0.634700,0.198574,-0.708877,0.061801,-0.746166,0.000000,-0.745033,0.000000,-0.750000,-0.500000,-0.750000,-0.500000,0.750000,0.000000,0.750000,0.000000,0.744959,
0.000000,0.744959,$1*%
%AMFreePoly2*
4,1,96,-1.742867,2.629104,-1.429420,2.570161,-1.125325,2.473988,-0.834986,2.341979,-0.562609,2.176045,-0.312140,1.978591,-0.087206,1.752476,0.108934,1.500977,0.273439,1.227734,0.403927,0.936708,0.498506,0.632114,0.555807,0.318363,0.575000,0.000000,0.574419,-0.055497,0.548563,-0.373388,0.484703,-0.685870,0.383766,-0.988418,0.247213,-1.276647,0.077021,-1.546384,-0.124343,-1.793721,
-0.353963,-2.015076,-0.608512,-2.207241,-0.884305,-2.367434,-1.177345,-2.493334,-1.483387,-2.583117,-1.798000,-2.635483,-2.116624,-2.649673,-2.434646,-2.625482,-2.747459,-2.563260,-3.050530,-2.463908,-3.339471,-2.328865,-3.610095,-2.160089,-3.858483,-1.960022,-4.081037,-1.731565,-4.274533,-1.478025,-4.436167,-1.203075,-4.563600,-0.910698,-4.654984,-0.605130,-4.708997,-0.290796,-4.724855,0.027750,
-4.724216,0.036774,-3.579692,0.036774,-3.565493,-0.209475,-3.511266,-0.450099,-3.418468,-0.678634,-3.289589,-0.888945,-3.128092,-1.075382,-2.938313,-1.232939,-2.725350,-1.357385,-2.494921,-1.445377,-2.253215,-1.494553,-2.006722,-1.503592,-1.762064,-1.472250,-1.525809,-1.401370,-1.304303,-1.292856,-1.103495,-1.149621,-0.928777,-0.975512,-0.784842,-0.775205,-0.675555,-0.554079,-0.603851,-0.318074,
-0.571656,-0.073526,-0.569859,0.000000,-0.590070,0.245829,-0.650159,0.485055,-0.748514,0.711256,-0.882492,0.918355,-1.048496,1.100790,-1.242068,1.253664,-1.458008,1.372869,-1.690518,1.455206,-1.933354,1.498461,-2.179993,1.501475,-2.423813,1.464165,-2.658266,1.387534,-2.877054,1.273640,-3.074303,1.125542,-3.244714,0.947216,-3.383712,0.743452,-3.487564,0.519722,-3.553481,0.282035,
-3.579692,0.036774,-4.724216,0.036774,-4.702329,0.345894,-4.641745,0.659028,-4.543982,0.962616,-4.410454,1.252260,-4.243097,1.523764,-4.044334,1.773196,-3.817044,1.996943,-3.564521,2.191764,-3.290421,2.354836,-2.998716,2.483797,-2.693630,2.576780,-2.379583,2.632438,-2.061125,2.649964,-1.742867,2.629104,-1.742867,2.629104,$1*%
G04 Aperture macros list end*
%ADD10C,3.200000*%
%ADD11R,3.500000X3.500000*%
%ADD12RoundRect,0.750000X-0.750000X-1.000000X0.750000X-1.000000X0.750000X1.000000X-0.750000X1.000000X0*%
%ADD13RoundRect,0.875000X-0.875000X-0.875000X0.875000X-0.875000X0.875000X0.875000X-0.875000X0.875000X0*%
%ADD14R,1.600000X1.500000*%
%ADD15C,1.600000*%
%ADD16C,3.000000*%
%ADD17O,1.900000X1.200000*%
%ADD18C,1.450000*%
%ADD19R,1.600000X1.600000*%
%ADD20O,1.600000X1.600000*%
%ADD21C,3.250000*%
%ADD22C,2.600000*%
%ADD23C,1.890000*%
%ADD24R,1.900000X1.900000*%
%ADD25C,1.900000*%
%ADD26R,2.000000X2.000000*%
%ADD27C,2.000000*%
%ADD28R,2.000000X3.200000*%
%ADD29RoundRect,0.249999X1.025001X-0.875001X1.025001X0.875001X-1.025001X0.875001X-1.025001X-0.875001X0*%
%ADD30RoundRect,0.249999X0.650001X-0.325001X0.650001X0.325001X-0.650001X0.325001X-0.650001X-0.325001X0*%
%ADD31RoundRect,0.249999X0.325001X0.650001X-0.325001X0.650001X-0.325001X-0.650001X0.325001X-0.650001X0*%
%ADD32RoundRect,0.249999X-0.325001X-0.650001X0.325001X-0.650001X0.325001X0.650001X-0.325001X0.650001X0*%
%ADD33RoundRect,0.249999X-0.875001X-1.025001X0.875001X-1.025001X0.875001X1.025001X-0.875001X1.025001X0*%
%ADD34RoundRect,0.250000X-0.475000X0.250000X-0.475000X-0.250000X0.475000X-0.250000X0.475000X0.250000X0*%
%ADD35RoundRect,0.250000X0.475000X-0.250000X0.475000X0.250000X-0.475000X0.250000X-0.475000X-0.250000X0*%
%ADD36RoundRect,0.250000X0.250000X0.475000X-0.250000X0.475000X-0.250000X-0.475000X0.250000X-0.475000X0*%
%ADD37RoundRect,0.250000X-0.250000X-0.475000X0.250000X-0.475000X0.250000X0.475000X-0.250000X0.475000X0*%
%ADD38R,0.900000X1.200000*%
%ADD39R,1.200000X0.900000*%
%ADD40FreePoly0,0.000000*%
%ADD41FreePoly1,0.000000*%
%ADD42FreePoly0,180.000000*%
%ADD43FreePoly1,180.000000*%
%ADD44R,1.800000X0.800000*%
%ADD45R,0.900000X0.800000*%
%ADD46R,0.800000X0.900000*%
%ADD47RoundRect,0.249998X0.450002X-0.262502X0.450002X0.262502X-0.450002X0.262502X-0.450002X-0.262502X0*%
%ADD48RoundRect,0.249998X-0.450002X0.262502X-0.450002X-0.262502X0.450002X-0.262502X0.450002X0.262502X0*%
%ADD49RoundRect,0.249998X0.262502X0.450002X-0.262502X0.450002X-0.262502X-0.450002X0.262502X-0.450002X0*%
%ADD50RoundRect,0.249998X-0.262502X-0.450002X0.262502X-0.450002X0.262502X0.450002X-0.262502X0.450002X0*%
%ADD51RoundRect,0.249997X0.625003X-0.312503X0.625003X0.312503X-0.625003X0.312503X-0.625003X-0.312503X0*%
%ADD52R,1.750000X0.450000*%
%ADD53FreePoly0,90.000000*%
%ADD54FreePoly1,90.000000*%
%ADD55RoundRect,0.218750X0.381250X-0.218750X0.381250X0.218750X-0.381250X0.218750X-0.381250X-0.218750X0*%
%ADD56RoundRect,0.100000X0.637500X0.100000X-0.637500X0.100000X-0.637500X-0.100000X0.637500X-0.100000X0*%
%ADD57R,2.200000X1.200000*%
%ADD58R,6.400000X5.800000*%
%ADD59R,2.400000X0.740000*%
%ADD60R,2.510000X1.000000*%
%ADD61R,0.400000X2.000000*%
%ADD62R,0.650000X3.000000*%
%ADD63RoundRect,0.225000X0.250000X-0.225000X0.250000X0.225000X-0.250000X0.225000X-0.250000X-0.225000X0*%
%ADD64RoundRect,0.225000X-0.250000X0.225000X-0.250000X-0.225000X0.250000X-0.225000X0.250000X0.225000X0*%
%ADD65RoundRect,0.249999X-1.025001X0.875001X-1.025001X-0.875001X1.025001X-0.875001X1.025001X0.875001X0*%
%ADD66RoundRect,0.249999X-0.262501X-0.450001X0.262501X-0.450001X0.262501X0.450001X-0.262501X0.450001X0*%
%ADD67RoundRect,0.249999X0.262501X0.450001X-0.262501X0.450001X-0.262501X-0.450001X0.262501X-0.450001X0*%
%ADD68R,1.800000X0.650000*%
%ADD69R,0.650000X1.800000*%
%ADD70RoundRect,0.249999X-0.450001X0.262501X-0.450001X-0.262501X0.450001X-0.262501X0.450001X0.262501X0*%
%ADD71R,2.000000X1.500000*%
%ADD72R,2.000000X3.800000*%
%ADD73RoundRect,0.190000X-0.635000X-0.190000X0.635000X-0.190000X0.635000X0.190000X-0.635000X0.190000X0*%
%ADD74RoundRect,0.200000X-0.450000X0.200000X-0.450000X-0.200000X0.450000X-0.200000X0.450000X0.200000X0*%
%ADD75RoundRect,0.250001X-1.249999X0.799999X-1.249999X-0.799999X1.249999X-0.799999X1.249999X0.799999X0*%
%ADD76RoundRect,0.200000X0.450000X-0.200000X0.450000X0.200000X-0.450000X0.200000X-0.450000X-0.200000X0*%
%ADD77RoundRect,0.250001X1.249999X-0.799999X1.249999X0.799999X-1.249999X0.799999X-1.249999X-0.799999X0*%
%ADD78R,3.600000X2.700000*%
%ADD79R,4.500000X3.300000*%
%ADD80R,1.200000X2.200000*%
%ADD81R,5.800000X6.400000*%
%ADD82R,1.700000X3.300000*%
%ADD83R,1.550000X0.600000*%
%ADD84R,2.600000X3.100000*%
%ADD85FreePoly2,0.000000*%
%ADD86RoundRect,0.150000X-0.825000X-0.150000X0.825000X-0.150000X0.825000X0.150000X-0.825000X0.150000X0*%
%ADD87RoundRect,0.249999X0.450001X-0.262501X0.450001X0.262501X-0.450001X0.262501X-0.450001X-0.262501X0*%
G04 APERTURE END LIST*
D10*
%TO.C,H5*%
X157099000Y-52070000D03*
%TD*%
%TO.C,H6*%
X248539000Y-52070000D03*
%TD*%
%TO.C,H8*%
X157099000Y-143510000D03*
%TD*%
D11*
%TO.C,J3*%
X162179000Y-125730000D03*
D12*
X156179000Y-125730000D03*
D13*
X159179000Y-130430000D03*
%TD*%
D14*
%TO.C,J17*%
X238379000Y-54610000D03*
D15*
X235879000Y-54610000D03*
X233879000Y-54610000D03*
X231379000Y-54610000D03*
D16*
X228309000Y-51900000D03*
X241449000Y-51900000D03*
%TD*%
D10*
%TO.C,H7*%
X248539000Y-143510000D03*
%TD*%
D17*
%TO.C,J1*%
X153575500Y-98115000D03*
D18*
X156275500Y-92115000D03*
D17*
X153575500Y-91115000D03*
D18*
X156275500Y-97115000D03*
%TD*%
D19*
%TO.C,J10*%
X206146400Y-58420000D03*
D20*
X206146400Y-60960000D03*
X206146400Y-63500000D03*
X206146400Y-66040000D03*
X213766400Y-66040000D03*
X213766400Y-63500000D03*
X213766400Y-60960000D03*
X213766400Y-58420000D03*
%TD*%
D14*
%TO.C,J6*%
X174625000Y-54610000D03*
D15*
X172125000Y-54610000D03*
X170125000Y-54610000D03*
X167625000Y-54610000D03*
D16*
X177695000Y-51900000D03*
X164555000Y-51900000D03*
%TD*%
D21*
%TO.C,J7*%
X159014000Y-114935000D03*
X159014000Y-103505000D03*
D22*
X162064000Y-101445000D03*
X162064000Y-116995000D03*
D23*
X155634000Y-115545000D03*
X154114000Y-113005000D03*
X155634000Y-105435000D03*
X154114000Y-102895000D03*
D24*
X165354000Y-104775000D03*
D25*
X167894000Y-106045000D03*
X165354000Y-107315000D03*
X167894000Y-108585000D03*
X165354000Y-109855000D03*
X167894000Y-111125000D03*
X165354000Y-112395000D03*
X167894000Y-113665000D03*
%TD*%
D26*
%TO.C,SW2*%
X238429800Y-122555000D03*
D27*
X233429800Y-122555000D03*
X235929800Y-122555000D03*
D28*
X230329800Y-130055000D03*
X241529800Y-130055000D03*
D27*
X233429800Y-137055000D03*
X238429800Y-137055000D03*
%TD*%
D29*
%TO.C,C1*%
X180340000Y-137947000D03*
X180340000Y-131547000D03*
%TD*%
%TO.C,C5*%
X185420000Y-137947000D03*
X185420000Y-131547000D03*
%TD*%
D30*
%TO.C,C6*%
X189357000Y-133936000D03*
X189357000Y-130986000D03*
%TD*%
D31*
%TO.C,C7*%
X200484000Y-142748000D03*
X197534000Y-142748000D03*
%TD*%
D32*
%TO.C,C9*%
X188898000Y-140208000D03*
X191848000Y-140208000D03*
%TD*%
D33*
%TO.C,C11*%
X220574000Y-133858000D03*
X226974000Y-133858000D03*
%TD*%
D32*
%TO.C,C13*%
X220013000Y-142748000D03*
X222963000Y-142748000D03*
%TD*%
D33*
%TO.C,C16*%
X220574000Y-138938000D03*
X226974000Y-138938000D03*
%TD*%
D34*
%TO.C,C19*%
X157099000Y-86045000D03*
X157099000Y-87945000D03*
%TD*%
D35*
%TO.C,C21*%
X159004000Y-93787000D03*
X159004000Y-91887000D03*
%TD*%
D34*
%TO.C,C24*%
X216154000Y-58425000D03*
X216154000Y-60325000D03*
%TD*%
D36*
%TO.C,C25*%
X156906000Y-79502000D03*
X155006000Y-79502000D03*
%TD*%
D34*
%TO.C,C27*%
X218694000Y-58425000D03*
X218694000Y-60325000D03*
%TD*%
%TO.C,C28*%
X174625000Y-85156000D03*
X174625000Y-87056000D03*
%TD*%
%TO.C,C29*%
X177165000Y-88966000D03*
X177165000Y-90866000D03*
%TD*%
D37*
%TO.C,C36*%
X231206000Y-107950000D03*
X233106000Y-107950000D03*
%TD*%
D35*
%TO.C,C37*%
X225044000Y-108265000D03*
X225044000Y-106365000D03*
%TD*%
D34*
%TO.C,C38*%
X228854000Y-106365000D03*
X228854000Y-108265000D03*
%TD*%
D36*
%TO.C,C39*%
X246314000Y-107950000D03*
X244414000Y-107950000D03*
%TD*%
%TO.C,C42*%
X246314000Y-104140000D03*
X244414000Y-104140000D03*
%TD*%
%TO.C,C43*%
X241869000Y-104140000D03*
X239969000Y-104140000D03*
%TD*%
D35*
%TO.C,C45*%
X241808000Y-87625000D03*
X241808000Y-85725000D03*
%TD*%
D34*
%TO.C,C46*%
X239522000Y-85791000D03*
X239522000Y-87691000D03*
%TD*%
D38*
%TO.C,D6*%
X195454000Y-78105000D03*
X198754000Y-78105000D03*
%TD*%
%TO.C,D7*%
X185294000Y-78105000D03*
X188594000Y-78105000D03*
%TD*%
D39*
%TO.C,D14*%
X211455000Y-94995000D03*
X211455000Y-91695000D03*
%TD*%
%TO.C,D15*%
X215138000Y-95122000D03*
X215138000Y-91822000D03*
%TD*%
D38*
%TO.C,D16*%
X233806000Y-100965000D03*
X230506000Y-100965000D03*
%TD*%
D40*
%TO.C,JP9*%
X176769000Y-65786000D03*
D41*
X178069000Y-65786000D03*
%TD*%
D40*
%TO.C,JP13*%
X228331000Y-86868000D03*
D41*
X229631000Y-86868000D03*
%TD*%
D42*
%TO.C,JP15*%
X215661000Y-119507000D03*
D43*
X214361000Y-119507000D03*
%TD*%
D44*
%TO.C,K1*%
X218115000Y-94351000D03*
X218115000Y-91151000D03*
X218115000Y-88951000D03*
X218115000Y-86751000D03*
X225115000Y-86751000D03*
X225115000Y-88951000D03*
X225115000Y-91151000D03*
X225115000Y-94351000D03*
%TD*%
D45*
%TO.C,Q3*%
X170450000Y-80833000D03*
X170450000Y-78933000D03*
X172450000Y-79883000D03*
%TD*%
%TO.C,Q4*%
X190389000Y-71435000D03*
X190389000Y-69535000D03*
X192389000Y-70485000D03*
%TD*%
%TO.C,Q5*%
X178197000Y-80960000D03*
X178197000Y-79060000D03*
X180197000Y-80010000D03*
%TD*%
D46*
%TO.C,Q8*%
X225486000Y-99044000D03*
X223586000Y-99044000D03*
X224536000Y-97044000D03*
%TD*%
D45*
%TO.C,Q9*%
X215408000Y-107376000D03*
X215408000Y-105476000D03*
X217408000Y-106426000D03*
%TD*%
%TO.C,Q10*%
X219980000Y-107249000D03*
X219980000Y-105349000D03*
X221980000Y-106299000D03*
%TD*%
D47*
%TO.C,R5*%
X194564000Y-134008500D03*
X194564000Y-132183500D03*
%TD*%
D48*
%TO.C,R6*%
X191643000Y-136120500D03*
X191643000Y-137945500D03*
%TD*%
D47*
%TO.C,R7*%
X188976000Y-137945500D03*
X188976000Y-136120500D03*
%TD*%
D49*
%TO.C,R9*%
X197381500Y-82296000D03*
X195556500Y-82296000D03*
%TD*%
%TO.C,R17*%
X167790500Y-77851000D03*
X165965500Y-77851000D03*
%TD*%
D50*
%TO.C,R19*%
X165965500Y-80645000D03*
X167790500Y-80645000D03*
%TD*%
D47*
%TO.C,R23*%
X175133000Y-81049500D03*
X175133000Y-79224500D03*
%TD*%
D49*
%TO.C,R24*%
X187221500Y-64770000D03*
X185396500Y-64770000D03*
%TD*%
D47*
%TO.C,R25*%
X177165000Y-87018500D03*
X177165000Y-85193500D03*
%TD*%
D49*
%TO.C,R30*%
X172489500Y-96901000D03*
X170664500Y-96901000D03*
%TD*%
%TO.C,R31*%
X168298500Y-96901000D03*
X166473500Y-96901000D03*
%TD*%
%TO.C,R32*%
X177950500Y-102997000D03*
X176125500Y-102997000D03*
%TD*%
D47*
%TO.C,R33*%
X201803000Y-67460500D03*
X201803000Y-65635500D03*
%TD*%
%TO.C,R34*%
X221361000Y-98980000D03*
X221361000Y-97155000D03*
%TD*%
%TO.C,R35*%
X218821000Y-98956500D03*
X218821000Y-97131500D03*
%TD*%
%TO.C,R38*%
X211455000Y-99210500D03*
X211455000Y-97385500D03*
%TD*%
%TO.C,R39*%
X215138000Y-99210500D03*
X215138000Y-97385500D03*
%TD*%
D50*
%TO.C,R40*%
X231243500Y-104140000D03*
X233068500Y-104140000D03*
%TD*%
D49*
%TO.C,R42*%
X178077500Y-94361000D03*
X176252500Y-94361000D03*
%TD*%
D50*
%TO.C,R44*%
X176252500Y-96901000D03*
X178077500Y-96901000D03*
%TD*%
D47*
%TO.C,R45*%
X209423000Y-107338500D03*
X209423000Y-105513500D03*
%TD*%
D48*
%TO.C,R46*%
X248793000Y-91416500D03*
X248793000Y-93241500D03*
%TD*%
D51*
%TO.C,R47*%
X245237000Y-93283500D03*
X245237000Y-90358500D03*
%TD*%
D47*
%TO.C,R50*%
X212344000Y-107338500D03*
X212344000Y-105513500D03*
%TD*%
D49*
%TO.C,R51*%
X241831500Y-107950000D03*
X240006500Y-107950000D03*
%TD*%
D50*
%TO.C,R52*%
X220067500Y-102743000D03*
X221892500Y-102743000D03*
%TD*%
D47*
%TO.C,R53*%
X221742000Y-112418500D03*
X221742000Y-110593500D03*
%TD*%
%TO.C,R54*%
X231013000Y-91336500D03*
X231013000Y-89511500D03*
%TD*%
D48*
%TO.C,R55*%
X231013000Y-93194500D03*
X231013000Y-95019500D03*
%TD*%
%TO.C,R57*%
X233299000Y-89511500D03*
X233299000Y-91336500D03*
%TD*%
D47*
%TO.C,R58*%
X233299000Y-95019500D03*
X233299000Y-93194500D03*
%TD*%
D52*
%TO.C,U3*%
X172129000Y-85056000D03*
X172129000Y-85706000D03*
X172129000Y-86356000D03*
X172129000Y-87006000D03*
X172129000Y-87656000D03*
X172129000Y-88306000D03*
X172129000Y-88956000D03*
X172129000Y-89606000D03*
X172129000Y-90256000D03*
X172129000Y-90906000D03*
X172129000Y-91556000D03*
X172129000Y-92206000D03*
X172129000Y-92856000D03*
X172129000Y-93506000D03*
X164929000Y-93506000D03*
X164929000Y-92856000D03*
X164929000Y-92206000D03*
X164929000Y-91556000D03*
X164929000Y-90906000D03*
X164929000Y-90256000D03*
X164929000Y-89606000D03*
X164929000Y-88956000D03*
X164929000Y-88306000D03*
X164929000Y-87656000D03*
X164929000Y-87006000D03*
X164929000Y-86356000D03*
X164929000Y-85706000D03*
X164929000Y-85056000D03*
%TD*%
D53*
%TO.C,JP7*%
X197104000Y-69230000D03*
D54*
X197104000Y-67930000D03*
%TD*%
D55*
%TO.C,FB1*%
X154559000Y-88057500D03*
X154559000Y-85932500D03*
%TD*%
D56*
%TO.C,U4*%
X201871500Y-58685000D03*
X201871500Y-59335000D03*
X201871500Y-59985000D03*
X201871500Y-60635000D03*
X201871500Y-61285000D03*
X201871500Y-61935000D03*
X201871500Y-62585000D03*
X201871500Y-63235000D03*
X196146500Y-63235000D03*
X196146500Y-62585000D03*
X196146500Y-61935000D03*
X196146500Y-61285000D03*
X196146500Y-60635000D03*
X196146500Y-59985000D03*
X196146500Y-59335000D03*
X196146500Y-58685000D03*
%TD*%
D57*
%TO.C,Q11*%
X218830000Y-111004000D03*
D58*
X212530000Y-113284000D03*
D57*
X218830000Y-115564000D03*
%TD*%
%TO.C,Q7*%
X171060000Y-75813000D03*
D58*
X177360000Y-73533000D03*
D57*
X171060000Y-71253000D03*
%TD*%
D35*
%TO.C,C30*%
X191389000Y-58685000D03*
X191389000Y-56785000D03*
%TD*%
D59*
%TO.C,J12*%
X211896400Y-50850000D03*
X207996400Y-50850000D03*
X211896400Y-52120000D03*
X207996400Y-52120000D03*
X211896400Y-53390000D03*
X207996400Y-53390000D03*
X211896400Y-54660000D03*
X207996400Y-54660000D03*
%TD*%
D56*
%TO.C,U5*%
X201871500Y-50480000D03*
X201871500Y-51130000D03*
X201871500Y-51780000D03*
X201871500Y-52430000D03*
X201871500Y-53080000D03*
X201871500Y-53730000D03*
X201871500Y-54380000D03*
X201871500Y-55030000D03*
X196146500Y-55030000D03*
X196146500Y-54380000D03*
X196146500Y-53730000D03*
X196146500Y-53080000D03*
X196146500Y-52430000D03*
X196146500Y-51780000D03*
X196146500Y-51130000D03*
X196146500Y-50480000D03*
%TD*%
D35*
%TO.C,C34*%
X193929000Y-50480000D03*
X193929000Y-48580000D03*
%TD*%
%TO.C,C31*%
X191389000Y-50480000D03*
X191389000Y-48580000D03*
%TD*%
%TO.C,C32*%
X193929000Y-58685000D03*
X193929000Y-56785000D03*
%TD*%
D49*
%TO.C,R16*%
X204747500Y-145415000D03*
X202922500Y-145415000D03*
%TD*%
D45*
%TO.C,Q6*%
X190389000Y-65720000D03*
X190389000Y-63820000D03*
X192389000Y-64770000D03*
%TD*%
D50*
%TO.C,R22*%
X185396500Y-68580000D03*
X187221500Y-68580000D03*
%TD*%
D47*
%TO.C,R37*%
X199898000Y-67460500D03*
X199898000Y-65635500D03*
%TD*%
D50*
%TO.C,R21*%
X185396500Y-53340000D03*
X187221500Y-53340000D03*
%TD*%
%TO.C,R18*%
X185396500Y-60960000D03*
X187221500Y-60960000D03*
%TD*%
D49*
%TO.C,R28*%
X187221500Y-72390000D03*
X185396500Y-72390000D03*
%TD*%
D50*
%TO.C,R20*%
X185396500Y-49530000D03*
X187221500Y-49530000D03*
%TD*%
%TO.C,R26*%
X185396500Y-57150000D03*
X187221500Y-57150000D03*
%TD*%
D60*
%TO.C,JP10*%
X222254000Y-50800000D03*
X218944000Y-53340000D03*
X222254000Y-55880000D03*
%TD*%
D49*
%TO.C,R59*%
X182141500Y-83820000D03*
X180316500Y-83820000D03*
%TD*%
D48*
%TO.C,R27*%
X167132000Y-70866000D03*
X167132000Y-72691000D03*
%TD*%
D47*
%TO.C,R29*%
X178054000Y-62634500D03*
X178054000Y-60809500D03*
%TD*%
D61*
%TO.C,U7*%
X225104800Y-111760000D03*
X225804800Y-111760000D03*
X226504800Y-111760000D03*
X227204800Y-111760000D03*
X227904800Y-111760000D03*
X228604800Y-111760000D03*
X229304800Y-111760000D03*
X230004800Y-111760000D03*
X230704800Y-111760000D03*
X231404800Y-111760000D03*
X232104800Y-111760000D03*
X232804800Y-111760000D03*
X233504800Y-111760000D03*
X234204800Y-111760000D03*
X234904800Y-111760000D03*
X235604800Y-111760000D03*
X236304800Y-111760000D03*
X237004800Y-111760000D03*
X237704800Y-111760000D03*
X238404800Y-111760000D03*
X239104800Y-111760000D03*
X239804800Y-111760000D03*
X240504800Y-111760000D03*
X241204800Y-111760000D03*
X241904800Y-111760000D03*
X242604800Y-111760000D03*
X243304800Y-111760000D03*
X244004800Y-111760000D03*
X244704800Y-111760000D03*
X245404800Y-111760000D03*
%TD*%
D62*
%TO.C,J11*%
X205232000Y-73430000D03*
X206502000Y-76430000D03*
X207772000Y-73430000D03*
X209042000Y-76430000D03*
X210312000Y-73430000D03*
X211582000Y-76430000D03*
%TD*%
D36*
%TO.C,C12*%
X162748000Y-109855000D03*
X160848000Y-109855000D03*
%TD*%
D63*
%TO.C,C14*%
X167259000Y-61227000D03*
X167259000Y-59677000D03*
%TD*%
D29*
%TO.C,C15*%
X171577000Y-66700000D03*
X171577000Y-60300000D03*
%TD*%
D64*
%TO.C,C17*%
X167259000Y-65773000D03*
X167259000Y-67323000D03*
%TD*%
D65*
%TO.C,C18*%
X162814000Y-60300000D03*
X162814000Y-66700000D03*
%TD*%
D66*
%TO.C,R1*%
X176125500Y-105791000D03*
X177950500Y-105791000D03*
%TD*%
D67*
%TO.C,R2*%
X177974000Y-100076000D03*
X176149000Y-100076000D03*
%TD*%
D66*
%TO.C,R10*%
X201398500Y-81153000D03*
X203223500Y-81153000D03*
%TD*%
%TO.C,R11*%
X201398500Y-83566000D03*
X203223500Y-83566000D03*
%TD*%
D67*
%TO.C,R15*%
X173886500Y-102997000D03*
X172061500Y-102997000D03*
%TD*%
D68*
%TO.C,U2*%
X180849000Y-126040000D03*
X183549000Y-124770000D03*
X180849000Y-123500000D03*
X183549000Y-122230000D03*
X180849000Y-120960000D03*
X183549000Y-119690000D03*
X180849000Y-118420000D03*
X183549000Y-117150000D03*
X180849000Y-115880000D03*
X183549000Y-114610000D03*
X180849000Y-113340000D03*
X183549000Y-112070000D03*
X180849000Y-110800000D03*
X183549000Y-109530000D03*
X180849000Y-108260000D03*
X183549000Y-106990000D03*
X180849000Y-105720000D03*
X183549000Y-104450000D03*
X180849000Y-103180000D03*
X183549000Y-101910000D03*
X180849000Y-100640000D03*
X183549000Y-99370000D03*
X180849000Y-98100000D03*
X183549000Y-96830000D03*
X180849000Y-95560000D03*
X183549000Y-94290000D03*
X180849000Y-93020000D03*
X183549000Y-91750000D03*
X180849000Y-90480000D03*
D69*
X184299000Y-87010000D03*
X185569000Y-89710000D03*
X186839000Y-87010000D03*
X188109000Y-89710000D03*
X189379000Y-87010000D03*
X190649000Y-89710000D03*
X191919000Y-87010000D03*
X193189000Y-89710000D03*
X194459000Y-87010000D03*
X195729000Y-89710000D03*
X196999000Y-87010000D03*
X198269000Y-89710000D03*
X199539000Y-87010000D03*
X200809000Y-89710000D03*
X202079000Y-87010000D03*
D68*
X205549000Y-90480000D03*
X202849000Y-91750000D03*
X205549000Y-93020000D03*
X202849000Y-94290000D03*
X205549000Y-95560000D03*
X202849000Y-96830000D03*
X205549000Y-98100000D03*
X202849000Y-99370000D03*
X205549000Y-100640000D03*
X202849000Y-101910000D03*
X205549000Y-103180000D03*
X202849000Y-104450000D03*
X205549000Y-105720000D03*
X202849000Y-106990000D03*
X205549000Y-108260000D03*
X202849000Y-109530000D03*
X205549000Y-110800000D03*
X202849000Y-112070000D03*
X205549000Y-113340000D03*
X202849000Y-114610000D03*
X205549000Y-115880000D03*
X202849000Y-117150000D03*
X205549000Y-118420000D03*
X202849000Y-119690000D03*
X205549000Y-120960000D03*
X202849000Y-122230000D03*
X205549000Y-123500000D03*
X202849000Y-124770000D03*
X205549000Y-126040000D03*
%TD*%
D33*
%TO.C,C22*%
X155169000Y-82804000D03*
X161569000Y-82804000D03*
%TD*%
D35*
%TO.C,C4*%
X189907300Y-83373000D03*
X189907300Y-81473000D03*
%TD*%
D70*
%TO.C,R3*%
X192151000Y-81510500D03*
X192151000Y-83335500D03*
%TD*%
D34*
%TO.C,C2*%
X187706000Y-81473000D03*
X187706000Y-83373000D03*
%TD*%
D71*
%TO.C,U9*%
X155219000Y-75960000D03*
D72*
X161519000Y-73660000D03*
D71*
X155219000Y-73660000D03*
X155219000Y-71360000D03*
%TD*%
D34*
%TO.C,C35*%
X220345000Y-62804000D03*
X220345000Y-64704000D03*
%TD*%
%TO.C,C33*%
X217805000Y-80584000D03*
X217805000Y-82484000D03*
%TD*%
D47*
%TO.C,R36*%
X222885000Y-64666500D03*
X222885000Y-62841500D03*
%TD*%
D73*
%TO.C,U6*%
X216090000Y-77089000D03*
X216090000Y-75819000D03*
X216090000Y-74549000D03*
X216090000Y-73279000D03*
X216090000Y-72009000D03*
X216090000Y-70739000D03*
X216090000Y-69469000D03*
X216090000Y-68199000D03*
X224600000Y-68199000D03*
X224600000Y-69469000D03*
X224600000Y-70739000D03*
X224600000Y-72009000D03*
X224600000Y-73279000D03*
X224600000Y-74549000D03*
X224600000Y-75819000D03*
X224600000Y-77089000D03*
%TD*%
D74*
%TO.C,J18*%
X241320000Y-64399000D03*
X241320000Y-65649000D03*
D75*
X244070000Y-61849000D03*
X244070000Y-68199000D03*
%TD*%
D76*
%TO.C,J19*%
X234972000Y-65629000D03*
X234972000Y-64379000D03*
X234972000Y-63129000D03*
X234972000Y-61879000D03*
D77*
X232222000Y-59329000D03*
X232222000Y-68179000D03*
%TD*%
D78*
%TO.C,L1*%
X212979000Y-136820000D03*
X212979000Y-145120000D03*
%TD*%
D79*
%TO.C,D2*%
X207473000Y-131445000D03*
X198673000Y-131445000D03*
%TD*%
D80*
%TO.C,Q1*%
X170693000Y-134011000D03*
D81*
X172973000Y-140311000D03*
D80*
X175253000Y-134011000D03*
%TD*%
%TO.C,Q2*%
X170694000Y-122038000D03*
D81*
X172974000Y-128338000D03*
D80*
X175254000Y-122038000D03*
%TD*%
D47*
%TO.C,R14*%
X166878000Y-124610500D03*
X166878000Y-122785500D03*
%TD*%
D82*
%TO.C,D4*%
X166878000Y-134576000D03*
X166878000Y-129076000D03*
%TD*%
D53*
%TO.C,JP2*%
X166878000Y-139700000D03*
D54*
X166878000Y-138400000D03*
%TD*%
D32*
%TO.C,C10*%
X220013000Y-145542000D03*
X222963000Y-145542000D03*
%TD*%
D48*
%TO.C,R13*%
X203200000Y-136501500D03*
X203200000Y-138326500D03*
%TD*%
D47*
%TO.C,R12*%
X205740000Y-138326500D03*
X205740000Y-136501500D03*
%TD*%
D30*
%TO.C,C3*%
X192024000Y-133936000D03*
X192024000Y-130986000D03*
%TD*%
D83*
%TO.C,U1*%
X194785000Y-140335000D03*
X194785000Y-139065000D03*
X194785000Y-137795000D03*
X194785000Y-136525000D03*
X200185000Y-136525000D03*
X200185000Y-137795000D03*
X200185000Y-139065000D03*
X200185000Y-140335000D03*
D84*
X197485000Y-138430000D03*
%TD*%
D31*
%TO.C,C8*%
X200484000Y-145288000D03*
X197534000Y-145288000D03*
%TD*%
D50*
%TO.C,R8*%
X203049500Y-140462000D03*
X204874500Y-140462000D03*
%TD*%
D36*
%TO.C,C44*%
X236789000Y-139700000D03*
X234889000Y-139700000D03*
%TD*%
%TO.C,C41*%
X230439000Y-122555000D03*
X228539000Y-122555000D03*
%TD*%
D49*
%TO.C,R56*%
X236751500Y-142240000D03*
X234926500Y-142240000D03*
%TD*%
D36*
%TO.C,C40*%
X243774000Y-122555000D03*
X241874000Y-122555000D03*
%TD*%
D50*
%TO.C,R49*%
X228576500Y-125095000D03*
X230401500Y-125095000D03*
%TD*%
D16*
%TO.C,H4*%
X210439000Y-124460000D03*
D85*
X212514000Y-124460000D03*
%TD*%
D16*
%TO.C,H2*%
X248539000Y-86360000D03*
D85*
X250614000Y-86360000D03*
%TD*%
D16*
%TO.C,H3*%
X248539000Y-124460000D03*
D85*
X250614000Y-124460000D03*
%TD*%
D16*
%TO.C,H1*%
X210439000Y-86360000D03*
D85*
X212514000Y-86360000D03*
%TD*%
D74*
%TO.C,J16*%
X241320000Y-74188000D03*
X241320000Y-75438000D03*
X241320000Y-76688000D03*
D75*
X244070000Y-71638000D03*
X244070000Y-79238000D03*
%TD*%
D76*
%TO.C,J14*%
X234930000Y-77948000D03*
X234930000Y-76698000D03*
X234930000Y-75448000D03*
X234930000Y-74198000D03*
D77*
X232180000Y-80498000D03*
X232180000Y-71648000D03*
%TD*%
D86*
%TO.C,U8*%
X236666000Y-93345000D03*
X236666000Y-92075000D03*
X236666000Y-90805000D03*
X236666000Y-89535000D03*
X241616000Y-89535000D03*
X241616000Y-90805000D03*
X241616000Y-92075000D03*
X241616000Y-93345000D03*
%TD*%
D50*
%TO.C,R48*%
X241911500Y-125095000D03*
X243736500Y-125095000D03*
%TD*%
D48*
%TO.C,R43*%
X235458000Y-106275500D03*
X235458000Y-108100500D03*
%TD*%
D47*
%TO.C,R41*%
X237617000Y-108100500D03*
X237617000Y-106275500D03*
%TD*%
D34*
%TO.C,C20*%
X159004000Y-95430000D03*
X159004000Y-97330000D03*
%TD*%
D87*
%TO.C,R4*%
X185674000Y-83312000D03*
X185674000Y-81487000D03*
%TD*%
M02*
