%TF.GenerationSoftware,KiCad,Pcbnew,5.99.0-unknown-e950278637~142~ubuntu18.04.1*%
%TF.CreationDate,2021-10-25T23:56:18+03:00*%
%TF.ProjectId,cdf-1,6364662d-312e-46b6-9963-61645f706362,rev?*%
%TF.SameCoordinates,Original*%
%TF.FileFunction,Other,User*%
%FSLAX46Y46*%
G04 Gerber Fmt 4.6, Leading zero omitted, Abs format (unit mm)*
G04 Created by KiCad (PCBNEW 5.99.0-unknown-e950278637~142~ubuntu18.04.1) date 2021-10-25 23:56:18*
%MOMM*%
%LPD*%
G01*
G04 APERTURE LIST*
%ADD10C,0.050000*%
G04 APERTURE END LIST*
D10*
%TO.C,C1*%
X177940000Y-130167000D02*
X177940000Y-139327000D01*
X182740000Y-130167000D02*
X177940000Y-130167000D01*
X177940000Y-139327000D02*
X182740000Y-139327000D01*
X182740000Y-139327000D02*
X182740000Y-130167000D01*
%TO.C,C5*%
X183020000Y-139327000D02*
X187820000Y-139327000D01*
X187820000Y-130167000D02*
X183020000Y-130167000D01*
X183020000Y-130167000D02*
X183020000Y-139327000D01*
X187820000Y-139327000D02*
X187820000Y-130167000D01*
%TO.C,C6*%
X190507000Y-134761000D02*
X190507000Y-130161000D01*
X190507000Y-130161000D02*
X188207000Y-130161000D01*
X188207000Y-130161000D02*
X188207000Y-134761000D01*
X188207000Y-134761000D02*
X190507000Y-134761000D01*
%TO.C,C7*%
X201309000Y-143898000D02*
X201309000Y-141598000D01*
X196709000Y-141598000D02*
X196709000Y-143898000D01*
X196709000Y-143898000D02*
X201309000Y-143898000D01*
X201309000Y-141598000D02*
X196709000Y-141598000D01*
%TO.C,C9*%
X192673000Y-141358000D02*
X192673000Y-139058000D01*
X192673000Y-139058000D02*
X188073000Y-139058000D01*
X188073000Y-141358000D02*
X192673000Y-141358000D01*
X188073000Y-139058000D02*
X188073000Y-141358000D01*
%TO.C,C11*%
X219194000Y-131458000D02*
X219194000Y-136258000D01*
X228354000Y-131458000D02*
X219194000Y-131458000D01*
X219194000Y-136258000D02*
X228354000Y-136258000D01*
X228354000Y-136258000D02*
X228354000Y-131458000D01*
%TO.C,C13*%
X223788000Y-143898000D02*
X223788000Y-141598000D01*
X219188000Y-141598000D02*
X219188000Y-143898000D01*
X223788000Y-141598000D02*
X219188000Y-141598000D01*
X219188000Y-143898000D02*
X223788000Y-143898000D01*
%TO.C,C16*%
X228354000Y-141338000D02*
X228354000Y-136538000D01*
X219194000Y-141338000D02*
X228354000Y-141338000D01*
X228354000Y-136538000D02*
X219194000Y-136538000D01*
X219194000Y-136538000D02*
X219194000Y-141338000D01*
%TO.C,C19*%
X158079000Y-88695000D02*
X158079000Y-85295000D01*
X158079000Y-85295000D02*
X156119000Y-85295000D01*
X156119000Y-85295000D02*
X156119000Y-88695000D01*
X156119000Y-88695000D02*
X158079000Y-88695000D01*
%TO.C,C21*%
X158024000Y-94537000D02*
X159984000Y-94537000D01*
X159984000Y-91137000D02*
X158024000Y-91137000D01*
X159984000Y-94537000D02*
X159984000Y-91137000D01*
X158024000Y-91137000D02*
X158024000Y-94537000D01*
%TO.C,C24*%
X215174000Y-61075000D02*
X217134000Y-61075000D01*
X215174000Y-57675000D02*
X215174000Y-61075000D01*
X217134000Y-61075000D02*
X217134000Y-57675000D01*
X217134000Y-57675000D02*
X215174000Y-57675000D01*
%TO.C,C25*%
X154256000Y-78522000D02*
X154256000Y-80482000D01*
X154256000Y-80482000D02*
X157656000Y-80482000D01*
X157656000Y-80482000D02*
X157656000Y-78522000D01*
X157656000Y-78522000D02*
X154256000Y-78522000D01*
%TO.C,C27*%
X217714000Y-57675000D02*
X217714000Y-61075000D01*
X217714000Y-61075000D02*
X219674000Y-61075000D01*
X219674000Y-61075000D02*
X219674000Y-57675000D01*
X219674000Y-57675000D02*
X217714000Y-57675000D01*
%TO.C,C28*%
X173645000Y-84406000D02*
X173645000Y-87806000D01*
X175605000Y-84406000D02*
X173645000Y-84406000D01*
X175605000Y-87806000D02*
X175605000Y-84406000D01*
X173645000Y-87806000D02*
X175605000Y-87806000D01*
%TO.C,C29*%
X178145000Y-88216000D02*
X176185000Y-88216000D01*
X178145000Y-91616000D02*
X178145000Y-88216000D01*
X176185000Y-88216000D02*
X176185000Y-91616000D01*
X176185000Y-91616000D02*
X178145000Y-91616000D01*
%TO.C,C36*%
X230456000Y-108930000D02*
X233856000Y-108930000D01*
X233856000Y-108930000D02*
X233856000Y-106970000D01*
X233856000Y-106970000D02*
X230456000Y-106970000D01*
X230456000Y-106970000D02*
X230456000Y-108930000D01*
%TO.C,C37*%
X226024000Y-109015000D02*
X226024000Y-105615000D01*
X224064000Y-105615000D02*
X224064000Y-109015000D01*
X226024000Y-105615000D02*
X224064000Y-105615000D01*
X224064000Y-109015000D02*
X226024000Y-109015000D01*
%TO.C,C38*%
X227874000Y-109015000D02*
X229834000Y-109015000D01*
X227874000Y-105615000D02*
X227874000Y-109015000D01*
X229834000Y-105615000D02*
X227874000Y-105615000D01*
X229834000Y-109015000D02*
X229834000Y-105615000D01*
%TO.C,C39*%
X247064000Y-108930000D02*
X247064000Y-106970000D01*
X243664000Y-106970000D02*
X243664000Y-108930000D01*
X247064000Y-106970000D02*
X243664000Y-106970000D01*
X243664000Y-108930000D02*
X247064000Y-108930000D01*
%TO.C,C42*%
X243664000Y-105120000D02*
X247064000Y-105120000D01*
X247064000Y-105120000D02*
X247064000Y-103160000D01*
X243664000Y-103160000D02*
X243664000Y-105120000D01*
X247064000Y-103160000D02*
X243664000Y-103160000D01*
%TO.C,C43*%
X242619000Y-103160000D02*
X239219000Y-103160000D01*
X239219000Y-105120000D02*
X242619000Y-105120000D01*
X239219000Y-103160000D02*
X239219000Y-105120000D01*
X242619000Y-105120000D02*
X242619000Y-103160000D01*
%TO.C,C45*%
X240828000Y-84975000D02*
X240828000Y-88375000D01*
X240828000Y-88375000D02*
X242788000Y-88375000D01*
X242788000Y-84975000D02*
X240828000Y-84975000D01*
X242788000Y-88375000D02*
X242788000Y-84975000D01*
%TO.C,C46*%
X238542000Y-88441000D02*
X240502000Y-88441000D01*
X240502000Y-85041000D02*
X238542000Y-85041000D01*
X240502000Y-88441000D02*
X240502000Y-85041000D01*
X238542000Y-85041000D02*
X238542000Y-88441000D01*
%TO.C,D6*%
X199454000Y-76955000D02*
X194754000Y-76955000D01*
X194754000Y-79255000D02*
X194754000Y-76955000D01*
X194754000Y-79255000D02*
X199454000Y-79255000D01*
X199454000Y-79255000D02*
X199454000Y-76955000D01*
%TO.C,D7*%
X189294000Y-76955000D02*
X184594000Y-76955000D01*
X184594000Y-79255000D02*
X189294000Y-79255000D01*
X184594000Y-79255000D02*
X184594000Y-76955000D01*
X189294000Y-79255000D02*
X189294000Y-76955000D01*
%TO.C,D14*%
X210305000Y-90995000D02*
X210305000Y-95695000D01*
X212605000Y-90995000D02*
X210305000Y-90995000D01*
X212605000Y-95695000D02*
X210305000Y-95695000D01*
X212605000Y-95695000D02*
X212605000Y-90995000D01*
%TO.C,D15*%
X216288000Y-95822000D02*
X213988000Y-95822000D01*
X216288000Y-95822000D02*
X216288000Y-91122000D01*
X216288000Y-91122000D02*
X213988000Y-91122000D01*
X213988000Y-91122000D02*
X213988000Y-95822000D01*
%TO.C,D16*%
X234506000Y-99815000D02*
X234506000Y-102115000D01*
X229806000Y-99815000D02*
X229806000Y-102115000D01*
X229806000Y-102115000D02*
X234506000Y-102115000D01*
X234506000Y-99815000D02*
X229806000Y-99815000D01*
%TO.C,JP9*%
X179069000Y-64536000D02*
X179069000Y-67036000D01*
X175769000Y-67036000D02*
X175769000Y-64536000D01*
X179069000Y-64536000D02*
X175769000Y-64536000D01*
X175769000Y-67036000D02*
X179069000Y-67036000D01*
%TO.C,JP13*%
X227331000Y-88118000D02*
X230631000Y-88118000D01*
X230631000Y-85618000D02*
X227331000Y-85618000D01*
X227331000Y-88118000D02*
X227331000Y-85618000D01*
X230631000Y-85618000D02*
X230631000Y-88118000D01*
%TO.C,JP15*%
X213361000Y-120757000D02*
X213361000Y-118257000D01*
X216661000Y-118257000D02*
X216661000Y-120757000D01*
X213361000Y-120757000D02*
X216661000Y-120757000D01*
X216661000Y-118257000D02*
X213361000Y-118257000D01*
%TO.C,K1*%
X226265000Y-85301000D02*
X226265000Y-95801000D01*
X226265000Y-85301000D02*
X216965000Y-85301000D01*
X216965000Y-95801000D02*
X226265000Y-95801000D01*
X216965000Y-95801000D02*
X216965000Y-85301000D01*
%TO.C,Q3*%
X169750000Y-81633000D02*
X173150000Y-81633000D01*
X169750000Y-78133000D02*
X169750000Y-81633000D01*
X173150000Y-78133000D02*
X169750000Y-78133000D01*
X173150000Y-81633000D02*
X173150000Y-78133000D01*
%TO.C,Q4*%
X193089000Y-68735000D02*
X189689000Y-68735000D01*
X189689000Y-72235000D02*
X193089000Y-72235000D01*
X193089000Y-72235000D02*
X193089000Y-68735000D01*
X189689000Y-68735000D02*
X189689000Y-72235000D01*
%TO.C,Q5*%
X177497000Y-81760000D02*
X180897000Y-81760000D01*
X177497000Y-78260000D02*
X177497000Y-81760000D01*
X180897000Y-81760000D02*
X180897000Y-78260000D01*
X180897000Y-78260000D02*
X177497000Y-78260000D01*
%TO.C,Q8*%
X222786000Y-99744000D02*
X226286000Y-99744000D01*
X226286000Y-99744000D02*
X226286000Y-96344000D01*
X222786000Y-96344000D02*
X222786000Y-99744000D01*
X226286000Y-96344000D02*
X222786000Y-96344000D01*
%TO.C,Q9*%
X214708000Y-108176000D02*
X218108000Y-108176000D01*
X214708000Y-104676000D02*
X214708000Y-108176000D01*
X218108000Y-108176000D02*
X218108000Y-104676000D01*
X218108000Y-104676000D02*
X214708000Y-104676000D01*
%TO.C,Q10*%
X222680000Y-108049000D02*
X222680000Y-104549000D01*
X219280000Y-108049000D02*
X222680000Y-108049000D01*
X219280000Y-104549000D02*
X219280000Y-108049000D01*
X222680000Y-104549000D02*
X219280000Y-104549000D01*
%TO.C,R5*%
X195514000Y-134776000D02*
X195514000Y-131416000D01*
X193614000Y-131416000D02*
X193614000Y-134776000D01*
X193614000Y-134776000D02*
X195514000Y-134776000D01*
X195514000Y-131416000D02*
X193614000Y-131416000D01*
%TO.C,R6*%
X192593000Y-135353000D02*
X190693000Y-135353000D01*
X190693000Y-138713000D02*
X192593000Y-138713000D01*
X190693000Y-135353000D02*
X190693000Y-138713000D01*
X192593000Y-138713000D02*
X192593000Y-135353000D01*
%TO.C,R7*%
X189926000Y-138713000D02*
X189926000Y-135353000D01*
X189926000Y-135353000D02*
X188026000Y-135353000D01*
X188026000Y-138713000D02*
X189926000Y-138713000D01*
X188026000Y-135353000D02*
X188026000Y-138713000D01*
%TO.C,R9*%
X198149000Y-83246000D02*
X198149000Y-81346000D01*
X194789000Y-81346000D02*
X194789000Y-83246000D01*
X194789000Y-83246000D02*
X198149000Y-83246000D01*
X198149000Y-81346000D02*
X194789000Y-81346000D01*
%TO.C,R17*%
X168558000Y-78801000D02*
X168558000Y-76901000D01*
X168558000Y-76901000D02*
X165198000Y-76901000D01*
X165198000Y-78801000D02*
X168558000Y-78801000D01*
X165198000Y-76901000D02*
X165198000Y-78801000D01*
%TO.C,R19*%
X165198000Y-81595000D02*
X168558000Y-81595000D01*
X168558000Y-81595000D02*
X168558000Y-79695000D01*
X165198000Y-79695000D02*
X165198000Y-81595000D01*
X168558000Y-79695000D02*
X165198000Y-79695000D01*
%TO.C,R23*%
X174183000Y-78457000D02*
X174183000Y-81817000D01*
X174183000Y-81817000D02*
X176083000Y-81817000D01*
X176083000Y-78457000D02*
X174183000Y-78457000D01*
X176083000Y-81817000D02*
X176083000Y-78457000D01*
%TO.C,R24*%
X184629000Y-65720000D02*
X187989000Y-65720000D01*
X187989000Y-65720000D02*
X187989000Y-63820000D01*
X184629000Y-63820000D02*
X184629000Y-65720000D01*
X187989000Y-63820000D02*
X184629000Y-63820000D01*
%TO.C,R25*%
X176215000Y-84426000D02*
X176215000Y-87786000D01*
X176215000Y-87786000D02*
X178115000Y-87786000D01*
X178115000Y-87786000D02*
X178115000Y-84426000D01*
X178115000Y-84426000D02*
X176215000Y-84426000D01*
%TO.C,R30*%
X169897000Y-97851000D02*
X173257000Y-97851000D01*
X173257000Y-97851000D02*
X173257000Y-95951000D01*
X173257000Y-95951000D02*
X169897000Y-95951000D01*
X169897000Y-95951000D02*
X169897000Y-97851000D01*
%TO.C,R31*%
X165706000Y-95951000D02*
X165706000Y-97851000D01*
X169066000Y-97851000D02*
X169066000Y-95951000D01*
X165706000Y-97851000D02*
X169066000Y-97851000D01*
X169066000Y-95951000D02*
X165706000Y-95951000D01*
%TO.C,R32*%
X178718000Y-102047000D02*
X175358000Y-102047000D01*
X175358000Y-102047000D02*
X175358000Y-103947000D01*
X175358000Y-103947000D02*
X178718000Y-103947000D01*
X178718000Y-103947000D02*
X178718000Y-102047000D01*
%TO.C,R33*%
X200853000Y-64868000D02*
X200853000Y-68228000D01*
X200853000Y-68228000D02*
X202753000Y-68228000D01*
X202753000Y-64868000D02*
X200853000Y-64868000D01*
X202753000Y-68228000D02*
X202753000Y-64868000D01*
%TO.C,R34*%
X222311000Y-96387500D02*
X220411000Y-96387500D01*
X220411000Y-99747500D02*
X222311000Y-99747500D01*
X222311000Y-99747500D02*
X222311000Y-96387500D01*
X220411000Y-96387500D02*
X220411000Y-99747500D01*
%TO.C,R35*%
X217871000Y-96364000D02*
X217871000Y-99724000D01*
X217871000Y-99724000D02*
X219771000Y-99724000D01*
X219771000Y-96364000D02*
X217871000Y-96364000D01*
X219771000Y-99724000D02*
X219771000Y-96364000D01*
%TO.C,R38*%
X212405000Y-99978000D02*
X212405000Y-96618000D01*
X210505000Y-99978000D02*
X212405000Y-99978000D01*
X210505000Y-96618000D02*
X210505000Y-99978000D01*
X212405000Y-96618000D02*
X210505000Y-96618000D01*
%TO.C,R39*%
X214188000Y-99978000D02*
X216088000Y-99978000D01*
X216088000Y-99978000D02*
X216088000Y-96618000D01*
X214188000Y-96618000D02*
X214188000Y-99978000D01*
X216088000Y-96618000D02*
X214188000Y-96618000D01*
%TO.C,R40*%
X230476000Y-103190000D02*
X230476000Y-105090000D01*
X230476000Y-105090000D02*
X233836000Y-105090000D01*
X233836000Y-105090000D02*
X233836000Y-103190000D01*
X233836000Y-103190000D02*
X230476000Y-103190000D01*
%TO.C,R42*%
X178845000Y-93411000D02*
X175485000Y-93411000D01*
X175485000Y-93411000D02*
X175485000Y-95311000D01*
X175485000Y-95311000D02*
X178845000Y-95311000D01*
X178845000Y-95311000D02*
X178845000Y-93411000D01*
%TO.C,R44*%
X178845000Y-97851000D02*
X178845000Y-95951000D01*
X178845000Y-95951000D02*
X175485000Y-95951000D01*
X175485000Y-95951000D02*
X175485000Y-97851000D01*
X175485000Y-97851000D02*
X178845000Y-97851000D01*
%TO.C,R45*%
X208473000Y-108106000D02*
X210373000Y-108106000D01*
X210373000Y-104746000D02*
X208473000Y-104746000D01*
X208473000Y-104746000D02*
X208473000Y-108106000D01*
X210373000Y-108106000D02*
X210373000Y-104746000D01*
%TO.C,R46*%
X247843000Y-94009000D02*
X249743000Y-94009000D01*
X249743000Y-90649000D02*
X247843000Y-90649000D01*
X249743000Y-94009000D02*
X249743000Y-90649000D01*
X247843000Y-90649000D02*
X247843000Y-94009000D01*
%TO.C,R47*%
X246357000Y-89541000D02*
X244117000Y-89541000D01*
X246357000Y-94101000D02*
X246357000Y-89541000D01*
X244117000Y-94101000D02*
X246357000Y-94101000D01*
X244117000Y-89541000D02*
X244117000Y-94101000D01*
%TO.C,R50*%
X211394000Y-104746000D02*
X211394000Y-108106000D01*
X213294000Y-108106000D02*
X213294000Y-104746000D01*
X213294000Y-104746000D02*
X211394000Y-104746000D01*
X211394000Y-108106000D02*
X213294000Y-108106000D01*
%TO.C,R51*%
X239239000Y-107000000D02*
X239239000Y-108900000D01*
X242599000Y-107000000D02*
X239239000Y-107000000D01*
X242599000Y-108900000D02*
X242599000Y-107000000D01*
X239239000Y-108900000D02*
X242599000Y-108900000D01*
%TO.C,R52*%
X222660000Y-101793000D02*
X219300000Y-101793000D01*
X222660000Y-103693000D02*
X222660000Y-101793000D01*
X219300000Y-103693000D02*
X222660000Y-103693000D01*
X219300000Y-101793000D02*
X219300000Y-103693000D01*
%TO.C,R53*%
X220792000Y-113186000D02*
X222692000Y-113186000D01*
X220792000Y-109826000D02*
X220792000Y-113186000D01*
X222692000Y-113186000D02*
X222692000Y-109826000D01*
X222692000Y-109826000D02*
X220792000Y-109826000D01*
%TO.C,R54*%
X231963000Y-88744000D02*
X230063000Y-88744000D01*
X230063000Y-88744000D02*
X230063000Y-92104000D01*
X230063000Y-92104000D02*
X231963000Y-92104000D01*
X231963000Y-92104000D02*
X231963000Y-88744000D01*
%TO.C,R55*%
X231963000Y-92427000D02*
X230063000Y-92427000D01*
X231963000Y-95787000D02*
X231963000Y-92427000D01*
X230063000Y-95787000D02*
X231963000Y-95787000D01*
X230063000Y-92427000D02*
X230063000Y-95787000D01*
%TO.C,R57*%
X234249000Y-92104000D02*
X234249000Y-88744000D01*
X232349000Y-92104000D02*
X234249000Y-92104000D01*
X232349000Y-88744000D02*
X232349000Y-92104000D01*
X234249000Y-88744000D02*
X232349000Y-88744000D01*
%TO.C,R58*%
X234249000Y-95787000D02*
X234249000Y-92427000D01*
X232349000Y-95787000D02*
X234249000Y-95787000D01*
X234249000Y-92427000D02*
X232349000Y-92427000D01*
X232349000Y-92427000D02*
X232349000Y-95787000D01*
%TO.C,U3*%
X163779000Y-83781000D02*
X163779000Y-94781000D01*
X173279000Y-83781000D02*
X173279000Y-94781000D01*
X173279000Y-94781000D02*
X163779000Y-94781000D01*
X173279000Y-83781000D02*
X163779000Y-83781000D01*
%TO.C,JP7*%
X198354000Y-70230000D02*
X195854000Y-70230000D01*
X195854000Y-66930000D02*
X198354000Y-66930000D01*
X198354000Y-70230000D02*
X198354000Y-66930000D01*
X195854000Y-66930000D02*
X195854000Y-70230000D01*
%TO.C,FB1*%
X155409000Y-85245000D02*
X153709000Y-85245000D01*
X155409000Y-88745000D02*
X155409000Y-85245000D01*
X153709000Y-88745000D02*
X155409000Y-88745000D01*
X153709000Y-85245000D02*
X153709000Y-88745000D01*
%TO.C,U4*%
X202859000Y-63710000D02*
X195159000Y-63710000D01*
X202859000Y-58210000D02*
X202859000Y-63710000D01*
X195159000Y-58210000D02*
X202859000Y-58210000D01*
X195159000Y-63710000D02*
X195159000Y-58210000D01*
%TO.C,Q11*%
X209080000Y-116784000D02*
X209080000Y-109784000D01*
X209080000Y-109784000D02*
X220180000Y-109784000D01*
X220180000Y-109784000D02*
X220180000Y-116784000D01*
X220180000Y-116784000D02*
X209080000Y-116784000D01*
%TO.C,Q7*%
X180810000Y-77033000D02*
X169710000Y-77033000D01*
X180810000Y-70033000D02*
X180810000Y-77033000D01*
X169710000Y-77033000D02*
X169710000Y-70033000D01*
X169710000Y-70033000D02*
X180810000Y-70033000D01*
%TO.C,C30*%
X190409000Y-56035000D02*
X190409000Y-59435000D01*
X190409000Y-59435000D02*
X192369000Y-59435000D01*
X192369000Y-56035000D02*
X190409000Y-56035000D01*
X192369000Y-59435000D02*
X192369000Y-56035000D01*
%TO.C,J12*%
X214246400Y-55805000D02*
X205646400Y-55805000D01*
X205646400Y-49705000D02*
X214246400Y-49705000D01*
X205646400Y-55805000D02*
X205646400Y-49705000D01*
X214246400Y-49705000D02*
X214246400Y-55805000D01*
%TO.C,U5*%
X195159000Y-55505000D02*
X195159000Y-50005000D01*
X195159000Y-50005000D02*
X202859000Y-50005000D01*
X202859000Y-55505000D02*
X195159000Y-55505000D01*
X202859000Y-50005000D02*
X202859000Y-55505000D01*
%TO.C,C34*%
X194909000Y-51230000D02*
X194909000Y-47830000D01*
X192949000Y-47830000D02*
X192949000Y-51230000D01*
X192949000Y-51230000D02*
X194909000Y-51230000D01*
X194909000Y-47830000D02*
X192949000Y-47830000D01*
%TO.C,C31*%
X192369000Y-47830000D02*
X190409000Y-47830000D01*
X190409000Y-51230000D02*
X192369000Y-51230000D01*
X190409000Y-47830000D02*
X190409000Y-51230000D01*
X192369000Y-51230000D02*
X192369000Y-47830000D01*
%TO.C,C32*%
X194909000Y-59435000D02*
X194909000Y-56035000D01*
X192949000Y-59435000D02*
X194909000Y-59435000D01*
X192949000Y-56035000D02*
X192949000Y-59435000D01*
X194909000Y-56035000D02*
X192949000Y-56035000D01*
%TO.C,R16*%
X205515000Y-144465000D02*
X202155000Y-144465000D01*
X205515000Y-146365000D02*
X205515000Y-144465000D01*
X202155000Y-144465000D02*
X202155000Y-146365000D01*
X202155000Y-146365000D02*
X205515000Y-146365000D01*
%TO.C,Q6*%
X193089000Y-66520000D02*
X193089000Y-63020000D01*
X189689000Y-63020000D02*
X189689000Y-66520000D01*
X193089000Y-63020000D02*
X189689000Y-63020000D01*
X189689000Y-66520000D02*
X193089000Y-66520000D01*
%TO.C,R22*%
X184629000Y-67630000D02*
X184629000Y-69530000D01*
X187989000Y-67630000D02*
X184629000Y-67630000D01*
X187989000Y-69530000D02*
X187989000Y-67630000D01*
X184629000Y-69530000D02*
X187989000Y-69530000D01*
%TO.C,R37*%
X198948000Y-68228000D02*
X200848000Y-68228000D01*
X198948000Y-64868000D02*
X198948000Y-68228000D01*
X200848000Y-64868000D02*
X198948000Y-64868000D01*
X200848000Y-68228000D02*
X200848000Y-64868000D01*
%TO.C,R21*%
X184629000Y-52390000D02*
X184629000Y-54290000D01*
X187989000Y-52390000D02*
X184629000Y-52390000D01*
X187989000Y-54290000D02*
X187989000Y-52390000D01*
X184629000Y-54290000D02*
X187989000Y-54290000D01*
%TO.C,R18*%
X184629000Y-61910000D02*
X187989000Y-61910000D01*
X184629000Y-60010000D02*
X184629000Y-61910000D01*
X187989000Y-61910000D02*
X187989000Y-60010000D01*
X187989000Y-60010000D02*
X184629000Y-60010000D01*
%TO.C,R28*%
X187989000Y-71440000D02*
X184629000Y-71440000D01*
X184629000Y-73340000D02*
X187989000Y-73340000D01*
X184629000Y-71440000D02*
X184629000Y-73340000D01*
X187989000Y-73340000D02*
X187989000Y-71440000D01*
%TO.C,R20*%
X184629000Y-50480000D02*
X187989000Y-50480000D01*
X187989000Y-48580000D02*
X184629000Y-48580000D01*
X187989000Y-50480000D02*
X187989000Y-48580000D01*
X184629000Y-48580000D02*
X184629000Y-50480000D01*
%TO.C,R26*%
X187989000Y-58100000D02*
X187989000Y-56200000D01*
X184629000Y-58100000D02*
X187989000Y-58100000D01*
X184629000Y-56200000D02*
X184629000Y-58100000D01*
X187989000Y-56200000D02*
X184629000Y-56200000D01*
%TO.C,JP10*%
X217149000Y-48990000D02*
X224049000Y-48990000D01*
X217149000Y-57690000D02*
X217149000Y-48990000D01*
X224049000Y-57690000D02*
X217149000Y-57690000D01*
X224049000Y-48990000D02*
X224049000Y-57690000D01*
%TO.C,R59*%
X179549000Y-84770000D02*
X182909000Y-84770000D01*
X182909000Y-84770000D02*
X182909000Y-82870000D01*
X182909000Y-82870000D02*
X179549000Y-82870000D01*
X179549000Y-82870000D02*
X179549000Y-84770000D01*
%TO.C,R27*%
X166182000Y-70098500D02*
X166182000Y-73458500D01*
X168082000Y-73458500D02*
X168082000Y-70098500D01*
X168082000Y-70098500D02*
X166182000Y-70098500D01*
X166182000Y-73458500D02*
X168082000Y-73458500D01*
%TO.C,R29*%
X177104000Y-63402000D02*
X179004000Y-63402000D01*
X177104000Y-60042000D02*
X177104000Y-63402000D01*
X179004000Y-60042000D02*
X177104000Y-60042000D01*
X179004000Y-63402000D02*
X179004000Y-60042000D01*
%TO.C,U7*%
X246504800Y-110510000D02*
X224004800Y-110510000D01*
X224004800Y-114900000D02*
X224004800Y-110510000D01*
X241304800Y-117900000D02*
X246504800Y-114900000D01*
X229204800Y-117900000D02*
X224004800Y-114900000D01*
X246504800Y-110510000D02*
X246504800Y-114900000D01*
X241304800Y-117900000D02*
X229204800Y-117900000D01*
%TO.C,J11*%
X212757000Y-78430000D02*
X204057000Y-78430000D01*
X204057000Y-78430000D02*
X204057000Y-71430000D01*
X204057000Y-71430000D02*
X212757000Y-71430000D01*
X212757000Y-71430000D02*
X212757000Y-78430000D01*
%TO.C,C12*%
X163498000Y-110835000D02*
X163498000Y-108875000D01*
X160098000Y-108875000D02*
X160098000Y-110835000D01*
X160098000Y-110835000D02*
X163498000Y-110835000D01*
X163498000Y-108875000D02*
X160098000Y-108875000D01*
%TO.C,C14*%
X167989000Y-58972000D02*
X166529000Y-58972000D01*
X167989000Y-61932000D02*
X167989000Y-58972000D01*
X166529000Y-61932000D02*
X167989000Y-61932000D01*
X166529000Y-58972000D02*
X166529000Y-61932000D01*
%TO.C,C15*%
X173977000Y-58920000D02*
X169177000Y-58920000D01*
X169177000Y-68080000D02*
X173977000Y-68080000D01*
X173977000Y-68080000D02*
X173977000Y-58920000D01*
X169177000Y-58920000D02*
X169177000Y-68080000D01*
%TO.C,C17*%
X166529000Y-65068000D02*
X166529000Y-68028000D01*
X167989000Y-68028000D02*
X167989000Y-65068000D01*
X167989000Y-65068000D02*
X166529000Y-65068000D01*
X166529000Y-68028000D02*
X167989000Y-68028000D01*
%TO.C,C18*%
X165214000Y-58920000D02*
X160414000Y-58920000D01*
X160414000Y-58920000D02*
X160414000Y-68080000D01*
X160414000Y-68080000D02*
X165214000Y-68080000D01*
X165214000Y-68080000D02*
X165214000Y-58920000D01*
%TO.C,R1*%
X178718000Y-106741000D02*
X178718000Y-104841000D01*
X175358000Y-104841000D02*
X175358000Y-106741000D01*
X178718000Y-104841000D02*
X175358000Y-104841000D01*
X175358000Y-106741000D02*
X178718000Y-106741000D01*
%TO.C,R2*%
X175381500Y-99126000D02*
X175381500Y-101026000D01*
X178741500Y-99126000D02*
X175381500Y-99126000D01*
X175381500Y-101026000D02*
X178741500Y-101026000D01*
X178741500Y-101026000D02*
X178741500Y-99126000D01*
%TO.C,R10*%
X203991000Y-82103000D02*
X203991000Y-80203000D01*
X203991000Y-80203000D02*
X200631000Y-80203000D01*
X200631000Y-82103000D02*
X203991000Y-82103000D01*
X200631000Y-80203000D02*
X200631000Y-82103000D01*
%TO.C,R11*%
X200631000Y-82616000D02*
X200631000Y-84516000D01*
X203991000Y-84516000D02*
X203991000Y-82616000D01*
X203991000Y-82616000D02*
X200631000Y-82616000D01*
X200631000Y-84516000D02*
X203991000Y-84516000D01*
%TO.C,R15*%
X174654000Y-103947000D02*
X174654000Y-102047000D01*
X171294000Y-103947000D02*
X174654000Y-103947000D01*
X171294000Y-102047000D02*
X171294000Y-103947000D01*
X174654000Y-102047000D02*
X171294000Y-102047000D01*
%TO.C,U2*%
X182989000Y-85610000D02*
X182989000Y-91110000D01*
X179449000Y-127360000D02*
X184949000Y-127360000D01*
X206949000Y-89160000D02*
X201449000Y-89160000D01*
X206949000Y-127360000D02*
X206949000Y-89160000D01*
X203389000Y-91110000D02*
X203389000Y-85610000D01*
X184949000Y-89160000D02*
X179449000Y-89160000D01*
X203389000Y-85610000D02*
X182989000Y-85610000D01*
X184949000Y-127360000D02*
X184949000Y-89160000D01*
X179449000Y-89160000D02*
X179449000Y-127360000D01*
X201449000Y-127360000D02*
X206949000Y-127360000D01*
X201449000Y-89160000D02*
X201449000Y-127360000D01*
%TO.C,C22*%
X153789000Y-85204000D02*
X162949000Y-85204000D01*
X162949000Y-85204000D02*
X162949000Y-80404000D01*
X162949000Y-80404000D02*
X153789000Y-80404000D01*
X153789000Y-80404000D02*
X153789000Y-85204000D01*
%TO.C,C4*%
X188927300Y-84123000D02*
X190887300Y-84123000D01*
X190887300Y-80723000D02*
X188927300Y-80723000D01*
X190887300Y-84123000D02*
X190887300Y-80723000D01*
X188927300Y-80723000D02*
X188927300Y-84123000D01*
%TO.C,R3*%
X193101000Y-84103000D02*
X193101000Y-80743000D01*
X191201000Y-84103000D02*
X193101000Y-84103000D01*
X193101000Y-80743000D02*
X191201000Y-80743000D01*
X191201000Y-80743000D02*
X191201000Y-84103000D01*
%TO.C,C2*%
X188686000Y-80723000D02*
X186726000Y-80723000D01*
X186726000Y-80723000D02*
X186726000Y-84123000D01*
X188686000Y-84123000D02*
X188686000Y-80723000D01*
X186726000Y-84123000D02*
X188686000Y-84123000D01*
%TO.C,U9*%
X153969000Y-77260000D02*
X153969000Y-70060000D01*
X162769000Y-70060000D02*
X162769000Y-77260000D01*
X153969000Y-70060000D02*
X162769000Y-70060000D01*
X162769000Y-77260000D02*
X153969000Y-77260000D01*
%TO.C,C35*%
X219365000Y-65454000D02*
X221325000Y-65454000D01*
X221325000Y-65454000D02*
X221325000Y-62054000D01*
X221325000Y-62054000D02*
X219365000Y-62054000D01*
X219365000Y-62054000D02*
X219365000Y-65454000D01*
%TO.C,C33*%
X216825000Y-83234000D02*
X218785000Y-83234000D01*
X218785000Y-83234000D02*
X218785000Y-79834000D01*
X218785000Y-79834000D02*
X216825000Y-79834000D01*
X216825000Y-79834000D02*
X216825000Y-83234000D01*
%TO.C,R36*%
X223835000Y-65434000D02*
X223835000Y-62074000D01*
X223835000Y-62074000D02*
X221935000Y-62074000D01*
X221935000Y-62074000D02*
X221935000Y-65434000D01*
X221935000Y-65434000D02*
X223835000Y-65434000D01*
%TO.C,U6*%
X215015000Y-67564000D02*
X216535000Y-67564000D01*
X225675000Y-77724000D02*
X225675000Y-67564000D01*
X216535000Y-66044000D02*
X216535000Y-67564000D01*
X216535000Y-79244000D02*
X216535000Y-77724000D01*
X216535000Y-79244000D02*
X224155000Y-79244000D01*
X216535000Y-66044000D02*
X224155000Y-66044000D01*
X215015000Y-67564000D02*
X215015000Y-77724000D01*
X225675000Y-67564000D02*
X224155000Y-67564000D01*
X215015000Y-77724000D02*
X216535000Y-77724000D01*
X225675000Y-77724000D02*
X224155000Y-77724000D01*
X224155000Y-66044000D02*
X224155000Y-67564000D01*
X224155000Y-79244000D02*
X224155000Y-77724000D01*
%TO.C,J18*%
X246070000Y-69744000D02*
X240170000Y-69744000D01*
X246070000Y-60304000D02*
X246070000Y-69744000D01*
X240170000Y-69744000D02*
X240170000Y-60304000D01*
X240170000Y-60304000D02*
X246070000Y-60304000D01*
%TO.C,J19*%
X236122000Y-57774000D02*
X236122000Y-69734000D01*
X236122000Y-69734000D02*
X230222000Y-69734000D01*
X230222000Y-69734000D02*
X230222000Y-57774000D01*
X230222000Y-57774000D02*
X236122000Y-57774000D01*
%TO.C,L1*%
X207529000Y-135220000D02*
X218429000Y-135220000D01*
X218429000Y-146720000D02*
X207529000Y-146720000D01*
X207529000Y-146720000D02*
X207529000Y-135220000D01*
X218429000Y-135220000D02*
X218429000Y-146720000D01*
%TO.C,D2*%
X196173000Y-128095000D02*
X196173000Y-134795000D01*
X209973000Y-134795000D02*
X209973000Y-128095000D01*
X196173000Y-134795000D02*
X209973000Y-134795000D01*
X209973000Y-128095000D02*
X196173000Y-128095000D01*
%TO.C,Q1*%
X176473000Y-143761000D02*
X169473000Y-143761000D01*
X169473000Y-143761000D02*
X169473000Y-132661000D01*
X176473000Y-132661000D02*
X176473000Y-143761000D01*
X169473000Y-132661000D02*
X176473000Y-132661000D01*
%TO.C,Q2*%
X169474000Y-120688000D02*
X176474000Y-120688000D01*
X176474000Y-120688000D02*
X176474000Y-131788000D01*
X169474000Y-131788000D02*
X169474000Y-120688000D01*
X176474000Y-131788000D02*
X169474000Y-131788000D01*
%TO.C,R14*%
X167828000Y-125378000D02*
X167828000Y-122018000D01*
X165928000Y-122018000D02*
X165928000Y-125378000D01*
X167828000Y-122018000D02*
X165928000Y-122018000D01*
X165928000Y-125378000D02*
X167828000Y-125378000D01*
%TO.C,D4*%
X167978000Y-127176000D02*
X165778000Y-127176000D01*
X165778000Y-136476000D02*
X167978000Y-136476000D01*
X165778000Y-127176000D02*
X165778000Y-136476000D01*
X167978000Y-136476000D02*
X167978000Y-127176000D01*
%TO.C,JP2*%
X168128000Y-140700000D02*
X165628000Y-140700000D01*
X168128000Y-140700000D02*
X168128000Y-137400000D01*
X165628000Y-137400000D02*
X168128000Y-137400000D01*
X165628000Y-137400000D02*
X165628000Y-140700000D01*
%TO.C,C10*%
X219188000Y-144392000D02*
X219188000Y-146692000D01*
X223788000Y-146692000D02*
X223788000Y-144392000D01*
X219188000Y-146692000D02*
X223788000Y-146692000D01*
X223788000Y-144392000D02*
X219188000Y-144392000D01*
%TO.C,R13*%
X204150000Y-139094000D02*
X204150000Y-135734000D01*
X204150000Y-135734000D02*
X202250000Y-135734000D01*
X202250000Y-135734000D02*
X202250000Y-139094000D01*
X202250000Y-139094000D02*
X204150000Y-139094000D01*
%TO.C,R12*%
X206690000Y-139094000D02*
X206690000Y-135734000D01*
X204790000Y-139094000D02*
X206690000Y-139094000D01*
X206690000Y-135734000D02*
X204790000Y-135734000D01*
X204790000Y-135734000D02*
X204790000Y-139094000D01*
%TO.C,C3*%
X193174000Y-130161000D02*
X190874000Y-130161000D01*
X193174000Y-134761000D02*
X193174000Y-130161000D01*
X190874000Y-130161000D02*
X190874000Y-134761000D01*
X190874000Y-134761000D02*
X193174000Y-134761000D01*
%TO.C,U1*%
X193735000Y-135680000D02*
X201235000Y-135680000D01*
X193735000Y-141180000D02*
X193735000Y-135680000D01*
X201235000Y-141180000D02*
X201235000Y-135680000D01*
X193735000Y-141180000D02*
X201235000Y-141180000D01*
%TO.C,C8*%
X196709000Y-144138000D02*
X196709000Y-146438000D01*
X201309000Y-146438000D02*
X201309000Y-144138000D01*
X201309000Y-144138000D02*
X196709000Y-144138000D01*
X196709000Y-146438000D02*
X201309000Y-146438000D01*
%TO.C,R8*%
X202282000Y-139512000D02*
X202282000Y-141412000D01*
X205642000Y-139512000D02*
X202282000Y-139512000D01*
X202282000Y-141412000D02*
X205642000Y-141412000D01*
X205642000Y-141412000D02*
X205642000Y-139512000D01*
%TO.C,C44*%
X234139000Y-138720000D02*
X234139000Y-140680000D01*
X234139000Y-140680000D02*
X237539000Y-140680000D01*
X237539000Y-138720000D02*
X234139000Y-138720000D01*
X237539000Y-140680000D02*
X237539000Y-138720000D01*
%TO.C,C41*%
X227789000Y-123535000D02*
X231189000Y-123535000D01*
X231189000Y-123535000D02*
X231189000Y-121575000D01*
X227789000Y-121575000D02*
X227789000Y-123535000D01*
X231189000Y-121575000D02*
X227789000Y-121575000D01*
%TO.C,R56*%
X234159000Y-143190000D02*
X237519000Y-143190000D01*
X234159000Y-141290000D02*
X234159000Y-143190000D01*
X237519000Y-143190000D02*
X237519000Y-141290000D01*
X237519000Y-141290000D02*
X234159000Y-141290000D01*
%TO.C,C40*%
X244524000Y-121575000D02*
X241124000Y-121575000D01*
X244524000Y-123535000D02*
X244524000Y-121575000D01*
X241124000Y-121575000D02*
X241124000Y-123535000D01*
X241124000Y-123535000D02*
X244524000Y-123535000D01*
%TO.C,R49*%
X227809000Y-126045000D02*
X231169000Y-126045000D01*
X227809000Y-124145000D02*
X227809000Y-126045000D01*
X231169000Y-124145000D02*
X227809000Y-124145000D01*
X231169000Y-126045000D02*
X231169000Y-124145000D01*
%TO.C,H4*%
X213339000Y-124460000D02*
G75*
G03*
X213339000Y-124460000I-2900000J0D01*
G01*
%TO.C,H2*%
X251439000Y-86360000D02*
G75*
G03*
X251439000Y-86360000I-2900000J0D01*
G01*
%TO.C,H3*%
X251439000Y-124460000D02*
G75*
G03*
X251439000Y-124460000I-2900000J0D01*
G01*
%TO.C,H1*%
X213339000Y-86360000D02*
G75*
G03*
X213339000Y-86360000I-2900000J0D01*
G01*
%TO.C,J16*%
X240170000Y-80788000D02*
X240170000Y-70088000D01*
X246070000Y-80788000D02*
X240170000Y-80788000D01*
X246070000Y-70088000D02*
X246070000Y-80788000D01*
X240170000Y-70088000D02*
X246070000Y-70088000D01*
%TO.C,J14*%
X236080000Y-70093000D02*
X236080000Y-82053000D01*
X230180000Y-82053000D02*
X230180000Y-70093000D01*
X236080000Y-82053000D02*
X230180000Y-82053000D01*
X230180000Y-70093000D02*
X236080000Y-70093000D01*
%TO.C,U8*%
X242841000Y-88740000D02*
X242841000Y-94140000D01*
X235441000Y-94140000D02*
X235441000Y-88740000D01*
X242841000Y-94140000D02*
X235441000Y-94140000D01*
X235441000Y-88740000D02*
X242841000Y-88740000D01*
%TO.C,R48*%
X244504000Y-126045000D02*
X244504000Y-124145000D01*
X241144000Y-126045000D02*
X244504000Y-126045000D01*
X241144000Y-124145000D02*
X241144000Y-126045000D01*
X244504000Y-124145000D02*
X241144000Y-124145000D01*
%TO.C,R43*%
X236408000Y-108868000D02*
X236408000Y-105508000D01*
X234508000Y-108868000D02*
X236408000Y-108868000D01*
X234508000Y-105508000D02*
X234508000Y-108868000D01*
X236408000Y-105508000D02*
X234508000Y-105508000D01*
%TO.C,R41*%
X236667000Y-108868000D02*
X238567000Y-108868000D01*
X236667000Y-105508000D02*
X236667000Y-108868000D01*
X238567000Y-108868000D02*
X238567000Y-105508000D01*
X238567000Y-105508000D02*
X236667000Y-105508000D01*
%TO.C,C20*%
X158024000Y-98080000D02*
X159984000Y-98080000D01*
X159984000Y-98080000D02*
X159984000Y-94680000D01*
X159984000Y-94680000D02*
X158024000Y-94680000D01*
X158024000Y-94680000D02*
X158024000Y-98080000D01*
%TO.C,R4*%
X184724000Y-84079500D02*
X186624000Y-84079500D01*
X186624000Y-80719500D02*
X184724000Y-80719500D01*
X186624000Y-84079500D02*
X186624000Y-80719500D01*
X184724000Y-80719500D02*
X184724000Y-84079500D01*
%TD*%
M02*
