%TF.GenerationSoftware,KiCad,Pcbnew,5.99.0-unknown-e950278637~142~ubuntu18.04.1*%
%TF.CreationDate,2021-10-25T23:56:18+03:00*%
%TF.ProjectId,cdf-1,6364662d-312e-46b6-9963-61645f706362,rev?*%
%TF.SameCoordinates,Original*%
%TF.FileFunction,Legend,Top*%
%TF.FilePolarity,Positive*%
%FSLAX46Y46*%
G04 Gerber Fmt 4.6, Leading zero omitted, Abs format (unit mm)*
G04 Created by KiCad (PCBNEW 5.99.0-unknown-e950278637~142~ubuntu18.04.1) date 2021-10-25 23:56:18*
%MOMM*%
%LPD*%
G01*
G04 APERTURE LIST*
%ADD10C,0.150000*%
%ADD11C,0.120000*%
G04 APERTURE END LIST*
D10*
X217424000Y-73660000D02*
X217424000Y-49530000D01*
X183769000Y-49530000D02*
X183769000Y-73660000D01*
X247954800Y-96520000D02*
X247954800Y-114300000D01*
X247954800Y-114300000D02*
X222554800Y-114300000D01*
X235254800Y-114300000D02*
X235254800Y-96520000D01*
X247954800Y-105410000D02*
X222554800Y-105410000D01*
X222554800Y-114300000D02*
X222554800Y-96520000D01*
X222554800Y-96520000D02*
X247954800Y-96520000D01*
X202184000Y-48260000D02*
X216154000Y-48260000D01*
X185039000Y-74930000D02*
X216154000Y-74930000D01*
X251079000Y-57150000D02*
X251079000Y-86360000D01*
X249809000Y-87630000D02*
X220599000Y-87630000D01*
X219329000Y-86360000D02*
X219329000Y-57150000D01*
X153289000Y-85090000D02*
X153289000Y-57150000D01*
X181229000Y-86360000D02*
X154559000Y-86360000D01*
X185039000Y-90170000D02*
X185039000Y-96520000D01*
X183769000Y-97790000D02*
X163449000Y-97790000D01*
X162179000Y-96520000D02*
X162179000Y-90170000D01*
X165989000Y-120650000D02*
X165989000Y-132080000D01*
X167259000Y-133350000D02*
X199009000Y-133350000D01*
X200279000Y-132080000D02*
X200279000Y-120650000D01*
X171069000Y-119380000D02*
X167259000Y-119380000D01*
X182499000Y-57150000D02*
X182499000Y-85090000D01*
X167259000Y-145415000D02*
X221869000Y-145415000D01*
X163449000Y-88900000D02*
G75*
G03*
X162179000Y-90170000I-1J-1269999D01*
G01*
X216154000Y-74930000D02*
G75*
G03*
X217424000Y-73660000I1J1269999D01*
G01*
X183769000Y-97790000D02*
G75*
G03*
X185039000Y-96520000I1J1269999D01*
G01*
X167259000Y-119380000D02*
G75*
G03*
X165989000Y-120650000I-1J-1269999D01*
G01*
X219329000Y-86360000D02*
G75*
G03*
X220599000Y-87630000I1269999J-1D01*
G01*
X181229000Y-86360000D02*
G75*
G03*
X182499000Y-85090000I1J1269999D01*
G01*
X199009000Y-133350000D02*
G75*
G03*
X200279000Y-132080000I1J1269999D01*
G01*
X217424000Y-49530000D02*
G75*
G03*
X216154000Y-48260000I-1269999J1D01*
G01*
X171069000Y-119380000D02*
X172339000Y-119380000D01*
X162814000Y-55880000D02*
X164465000Y-55880000D01*
X220599000Y-55880000D02*
G75*
G03*
X219329000Y-57150000I-1J-1269999D01*
G01*
X178816000Y-55880000D02*
X177800000Y-55880000D01*
X165989000Y-144145000D02*
G75*
G03*
X167259000Y-145415000I1269999J-1D01*
G01*
X183769000Y-73660000D02*
G75*
G03*
X185039000Y-74930000I1269999J-1D01*
G01*
X181229000Y-55880000D02*
X178689000Y-55880000D01*
X223139000Y-137795000D02*
G75*
G03*
X221869000Y-136525000I-1269999J1D01*
G01*
X185039000Y-90170000D02*
G75*
G03*
X183769000Y-88900000I-1269999J1D01*
G01*
X165989000Y-137795000D02*
X165989000Y-144145000D01*
X220599000Y-55880000D02*
X221869000Y-55880000D01*
X183896000Y-88900000D02*
X171196000Y-88900000D01*
X182499000Y-57150000D02*
G75*
G03*
X181229000Y-55880000I-1269999J1D01*
G01*
X185039000Y-48260000D02*
G75*
G03*
X183769000Y-49530000I-1J-1269999D01*
G01*
X185039000Y-136525000D02*
X221869000Y-136525000D01*
X223139000Y-144145000D02*
X223139000Y-137795000D01*
X167259000Y-136525000D02*
G75*
G03*
X165989000Y-137795000I-1J-1269999D01*
G01*
X165989000Y-132080000D02*
G75*
G03*
X167259000Y-133350000I1269999J-1D01*
G01*
X163449000Y-88900000D02*
X165989000Y-88900000D01*
X154559000Y-55880000D02*
G75*
G03*
X153289000Y-57150000I-1J-1269999D01*
G01*
X153289000Y-85090000D02*
G75*
G03*
X154559000Y-86360000I1269999J-1D01*
G01*
X154559000Y-55880000D02*
X158369000Y-55880000D01*
X199009000Y-119380000D02*
X177419000Y-119380000D01*
X251079000Y-57150000D02*
G75*
G03*
X249809000Y-55880000I-1269999J1D01*
G01*
X221869000Y-145415000D02*
G75*
G03*
X223139000Y-144145000I1J1269999D01*
G01*
X226949000Y-55880000D02*
X228219000Y-55880000D01*
X242189000Y-55880000D02*
X241554000Y-55880000D01*
X249809000Y-87630000D02*
G75*
G03*
X251079000Y-86360000I1J1269999D01*
G01*
X162179000Y-96520000D02*
G75*
G03*
X163449000Y-97790000I1269999J-1D01*
G01*
X200279000Y-120650000D02*
G75*
G03*
X199009000Y-119380000I-1269999J1D01*
G01*
X185039000Y-48260000D02*
X186309000Y-48260000D01*
X249809000Y-55880000D02*
X242189000Y-55880000D01*
X196572333Y-60142380D02*
X196572333Y-59142380D01*
X196810428Y-59142380D01*
X196953285Y-59190000D01*
X197048523Y-59285238D01*
X197096142Y-59380476D01*
X197143761Y-59570952D01*
X197143761Y-59713809D01*
X197096142Y-59904285D01*
X197048523Y-59999523D01*
X196953285Y-60094761D01*
X196810428Y-60142380D01*
X196572333Y-60142380D01*
X197572333Y-59142380D02*
X197572333Y-59951904D01*
X197619952Y-60047142D01*
X197667571Y-60094761D01*
X197762809Y-60142380D01*
X197953285Y-60142380D01*
X198048523Y-60094761D01*
X198096142Y-60047142D01*
X198143761Y-59951904D01*
X198143761Y-59142380D01*
X198477095Y-59142380D02*
X199048523Y-59142380D01*
X198762809Y-60142380D02*
X198762809Y-59142380D01*
X197128047Y-64698571D02*
X197270904Y-64746190D01*
X197318523Y-64793809D01*
X197366142Y-64889047D01*
X197366142Y-65031904D01*
X197318523Y-65127142D01*
X197270904Y-65174761D01*
X197175666Y-65222380D01*
X196794714Y-65222380D01*
X196794714Y-64222380D01*
X197128047Y-64222380D01*
X197223285Y-64270000D01*
X197270904Y-64317619D01*
X197318523Y-64412857D01*
X197318523Y-64508095D01*
X197270904Y-64603333D01*
X197223285Y-64650952D01*
X197128047Y-64698571D01*
X196794714Y-64698571D01*
X197985190Y-64222380D02*
X198175666Y-64222380D01*
X198270904Y-64270000D01*
X198366142Y-64365238D01*
X198413761Y-64555714D01*
X198413761Y-64889047D01*
X198366142Y-65079523D01*
X198270904Y-65174761D01*
X198175666Y-65222380D01*
X197985190Y-65222380D01*
X197889952Y-65174761D01*
X197794714Y-65079523D01*
X197747095Y-64889047D01*
X197747095Y-64555714D01*
X197794714Y-64365238D01*
X197889952Y-64270000D01*
X197985190Y-64222380D01*
X198794714Y-64936666D02*
X199270904Y-64936666D01*
X198699476Y-65222380D02*
X199032809Y-64222380D01*
X199366142Y-65222380D01*
X200270904Y-65222380D02*
X199937571Y-64746190D01*
X199699476Y-65222380D02*
X199699476Y-64222380D01*
X200080428Y-64222380D01*
X200175666Y-64270000D01*
X200223285Y-64317619D01*
X200270904Y-64412857D01*
X200270904Y-64555714D01*
X200223285Y-64650952D01*
X200175666Y-64698571D01*
X200080428Y-64746190D01*
X199699476Y-64746190D01*
X200699476Y-65222380D02*
X200699476Y-64222380D01*
X200937571Y-64222380D01*
X201080428Y-64270000D01*
X201175666Y-64365238D01*
X201223285Y-64460476D01*
X201270904Y-64650952D01*
X201270904Y-64793809D01*
X201223285Y-64984285D01*
X201175666Y-65079523D01*
X201080428Y-65174761D01*
X200937571Y-65222380D01*
X200699476Y-65222380D01*
X186809952Y-48188571D02*
X186476619Y-48188571D01*
X186476619Y-48712380D02*
X186476619Y-47712380D01*
X186952809Y-47712380D01*
X187809952Y-48712380D02*
X187333761Y-48712380D01*
X187333761Y-47712380D01*
X188095666Y-48426666D02*
X188571857Y-48426666D01*
X188000428Y-48712380D02*
X188333761Y-47712380D01*
X188667095Y-48712380D01*
X188952809Y-48664761D02*
X189095666Y-48712380D01*
X189333761Y-48712380D01*
X189429000Y-48664761D01*
X189476619Y-48617142D01*
X189524238Y-48521904D01*
X189524238Y-48426666D01*
X189476619Y-48331428D01*
X189429000Y-48283809D01*
X189333761Y-48236190D01*
X189143285Y-48188571D01*
X189048047Y-48140952D01*
X189000428Y-48093333D01*
X188952809Y-47998095D01*
X188952809Y-47902857D01*
X189000428Y-47807619D01*
X189048047Y-47760000D01*
X189143285Y-47712380D01*
X189381380Y-47712380D01*
X189524238Y-47760000D01*
X189952809Y-48712380D02*
X189952809Y-47712380D01*
X189952809Y-48188571D02*
X190524238Y-48188571D01*
X190524238Y-48712380D02*
X190524238Y-47712380D01*
X191762333Y-48712380D02*
X191762333Y-47712380D01*
X192143285Y-47712380D01*
X192238523Y-47760000D01*
X192286142Y-47807619D01*
X192333761Y-47902857D01*
X192333761Y-48045714D01*
X192286142Y-48140952D01*
X192238523Y-48188571D01*
X192143285Y-48236190D01*
X191762333Y-48236190D01*
X193333761Y-48712380D02*
X193000428Y-48236190D01*
X192762333Y-48712380D02*
X192762333Y-47712380D01*
X193143285Y-47712380D01*
X193238523Y-47760000D01*
X193286142Y-47807619D01*
X193333761Y-47902857D01*
X193333761Y-48045714D01*
X193286142Y-48140952D01*
X193238523Y-48188571D01*
X193143285Y-48236190D01*
X192762333Y-48236190D01*
X193952809Y-47712380D02*
X194143285Y-47712380D01*
X194238523Y-47760000D01*
X194333761Y-47855238D01*
X194381380Y-48045714D01*
X194381380Y-48379047D01*
X194333761Y-48569523D01*
X194238523Y-48664761D01*
X194143285Y-48712380D01*
X193952809Y-48712380D01*
X193857571Y-48664761D01*
X193762333Y-48569523D01*
X193714714Y-48379047D01*
X193714714Y-48045714D01*
X193762333Y-47855238D01*
X193857571Y-47760000D01*
X193952809Y-47712380D01*
X195333761Y-47760000D02*
X195238523Y-47712380D01*
X195095666Y-47712380D01*
X194952809Y-47760000D01*
X194857571Y-47855238D01*
X194809952Y-47950476D01*
X194762333Y-48140952D01*
X194762333Y-48283809D01*
X194809952Y-48474285D01*
X194857571Y-48569523D01*
X194952809Y-48664761D01*
X195095666Y-48712380D01*
X195190904Y-48712380D01*
X195333761Y-48664761D01*
X195381380Y-48617142D01*
X195381380Y-48283809D01*
X195190904Y-48283809D01*
X196381380Y-48712380D02*
X196048047Y-48236190D01*
X195809952Y-48712380D02*
X195809952Y-47712380D01*
X196190904Y-47712380D01*
X196286142Y-47760000D01*
X196333761Y-47807619D01*
X196381380Y-47902857D01*
X196381380Y-48045714D01*
X196333761Y-48140952D01*
X196286142Y-48188571D01*
X196190904Y-48236190D01*
X195809952Y-48236190D01*
X196762333Y-48426666D02*
X197238523Y-48426666D01*
X196667095Y-48712380D02*
X197000428Y-47712380D01*
X197333761Y-48712380D01*
X197667095Y-48712380D02*
X197667095Y-47712380D01*
X198000428Y-48426666D01*
X198333761Y-47712380D01*
X198333761Y-48712380D01*
X198809952Y-48712380D02*
X198809952Y-47712380D01*
X199143285Y-48426666D01*
X199476619Y-47712380D01*
X199476619Y-48712380D01*
X199952809Y-48188571D02*
X200286142Y-48188571D01*
X200429000Y-48712380D02*
X199952809Y-48712380D01*
X199952809Y-47712380D01*
X200429000Y-47712380D01*
X201429000Y-48712380D02*
X201095666Y-48236190D01*
X200857571Y-48712380D02*
X200857571Y-47712380D01*
X201238523Y-47712380D01*
X201333761Y-47760000D01*
X201381380Y-47807619D01*
X201429000Y-47902857D01*
X201429000Y-48045714D01*
X201381380Y-48140952D01*
X201333761Y-48188571D01*
X201238523Y-48236190D01*
X200857571Y-48236190D01*
X242524595Y-70100714D02*
X242524595Y-71100714D01*
X242524595Y-70148333D02*
X242619833Y-70100714D01*
X242810309Y-70100714D01*
X242905547Y-70148333D01*
X242953166Y-70195952D01*
X243000785Y-70291190D01*
X243000785Y-70576904D01*
X242953166Y-70672142D01*
X242905547Y-70719761D01*
X242810309Y-70767380D01*
X242619833Y-70767380D01*
X242524595Y-70719761D01*
X243334119Y-70100714D02*
X243524595Y-70767380D01*
X243715071Y-70291190D01*
X243905547Y-70767380D01*
X244096023Y-70100714D01*
X244476976Y-70767380D02*
X244476976Y-70100714D01*
X244476976Y-70291190D02*
X244524595Y-70195952D01*
X244572214Y-70148333D01*
X244667452Y-70100714D01*
X244762690Y-70100714D01*
X246286500Y-70719761D02*
X246191261Y-70767380D01*
X246000785Y-70767380D01*
X245905547Y-70719761D01*
X245857928Y-70672142D01*
X245810309Y-70576904D01*
X245810309Y-70291190D01*
X245857928Y-70195952D01*
X245905547Y-70148333D01*
X246000785Y-70100714D01*
X246191261Y-70100714D01*
X246286500Y-70148333D01*
X246572214Y-70100714D02*
X246953166Y-70100714D01*
X246715071Y-69767380D02*
X246715071Y-70624523D01*
X246762690Y-70719761D01*
X246857928Y-70767380D01*
X246953166Y-70767380D01*
X247286500Y-70767380D02*
X247286500Y-70100714D01*
X247286500Y-70291190D02*
X247334119Y-70195952D01*
X247381738Y-70148333D01*
X247476976Y-70100714D01*
X247572214Y-70100714D01*
X248048404Y-70767380D02*
X247953166Y-70719761D01*
X247905547Y-70624523D01*
X247905547Y-69767380D01*
X242524595Y-72377380D02*
X242524595Y-71377380D01*
X242524595Y-71758333D02*
X242619833Y-71710714D01*
X242810309Y-71710714D01*
X242905547Y-71758333D01*
X242953166Y-71805952D01*
X243000785Y-71901190D01*
X243000785Y-72186904D01*
X242953166Y-72282142D01*
X242905547Y-72329761D01*
X242810309Y-72377380D01*
X242619833Y-72377380D01*
X242524595Y-72329761D01*
X243334119Y-71710714D02*
X243572214Y-72377380D01*
X243810309Y-71710714D02*
X243572214Y-72377380D01*
X243476976Y-72615476D01*
X243429357Y-72663095D01*
X243334119Y-72710714D01*
X244191261Y-71710714D02*
X244191261Y-72710714D01*
X244191261Y-71758333D02*
X244286500Y-71710714D01*
X244476976Y-71710714D01*
X244572214Y-71758333D01*
X244619833Y-71805952D01*
X244667452Y-71901190D01*
X244667452Y-72186904D01*
X244619833Y-72282142D01*
X244572214Y-72329761D01*
X244476976Y-72377380D01*
X244286500Y-72377380D01*
X244191261Y-72329761D01*
X245524595Y-72377380D02*
X245524595Y-71853571D01*
X245476976Y-71758333D01*
X245381738Y-71710714D01*
X245191261Y-71710714D01*
X245096023Y-71758333D01*
X245524595Y-72329761D02*
X245429357Y-72377380D01*
X245191261Y-72377380D01*
X245096023Y-72329761D01*
X245048404Y-72234523D01*
X245048404Y-72139285D01*
X245096023Y-72044047D01*
X245191261Y-71996428D01*
X245429357Y-71996428D01*
X245524595Y-71948809D01*
X245953166Y-72329761D02*
X246048404Y-72377380D01*
X246238880Y-72377380D01*
X246334119Y-72329761D01*
X246381738Y-72234523D01*
X246381738Y-72186904D01*
X246334119Y-72091666D01*
X246238880Y-72044047D01*
X246096023Y-72044047D01*
X246000785Y-71996428D01*
X245953166Y-71901190D01*
X245953166Y-71853571D01*
X246000785Y-71758333D01*
X246096023Y-71710714D01*
X246238880Y-71710714D01*
X246334119Y-71758333D01*
X246762690Y-72329761D02*
X246857928Y-72377380D01*
X247048404Y-72377380D01*
X247143642Y-72329761D01*
X247191261Y-72234523D01*
X247191261Y-72186904D01*
X247143642Y-72091666D01*
X247048404Y-72044047D01*
X246905547Y-72044047D01*
X246810309Y-71996428D01*
X246762690Y-71901190D01*
X246762690Y-71853571D01*
X246810309Y-71758333D01*
X246905547Y-71710714D01*
X247048404Y-71710714D01*
X247143642Y-71758333D01*
X234328880Y-84240714D02*
X234328880Y-85050238D01*
X234281261Y-85145476D01*
X234233642Y-85193095D01*
X234138404Y-85240714D01*
X233995547Y-85240714D01*
X233900309Y-85193095D01*
X234328880Y-84859761D02*
X234233642Y-84907380D01*
X234043166Y-84907380D01*
X233947928Y-84859761D01*
X233900309Y-84812142D01*
X233852690Y-84716904D01*
X233852690Y-84431190D01*
X233900309Y-84335952D01*
X233947928Y-84288333D01*
X234043166Y-84240714D01*
X234233642Y-84240714D01*
X234328880Y-84288333D01*
X234805071Y-84240714D02*
X234805071Y-84907380D01*
X234805071Y-84335952D02*
X234852690Y-84288333D01*
X234947928Y-84240714D01*
X235090785Y-84240714D01*
X235186023Y-84288333D01*
X235233642Y-84383571D01*
X235233642Y-84907380D01*
X236138404Y-84907380D02*
X236138404Y-83907380D01*
X236138404Y-84859761D02*
X236043166Y-84907380D01*
X235852690Y-84907380D01*
X235757452Y-84859761D01*
X235709833Y-84812142D01*
X235662214Y-84716904D01*
X235662214Y-84431190D01*
X235709833Y-84335952D01*
X235757452Y-84288333D01*
X235852690Y-84240714D01*
X236043166Y-84240714D01*
X236138404Y-84288333D01*
X234043166Y-81700714D02*
X234281261Y-82367380D01*
X234519357Y-81700714D01*
X235328880Y-82319761D02*
X235233642Y-82367380D01*
X235043166Y-82367380D01*
X234947928Y-82319761D01*
X234900309Y-82272142D01*
X234852690Y-82176904D01*
X234852690Y-81891190D01*
X234900309Y-81795952D01*
X234947928Y-81748333D01*
X235043166Y-81700714D01*
X235233642Y-81700714D01*
X235328880Y-81748333D01*
X236186023Y-82319761D02*
X236090785Y-82367380D01*
X235900309Y-82367380D01*
X235805071Y-82319761D01*
X235757452Y-82272142D01*
X235709833Y-82176904D01*
X235709833Y-81891190D01*
X235757452Y-81795952D01*
X235805071Y-81748333D01*
X235900309Y-81700714D01*
X236090785Y-81700714D01*
X236186023Y-81748333D01*
X235244238Y-79160714D02*
X235244238Y-80160714D01*
X235244238Y-79208333D02*
X235339476Y-79160714D01*
X235529952Y-79160714D01*
X235625190Y-79208333D01*
X235672809Y-79255952D01*
X235720428Y-79351190D01*
X235720428Y-79636904D01*
X235672809Y-79732142D01*
X235625190Y-79779761D01*
X235529952Y-79827380D01*
X235339476Y-79827380D01*
X235244238Y-79779761D01*
X236291857Y-79827380D02*
X236196619Y-79779761D01*
X236149000Y-79732142D01*
X236101380Y-79636904D01*
X236101380Y-79351190D01*
X236149000Y-79255952D01*
X236196619Y-79208333D01*
X236291857Y-79160714D01*
X236434714Y-79160714D01*
X236529952Y-79208333D01*
X236577571Y-79255952D01*
X236625190Y-79351190D01*
X236625190Y-79636904D01*
X236577571Y-79732142D01*
X236529952Y-79779761D01*
X236434714Y-79827380D01*
X236291857Y-79827380D01*
X236958523Y-79160714D02*
X237149000Y-79827380D01*
X237339476Y-79351190D01*
X237529952Y-79827380D01*
X237720428Y-79160714D01*
X238482333Y-79779761D02*
X238387095Y-79827380D01*
X238196619Y-79827380D01*
X238101380Y-79779761D01*
X238053761Y-79684523D01*
X238053761Y-79303571D01*
X238101380Y-79208333D01*
X238196619Y-79160714D01*
X238387095Y-79160714D01*
X238482333Y-79208333D01*
X238529952Y-79303571D01*
X238529952Y-79398809D01*
X238053761Y-79494047D01*
X238958523Y-79827380D02*
X238958523Y-79160714D01*
X238958523Y-79351190D02*
X239006142Y-79255952D01*
X239053761Y-79208333D01*
X239149000Y-79160714D01*
X239244238Y-79160714D01*
X240339476Y-79160714D02*
X240339476Y-80160714D01*
X240339476Y-79208333D02*
X240434714Y-79160714D01*
X240625190Y-79160714D01*
X240720428Y-79208333D01*
X240768047Y-79255952D01*
X240815666Y-79351190D01*
X240815666Y-79636904D01*
X240768047Y-79732142D01*
X240720428Y-79779761D01*
X240625190Y-79827380D01*
X240434714Y-79827380D01*
X240339476Y-79779761D01*
X241244238Y-79827380D02*
X241244238Y-79160714D01*
X241244238Y-79351190D02*
X241291857Y-79255952D01*
X241339476Y-79208333D01*
X241434714Y-79160714D01*
X241529952Y-79160714D01*
X242006142Y-79827380D02*
X241910904Y-79779761D01*
X241863285Y-79732142D01*
X241815666Y-79636904D01*
X241815666Y-79351190D01*
X241863285Y-79255952D01*
X241910904Y-79208333D01*
X242006142Y-79160714D01*
X242149000Y-79160714D01*
X242244238Y-79208333D01*
X242291857Y-79255952D01*
X242339476Y-79351190D01*
X242339476Y-79636904D01*
X242291857Y-79732142D01*
X242244238Y-79779761D01*
X242149000Y-79827380D01*
X242006142Y-79827380D01*
X242768047Y-79827380D02*
X242768047Y-78827380D01*
X242768047Y-79208333D02*
X242863285Y-79160714D01*
X243053761Y-79160714D01*
X243149000Y-79208333D01*
X243196619Y-79255952D01*
X243244238Y-79351190D01*
X243244238Y-79636904D01*
X243196619Y-79732142D01*
X243149000Y-79779761D01*
X243053761Y-79827380D01*
X242863285Y-79827380D01*
X242768047Y-79779761D01*
X244053761Y-79779761D02*
X243958523Y-79827380D01*
X243768047Y-79827380D01*
X243672809Y-79779761D01*
X243625190Y-79684523D01*
X243625190Y-79303571D01*
X243672809Y-79208333D01*
X243768047Y-79160714D01*
X243958523Y-79160714D01*
X244053761Y-79208333D01*
X244101380Y-79303571D01*
X244101380Y-79398809D01*
X243625190Y-79494047D01*
X242524595Y-59940714D02*
X242524595Y-60940714D01*
X242524595Y-59988333D02*
X242619833Y-59940714D01*
X242810309Y-59940714D01*
X242905547Y-59988333D01*
X242953166Y-60035952D01*
X243000785Y-60131190D01*
X243000785Y-60416904D01*
X242953166Y-60512142D01*
X242905547Y-60559761D01*
X242810309Y-60607380D01*
X242619833Y-60607380D01*
X242524595Y-60559761D01*
X243572214Y-60607380D02*
X243476976Y-60559761D01*
X243429357Y-60512142D01*
X243381738Y-60416904D01*
X243381738Y-60131190D01*
X243429357Y-60035952D01*
X243476976Y-59988333D01*
X243572214Y-59940714D01*
X243715071Y-59940714D01*
X243810309Y-59988333D01*
X243857928Y-60035952D01*
X243905547Y-60131190D01*
X243905547Y-60416904D01*
X243857928Y-60512142D01*
X243810309Y-60559761D01*
X243715071Y-60607380D01*
X243572214Y-60607380D01*
X244238880Y-59940714D02*
X244429357Y-60607380D01*
X244619833Y-60131190D01*
X244810309Y-60607380D01*
X245000785Y-59940714D01*
X245762690Y-60559761D02*
X245667452Y-60607380D01*
X245476976Y-60607380D01*
X245381738Y-60559761D01*
X245334119Y-60464523D01*
X245334119Y-60083571D01*
X245381738Y-59988333D01*
X245476976Y-59940714D01*
X245667452Y-59940714D01*
X245762690Y-59988333D01*
X245810309Y-60083571D01*
X245810309Y-60178809D01*
X245334119Y-60274047D01*
X246238880Y-60607380D02*
X246238880Y-59940714D01*
X246238880Y-60131190D02*
X246286500Y-60035952D01*
X246334119Y-59988333D01*
X246429357Y-59940714D01*
X246524595Y-59940714D01*
X247762690Y-60607380D02*
X247667452Y-60559761D01*
X247619833Y-60512142D01*
X247572214Y-60416904D01*
X247572214Y-60131190D01*
X247619833Y-60035952D01*
X247667452Y-59988333D01*
X247762690Y-59940714D01*
X247905547Y-59940714D01*
X248000785Y-59988333D01*
X248048404Y-60035952D01*
X248096023Y-60131190D01*
X248096023Y-60416904D01*
X248048404Y-60512142D01*
X248000785Y-60559761D01*
X247905547Y-60607380D01*
X247762690Y-60607380D01*
X248381738Y-59940714D02*
X248762690Y-59940714D01*
X248524595Y-60607380D02*
X248524595Y-59750238D01*
X248572214Y-59655000D01*
X248667452Y-59607380D01*
X248762690Y-59607380D01*
X248953166Y-59940714D02*
X249334119Y-59940714D01*
X249096023Y-60607380D02*
X249096023Y-59750238D01*
X249143642Y-59655000D01*
X249238880Y-59607380D01*
X249334119Y-59607380D01*
X242381738Y-61550714D02*
X242762690Y-61550714D01*
X242524595Y-62217380D02*
X242524595Y-61360238D01*
X242572214Y-61265000D01*
X242667452Y-61217380D01*
X242762690Y-61217380D01*
X243238880Y-62217380D02*
X243143642Y-62169761D01*
X243096023Y-62122142D01*
X243048404Y-62026904D01*
X243048404Y-61741190D01*
X243096023Y-61645952D01*
X243143642Y-61598333D01*
X243238880Y-61550714D01*
X243381738Y-61550714D01*
X243476976Y-61598333D01*
X243524595Y-61645952D01*
X243572214Y-61741190D01*
X243572214Y-62026904D01*
X243524595Y-62122142D01*
X243476976Y-62169761D01*
X243381738Y-62217380D01*
X243238880Y-62217380D01*
X244000785Y-62217380D02*
X244000785Y-61550714D01*
X244000785Y-61741190D02*
X244048404Y-61645952D01*
X244096023Y-61598333D01*
X244191261Y-61550714D01*
X244286500Y-61550714D01*
X245048404Y-62169761D02*
X244953166Y-62217380D01*
X244762690Y-62217380D01*
X244667452Y-62169761D01*
X244619833Y-62122142D01*
X244572214Y-62026904D01*
X244572214Y-61741190D01*
X244619833Y-61645952D01*
X244667452Y-61598333D01*
X244762690Y-61550714D01*
X244953166Y-61550714D01*
X245048404Y-61598333D01*
X245857928Y-62169761D02*
X245762690Y-62217380D01*
X245572214Y-62217380D01*
X245476976Y-62169761D01*
X245429357Y-62074523D01*
X245429357Y-61693571D01*
X245476976Y-61598333D01*
X245572214Y-61550714D01*
X245762690Y-61550714D01*
X245857928Y-61598333D01*
X245905547Y-61693571D01*
X245905547Y-61788809D01*
X245429357Y-61884047D01*
X222798285Y-65825714D02*
X222798285Y-66825714D01*
X222798285Y-65873333D02*
X222893523Y-65825714D01*
X223084000Y-65825714D01*
X223179238Y-65873333D01*
X223226857Y-65920952D01*
X223274476Y-66016190D01*
X223274476Y-66301904D01*
X223226857Y-66397142D01*
X223179238Y-66444761D01*
X223084000Y-66492380D01*
X222893523Y-66492380D01*
X222798285Y-66444761D01*
X223845904Y-66492380D02*
X223750666Y-66444761D01*
X223703047Y-66397142D01*
X223655428Y-66301904D01*
X223655428Y-66016190D01*
X223703047Y-65920952D01*
X223750666Y-65873333D01*
X223845904Y-65825714D01*
X223988761Y-65825714D01*
X224084000Y-65873333D01*
X224131619Y-65920952D01*
X224179238Y-66016190D01*
X224179238Y-66301904D01*
X224131619Y-66397142D01*
X224084000Y-66444761D01*
X223988761Y-66492380D01*
X223845904Y-66492380D01*
X224512571Y-65825714D02*
X224703047Y-66492380D01*
X224893523Y-66016190D01*
X225084000Y-66492380D01*
X225274476Y-65825714D01*
X226036380Y-66444761D02*
X225941142Y-66492380D01*
X225750666Y-66492380D01*
X225655428Y-66444761D01*
X225607809Y-66349523D01*
X225607809Y-65968571D01*
X225655428Y-65873333D01*
X225750666Y-65825714D01*
X225941142Y-65825714D01*
X226036380Y-65873333D01*
X226084000Y-65968571D01*
X226084000Y-66063809D01*
X225607809Y-66159047D01*
X226512571Y-66492380D02*
X226512571Y-65825714D01*
X226512571Y-66016190D02*
X226560190Y-65920952D01*
X226607809Y-65873333D01*
X226703047Y-65825714D01*
X226798285Y-65825714D01*
X227845904Y-66444761D02*
X227941142Y-66492380D01*
X228131619Y-66492380D01*
X228226857Y-66444761D01*
X228274476Y-66349523D01*
X228274476Y-66301904D01*
X228226857Y-66206666D01*
X228131619Y-66159047D01*
X227988761Y-66159047D01*
X227893523Y-66111428D01*
X227845904Y-66016190D01*
X227845904Y-65968571D01*
X227893523Y-65873333D01*
X227988761Y-65825714D01*
X228131619Y-65825714D01*
X228226857Y-65873333D01*
X228845904Y-66492380D02*
X228750666Y-66444761D01*
X228703047Y-66397142D01*
X228655428Y-66301904D01*
X228655428Y-66016190D01*
X228703047Y-65920952D01*
X228750666Y-65873333D01*
X228845904Y-65825714D01*
X228988761Y-65825714D01*
X229084000Y-65873333D01*
X229131619Y-65920952D01*
X229179238Y-66016190D01*
X229179238Y-66301904D01*
X229131619Y-66397142D01*
X229084000Y-66444761D01*
X228988761Y-66492380D01*
X228845904Y-66492380D01*
X230036380Y-65825714D02*
X230036380Y-66492380D01*
X229607809Y-65825714D02*
X229607809Y-66349523D01*
X229655428Y-66444761D01*
X229750666Y-66492380D01*
X229893523Y-66492380D01*
X229988761Y-66444761D01*
X230036380Y-66397142D01*
X230512571Y-66492380D02*
X230512571Y-65825714D01*
X230512571Y-66016190D02*
X230560190Y-65920952D01*
X230607809Y-65873333D01*
X230703047Y-65825714D01*
X230798285Y-65825714D01*
X231560190Y-66444761D02*
X231464952Y-66492380D01*
X231274476Y-66492380D01*
X231179238Y-66444761D01*
X231131619Y-66397142D01*
X231084000Y-66301904D01*
X231084000Y-66016190D01*
X231131619Y-65920952D01*
X231179238Y-65873333D01*
X231274476Y-65825714D01*
X231464952Y-65825714D01*
X231560190Y-65873333D01*
X232369714Y-66444761D02*
X232274476Y-66492380D01*
X232084000Y-66492380D01*
X231988761Y-66444761D01*
X231941142Y-66349523D01*
X231941142Y-65968571D01*
X231988761Y-65873333D01*
X232084000Y-65825714D01*
X232274476Y-65825714D01*
X232369714Y-65873333D01*
X232417333Y-65968571D01*
X232417333Y-66063809D01*
X231941142Y-66159047D01*
X224718761Y-76922380D02*
X224718761Y-77731904D01*
X224766380Y-77827142D01*
X224814000Y-77874761D01*
X224909238Y-77922380D01*
X225099714Y-77922380D01*
X225194952Y-77874761D01*
X225242571Y-77827142D01*
X225290190Y-77731904D01*
X225290190Y-76922380D01*
X225718761Y-77636666D02*
X226194952Y-77636666D01*
X225623523Y-77922380D02*
X225956857Y-76922380D01*
X226290190Y-77922380D01*
X227194952Y-77922380D02*
X226861619Y-77446190D01*
X226623523Y-77922380D02*
X226623523Y-76922380D01*
X227004476Y-76922380D01*
X227099714Y-76970000D01*
X227147333Y-77017619D01*
X227194952Y-77112857D01*
X227194952Y-77255714D01*
X227147333Y-77350952D01*
X227099714Y-77398571D01*
X227004476Y-77446190D01*
X226623523Y-77446190D01*
X227480666Y-76922380D02*
X228052095Y-76922380D01*
X227766380Y-77922380D02*
X227766380Y-76922380D01*
X222949000Y-60745714D02*
X222949000Y-61412380D01*
X222949000Y-60840952D02*
X222996619Y-60793333D01*
X223091857Y-60745714D01*
X223234714Y-60745714D01*
X223329952Y-60793333D01*
X223377571Y-60888571D01*
X223377571Y-61412380D01*
X224234714Y-61364761D02*
X224139476Y-61412380D01*
X223949000Y-61412380D01*
X223853761Y-61364761D01*
X223806142Y-61269523D01*
X223806142Y-60888571D01*
X223853761Y-60793333D01*
X223949000Y-60745714D01*
X224139476Y-60745714D01*
X224234714Y-60793333D01*
X224282333Y-60888571D01*
X224282333Y-60983809D01*
X223806142Y-61079047D01*
X224568047Y-60745714D02*
X224949000Y-60745714D01*
X224710904Y-60412380D02*
X224710904Y-61269523D01*
X224758523Y-61364761D01*
X224853761Y-61412380D01*
X224949000Y-61412380D01*
X226472809Y-61412380D02*
X226472809Y-60888571D01*
X226425190Y-60793333D01*
X226329952Y-60745714D01*
X226139476Y-60745714D01*
X226044238Y-60793333D01*
X226472809Y-61364761D02*
X226377571Y-61412380D01*
X226139476Y-61412380D01*
X226044238Y-61364761D01*
X225996619Y-61269523D01*
X225996619Y-61174285D01*
X226044238Y-61079047D01*
X226139476Y-61031428D01*
X226377571Y-61031428D01*
X226472809Y-60983809D01*
X227377571Y-61364761D02*
X227282333Y-61412380D01*
X227091857Y-61412380D01*
X226996619Y-61364761D01*
X226949000Y-61317142D01*
X226901380Y-61221904D01*
X226901380Y-60936190D01*
X226949000Y-60840952D01*
X226996619Y-60793333D01*
X227091857Y-60745714D01*
X227282333Y-60745714D01*
X227377571Y-60793333D01*
X227663285Y-60745714D02*
X228044238Y-60745714D01*
X227806142Y-60412380D02*
X227806142Y-61269523D01*
X227853761Y-61364761D01*
X227949000Y-61412380D01*
X228044238Y-61412380D01*
X228377571Y-61412380D02*
X228377571Y-60745714D01*
X228377571Y-60412380D02*
X228329952Y-60460000D01*
X228377571Y-60507619D01*
X228425190Y-60460000D01*
X228377571Y-60412380D01*
X228377571Y-60507619D01*
X228758523Y-60745714D02*
X228996619Y-61412380D01*
X229234714Y-60745714D01*
X229615666Y-61412380D02*
X229615666Y-60745714D01*
X229615666Y-60412380D02*
X229568047Y-60460000D01*
X229615666Y-60507619D01*
X229663285Y-60460000D01*
X229615666Y-60412380D01*
X229615666Y-60507619D01*
X229949000Y-60745714D02*
X230329952Y-60745714D01*
X230091857Y-60412380D02*
X230091857Y-61269523D01*
X230139476Y-61364761D01*
X230234714Y-61412380D01*
X230329952Y-61412380D01*
X230568047Y-60745714D02*
X230806142Y-61412380D01*
X231044238Y-60745714D02*
X230806142Y-61412380D01*
X230710904Y-61650476D01*
X230663285Y-61698095D01*
X230568047Y-61745714D01*
X221755785Y-81700714D02*
X222136738Y-81700714D01*
X221898642Y-81367380D02*
X221898642Y-82224523D01*
X221946261Y-82319761D01*
X222041500Y-82367380D01*
X222136738Y-82367380D01*
X222374833Y-82367380D02*
X222898642Y-81700714D01*
X222374833Y-81700714D02*
X222898642Y-82367380D01*
X220993880Y-83605714D02*
X220993880Y-84415238D01*
X220946261Y-84510476D01*
X220898642Y-84558095D01*
X220803404Y-84605714D01*
X220660547Y-84605714D01*
X220565309Y-84558095D01*
X220993880Y-84224761D02*
X220898642Y-84272380D01*
X220708166Y-84272380D01*
X220612928Y-84224761D01*
X220565309Y-84177142D01*
X220517690Y-84081904D01*
X220517690Y-83796190D01*
X220565309Y-83700952D01*
X220612928Y-83653333D01*
X220708166Y-83605714D01*
X220898642Y-83605714D01*
X220993880Y-83653333D01*
X221470071Y-83605714D02*
X221470071Y-84272380D01*
X221470071Y-83700952D02*
X221517690Y-83653333D01*
X221612928Y-83605714D01*
X221755785Y-83605714D01*
X221851023Y-83653333D01*
X221898642Y-83748571D01*
X221898642Y-84272380D01*
X222803404Y-84272380D02*
X222803404Y-83272380D01*
X222803404Y-84224761D02*
X222708166Y-84272380D01*
X222517690Y-84272380D01*
X222422452Y-84224761D01*
X222374833Y-84177142D01*
X222327214Y-84081904D01*
X222327214Y-83796190D01*
X222374833Y-83700952D01*
X222422452Y-83653333D01*
X222517690Y-83605714D01*
X222708166Y-83605714D01*
X222803404Y-83653333D01*
X221851023Y-80462380D02*
X221851023Y-79795714D01*
X221851023Y-79986190D02*
X221898642Y-79890952D01*
X221946261Y-79843333D01*
X222041500Y-79795714D01*
X222136738Y-79795714D01*
X222374833Y-80462380D02*
X222898642Y-79795714D01*
X222374833Y-79795714D02*
X222898642Y-80462380D01*
X164193166Y-67095714D02*
X164431261Y-67762380D01*
X164669357Y-67095714D01*
X165478880Y-67714761D02*
X165383642Y-67762380D01*
X165193166Y-67762380D01*
X165097928Y-67714761D01*
X165050309Y-67667142D01*
X165002690Y-67571904D01*
X165002690Y-67286190D01*
X165050309Y-67190952D01*
X165097928Y-67143333D01*
X165193166Y-67095714D01*
X165383642Y-67095714D01*
X165478880Y-67143333D01*
X166336023Y-67714761D02*
X166240785Y-67762380D01*
X166050309Y-67762380D01*
X165955071Y-67714761D01*
X165907452Y-67667142D01*
X165859833Y-67571904D01*
X165859833Y-67286190D01*
X165907452Y-67190952D01*
X165955071Y-67143333D01*
X166050309Y-67095714D01*
X166240785Y-67095714D01*
X166336023Y-67143333D01*
X172579357Y-84240714D02*
X172769833Y-84907380D01*
X172960309Y-84431190D01*
X173150785Y-84907380D01*
X173341261Y-84240714D01*
X173722214Y-84907380D02*
X173722214Y-84240714D01*
X173722214Y-83907380D02*
X173674595Y-83955000D01*
X173722214Y-84002619D01*
X173769833Y-83955000D01*
X173722214Y-83907380D01*
X173722214Y-84002619D01*
X174055547Y-84240714D02*
X174436500Y-84240714D01*
X174198404Y-84907380D02*
X174198404Y-84050238D01*
X174246023Y-83955000D01*
X174341261Y-83907380D01*
X174436500Y-83907380D01*
X174769833Y-84907380D02*
X174769833Y-84240714D01*
X174769833Y-83907380D02*
X174722214Y-83955000D01*
X174769833Y-84002619D01*
X174817452Y-83955000D01*
X174769833Y-83907380D01*
X174769833Y-84002619D01*
X176436500Y-84907380D02*
X176436500Y-84383571D01*
X176388880Y-84288333D01*
X176293642Y-84240714D01*
X176103166Y-84240714D01*
X176007928Y-84288333D01*
X176436500Y-84859761D02*
X176341261Y-84907380D01*
X176103166Y-84907380D01*
X176007928Y-84859761D01*
X175960309Y-84764523D01*
X175960309Y-84669285D01*
X176007928Y-84574047D01*
X176103166Y-84526428D01*
X176341261Y-84526428D01*
X176436500Y-84478809D01*
X177341261Y-84859761D02*
X177246023Y-84907380D01*
X177055547Y-84907380D01*
X176960309Y-84859761D01*
X176912690Y-84812142D01*
X176865071Y-84716904D01*
X176865071Y-84431190D01*
X176912690Y-84335952D01*
X176960309Y-84288333D01*
X177055547Y-84240714D01*
X177246023Y-84240714D01*
X177341261Y-84288333D01*
X177626976Y-84240714D02*
X178007928Y-84240714D01*
X177769833Y-83907380D02*
X177769833Y-84764523D01*
X177817452Y-84859761D01*
X177912690Y-84907380D01*
X178007928Y-84907380D01*
X178341261Y-84907380D02*
X178341261Y-84240714D01*
X178341261Y-83907380D02*
X178293642Y-83955000D01*
X178341261Y-84002619D01*
X178388880Y-83955000D01*
X178341261Y-83907380D01*
X178341261Y-84002619D01*
X178722214Y-84240714D02*
X178960309Y-84907380D01*
X179198404Y-84240714D01*
X179579357Y-84907380D02*
X179579357Y-84240714D01*
X179579357Y-83907380D02*
X179531738Y-83955000D01*
X179579357Y-84002619D01*
X179626976Y-83955000D01*
X179579357Y-83907380D01*
X179579357Y-84002619D01*
X179912690Y-84240714D02*
X180293642Y-84240714D01*
X180055547Y-83907380D02*
X180055547Y-84764523D01*
X180103166Y-84859761D01*
X180198404Y-84907380D01*
X180293642Y-84907380D01*
X180531738Y-84240714D02*
X180769833Y-84907380D01*
X181007928Y-84240714D02*
X180769833Y-84907380D01*
X180674595Y-85145476D01*
X180626976Y-85193095D01*
X180531738Y-85240714D01*
X172468166Y-91055714D02*
X172468166Y-91722380D01*
X172039595Y-91055714D02*
X172039595Y-91579523D01*
X172087214Y-91674761D01*
X172182452Y-91722380D01*
X172325309Y-91722380D01*
X172420547Y-91674761D01*
X172468166Y-91627142D01*
X172896738Y-91674761D02*
X172991976Y-91722380D01*
X173182452Y-91722380D01*
X173277690Y-91674761D01*
X173325309Y-91579523D01*
X173325309Y-91531904D01*
X173277690Y-91436666D01*
X173182452Y-91389047D01*
X173039595Y-91389047D01*
X172944357Y-91341428D01*
X172896738Y-91246190D01*
X172896738Y-91198571D01*
X172944357Y-91103333D01*
X173039595Y-91055714D01*
X173182452Y-91055714D01*
X173277690Y-91103333D01*
X173753880Y-91722380D02*
X173753880Y-90722380D01*
X173753880Y-91103333D02*
X173849119Y-91055714D01*
X174039595Y-91055714D01*
X174134833Y-91103333D01*
X174182452Y-91150952D01*
X174230071Y-91246190D01*
X174230071Y-91531904D01*
X174182452Y-91627142D01*
X174134833Y-91674761D01*
X174039595Y-91722380D01*
X173849119Y-91722380D01*
X173753880Y-91674761D01*
X175896738Y-90722380D02*
X175420547Y-90722380D01*
X175372928Y-91198571D01*
X175420547Y-91150952D01*
X175515785Y-91103333D01*
X175753880Y-91103333D01*
X175849119Y-91150952D01*
X175896738Y-91198571D01*
X175944357Y-91293809D01*
X175944357Y-91531904D01*
X175896738Y-91627142D01*
X175849119Y-91674761D01*
X175753880Y-91722380D01*
X175515785Y-91722380D01*
X175420547Y-91674761D01*
X175372928Y-91627142D01*
X176277690Y-91055714D02*
X176515785Y-91722380D01*
X176753880Y-91055714D01*
X171896738Y-92665714D02*
X172277690Y-92665714D01*
X172039595Y-93332380D02*
X172039595Y-92475238D01*
X172087214Y-92380000D01*
X172182452Y-92332380D01*
X172277690Y-92332380D01*
X172753880Y-93332380D02*
X172658642Y-93284761D01*
X172611023Y-93237142D01*
X172563404Y-93141904D01*
X172563404Y-92856190D01*
X172611023Y-92760952D01*
X172658642Y-92713333D01*
X172753880Y-92665714D01*
X172896738Y-92665714D01*
X172991976Y-92713333D01*
X173039595Y-92760952D01*
X173087214Y-92856190D01*
X173087214Y-93141904D01*
X173039595Y-93237142D01*
X172991976Y-93284761D01*
X172896738Y-93332380D01*
X172753880Y-93332380D01*
X173515785Y-93332380D02*
X173515785Y-92665714D01*
X173515785Y-92856190D02*
X173563404Y-92760952D01*
X173611023Y-92713333D01*
X173706261Y-92665714D01*
X173801500Y-92665714D01*
X174563404Y-93284761D02*
X174468166Y-93332380D01*
X174277690Y-93332380D01*
X174182452Y-93284761D01*
X174134833Y-93237142D01*
X174087214Y-93141904D01*
X174087214Y-92856190D01*
X174134833Y-92760952D01*
X174182452Y-92713333D01*
X174277690Y-92665714D01*
X174468166Y-92665714D01*
X174563404Y-92713333D01*
X175372928Y-93284761D02*
X175277690Y-93332380D01*
X175087214Y-93332380D01*
X174991976Y-93284761D01*
X174944357Y-93189523D01*
X174944357Y-92808571D01*
X174991976Y-92713333D01*
X175087214Y-92665714D01*
X175277690Y-92665714D01*
X175372928Y-92713333D01*
X175420547Y-92808571D01*
X175420547Y-92903809D01*
X174944357Y-92999047D01*
X178213285Y-121372380D02*
X178832333Y-121372380D01*
X178499000Y-121753333D01*
X178641857Y-121753333D01*
X178737095Y-121800952D01*
X178784714Y-121848571D01*
X178832333Y-121943809D01*
X178832333Y-122181904D01*
X178784714Y-122277142D01*
X178737095Y-122324761D01*
X178641857Y-122372380D01*
X178356142Y-122372380D01*
X178260904Y-122324761D01*
X178213285Y-122277142D01*
X179260904Y-122277142D02*
X179308523Y-122324761D01*
X179260904Y-122372380D01*
X179213285Y-122324761D01*
X179260904Y-122277142D01*
X179260904Y-122372380D01*
X179641857Y-121372380D02*
X180260904Y-121372380D01*
X179927571Y-121753333D01*
X180070428Y-121753333D01*
X180165666Y-121800952D01*
X180213285Y-121848571D01*
X180260904Y-121943809D01*
X180260904Y-122181904D01*
X180213285Y-122277142D01*
X180165666Y-122324761D01*
X180070428Y-122372380D01*
X179784714Y-122372380D01*
X179689476Y-122324761D01*
X179641857Y-122277142D01*
X180594238Y-121705714D02*
X180832333Y-122372380D01*
X181070428Y-121705714D01*
X182165666Y-122324761D02*
X182260904Y-122372380D01*
X182451380Y-122372380D01*
X182546619Y-122324761D01*
X182594238Y-122229523D01*
X182594238Y-122181904D01*
X182546619Y-122086666D01*
X182451380Y-122039047D01*
X182308523Y-122039047D01*
X182213285Y-121991428D01*
X182165666Y-121896190D01*
X182165666Y-121848571D01*
X182213285Y-121753333D01*
X182308523Y-121705714D01*
X182451380Y-121705714D01*
X182546619Y-121753333D01*
X183165666Y-122372380D02*
X183070428Y-122324761D01*
X183022809Y-122277142D01*
X182975190Y-122181904D01*
X182975190Y-121896190D01*
X183022809Y-121800952D01*
X183070428Y-121753333D01*
X183165666Y-121705714D01*
X183308523Y-121705714D01*
X183403761Y-121753333D01*
X183451380Y-121800952D01*
X183499000Y-121896190D01*
X183499000Y-122181904D01*
X183451380Y-122277142D01*
X183403761Y-122324761D01*
X183308523Y-122372380D01*
X183165666Y-122372380D01*
X184356142Y-121705714D02*
X184356142Y-122372380D01*
X183927571Y-121705714D02*
X183927571Y-122229523D01*
X183975190Y-122324761D01*
X184070428Y-122372380D01*
X184213285Y-122372380D01*
X184308523Y-122324761D01*
X184356142Y-122277142D01*
X184832333Y-122372380D02*
X184832333Y-121705714D01*
X184832333Y-121896190D02*
X184879952Y-121800952D01*
X184927571Y-121753333D01*
X185022809Y-121705714D01*
X185118047Y-121705714D01*
X185879952Y-122324761D02*
X185784714Y-122372380D01*
X185594238Y-122372380D01*
X185499000Y-122324761D01*
X185451380Y-122277142D01*
X185403761Y-122181904D01*
X185403761Y-121896190D01*
X185451380Y-121800952D01*
X185499000Y-121753333D01*
X185594238Y-121705714D01*
X185784714Y-121705714D01*
X185879952Y-121753333D01*
X186689476Y-122324761D02*
X186594238Y-122372380D01*
X186403761Y-122372380D01*
X186308523Y-122324761D01*
X186260904Y-122229523D01*
X186260904Y-121848571D01*
X186308523Y-121753333D01*
X186403761Y-121705714D01*
X186594238Y-121705714D01*
X186689476Y-121753333D01*
X186737095Y-121848571D01*
X186737095Y-121943809D01*
X186260904Y-122039047D01*
X165656380Y-59475714D02*
X165656380Y-60142380D01*
X165227809Y-59475714D02*
X165227809Y-59999523D01*
X165275428Y-60094761D01*
X165370666Y-60142380D01*
X165513523Y-60142380D01*
X165608761Y-60094761D01*
X165656380Y-60047142D01*
X166084952Y-60094761D02*
X166180190Y-60142380D01*
X166370666Y-60142380D01*
X166465904Y-60094761D01*
X166513523Y-59999523D01*
X166513523Y-59951904D01*
X166465904Y-59856666D01*
X166370666Y-59809047D01*
X166227809Y-59809047D01*
X166132571Y-59761428D01*
X166084952Y-59666190D01*
X166084952Y-59618571D01*
X166132571Y-59523333D01*
X166227809Y-59475714D01*
X166370666Y-59475714D01*
X166465904Y-59523333D01*
X166942095Y-60142380D02*
X166942095Y-59142380D01*
X166942095Y-59523333D02*
X167037333Y-59475714D01*
X167227809Y-59475714D01*
X167323047Y-59523333D01*
X167370666Y-59570952D01*
X167418285Y-59666190D01*
X167418285Y-59951904D01*
X167370666Y-60047142D01*
X167323047Y-60094761D01*
X167227809Y-60142380D01*
X167037333Y-60142380D01*
X166942095Y-60094761D01*
X168608761Y-59475714D02*
X168608761Y-60475714D01*
X168608761Y-59523333D02*
X168704000Y-59475714D01*
X168894476Y-59475714D01*
X168989714Y-59523333D01*
X169037333Y-59570952D01*
X169084952Y-59666190D01*
X169084952Y-59951904D01*
X169037333Y-60047142D01*
X168989714Y-60094761D01*
X168894476Y-60142380D01*
X168704000Y-60142380D01*
X168608761Y-60094761D01*
X169656380Y-60142380D02*
X169561142Y-60094761D01*
X169513523Y-60047142D01*
X169465904Y-59951904D01*
X169465904Y-59666190D01*
X169513523Y-59570952D01*
X169561142Y-59523333D01*
X169656380Y-59475714D01*
X169799238Y-59475714D01*
X169894476Y-59523333D01*
X169942095Y-59570952D01*
X169989714Y-59666190D01*
X169989714Y-59951904D01*
X169942095Y-60047142D01*
X169894476Y-60094761D01*
X169799238Y-60142380D01*
X169656380Y-60142380D01*
X170323047Y-59475714D02*
X170513523Y-60142380D01*
X170704000Y-59666190D01*
X170894476Y-60142380D01*
X171084952Y-59475714D01*
X171846857Y-60094761D02*
X171751619Y-60142380D01*
X171561142Y-60142380D01*
X171465904Y-60094761D01*
X171418285Y-59999523D01*
X171418285Y-59618571D01*
X171465904Y-59523333D01*
X171561142Y-59475714D01*
X171751619Y-59475714D01*
X171846857Y-59523333D01*
X171894476Y-59618571D01*
X171894476Y-59713809D01*
X171418285Y-59809047D01*
X172323047Y-60142380D02*
X172323047Y-59475714D01*
X172323047Y-59666190D02*
X172370666Y-59570952D01*
X172418285Y-59523333D01*
X172513523Y-59475714D01*
X172608761Y-59475714D01*
X173656380Y-60094761D02*
X173751619Y-60142380D01*
X173942095Y-60142380D01*
X174037333Y-60094761D01*
X174084952Y-59999523D01*
X174084952Y-59951904D01*
X174037333Y-59856666D01*
X173942095Y-59809047D01*
X173799238Y-59809047D01*
X173704000Y-59761428D01*
X173656380Y-59666190D01*
X173656380Y-59618571D01*
X173704000Y-59523333D01*
X173799238Y-59475714D01*
X173942095Y-59475714D01*
X174037333Y-59523333D01*
X174656380Y-60142380D02*
X174561142Y-60094761D01*
X174513523Y-60047142D01*
X174465904Y-59951904D01*
X174465904Y-59666190D01*
X174513523Y-59570952D01*
X174561142Y-59523333D01*
X174656380Y-59475714D01*
X174799238Y-59475714D01*
X174894476Y-59523333D01*
X174942095Y-59570952D01*
X174989714Y-59666190D01*
X174989714Y-59951904D01*
X174942095Y-60047142D01*
X174894476Y-60094761D01*
X174799238Y-60142380D01*
X174656380Y-60142380D01*
X175846857Y-59475714D02*
X175846857Y-60142380D01*
X175418285Y-59475714D02*
X175418285Y-59999523D01*
X175465904Y-60094761D01*
X175561142Y-60142380D01*
X175704000Y-60142380D01*
X175799238Y-60094761D01*
X175846857Y-60047142D01*
X176323047Y-60142380D02*
X176323047Y-59475714D01*
X176323047Y-59666190D02*
X176370666Y-59570952D01*
X176418285Y-59523333D01*
X176513523Y-59475714D01*
X176608761Y-59475714D01*
X177370666Y-60094761D02*
X177275428Y-60142380D01*
X177084952Y-60142380D01*
X176989714Y-60094761D01*
X176942095Y-60047142D01*
X176894476Y-59951904D01*
X176894476Y-59666190D01*
X176942095Y-59570952D01*
X176989714Y-59523333D01*
X177084952Y-59475714D01*
X177275428Y-59475714D01*
X177370666Y-59523333D01*
X178180190Y-60094761D02*
X178084952Y-60142380D01*
X177894476Y-60142380D01*
X177799238Y-60094761D01*
X177751619Y-59999523D01*
X177751619Y-59618571D01*
X177799238Y-59523333D01*
X177894476Y-59475714D01*
X178084952Y-59475714D01*
X178180190Y-59523333D01*
X178227809Y-59618571D01*
X178227809Y-59713809D01*
X177751619Y-59809047D01*
X165748880Y-76620714D02*
X165748880Y-77430238D01*
X165701261Y-77525476D01*
X165653642Y-77573095D01*
X165558404Y-77620714D01*
X165415547Y-77620714D01*
X165320309Y-77573095D01*
X165748880Y-77239761D02*
X165653642Y-77287380D01*
X165463166Y-77287380D01*
X165367928Y-77239761D01*
X165320309Y-77192142D01*
X165272690Y-77096904D01*
X165272690Y-76811190D01*
X165320309Y-76715952D01*
X165367928Y-76668333D01*
X165463166Y-76620714D01*
X165653642Y-76620714D01*
X165748880Y-76668333D01*
X166225071Y-76620714D02*
X166225071Y-77287380D01*
X166225071Y-76715952D02*
X166272690Y-76668333D01*
X166367928Y-76620714D01*
X166510785Y-76620714D01*
X166606023Y-76668333D01*
X166653642Y-76763571D01*
X166653642Y-77287380D01*
X167558404Y-77287380D02*
X167558404Y-76287380D01*
X167558404Y-77239761D02*
X167463166Y-77287380D01*
X167272690Y-77287380D01*
X167177452Y-77239761D01*
X167129833Y-77192142D01*
X167082214Y-77096904D01*
X167082214Y-76811190D01*
X167129833Y-76715952D01*
X167177452Y-76668333D01*
X167272690Y-76620714D01*
X167463166Y-76620714D01*
X167558404Y-76668333D01*
X172569476Y-119832380D02*
X172569476Y-118832380D01*
X172950428Y-118832380D01*
X173045666Y-118880000D01*
X173093285Y-118927619D01*
X173140904Y-119022857D01*
X173140904Y-119165714D01*
X173093285Y-119260952D01*
X173045666Y-119308571D01*
X172950428Y-119356190D01*
X172569476Y-119356190D01*
X173759952Y-118832380D02*
X173950428Y-118832380D01*
X174045666Y-118880000D01*
X174140904Y-118975238D01*
X174188523Y-119165714D01*
X174188523Y-119499047D01*
X174140904Y-119689523D01*
X174045666Y-119784761D01*
X173950428Y-119832380D01*
X173759952Y-119832380D01*
X173664714Y-119784761D01*
X173569476Y-119689523D01*
X173521857Y-119499047D01*
X173521857Y-119165714D01*
X173569476Y-118975238D01*
X173664714Y-118880000D01*
X173759952Y-118832380D01*
X174521857Y-118832380D02*
X174759952Y-119832380D01*
X174950428Y-119118095D01*
X175140904Y-119832380D01*
X175379000Y-118832380D01*
X175759952Y-119308571D02*
X176093285Y-119308571D01*
X176236142Y-119832380D02*
X175759952Y-119832380D01*
X175759952Y-118832380D01*
X176236142Y-118832380D01*
X177236142Y-119832380D02*
X176902809Y-119356190D01*
X176664714Y-119832380D02*
X176664714Y-118832380D01*
X177045666Y-118832380D01*
X177140904Y-118880000D01*
X177188523Y-118927619D01*
X177236142Y-119022857D01*
X177236142Y-119165714D01*
X177188523Y-119260952D01*
X177140904Y-119308571D01*
X177045666Y-119356190D01*
X176664714Y-119356190D01*
X229618166Y-67560714D02*
X229618166Y-68227380D01*
X229189595Y-67560714D02*
X229189595Y-68084523D01*
X229237214Y-68179761D01*
X229332452Y-68227380D01*
X229475309Y-68227380D01*
X229570547Y-68179761D01*
X229618166Y-68132142D01*
X230046738Y-68179761D02*
X230141976Y-68227380D01*
X230332452Y-68227380D01*
X230427690Y-68179761D01*
X230475309Y-68084523D01*
X230475309Y-68036904D01*
X230427690Y-67941666D01*
X230332452Y-67894047D01*
X230189595Y-67894047D01*
X230094357Y-67846428D01*
X230046738Y-67751190D01*
X230046738Y-67703571D01*
X230094357Y-67608333D01*
X230189595Y-67560714D01*
X230332452Y-67560714D01*
X230427690Y-67608333D01*
X230903880Y-68227380D02*
X230903880Y-67227380D01*
X230903880Y-67608333D02*
X230999119Y-67560714D01*
X231189595Y-67560714D01*
X231284833Y-67608333D01*
X231332452Y-67655952D01*
X231380071Y-67751190D01*
X231380071Y-68036904D01*
X231332452Y-68132142D01*
X231284833Y-68179761D01*
X231189595Y-68227380D01*
X230999119Y-68227380D01*
X230903880Y-68179761D01*
X229665785Y-68837380D02*
X229189595Y-68837380D01*
X229141976Y-69313571D01*
X229189595Y-69265952D01*
X229284833Y-69218333D01*
X229522928Y-69218333D01*
X229618166Y-69265952D01*
X229665785Y-69313571D01*
X229713404Y-69408809D01*
X229713404Y-69646904D01*
X229665785Y-69742142D01*
X229618166Y-69789761D01*
X229522928Y-69837380D01*
X229284833Y-69837380D01*
X229189595Y-69789761D01*
X229141976Y-69742142D01*
X230046738Y-69170714D02*
X230284833Y-69837380D01*
X230522928Y-69170714D01*
X182538761Y-95035714D02*
X182919714Y-95035714D01*
X182681619Y-94702380D02*
X182681619Y-95559523D01*
X182729238Y-95654761D01*
X182824476Y-95702380D01*
X182919714Y-95702380D01*
X183157809Y-95702380D02*
X183681619Y-95035714D01*
X183157809Y-95035714D02*
X183681619Y-95702380D01*
X162097928Y-64555714D02*
X162097928Y-65222380D01*
X161669357Y-64555714D02*
X161669357Y-65079523D01*
X161716976Y-65174761D01*
X161812214Y-65222380D01*
X161955071Y-65222380D01*
X162050309Y-65174761D01*
X162097928Y-65127142D01*
X162526500Y-65174761D02*
X162621738Y-65222380D01*
X162812214Y-65222380D01*
X162907452Y-65174761D01*
X162955071Y-65079523D01*
X162955071Y-65031904D01*
X162907452Y-64936666D01*
X162812214Y-64889047D01*
X162669357Y-64889047D01*
X162574119Y-64841428D01*
X162526500Y-64746190D01*
X162526500Y-64698571D01*
X162574119Y-64603333D01*
X162669357Y-64555714D01*
X162812214Y-64555714D01*
X162907452Y-64603333D01*
X163383642Y-65222380D02*
X163383642Y-64222380D01*
X163383642Y-64603333D02*
X163478880Y-64555714D01*
X163669357Y-64555714D01*
X163764595Y-64603333D01*
X163812214Y-64650952D01*
X163859833Y-64746190D01*
X163859833Y-65031904D01*
X163812214Y-65127142D01*
X163764595Y-65174761D01*
X163669357Y-65222380D01*
X163478880Y-65222380D01*
X163383642Y-65174761D01*
X165526500Y-64222380D02*
X165050309Y-64222380D01*
X165002690Y-64698571D01*
X165050309Y-64650952D01*
X165145547Y-64603333D01*
X165383642Y-64603333D01*
X165478880Y-64650952D01*
X165526500Y-64698571D01*
X165574119Y-64793809D01*
X165574119Y-65031904D01*
X165526500Y-65127142D01*
X165478880Y-65174761D01*
X165383642Y-65222380D01*
X165145547Y-65222380D01*
X165050309Y-65174761D01*
X165002690Y-65127142D01*
X165907452Y-64555714D02*
X166145547Y-65222380D01*
X166383642Y-64555714D01*
X165971023Y-75382380D02*
X165971023Y-74715714D01*
X165971023Y-74906190D02*
X166018642Y-74810952D01*
X166066261Y-74763333D01*
X166161500Y-74715714D01*
X166256738Y-74715714D01*
X166494833Y-75382380D02*
X167018642Y-74715714D01*
X166494833Y-74715714D02*
X167018642Y-75382380D01*
X161244595Y-80292380D02*
X161244595Y-79625714D01*
X161244595Y-79816190D02*
X161292214Y-79720952D01*
X161339833Y-79673333D01*
X161435071Y-79625714D01*
X161530309Y-79625714D01*
X162244595Y-80244761D02*
X162149357Y-80292380D01*
X161958880Y-80292380D01*
X161863642Y-80244761D01*
X161816023Y-80149523D01*
X161816023Y-79768571D01*
X161863642Y-79673333D01*
X161958880Y-79625714D01*
X162149357Y-79625714D01*
X162244595Y-79673333D01*
X162292214Y-79768571D01*
X162292214Y-79863809D01*
X161816023Y-79959047D01*
X162673166Y-80244761D02*
X162768404Y-80292380D01*
X162958880Y-80292380D01*
X163054119Y-80244761D01*
X163101738Y-80149523D01*
X163101738Y-80101904D01*
X163054119Y-80006666D01*
X162958880Y-79959047D01*
X162816023Y-79959047D01*
X162720785Y-79911428D01*
X162673166Y-79816190D01*
X162673166Y-79768571D01*
X162720785Y-79673333D01*
X162816023Y-79625714D01*
X162958880Y-79625714D01*
X163054119Y-79673333D01*
X163911261Y-80244761D02*
X163816023Y-80292380D01*
X163625547Y-80292380D01*
X163530309Y-80244761D01*
X163482690Y-80149523D01*
X163482690Y-79768571D01*
X163530309Y-79673333D01*
X163625547Y-79625714D01*
X163816023Y-79625714D01*
X163911261Y-79673333D01*
X163958880Y-79768571D01*
X163958880Y-79863809D01*
X163482690Y-79959047D01*
X164244595Y-79625714D02*
X164625547Y-79625714D01*
X164387452Y-79292380D02*
X164387452Y-80149523D01*
X164435071Y-80244761D01*
X164530309Y-80292380D01*
X164625547Y-80292380D01*
X161101738Y-81235714D02*
X161482690Y-81235714D01*
X161244595Y-81902380D02*
X161244595Y-81045238D01*
X161292214Y-80950000D01*
X161387452Y-80902380D01*
X161482690Y-80902380D01*
X161958880Y-81902380D02*
X161863642Y-81854761D01*
X161816023Y-81807142D01*
X161768404Y-81711904D01*
X161768404Y-81426190D01*
X161816023Y-81330952D01*
X161863642Y-81283333D01*
X161958880Y-81235714D01*
X162101738Y-81235714D01*
X162196976Y-81283333D01*
X162244595Y-81330952D01*
X162292214Y-81426190D01*
X162292214Y-81711904D01*
X162244595Y-81807142D01*
X162196976Y-81854761D01*
X162101738Y-81902380D01*
X161958880Y-81902380D01*
X162720785Y-81902380D02*
X162720785Y-81235714D01*
X162720785Y-81426190D02*
X162768404Y-81330952D01*
X162816023Y-81283333D01*
X162911261Y-81235714D01*
X163006500Y-81235714D01*
X163768404Y-81854761D02*
X163673166Y-81902380D01*
X163482690Y-81902380D01*
X163387452Y-81854761D01*
X163339833Y-81807142D01*
X163292214Y-81711904D01*
X163292214Y-81426190D01*
X163339833Y-81330952D01*
X163387452Y-81283333D01*
X163482690Y-81235714D01*
X163673166Y-81235714D01*
X163768404Y-81283333D01*
X164577928Y-81854761D02*
X164482690Y-81902380D01*
X164292214Y-81902380D01*
X164196976Y-81854761D01*
X164149357Y-81759523D01*
X164149357Y-81378571D01*
X164196976Y-81283333D01*
X164292214Y-81235714D01*
X164482690Y-81235714D01*
X164577928Y-81283333D01*
X164625547Y-81378571D01*
X164625547Y-81473809D01*
X164149357Y-81569047D01*
X223242333Y-56332380D02*
X223242333Y-55332380D01*
X223480428Y-55332380D01*
X223623285Y-55380000D01*
X223718523Y-55475238D01*
X223766142Y-55570476D01*
X223813761Y-55760952D01*
X223813761Y-55903809D01*
X223766142Y-56094285D01*
X223718523Y-56189523D01*
X223623285Y-56284761D01*
X223480428Y-56332380D01*
X223242333Y-56332380D01*
X224242333Y-55332380D02*
X224242333Y-56141904D01*
X224289952Y-56237142D01*
X224337571Y-56284761D01*
X224432809Y-56332380D01*
X224623285Y-56332380D01*
X224718523Y-56284761D01*
X224766142Y-56237142D01*
X224813761Y-56141904D01*
X224813761Y-55332380D01*
X225147095Y-55332380D02*
X225718523Y-55332380D01*
X225432809Y-56332380D02*
X225432809Y-55332380D01*
X196804595Y-51050714D02*
X196804595Y-52050714D01*
X196804595Y-51098333D02*
X196899833Y-51050714D01*
X197090309Y-51050714D01*
X197185547Y-51098333D01*
X197233166Y-51145952D01*
X197280785Y-51241190D01*
X197280785Y-51526904D01*
X197233166Y-51622142D01*
X197185547Y-51669761D01*
X197090309Y-51717380D01*
X196899833Y-51717380D01*
X196804595Y-51669761D01*
X197709357Y-51717380D02*
X197709357Y-51050714D01*
X197709357Y-51241190D02*
X197756976Y-51145952D01*
X197804595Y-51098333D01*
X197899833Y-51050714D01*
X197995071Y-51050714D01*
X198471261Y-51717380D02*
X198376023Y-51669761D01*
X198328404Y-51622142D01*
X198280785Y-51526904D01*
X198280785Y-51241190D01*
X198328404Y-51145952D01*
X198376023Y-51098333D01*
X198471261Y-51050714D01*
X198614119Y-51050714D01*
X198709357Y-51098333D01*
X198756976Y-51145952D01*
X198804595Y-51241190D01*
X198804595Y-51526904D01*
X198756976Y-51622142D01*
X198709357Y-51669761D01*
X198614119Y-51717380D01*
X198471261Y-51717380D01*
X199661738Y-51050714D02*
X199661738Y-51860238D01*
X199614119Y-51955476D01*
X199566500Y-52003095D01*
X199471261Y-52050714D01*
X199328404Y-52050714D01*
X199233166Y-52003095D01*
X199661738Y-51669761D02*
X199566500Y-51717380D01*
X199376023Y-51717380D01*
X199280785Y-51669761D01*
X199233166Y-51622142D01*
X199185547Y-51526904D01*
X199185547Y-51241190D01*
X199233166Y-51145952D01*
X199280785Y-51098333D01*
X199376023Y-51050714D01*
X199566500Y-51050714D01*
X199661738Y-51098333D01*
X196661738Y-52660714D02*
X197042690Y-52660714D01*
X196804595Y-53327380D02*
X196804595Y-52470238D01*
X196852214Y-52375000D01*
X196947452Y-52327380D01*
X197042690Y-52327380D01*
X197518880Y-53327380D02*
X197423642Y-53279761D01*
X197376023Y-53232142D01*
X197328404Y-53136904D01*
X197328404Y-52851190D01*
X197376023Y-52755952D01*
X197423642Y-52708333D01*
X197518880Y-52660714D01*
X197661738Y-52660714D01*
X197756976Y-52708333D01*
X197804595Y-52755952D01*
X197852214Y-52851190D01*
X197852214Y-53136904D01*
X197804595Y-53232142D01*
X197756976Y-53279761D01*
X197661738Y-53327380D01*
X197518880Y-53327380D01*
X198280785Y-53327380D02*
X198280785Y-52660714D01*
X198280785Y-52851190D02*
X198328404Y-52755952D01*
X198376023Y-52708333D01*
X198471261Y-52660714D01*
X198566500Y-52660714D01*
X199328404Y-53279761D02*
X199233166Y-53327380D01*
X199042690Y-53327380D01*
X198947452Y-53279761D01*
X198899833Y-53232142D01*
X198852214Y-53136904D01*
X198852214Y-52851190D01*
X198899833Y-52755952D01*
X198947452Y-52708333D01*
X199042690Y-52660714D01*
X199233166Y-52660714D01*
X199328404Y-52708333D01*
X200137928Y-53279761D02*
X200042690Y-53327380D01*
X199852214Y-53327380D01*
X199756976Y-53279761D01*
X199709357Y-53184523D01*
X199709357Y-52803571D01*
X199756976Y-52708333D01*
X199852214Y-52660714D01*
X200042690Y-52660714D01*
X200137928Y-52708333D01*
X200185547Y-52803571D01*
X200185547Y-52898809D01*
X199709357Y-52994047D01*
X167497571Y-121705714D02*
X167735666Y-122372380D01*
X167973761Y-121705714D01*
X168783285Y-122324761D02*
X168688047Y-122372380D01*
X168497571Y-122372380D01*
X168402333Y-122324761D01*
X168354714Y-122277142D01*
X168307095Y-122181904D01*
X168307095Y-121896190D01*
X168354714Y-121800952D01*
X168402333Y-121753333D01*
X168497571Y-121705714D01*
X168688047Y-121705714D01*
X168783285Y-121753333D01*
X169640428Y-122324761D02*
X169545190Y-122372380D01*
X169354714Y-122372380D01*
X169259476Y-122324761D01*
X169211857Y-122277142D01*
X169164238Y-122181904D01*
X169164238Y-121896190D01*
X169211857Y-121800952D01*
X169259476Y-121753333D01*
X169354714Y-121705714D01*
X169545190Y-121705714D01*
X169640428Y-121753333D01*
X170830904Y-121705714D02*
X170830904Y-122705714D01*
X170830904Y-121753333D02*
X170926142Y-121705714D01*
X171116619Y-121705714D01*
X171211857Y-121753333D01*
X171259476Y-121800952D01*
X171307095Y-121896190D01*
X171307095Y-122181904D01*
X171259476Y-122277142D01*
X171211857Y-122324761D01*
X171116619Y-122372380D01*
X170926142Y-122372380D01*
X170830904Y-122324761D01*
X171735666Y-122372380D02*
X171735666Y-121705714D01*
X171735666Y-121896190D02*
X171783285Y-121800952D01*
X171830904Y-121753333D01*
X171926142Y-121705714D01*
X172021380Y-121705714D01*
X172497571Y-122372380D02*
X172402333Y-122324761D01*
X172354714Y-122277142D01*
X172307095Y-122181904D01*
X172307095Y-121896190D01*
X172354714Y-121800952D01*
X172402333Y-121753333D01*
X172497571Y-121705714D01*
X172640428Y-121705714D01*
X172735666Y-121753333D01*
X172783285Y-121800952D01*
X172830904Y-121896190D01*
X172830904Y-122181904D01*
X172783285Y-122277142D01*
X172735666Y-122324761D01*
X172640428Y-122372380D01*
X172497571Y-122372380D01*
X173259476Y-122372380D02*
X173259476Y-121372380D01*
X173259476Y-121753333D02*
X173354714Y-121705714D01*
X173545190Y-121705714D01*
X173640428Y-121753333D01*
X173688047Y-121800952D01*
X173735666Y-121896190D01*
X173735666Y-122181904D01*
X173688047Y-122277142D01*
X173640428Y-122324761D01*
X173545190Y-122372380D01*
X173354714Y-122372380D01*
X173259476Y-122324761D01*
X174545190Y-122324761D02*
X174449952Y-122372380D01*
X174259476Y-122372380D01*
X174164238Y-122324761D01*
X174116619Y-122229523D01*
X174116619Y-121848571D01*
X174164238Y-121753333D01*
X174259476Y-121705714D01*
X174449952Y-121705714D01*
X174545190Y-121753333D01*
X174592809Y-121848571D01*
X174592809Y-121943809D01*
X174116619Y-122039047D01*
X160002690Y-62015714D02*
X160240785Y-62682380D01*
X160478880Y-62015714D01*
X161288404Y-62634761D02*
X161193166Y-62682380D01*
X161002690Y-62682380D01*
X160907452Y-62634761D01*
X160859833Y-62587142D01*
X160812214Y-62491904D01*
X160812214Y-62206190D01*
X160859833Y-62110952D01*
X160907452Y-62063333D01*
X161002690Y-62015714D01*
X161193166Y-62015714D01*
X161288404Y-62063333D01*
X162145547Y-62634761D02*
X162050309Y-62682380D01*
X161859833Y-62682380D01*
X161764595Y-62634761D01*
X161716976Y-62587142D01*
X161669357Y-62491904D01*
X161669357Y-62206190D01*
X161716976Y-62110952D01*
X161764595Y-62063333D01*
X161859833Y-62015714D01*
X162050309Y-62015714D01*
X162145547Y-62063333D01*
X162574119Y-62301428D02*
X163336023Y-62301428D01*
X163812214Y-62015714D02*
X164574119Y-62301428D01*
X163812214Y-62587142D01*
X165526500Y-61682380D02*
X165050309Y-61682380D01*
X165002690Y-62158571D01*
X165050309Y-62110952D01*
X165145547Y-62063333D01*
X165383642Y-62063333D01*
X165478880Y-62110952D01*
X165526500Y-62158571D01*
X165574119Y-62253809D01*
X165574119Y-62491904D01*
X165526500Y-62587142D01*
X165478880Y-62634761D01*
X165383642Y-62682380D01*
X165145547Y-62682380D01*
X165050309Y-62634761D01*
X165002690Y-62587142D01*
X165907452Y-62015714D02*
X166145547Y-62682380D01*
X166383642Y-62015714D01*
X185803166Y-123440714D02*
X185803166Y-124107380D01*
X185374595Y-123440714D02*
X185374595Y-123964523D01*
X185422214Y-124059761D01*
X185517452Y-124107380D01*
X185660309Y-124107380D01*
X185755547Y-124059761D01*
X185803166Y-124012142D01*
X186231738Y-124059761D02*
X186326976Y-124107380D01*
X186517452Y-124107380D01*
X186612690Y-124059761D01*
X186660309Y-123964523D01*
X186660309Y-123916904D01*
X186612690Y-123821666D01*
X186517452Y-123774047D01*
X186374595Y-123774047D01*
X186279357Y-123726428D01*
X186231738Y-123631190D01*
X186231738Y-123583571D01*
X186279357Y-123488333D01*
X186374595Y-123440714D01*
X186517452Y-123440714D01*
X186612690Y-123488333D01*
X187088880Y-124107380D02*
X187088880Y-123107380D01*
X187088880Y-123488333D02*
X187184119Y-123440714D01*
X187374595Y-123440714D01*
X187469833Y-123488333D01*
X187517452Y-123535952D01*
X187565071Y-123631190D01*
X187565071Y-123916904D01*
X187517452Y-124012142D01*
X187469833Y-124059761D01*
X187374595Y-124107380D01*
X187184119Y-124107380D01*
X187088880Y-124059761D01*
X185850785Y-124717380D02*
X185374595Y-124717380D01*
X185326976Y-125193571D01*
X185374595Y-125145952D01*
X185469833Y-125098333D01*
X185707928Y-125098333D01*
X185803166Y-125145952D01*
X185850785Y-125193571D01*
X185898404Y-125288809D01*
X185898404Y-125526904D01*
X185850785Y-125622142D01*
X185803166Y-125669761D01*
X185707928Y-125717380D01*
X185469833Y-125717380D01*
X185374595Y-125669761D01*
X185326976Y-125622142D01*
X186231738Y-125050714D02*
X186469833Y-125717380D01*
X186707928Y-125050714D01*
X168143523Y-136882142D02*
X168095904Y-136929761D01*
X167953047Y-136977380D01*
X167857808Y-136977380D01*
X167714951Y-136929761D01*
X167619713Y-136834523D01*
X167572094Y-136739285D01*
X167524475Y-136548809D01*
X167524475Y-136405952D01*
X167572094Y-136215476D01*
X167619713Y-136120238D01*
X167714951Y-136025000D01*
X167857808Y-135977380D01*
X167953047Y-135977380D01*
X168095904Y-136025000D01*
X168143523Y-136072619D01*
X169000666Y-136977380D02*
X169000666Y-136453571D01*
X168953047Y-136358333D01*
X168857808Y-136310714D01*
X168667332Y-136310714D01*
X168572094Y-136358333D01*
X169000666Y-136929761D02*
X168905428Y-136977380D01*
X168667332Y-136977380D01*
X168572094Y-136929761D01*
X168524475Y-136834523D01*
X168524475Y-136739285D01*
X168572094Y-136644047D01*
X168667332Y-136596428D01*
X168905428Y-136596428D01*
X169000666Y-136548809D01*
X169476856Y-136977380D02*
X169476856Y-136310714D01*
X169476856Y-136405952D02*
X169524475Y-136358333D01*
X169619713Y-136310714D01*
X169762570Y-136310714D01*
X169857808Y-136358333D01*
X169905428Y-136453571D01*
X169905428Y-136977380D01*
X169905428Y-136453571D02*
X169953047Y-136358333D01*
X170048285Y-136310714D01*
X170191142Y-136310714D01*
X170286380Y-136358333D01*
X170333999Y-136453571D01*
X170333999Y-136977380D01*
X171191142Y-136929761D02*
X171095904Y-136977380D01*
X170905428Y-136977380D01*
X170810189Y-136929761D01*
X170762570Y-136834523D01*
X170762570Y-136453571D01*
X170810189Y-136358333D01*
X170905428Y-136310714D01*
X171095904Y-136310714D01*
X171191142Y-136358333D01*
X171238761Y-136453571D01*
X171238761Y-136548809D01*
X170762570Y-136644047D01*
X171667332Y-136977380D02*
X171667332Y-136310714D01*
X171667332Y-136501190D02*
X171714951Y-136405952D01*
X171762570Y-136358333D01*
X171857808Y-136310714D01*
X171953047Y-136310714D01*
X172714951Y-136977380D02*
X172714951Y-136453571D01*
X172667332Y-136358333D01*
X172572094Y-136310714D01*
X172381618Y-136310714D01*
X172286380Y-136358333D01*
X172714951Y-136929761D02*
X172619713Y-136977380D01*
X172381618Y-136977380D01*
X172286380Y-136929761D01*
X172238761Y-136834523D01*
X172238761Y-136739285D01*
X172286380Y-136644047D01*
X172381618Y-136596428D01*
X172619713Y-136596428D01*
X172714951Y-136548809D01*
X173953047Y-136977380D02*
X173953047Y-135977380D01*
X174191142Y-135977380D01*
X174333999Y-136025000D01*
X174429237Y-136120238D01*
X174476856Y-136215476D01*
X174524475Y-136405952D01*
X174524475Y-136548809D01*
X174476856Y-136739285D01*
X174429237Y-136834523D01*
X174333999Y-136929761D01*
X174191142Y-136977380D01*
X173953047Y-136977380D01*
X175333999Y-136929761D02*
X175238761Y-136977380D01*
X175048285Y-136977380D01*
X174953047Y-136929761D01*
X174905428Y-136834523D01*
X174905428Y-136453571D01*
X174953047Y-136358333D01*
X175048285Y-136310714D01*
X175238761Y-136310714D01*
X175333999Y-136358333D01*
X175381618Y-136453571D01*
X175381618Y-136548809D01*
X174905428Y-136644047D01*
X175810189Y-136977380D02*
X175810189Y-135977380D01*
X175810189Y-136358333D02*
X175905428Y-136310714D01*
X176095904Y-136310714D01*
X176191142Y-136358333D01*
X176238761Y-136405952D01*
X176286380Y-136501190D01*
X176286380Y-136786904D01*
X176238761Y-136882142D01*
X176191142Y-136929761D01*
X176095904Y-136977380D01*
X175905428Y-136977380D01*
X175810189Y-136929761D01*
X177143523Y-136310714D02*
X177143523Y-136977380D01*
X176714951Y-136310714D02*
X176714951Y-136834523D01*
X176762570Y-136929761D01*
X176857808Y-136977380D01*
X177000666Y-136977380D01*
X177095904Y-136929761D01*
X177143523Y-136882142D01*
X178048285Y-136310714D02*
X178048285Y-137120238D01*
X178000666Y-137215476D01*
X177953047Y-137263095D01*
X177857808Y-137310714D01*
X177714951Y-137310714D01*
X177619713Y-137263095D01*
X178048285Y-136929761D02*
X177953047Y-136977380D01*
X177762570Y-136977380D01*
X177667332Y-136929761D01*
X177619713Y-136882142D01*
X177572094Y-136786904D01*
X177572094Y-136501190D01*
X177619713Y-136405952D01*
X177667332Y-136358333D01*
X177762570Y-136310714D01*
X177953047Y-136310714D01*
X178048285Y-136358333D01*
X179619713Y-136453571D02*
X179286380Y-136453571D01*
X179286380Y-136977380D02*
X179286380Y-135977380D01*
X179762570Y-135977380D01*
X180572094Y-136977380D02*
X180572094Y-136453571D01*
X180524475Y-136358333D01*
X180429237Y-136310714D01*
X180238761Y-136310714D01*
X180143523Y-136358333D01*
X180572094Y-136929761D02*
X180476856Y-136977380D01*
X180238761Y-136977380D01*
X180143523Y-136929761D01*
X180095904Y-136834523D01*
X180095904Y-136739285D01*
X180143523Y-136644047D01*
X180238761Y-136596428D01*
X180476856Y-136596428D01*
X180572094Y-136548809D01*
X181476856Y-136929761D02*
X181381618Y-136977380D01*
X181191142Y-136977380D01*
X181095904Y-136929761D01*
X181048285Y-136882142D01*
X181000666Y-136786904D01*
X181000666Y-136501190D01*
X181048285Y-136405952D01*
X181095904Y-136358333D01*
X181191142Y-136310714D01*
X181381618Y-136310714D01*
X181476856Y-136358333D01*
X181905428Y-136977380D02*
X181905428Y-136310714D01*
X181905428Y-135977380D02*
X181857808Y-136025000D01*
X181905428Y-136072619D01*
X181953047Y-136025000D01*
X181905428Y-135977380D01*
X181905428Y-136072619D01*
X182524475Y-136977380D02*
X182429237Y-136929761D01*
X182381618Y-136834523D01*
X182381618Y-135977380D01*
X182905428Y-136977380D02*
X182905428Y-136310714D01*
X182905428Y-135977380D02*
X182857808Y-136025000D01*
X182905428Y-136072619D01*
X182953047Y-136025000D01*
X182905428Y-135977380D01*
X182905428Y-136072619D01*
X183238761Y-136310714D02*
X183619713Y-136310714D01*
X183381618Y-135977380D02*
X183381618Y-136834523D01*
X183429237Y-136929761D01*
X183524475Y-136977380D01*
X183619713Y-136977380D01*
X183857808Y-136310714D02*
X184095904Y-136977380D01*
X184333999Y-136310714D02*
X184095904Y-136977380D01*
X184000666Y-137215476D01*
X183953047Y-137263095D01*
X183857808Y-137310714D01*
X172674595Y-81065714D02*
X172674595Y-81732380D01*
X172674595Y-81160952D02*
X172722214Y-81113333D01*
X172817452Y-81065714D01*
X172960309Y-81065714D01*
X173055547Y-81113333D01*
X173103166Y-81208571D01*
X173103166Y-81732380D01*
X173960309Y-81684761D02*
X173865071Y-81732380D01*
X173674595Y-81732380D01*
X173579357Y-81684761D01*
X173531738Y-81589523D01*
X173531738Y-81208571D01*
X173579357Y-81113333D01*
X173674595Y-81065714D01*
X173865071Y-81065714D01*
X173960309Y-81113333D01*
X174007928Y-81208571D01*
X174007928Y-81303809D01*
X173531738Y-81399047D01*
X174293642Y-81065714D02*
X174674595Y-81065714D01*
X174436500Y-80732380D02*
X174436500Y-81589523D01*
X174484119Y-81684761D01*
X174579357Y-81732380D01*
X174674595Y-81732380D01*
X176198404Y-81732380D02*
X176198404Y-81208571D01*
X176150785Y-81113333D01*
X176055547Y-81065714D01*
X175865071Y-81065714D01*
X175769833Y-81113333D01*
X176198404Y-81684761D02*
X176103166Y-81732380D01*
X175865071Y-81732380D01*
X175769833Y-81684761D01*
X175722214Y-81589523D01*
X175722214Y-81494285D01*
X175769833Y-81399047D01*
X175865071Y-81351428D01*
X176103166Y-81351428D01*
X176198404Y-81303809D01*
X177103166Y-81684761D02*
X177007928Y-81732380D01*
X176817452Y-81732380D01*
X176722214Y-81684761D01*
X176674595Y-81637142D01*
X176626976Y-81541904D01*
X176626976Y-81256190D01*
X176674595Y-81160952D01*
X176722214Y-81113333D01*
X176817452Y-81065714D01*
X177007928Y-81065714D01*
X177103166Y-81113333D01*
X177388880Y-81065714D02*
X177769833Y-81065714D01*
X177531738Y-80732380D02*
X177531738Y-81589523D01*
X177579357Y-81684761D01*
X177674595Y-81732380D01*
X177769833Y-81732380D01*
X178103166Y-81732380D02*
X178103166Y-81065714D01*
X178103166Y-80732380D02*
X178055547Y-80780000D01*
X178103166Y-80827619D01*
X178150785Y-80780000D01*
X178103166Y-80732380D01*
X178103166Y-80827619D01*
X178484119Y-81065714D02*
X178722214Y-81732380D01*
X178960309Y-81065714D01*
X179341261Y-81732380D02*
X179341261Y-81065714D01*
X179341261Y-80732380D02*
X179293642Y-80780000D01*
X179341261Y-80827619D01*
X179388880Y-80780000D01*
X179341261Y-80732380D01*
X179341261Y-80827619D01*
X179674595Y-81065714D02*
X180055547Y-81065714D01*
X179817452Y-80732380D02*
X179817452Y-81589523D01*
X179865071Y-81684761D01*
X179960309Y-81732380D01*
X180055547Y-81732380D01*
X180293642Y-81065714D02*
X180531738Y-81732380D01*
X180769833Y-81065714D02*
X180531738Y-81732380D01*
X180436500Y-81970476D01*
X180388880Y-82018095D01*
X180293642Y-82065714D01*
X165875785Y-72810714D02*
X166256738Y-72810714D01*
X166018642Y-72477380D02*
X166018642Y-73334523D01*
X166066261Y-73429761D01*
X166161500Y-73477380D01*
X166256738Y-73477380D01*
X166494833Y-73477380D02*
X167018642Y-72810714D01*
X166494833Y-72810714D02*
X167018642Y-73477380D01*
X157551619Y-70937380D02*
X157218285Y-70461190D01*
X156980190Y-70937380D02*
X156980190Y-69937380D01*
X157361142Y-69937380D01*
X157456380Y-69985000D01*
X157504000Y-70032619D01*
X157551619Y-70127857D01*
X157551619Y-70270714D01*
X157504000Y-70365952D01*
X157456380Y-70413571D01*
X157361142Y-70461190D01*
X156980190Y-70461190D01*
X157980190Y-70413571D02*
X158313523Y-70413571D01*
X158456380Y-70937380D02*
X157980190Y-70937380D01*
X157980190Y-69937380D01*
X158456380Y-69937380D01*
X158837333Y-70889761D02*
X158980190Y-70937380D01*
X159218285Y-70937380D01*
X159313523Y-70889761D01*
X159361142Y-70842142D01*
X159408761Y-70746904D01*
X159408761Y-70651666D01*
X159361142Y-70556428D01*
X159313523Y-70508809D01*
X159218285Y-70461190D01*
X159027809Y-70413571D01*
X158932571Y-70365952D01*
X158884952Y-70318333D01*
X158837333Y-70223095D01*
X158837333Y-70127857D01*
X158884952Y-70032619D01*
X158932571Y-69985000D01*
X159027809Y-69937380D01*
X159265904Y-69937380D01*
X159408761Y-69985000D01*
X159837333Y-70413571D02*
X160170666Y-70413571D01*
X160313523Y-70937380D02*
X159837333Y-70937380D01*
X159837333Y-69937380D01*
X160313523Y-69937380D01*
X160599238Y-69937380D02*
X161170666Y-69937380D01*
X160884952Y-70937380D02*
X160884952Y-69937380D01*
X185279357Y-129325714D02*
X185517452Y-129992380D01*
X185755547Y-129325714D01*
X186565071Y-129944761D02*
X186469833Y-129992380D01*
X186279357Y-129992380D01*
X186184119Y-129944761D01*
X186136500Y-129897142D01*
X186088880Y-129801904D01*
X186088880Y-129516190D01*
X186136500Y-129420952D01*
X186184119Y-129373333D01*
X186279357Y-129325714D01*
X186469833Y-129325714D01*
X186565071Y-129373333D01*
X187422214Y-129944761D02*
X187326976Y-129992380D01*
X187136500Y-129992380D01*
X187041261Y-129944761D01*
X186993642Y-129897142D01*
X186946023Y-129801904D01*
X186946023Y-129516190D01*
X186993642Y-129420952D01*
X187041261Y-129373333D01*
X187136500Y-129325714D01*
X187326976Y-129325714D01*
X187422214Y-129373333D01*
X170108761Y-69302380D02*
X170108761Y-70111904D01*
X170156380Y-70207142D01*
X170204000Y-70254761D01*
X170299238Y-70302380D01*
X170489714Y-70302380D01*
X170584952Y-70254761D01*
X170632571Y-70207142D01*
X170680190Y-70111904D01*
X170680190Y-69302380D01*
X171108761Y-70016666D02*
X171584952Y-70016666D01*
X171013523Y-70302380D02*
X171346857Y-69302380D01*
X171680190Y-70302380D01*
X172584952Y-70302380D02*
X172251619Y-69826190D01*
X172013523Y-70302380D02*
X172013523Y-69302380D01*
X172394476Y-69302380D01*
X172489714Y-69350000D01*
X172537333Y-69397619D01*
X172584952Y-69492857D01*
X172584952Y-69635714D01*
X172537333Y-69730952D01*
X172489714Y-69778571D01*
X172394476Y-69826190D01*
X172013523Y-69826190D01*
X172870666Y-69302380D02*
X173442095Y-69302380D01*
X173156380Y-70302380D02*
X173156380Y-69302380D01*
X166290904Y-89352380D02*
X166290904Y-88352380D01*
X166529000Y-88352380D01*
X166671857Y-88400000D01*
X166767095Y-88495238D01*
X166814714Y-88590476D01*
X166862333Y-88780952D01*
X166862333Y-88923809D01*
X166814714Y-89114285D01*
X166767095Y-89209523D01*
X166671857Y-89304761D01*
X166529000Y-89352380D01*
X166290904Y-89352380D01*
X167290904Y-88828571D02*
X167624238Y-88828571D01*
X167767095Y-89352380D02*
X167290904Y-89352380D01*
X167290904Y-88352380D01*
X167767095Y-88352380D01*
X168529000Y-88828571D02*
X168671857Y-88876190D01*
X168719476Y-88923809D01*
X168767095Y-89019047D01*
X168767095Y-89161904D01*
X168719476Y-89257142D01*
X168671857Y-89304761D01*
X168576619Y-89352380D01*
X168195666Y-89352380D01*
X168195666Y-88352380D01*
X168529000Y-88352380D01*
X168624238Y-88400000D01*
X168671857Y-88447619D01*
X168719476Y-88542857D01*
X168719476Y-88638095D01*
X168671857Y-88733333D01*
X168624238Y-88780952D01*
X168529000Y-88828571D01*
X168195666Y-88828571D01*
X169195666Y-88352380D02*
X169195666Y-89161904D01*
X169243285Y-89257142D01*
X169290904Y-89304761D01*
X169386142Y-89352380D01*
X169576619Y-89352380D01*
X169671857Y-89304761D01*
X169719476Y-89257142D01*
X169767095Y-89161904D01*
X169767095Y-88352380D01*
X170767095Y-88400000D02*
X170671857Y-88352380D01*
X170529000Y-88352380D01*
X170386142Y-88400000D01*
X170290904Y-88495238D01*
X170243285Y-88590476D01*
X170195666Y-88780952D01*
X170195666Y-88923809D01*
X170243285Y-89114285D01*
X170290904Y-89209523D01*
X170386142Y-89304761D01*
X170529000Y-89352380D01*
X170624238Y-89352380D01*
X170767095Y-89304761D01*
X170814714Y-89257142D01*
X170814714Y-88923809D01*
X170624238Y-88923809D01*
X229618166Y-73307380D02*
X229618166Y-72307380D01*
X229618166Y-73259761D02*
X229522928Y-73307380D01*
X229332452Y-73307380D01*
X229237214Y-73259761D01*
X229189595Y-73212142D01*
X229141976Y-73116904D01*
X229141976Y-72831190D01*
X229189595Y-72735952D01*
X229237214Y-72688333D01*
X229332452Y-72640714D01*
X229522928Y-72640714D01*
X229618166Y-72688333D01*
X230522928Y-73259761D02*
X230427690Y-73307380D01*
X230237214Y-73307380D01*
X230141976Y-73259761D01*
X230094357Y-73212142D01*
X230046738Y-73116904D01*
X230046738Y-72831190D01*
X230094357Y-72735952D01*
X230141976Y-72688333D01*
X230237214Y-72640714D01*
X230427690Y-72640714D01*
X230522928Y-72688333D01*
X229189595Y-74917380D02*
X229189595Y-74250714D01*
X229189595Y-73917380D02*
X229141976Y-73965000D01*
X229189595Y-74012619D01*
X229237214Y-73965000D01*
X229189595Y-73917380D01*
X229189595Y-74012619D01*
X229665785Y-74250714D02*
X229665785Y-74917380D01*
X229665785Y-74345952D02*
X229713404Y-74298333D01*
X229808642Y-74250714D01*
X229951500Y-74250714D01*
X230046738Y-74298333D01*
X230094357Y-74393571D01*
X230094357Y-74917380D01*
X159242333Y-56332380D02*
X159242333Y-55332380D01*
X159242333Y-55808571D02*
X159813761Y-55808571D01*
X159813761Y-56332380D02*
X159813761Y-55332380D01*
X160480428Y-55332380D02*
X160670904Y-55332380D01*
X160766142Y-55380000D01*
X160861380Y-55475238D01*
X160909000Y-55665714D01*
X160909000Y-55999047D01*
X160861380Y-56189523D01*
X160766142Y-56284761D01*
X160670904Y-56332380D01*
X160480428Y-56332380D01*
X160385190Y-56284761D01*
X160289952Y-56189523D01*
X160242333Y-55999047D01*
X160242333Y-55665714D01*
X160289952Y-55475238D01*
X160385190Y-55380000D01*
X160480428Y-55332380D01*
X161289952Y-56284761D02*
X161432809Y-56332380D01*
X161670904Y-56332380D01*
X161766142Y-56284761D01*
X161813761Y-56237142D01*
X161861380Y-56141904D01*
X161861380Y-56046666D01*
X161813761Y-55951428D01*
X161766142Y-55903809D01*
X161670904Y-55856190D01*
X161480428Y-55808571D01*
X161385190Y-55760952D01*
X161337571Y-55713333D01*
X161289952Y-55618095D01*
X161289952Y-55522857D01*
X161337571Y-55427619D01*
X161385190Y-55380000D01*
X161480428Y-55332380D01*
X161718523Y-55332380D01*
X161861380Y-55380000D01*
X162147095Y-55332380D02*
X162718523Y-55332380D01*
X162432809Y-56332380D02*
X162432809Y-55332380D01*
X191294238Y-121372380D02*
X191913285Y-121372380D01*
X191579952Y-121753333D01*
X191722809Y-121753333D01*
X191818047Y-121800952D01*
X191865666Y-121848571D01*
X191913285Y-121943809D01*
X191913285Y-122181904D01*
X191865666Y-122277142D01*
X191818047Y-122324761D01*
X191722809Y-122372380D01*
X191437095Y-122372380D01*
X191341857Y-122324761D01*
X191294238Y-122277142D01*
X192341857Y-122277142D02*
X192389476Y-122324761D01*
X192341857Y-122372380D01*
X192294238Y-122324761D01*
X192341857Y-122277142D01*
X192341857Y-122372380D01*
X192722809Y-121372380D02*
X193341857Y-121372380D01*
X193008523Y-121753333D01*
X193151380Y-121753333D01*
X193246619Y-121800952D01*
X193294238Y-121848571D01*
X193341857Y-121943809D01*
X193341857Y-122181904D01*
X193294238Y-122277142D01*
X193246619Y-122324761D01*
X193151380Y-122372380D01*
X192865666Y-122372380D01*
X192770428Y-122324761D01*
X192722809Y-122277142D01*
X193675190Y-121705714D02*
X193913285Y-122372380D01*
X194151380Y-121705714D01*
X195294238Y-121705714D02*
X195294238Y-122705714D01*
X195294238Y-121753333D02*
X195389476Y-121705714D01*
X195579952Y-121705714D01*
X195675190Y-121753333D01*
X195722809Y-121800952D01*
X195770428Y-121896190D01*
X195770428Y-122181904D01*
X195722809Y-122277142D01*
X195675190Y-122324761D01*
X195579952Y-122372380D01*
X195389476Y-122372380D01*
X195294238Y-122324761D01*
X196199000Y-122372380D02*
X196199000Y-121705714D01*
X196199000Y-121896190D02*
X196246619Y-121800952D01*
X196294238Y-121753333D01*
X196389476Y-121705714D01*
X196484714Y-121705714D01*
X196960904Y-122372380D02*
X196865666Y-122324761D01*
X196818047Y-122277142D01*
X196770428Y-122181904D01*
X196770428Y-121896190D01*
X196818047Y-121800952D01*
X196865666Y-121753333D01*
X196960904Y-121705714D01*
X197103761Y-121705714D01*
X197199000Y-121753333D01*
X197246619Y-121800952D01*
X197294238Y-121896190D01*
X197294238Y-122181904D01*
X197246619Y-122277142D01*
X197199000Y-122324761D01*
X197103761Y-122372380D01*
X196960904Y-122372380D01*
X197722809Y-122372380D02*
X197722809Y-121372380D01*
X197722809Y-121753333D02*
X197818047Y-121705714D01*
X198008523Y-121705714D01*
X198103761Y-121753333D01*
X198151380Y-121800952D01*
X198199000Y-121896190D01*
X198199000Y-122181904D01*
X198151380Y-122277142D01*
X198103761Y-122324761D01*
X198008523Y-122372380D01*
X197818047Y-122372380D01*
X197722809Y-122324761D01*
X199008523Y-122324761D02*
X198913285Y-122372380D01*
X198722809Y-122372380D01*
X198627571Y-122324761D01*
X198579952Y-122229523D01*
X198579952Y-121848571D01*
X198627571Y-121753333D01*
X198722809Y-121705714D01*
X198913285Y-121705714D01*
X199008523Y-121753333D01*
X199056142Y-121848571D01*
X199056142Y-121943809D01*
X198579952Y-122039047D01*
X186402452Y-60405714D02*
X186783404Y-60405714D01*
X186545309Y-61072380D02*
X186545309Y-60215238D01*
X186592928Y-60120000D01*
X186688166Y-60072380D01*
X186783404Y-60072380D01*
X187259595Y-61072380D02*
X187164357Y-61024761D01*
X187116738Y-60929523D01*
X187116738Y-60072380D01*
X188069119Y-61072380D02*
X188069119Y-60548571D01*
X188021500Y-60453333D01*
X187926261Y-60405714D01*
X187735785Y-60405714D01*
X187640547Y-60453333D01*
X188069119Y-61024761D02*
X187973880Y-61072380D01*
X187735785Y-61072380D01*
X187640547Y-61024761D01*
X187592928Y-60929523D01*
X187592928Y-60834285D01*
X187640547Y-60739047D01*
X187735785Y-60691428D01*
X187973880Y-60691428D01*
X188069119Y-60643809D01*
X188497690Y-61024761D02*
X188592928Y-61072380D01*
X188783404Y-61072380D01*
X188878642Y-61024761D01*
X188926261Y-60929523D01*
X188926261Y-60881904D01*
X188878642Y-60786666D01*
X188783404Y-60739047D01*
X188640547Y-60739047D01*
X188545309Y-60691428D01*
X188497690Y-60596190D01*
X188497690Y-60548571D01*
X188545309Y-60453333D01*
X188640547Y-60405714D01*
X188783404Y-60405714D01*
X188878642Y-60453333D01*
X189354833Y-61072380D02*
X189354833Y-60072380D01*
X189783404Y-61072380D02*
X189783404Y-60548571D01*
X189735785Y-60453333D01*
X189640547Y-60405714D01*
X189497690Y-60405714D01*
X189402452Y-60453333D01*
X189354833Y-60500952D01*
X185926261Y-62015714D02*
X185926261Y-63015714D01*
X185926261Y-62063333D02*
X186021500Y-62015714D01*
X186211976Y-62015714D01*
X186307214Y-62063333D01*
X186354833Y-62110952D01*
X186402452Y-62206190D01*
X186402452Y-62491904D01*
X186354833Y-62587142D01*
X186307214Y-62634761D01*
X186211976Y-62682380D01*
X186021500Y-62682380D01*
X185926261Y-62634761D01*
X186973880Y-62682380D02*
X186878642Y-62634761D01*
X186831023Y-62587142D01*
X186783404Y-62491904D01*
X186783404Y-62206190D01*
X186831023Y-62110952D01*
X186878642Y-62063333D01*
X186973880Y-62015714D01*
X187116738Y-62015714D01*
X187211976Y-62063333D01*
X187259595Y-62110952D01*
X187307214Y-62206190D01*
X187307214Y-62491904D01*
X187259595Y-62587142D01*
X187211976Y-62634761D01*
X187116738Y-62682380D01*
X186973880Y-62682380D01*
X187640547Y-62015714D02*
X187831023Y-62682380D01*
X188021500Y-62206190D01*
X188211976Y-62682380D01*
X188402452Y-62015714D01*
X189164357Y-62634761D02*
X189069119Y-62682380D01*
X188878642Y-62682380D01*
X188783404Y-62634761D01*
X188735785Y-62539523D01*
X188735785Y-62158571D01*
X188783404Y-62063333D01*
X188878642Y-62015714D01*
X189069119Y-62015714D01*
X189164357Y-62063333D01*
X189211976Y-62158571D01*
X189211976Y-62253809D01*
X188735785Y-62349047D01*
X189640547Y-62682380D02*
X189640547Y-62015714D01*
X189640547Y-62206190D02*
X189688166Y-62110952D01*
X189735785Y-62063333D01*
X189831023Y-62015714D01*
X189926261Y-62015714D01*
X185259595Y-64244761D02*
X185354833Y-64292380D01*
X185545309Y-64292380D01*
X185640547Y-64244761D01*
X185688166Y-64149523D01*
X185688166Y-64101904D01*
X185640547Y-64006666D01*
X185545309Y-63959047D01*
X185402452Y-63959047D01*
X185307214Y-63911428D01*
X185259595Y-63816190D01*
X185259595Y-63768571D01*
X185307214Y-63673333D01*
X185402452Y-63625714D01*
X185545309Y-63625714D01*
X185640547Y-63673333D01*
X186259595Y-64292380D02*
X186164357Y-64244761D01*
X186116738Y-64197142D01*
X186069119Y-64101904D01*
X186069119Y-63816190D01*
X186116738Y-63720952D01*
X186164357Y-63673333D01*
X186259595Y-63625714D01*
X186402452Y-63625714D01*
X186497690Y-63673333D01*
X186545309Y-63720952D01*
X186592928Y-63816190D01*
X186592928Y-64101904D01*
X186545309Y-64197142D01*
X186497690Y-64244761D01*
X186402452Y-64292380D01*
X186259595Y-64292380D01*
X187450071Y-63625714D02*
X187450071Y-64292380D01*
X187021500Y-63625714D02*
X187021500Y-64149523D01*
X187069119Y-64244761D01*
X187164357Y-64292380D01*
X187307214Y-64292380D01*
X187402452Y-64244761D01*
X187450071Y-64197142D01*
X187926261Y-64292380D02*
X187926261Y-63625714D01*
X187926261Y-63816190D02*
X187973880Y-63720952D01*
X188021500Y-63673333D01*
X188116738Y-63625714D01*
X188211976Y-63625714D01*
X188973880Y-64244761D02*
X188878642Y-64292380D01*
X188688166Y-64292380D01*
X188592928Y-64244761D01*
X188545309Y-64197142D01*
X188497690Y-64101904D01*
X188497690Y-63816190D01*
X188545309Y-63720952D01*
X188592928Y-63673333D01*
X188688166Y-63625714D01*
X188878642Y-63625714D01*
X188973880Y-63673333D01*
X189783404Y-64244761D02*
X189688166Y-64292380D01*
X189497690Y-64292380D01*
X189402452Y-64244761D01*
X189354833Y-64149523D01*
X189354833Y-63768571D01*
X189402452Y-63673333D01*
X189497690Y-63625714D01*
X189688166Y-63625714D01*
X189783404Y-63673333D01*
X189831023Y-63768571D01*
X189831023Y-63863809D01*
X189354833Y-63959047D01*
X196804595Y-68830714D02*
X196804595Y-69830714D01*
X196804595Y-68878333D02*
X196899833Y-68830714D01*
X197090309Y-68830714D01*
X197185547Y-68878333D01*
X197233166Y-68925952D01*
X197280785Y-69021190D01*
X197280785Y-69306904D01*
X197233166Y-69402142D01*
X197185547Y-69449761D01*
X197090309Y-69497380D01*
X196899833Y-69497380D01*
X196804595Y-69449761D01*
X197852214Y-69497380D02*
X197756976Y-69449761D01*
X197709357Y-69402142D01*
X197661738Y-69306904D01*
X197661738Y-69021190D01*
X197709357Y-68925952D01*
X197756976Y-68878333D01*
X197852214Y-68830714D01*
X197995071Y-68830714D01*
X198090309Y-68878333D01*
X198137928Y-68925952D01*
X198185547Y-69021190D01*
X198185547Y-69306904D01*
X198137928Y-69402142D01*
X198090309Y-69449761D01*
X197995071Y-69497380D01*
X197852214Y-69497380D01*
X198518880Y-68830714D02*
X198709357Y-69497380D01*
X198899833Y-69021190D01*
X199090309Y-69497380D01*
X199280785Y-68830714D01*
X200042690Y-69449761D02*
X199947452Y-69497380D01*
X199756976Y-69497380D01*
X199661738Y-69449761D01*
X199614119Y-69354523D01*
X199614119Y-68973571D01*
X199661738Y-68878333D01*
X199756976Y-68830714D01*
X199947452Y-68830714D01*
X200042690Y-68878333D01*
X200090309Y-68973571D01*
X200090309Y-69068809D01*
X199614119Y-69164047D01*
X200518880Y-69497380D02*
X200518880Y-68830714D01*
X200518880Y-69021190D02*
X200566500Y-68925952D01*
X200614119Y-68878333D01*
X200709357Y-68830714D01*
X200804595Y-68830714D01*
X196661738Y-70440714D02*
X197042690Y-70440714D01*
X196804595Y-71107380D02*
X196804595Y-70250238D01*
X196852214Y-70155000D01*
X196947452Y-70107380D01*
X197042690Y-70107380D01*
X197518880Y-71107380D02*
X197423642Y-71059761D01*
X197376023Y-71012142D01*
X197328404Y-70916904D01*
X197328404Y-70631190D01*
X197376023Y-70535952D01*
X197423642Y-70488333D01*
X197518880Y-70440714D01*
X197661738Y-70440714D01*
X197756976Y-70488333D01*
X197804595Y-70535952D01*
X197852214Y-70631190D01*
X197852214Y-70916904D01*
X197804595Y-71012142D01*
X197756976Y-71059761D01*
X197661738Y-71107380D01*
X197518880Y-71107380D01*
X198280785Y-71107380D02*
X198280785Y-70440714D01*
X198280785Y-70631190D02*
X198328404Y-70535952D01*
X198376023Y-70488333D01*
X198471261Y-70440714D01*
X198566500Y-70440714D01*
X199328404Y-71059761D02*
X199233166Y-71107380D01*
X199042690Y-71107380D01*
X198947452Y-71059761D01*
X198899833Y-71012142D01*
X198852214Y-70916904D01*
X198852214Y-70631190D01*
X198899833Y-70535952D01*
X198947452Y-70488333D01*
X199042690Y-70440714D01*
X199233166Y-70440714D01*
X199328404Y-70488333D01*
X200137928Y-71059761D02*
X200042690Y-71107380D01*
X199852214Y-71107380D01*
X199756976Y-71059761D01*
X199709357Y-70964523D01*
X199709357Y-70583571D01*
X199756976Y-70488333D01*
X199852214Y-70440714D01*
X200042690Y-70440714D01*
X200137928Y-70488333D01*
X200185547Y-70583571D01*
X200185547Y-70678809D01*
X199709357Y-70774047D01*
X182657809Y-91257380D02*
X182657809Y-90590714D01*
X182657809Y-90781190D02*
X182705428Y-90685952D01*
X182753047Y-90638333D01*
X182848285Y-90590714D01*
X182943523Y-90590714D01*
X183181619Y-91257380D02*
X183705428Y-90590714D01*
X183181619Y-90590714D02*
X183705428Y-91257380D01*
X167594595Y-139642380D02*
X167594595Y-138642380D01*
X167594595Y-139118571D02*
X168166023Y-139118571D01*
X168166023Y-139642380D02*
X168166023Y-138642380D01*
X169070785Y-139642380D02*
X169070785Y-139118571D01*
X169023166Y-139023333D01*
X168927928Y-138975714D01*
X168737452Y-138975714D01*
X168642214Y-139023333D01*
X169070785Y-139594761D02*
X168975547Y-139642380D01*
X168737452Y-139642380D01*
X168642214Y-139594761D01*
X168594595Y-139499523D01*
X168594595Y-139404285D01*
X168642214Y-139309047D01*
X168737452Y-139261428D01*
X168975547Y-139261428D01*
X169070785Y-139213809D01*
X169546976Y-138975714D02*
X169546976Y-139642380D01*
X169546976Y-139070952D02*
X169594595Y-139023333D01*
X169689833Y-138975714D01*
X169832690Y-138975714D01*
X169927928Y-139023333D01*
X169975547Y-139118571D01*
X169975547Y-139642380D01*
X170880309Y-139642380D02*
X170880309Y-138642380D01*
X170880309Y-139594761D02*
X170785071Y-139642380D01*
X170594595Y-139642380D01*
X170499357Y-139594761D01*
X170451738Y-139547142D01*
X170404119Y-139451904D01*
X170404119Y-139166190D01*
X170451738Y-139070952D01*
X170499357Y-139023333D01*
X170594595Y-138975714D01*
X170785071Y-138975714D01*
X170880309Y-139023333D01*
X171308880Y-139594761D02*
X171404119Y-139642380D01*
X171594595Y-139642380D01*
X171689833Y-139594761D01*
X171737452Y-139499523D01*
X171737452Y-139451904D01*
X171689833Y-139356666D01*
X171594595Y-139309047D01*
X171451738Y-139309047D01*
X171356500Y-139261428D01*
X171308880Y-139166190D01*
X171308880Y-139118571D01*
X171356500Y-139023333D01*
X171451738Y-138975714D01*
X171594595Y-138975714D01*
X171689833Y-139023333D01*
X172785071Y-138975714D02*
X173166023Y-138975714D01*
X172927928Y-139642380D02*
X172927928Y-138785238D01*
X172975547Y-138690000D01*
X173070785Y-138642380D01*
X173166023Y-138642380D01*
X173499357Y-139642380D02*
X173499357Y-138975714D01*
X173499357Y-139166190D02*
X173546976Y-139070952D01*
X173594595Y-139023333D01*
X173689833Y-138975714D01*
X173785071Y-138975714D01*
X174499357Y-139594761D02*
X174404119Y-139642380D01*
X174213642Y-139642380D01*
X174118404Y-139594761D01*
X174070785Y-139499523D01*
X174070785Y-139118571D01*
X174118404Y-139023333D01*
X174213642Y-138975714D01*
X174404119Y-138975714D01*
X174499357Y-139023333D01*
X174546976Y-139118571D01*
X174546976Y-139213809D01*
X174070785Y-139309047D01*
X175356500Y-139594761D02*
X175261261Y-139642380D01*
X175070785Y-139642380D01*
X174975547Y-139594761D01*
X174927928Y-139499523D01*
X174927928Y-139118571D01*
X174975547Y-139023333D01*
X175070785Y-138975714D01*
X175261261Y-138975714D01*
X175356500Y-139023333D01*
X175404119Y-139118571D01*
X175404119Y-139213809D01*
X174927928Y-139309047D01*
X176594595Y-139642380D02*
X176594595Y-138975714D01*
X176594595Y-139166190D02*
X176642214Y-139070952D01*
X176689833Y-139023333D01*
X176785071Y-138975714D01*
X176880309Y-138975714D01*
X177594595Y-139594761D02*
X177499357Y-139642380D01*
X177308880Y-139642380D01*
X177213642Y-139594761D01*
X177166023Y-139499523D01*
X177166023Y-139118571D01*
X177213642Y-139023333D01*
X177308880Y-138975714D01*
X177499357Y-138975714D01*
X177594595Y-139023333D01*
X177642214Y-139118571D01*
X177642214Y-139213809D01*
X177166023Y-139309047D01*
X178070785Y-139642380D02*
X178070785Y-138975714D01*
X178070785Y-139070952D02*
X178118404Y-139023333D01*
X178213642Y-138975714D01*
X178356500Y-138975714D01*
X178451738Y-139023333D01*
X178499357Y-139118571D01*
X178499357Y-139642380D01*
X178499357Y-139118571D02*
X178546976Y-139023333D01*
X178642214Y-138975714D01*
X178785071Y-138975714D01*
X178880309Y-139023333D01*
X178927928Y-139118571D01*
X178927928Y-139642380D01*
X179546976Y-139642380D02*
X179451738Y-139594761D01*
X179404119Y-139547142D01*
X179356500Y-139451904D01*
X179356500Y-139166190D01*
X179404119Y-139070952D01*
X179451738Y-139023333D01*
X179546976Y-138975714D01*
X179689833Y-138975714D01*
X179785071Y-139023333D01*
X179832690Y-139070952D01*
X179880309Y-139166190D01*
X179880309Y-139451904D01*
X179832690Y-139547142D01*
X179785071Y-139594761D01*
X179689833Y-139642380D01*
X179546976Y-139642380D01*
X180166023Y-138975714D02*
X180546976Y-138975714D01*
X180308880Y-138642380D02*
X180308880Y-139499523D01*
X180356500Y-139594761D01*
X180451738Y-139642380D01*
X180546976Y-139642380D01*
X181261261Y-139594761D02*
X181166023Y-139642380D01*
X180975547Y-139642380D01*
X180880309Y-139594761D01*
X180832690Y-139499523D01*
X180832690Y-139118571D01*
X180880309Y-139023333D01*
X180975547Y-138975714D01*
X181166023Y-138975714D01*
X181261261Y-139023333D01*
X181308880Y-139118571D01*
X181308880Y-139213809D01*
X180832690Y-139309047D01*
X182880309Y-139594761D02*
X182785071Y-139642380D01*
X182594595Y-139642380D01*
X182499357Y-139594761D01*
X182451738Y-139499523D01*
X182451738Y-139118571D01*
X182499357Y-139023333D01*
X182594595Y-138975714D01*
X182785071Y-138975714D01*
X182880309Y-139023333D01*
X182927928Y-139118571D01*
X182927928Y-139213809D01*
X182451738Y-139309047D01*
X183356500Y-139642380D02*
X183356500Y-138975714D01*
X183356500Y-139070952D02*
X183404119Y-139023333D01*
X183499357Y-138975714D01*
X183642214Y-138975714D01*
X183737452Y-139023333D01*
X183785071Y-139118571D01*
X183785071Y-139642380D01*
X183785071Y-139118571D02*
X183832690Y-139023333D01*
X183927928Y-138975714D01*
X184070785Y-138975714D01*
X184166023Y-139023333D01*
X184213642Y-139118571D01*
X184213642Y-139642380D01*
X184689833Y-139642380D02*
X184689833Y-138642380D01*
X184689833Y-139023333D02*
X184785071Y-138975714D01*
X184975547Y-138975714D01*
X185070785Y-139023333D01*
X185118404Y-139070952D01*
X185166023Y-139166190D01*
X185166023Y-139451904D01*
X185118404Y-139547142D01*
X185070785Y-139594761D01*
X184975547Y-139642380D01*
X184785071Y-139642380D01*
X184689833Y-139594761D01*
X185975547Y-139594761D02*
X185880309Y-139642380D01*
X185689833Y-139642380D01*
X185594595Y-139594761D01*
X185546976Y-139499523D01*
X185546976Y-139118571D01*
X185594595Y-139023333D01*
X185689833Y-138975714D01*
X185880309Y-138975714D01*
X185975547Y-139023333D01*
X186023166Y-139118571D01*
X186023166Y-139213809D01*
X185546976Y-139309047D01*
X186880309Y-139642380D02*
X186880309Y-138642380D01*
X186880309Y-139594761D02*
X186785071Y-139642380D01*
X186594595Y-139642380D01*
X186499357Y-139594761D01*
X186451738Y-139547142D01*
X186404119Y-139451904D01*
X186404119Y-139166190D01*
X186451738Y-139070952D01*
X186499357Y-139023333D01*
X186594595Y-138975714D01*
X186785071Y-138975714D01*
X186880309Y-139023333D01*
X187785071Y-139642380D02*
X187785071Y-138642380D01*
X187785071Y-139594761D02*
X187689833Y-139642380D01*
X187499357Y-139642380D01*
X187404119Y-139594761D01*
X187356500Y-139547142D01*
X187308880Y-139451904D01*
X187308880Y-139166190D01*
X187356500Y-139070952D01*
X187404119Y-139023333D01*
X187499357Y-138975714D01*
X187689833Y-138975714D01*
X187785071Y-139023333D01*
X188642214Y-139594761D02*
X188546976Y-139642380D01*
X188356500Y-139642380D01*
X188261261Y-139594761D01*
X188213642Y-139499523D01*
X188213642Y-139118571D01*
X188261261Y-139023333D01*
X188356500Y-138975714D01*
X188546976Y-138975714D01*
X188642214Y-139023333D01*
X188689833Y-139118571D01*
X188689833Y-139213809D01*
X188213642Y-139309047D01*
X189546976Y-139642380D02*
X189546976Y-138642380D01*
X189546976Y-139594761D02*
X189451738Y-139642380D01*
X189261261Y-139642380D01*
X189166023Y-139594761D01*
X189118404Y-139547142D01*
X189070785Y-139451904D01*
X189070785Y-139166190D01*
X189118404Y-139070952D01*
X189166023Y-139023333D01*
X189261261Y-138975714D01*
X189451738Y-138975714D01*
X189546976Y-139023333D01*
X191213642Y-139642380D02*
X191213642Y-138642380D01*
X191213642Y-139594761D02*
X191118404Y-139642380D01*
X190927928Y-139642380D01*
X190832690Y-139594761D01*
X190785071Y-139547142D01*
X190737452Y-139451904D01*
X190737452Y-139166190D01*
X190785071Y-139070952D01*
X190832690Y-139023333D01*
X190927928Y-138975714D01*
X191118404Y-138975714D01*
X191213642Y-139023333D01*
X192070785Y-139594761D02*
X191975547Y-139642380D01*
X191785071Y-139642380D01*
X191689833Y-139594761D01*
X191642214Y-139499523D01*
X191642214Y-139118571D01*
X191689833Y-139023333D01*
X191785071Y-138975714D01*
X191975547Y-138975714D01*
X192070785Y-139023333D01*
X192118404Y-139118571D01*
X192118404Y-139213809D01*
X191642214Y-139309047D01*
X192451738Y-138975714D02*
X192689833Y-139642380D01*
X192927928Y-138975714D01*
X193689833Y-139594761D02*
X193594595Y-139642380D01*
X193404119Y-139642380D01*
X193308880Y-139594761D01*
X193261261Y-139499523D01*
X193261261Y-139118571D01*
X193308880Y-139023333D01*
X193404119Y-138975714D01*
X193594595Y-138975714D01*
X193689833Y-139023333D01*
X193737452Y-139118571D01*
X193737452Y-139213809D01*
X193261261Y-139309047D01*
X194308880Y-139642380D02*
X194213642Y-139594761D01*
X194166023Y-139499523D01*
X194166023Y-138642380D01*
X194832690Y-139642380D02*
X194737452Y-139594761D01*
X194689833Y-139547142D01*
X194642214Y-139451904D01*
X194642214Y-139166190D01*
X194689833Y-139070952D01*
X194737452Y-139023333D01*
X194832690Y-138975714D01*
X194975547Y-138975714D01*
X195070785Y-139023333D01*
X195118404Y-139070952D01*
X195166023Y-139166190D01*
X195166023Y-139451904D01*
X195118404Y-139547142D01*
X195070785Y-139594761D01*
X194975547Y-139642380D01*
X194832690Y-139642380D01*
X195594595Y-138975714D02*
X195594595Y-139975714D01*
X195594595Y-139023333D02*
X195689833Y-138975714D01*
X195880309Y-138975714D01*
X195975547Y-139023333D01*
X196023166Y-139070952D01*
X196070785Y-139166190D01*
X196070785Y-139451904D01*
X196023166Y-139547142D01*
X195975547Y-139594761D01*
X195880309Y-139642380D01*
X195689833Y-139642380D01*
X195594595Y-139594761D01*
X196499357Y-139642380D02*
X196499357Y-138975714D01*
X196499357Y-139070952D02*
X196546976Y-139023333D01*
X196642214Y-138975714D01*
X196785071Y-138975714D01*
X196880309Y-139023333D01*
X196927928Y-139118571D01*
X196927928Y-139642380D01*
X196927928Y-139118571D02*
X196975547Y-139023333D01*
X197070785Y-138975714D01*
X197213642Y-138975714D01*
X197308880Y-139023333D01*
X197356500Y-139118571D01*
X197356500Y-139642380D01*
X198213642Y-139594761D02*
X198118404Y-139642380D01*
X197927928Y-139642380D01*
X197832690Y-139594761D01*
X197785071Y-139499523D01*
X197785071Y-139118571D01*
X197832690Y-139023333D01*
X197927928Y-138975714D01*
X198118404Y-138975714D01*
X198213642Y-139023333D01*
X198261261Y-139118571D01*
X198261261Y-139213809D01*
X197785071Y-139309047D01*
X198689833Y-138975714D02*
X198689833Y-139642380D01*
X198689833Y-139070952D02*
X198737452Y-139023333D01*
X198832690Y-138975714D01*
X198975547Y-138975714D01*
X199070785Y-139023333D01*
X199118404Y-139118571D01*
X199118404Y-139642380D01*
X199451738Y-138975714D02*
X199832690Y-138975714D01*
X199594595Y-138642380D02*
X199594595Y-139499523D01*
X199642214Y-139594761D01*
X199737452Y-139642380D01*
X199832690Y-139642380D01*
X201356500Y-139642380D02*
X201356500Y-138642380D01*
X201356500Y-139594761D02*
X201261261Y-139642380D01*
X201070785Y-139642380D01*
X200975547Y-139594761D01*
X200927928Y-139547142D01*
X200880309Y-139451904D01*
X200880309Y-139166190D01*
X200927928Y-139070952D01*
X200975547Y-139023333D01*
X201070785Y-138975714D01*
X201261261Y-138975714D01*
X201356500Y-139023333D01*
X202213642Y-139594761D02*
X202118404Y-139642380D01*
X201927928Y-139642380D01*
X201832690Y-139594761D01*
X201785071Y-139499523D01*
X201785071Y-139118571D01*
X201832690Y-139023333D01*
X201927928Y-138975714D01*
X202118404Y-138975714D01*
X202213642Y-139023333D01*
X202261261Y-139118571D01*
X202261261Y-139213809D01*
X201785071Y-139309047D01*
X202594595Y-138975714D02*
X202832690Y-139642380D01*
X203070785Y-138975714D01*
X203451738Y-139642380D02*
X203451738Y-138975714D01*
X203451738Y-138642380D02*
X203404119Y-138690000D01*
X203451738Y-138737619D01*
X203499357Y-138690000D01*
X203451738Y-138642380D01*
X203451738Y-138737619D01*
X204356500Y-139594761D02*
X204261261Y-139642380D01*
X204070785Y-139642380D01*
X203975547Y-139594761D01*
X203927928Y-139547142D01*
X203880309Y-139451904D01*
X203880309Y-139166190D01*
X203927928Y-139070952D01*
X203975547Y-139023333D01*
X204070785Y-138975714D01*
X204261261Y-138975714D01*
X204356500Y-139023333D01*
X205166023Y-139594761D02*
X205070785Y-139642380D01*
X204880309Y-139642380D01*
X204785071Y-139594761D01*
X204737452Y-139499523D01*
X204737452Y-139118571D01*
X204785071Y-139023333D01*
X204880309Y-138975714D01*
X205070785Y-138975714D01*
X205166023Y-139023333D01*
X205213642Y-139118571D01*
X205213642Y-139213809D01*
X204737452Y-139309047D01*
X167451738Y-140252380D02*
X167785071Y-141252380D01*
X168118404Y-140252380D01*
X168832690Y-141204761D02*
X168737452Y-141252380D01*
X168546976Y-141252380D01*
X168451738Y-141204761D01*
X168404119Y-141109523D01*
X168404119Y-140728571D01*
X168451738Y-140633333D01*
X168546976Y-140585714D01*
X168737452Y-140585714D01*
X168832690Y-140633333D01*
X168880309Y-140728571D01*
X168880309Y-140823809D01*
X168404119Y-140919047D01*
X169308880Y-141252380D02*
X169308880Y-140585714D01*
X169308880Y-140776190D02*
X169356500Y-140680952D01*
X169404119Y-140633333D01*
X169499357Y-140585714D01*
X169594595Y-140585714D01*
X169880309Y-141204761D02*
X169975547Y-141252380D01*
X170166023Y-141252380D01*
X170261261Y-141204761D01*
X170308880Y-141109523D01*
X170308880Y-141061904D01*
X170261261Y-140966666D01*
X170166023Y-140919047D01*
X170023166Y-140919047D01*
X169927928Y-140871428D01*
X169880309Y-140776190D01*
X169880309Y-140728571D01*
X169927928Y-140633333D01*
X170023166Y-140585714D01*
X170166023Y-140585714D01*
X170261261Y-140633333D01*
X170737452Y-141252380D02*
X170737452Y-140585714D01*
X170737452Y-140252380D02*
X170689833Y-140300000D01*
X170737452Y-140347619D01*
X170785071Y-140300000D01*
X170737452Y-140252380D01*
X170737452Y-140347619D01*
X171356500Y-141252380D02*
X171261261Y-141204761D01*
X171213642Y-141157142D01*
X171166023Y-141061904D01*
X171166023Y-140776190D01*
X171213642Y-140680952D01*
X171261261Y-140633333D01*
X171356500Y-140585714D01*
X171499357Y-140585714D01*
X171594595Y-140633333D01*
X171642214Y-140680952D01*
X171689833Y-140776190D01*
X171689833Y-141061904D01*
X171642214Y-141157142D01*
X171594595Y-141204761D01*
X171499357Y-141252380D01*
X171356500Y-141252380D01*
X172118404Y-140585714D02*
X172118404Y-141252380D01*
X172118404Y-140680952D02*
X172166023Y-140633333D01*
X172261261Y-140585714D01*
X172404119Y-140585714D01*
X172499357Y-140633333D01*
X172546976Y-140728571D01*
X172546976Y-141252380D01*
X173023166Y-141157142D02*
X173070785Y-141204761D01*
X173023166Y-141252380D01*
X172975547Y-141204761D01*
X173023166Y-141157142D01*
X173023166Y-141252380D01*
X173023166Y-140633333D02*
X173070785Y-140680952D01*
X173023166Y-140728571D01*
X172975547Y-140680952D01*
X173023166Y-140633333D01*
X173023166Y-140728571D01*
X174785071Y-141252380D02*
X174213642Y-141252380D01*
X174499357Y-141252380D02*
X174499357Y-140252380D01*
X174404119Y-140395238D01*
X174308880Y-140490476D01*
X174213642Y-140538095D01*
X175213642Y-141157142D02*
X175261261Y-141204761D01*
X175213642Y-141252380D01*
X175166023Y-141204761D01*
X175213642Y-141157142D01*
X175213642Y-141252380D01*
X176213642Y-141252380D02*
X175642214Y-141252380D01*
X175927928Y-141252380D02*
X175927928Y-140252380D01*
X175832690Y-140395238D01*
X175737452Y-140490476D01*
X175642214Y-140538095D01*
X176642214Y-141157142D02*
X176689833Y-141204761D01*
X176642214Y-141252380D01*
X176594595Y-141204761D01*
X176642214Y-141157142D01*
X176642214Y-141252380D01*
X177308880Y-140252380D02*
X177404119Y-140252380D01*
X177499357Y-140300000D01*
X177546976Y-140347619D01*
X177594595Y-140442857D01*
X177642214Y-140633333D01*
X177642214Y-140871428D01*
X177594595Y-141061904D01*
X177546976Y-141157142D01*
X177499357Y-141204761D01*
X177404119Y-141252380D01*
X177308880Y-141252380D01*
X177213642Y-141204761D01*
X177166023Y-141157142D01*
X177118404Y-141061904D01*
X177070785Y-140871428D01*
X177070785Y-140633333D01*
X177118404Y-140442857D01*
X177166023Y-140347619D01*
X177213642Y-140300000D01*
X177308880Y-140252380D01*
X178070785Y-140871428D02*
X178832690Y-140871428D01*
X179308880Y-140585714D02*
X179308880Y-141585714D01*
X179308880Y-140633333D02*
X179404119Y-140585714D01*
X179594595Y-140585714D01*
X179689833Y-140633333D01*
X179737452Y-140680952D01*
X179785071Y-140776190D01*
X179785071Y-141061904D01*
X179737452Y-141157142D01*
X179689833Y-141204761D01*
X179594595Y-141252380D01*
X179404119Y-141252380D01*
X179308880Y-141204761D01*
X180213642Y-141252380D02*
X180213642Y-140585714D01*
X180213642Y-140776190D02*
X180261261Y-140680952D01*
X180308880Y-140633333D01*
X180404119Y-140585714D01*
X180499357Y-140585714D01*
X181213642Y-141204761D02*
X181118404Y-141252380D01*
X180927928Y-141252380D01*
X180832690Y-141204761D01*
X180785071Y-141109523D01*
X180785071Y-140728571D01*
X180832690Y-140633333D01*
X180927928Y-140585714D01*
X181118404Y-140585714D01*
X181213642Y-140633333D01*
X181261261Y-140728571D01*
X181261261Y-140823809D01*
X180785071Y-140919047D01*
X182213642Y-141252380D02*
X181642214Y-141252380D01*
X181927928Y-141252380D02*
X181927928Y-140252380D01*
X181832690Y-140395238D01*
X181737452Y-140490476D01*
X181642214Y-140538095D01*
X167546976Y-142814761D02*
X167689833Y-142862380D01*
X167927928Y-142862380D01*
X168023166Y-142814761D01*
X168070785Y-142767142D01*
X168118404Y-142671904D01*
X168118404Y-142576666D01*
X168070785Y-142481428D01*
X168023166Y-142433809D01*
X167927928Y-142386190D01*
X167737452Y-142338571D01*
X167642214Y-142290952D01*
X167594595Y-142243333D01*
X167546976Y-142148095D01*
X167546976Y-142052857D01*
X167594595Y-141957619D01*
X167642214Y-141910000D01*
X167737452Y-141862380D01*
X167975547Y-141862380D01*
X168118404Y-141910000D01*
X168689833Y-142862380D02*
X168594595Y-142814761D01*
X168546976Y-142767142D01*
X168499357Y-142671904D01*
X168499357Y-142386190D01*
X168546976Y-142290952D01*
X168594595Y-142243333D01*
X168689833Y-142195714D01*
X168832690Y-142195714D01*
X168927928Y-142243333D01*
X168975547Y-142290952D01*
X169023166Y-142386190D01*
X169023166Y-142671904D01*
X168975547Y-142767142D01*
X168927928Y-142814761D01*
X168832690Y-142862380D01*
X168689833Y-142862380D01*
X169880309Y-142195714D02*
X169880309Y-142862380D01*
X169451738Y-142195714D02*
X169451738Y-142719523D01*
X169499357Y-142814761D01*
X169594595Y-142862380D01*
X169737452Y-142862380D01*
X169832690Y-142814761D01*
X169880309Y-142767142D01*
X170356500Y-142862380D02*
X170356500Y-142195714D01*
X170356500Y-142386190D02*
X170404119Y-142290952D01*
X170451738Y-142243333D01*
X170546976Y-142195714D01*
X170642214Y-142195714D01*
X171404119Y-142814761D02*
X171308880Y-142862380D01*
X171118404Y-142862380D01*
X171023166Y-142814761D01*
X170975547Y-142767142D01*
X170927928Y-142671904D01*
X170927928Y-142386190D01*
X170975547Y-142290952D01*
X171023166Y-142243333D01*
X171118404Y-142195714D01*
X171308880Y-142195714D01*
X171404119Y-142243333D01*
X172213642Y-142814761D02*
X172118404Y-142862380D01*
X171927928Y-142862380D01*
X171832690Y-142814761D01*
X171785071Y-142719523D01*
X171785071Y-142338571D01*
X171832690Y-142243333D01*
X171927928Y-142195714D01*
X172118404Y-142195714D01*
X172213642Y-142243333D01*
X172261261Y-142338571D01*
X172261261Y-142433809D01*
X171785071Y-142529047D01*
X172642214Y-142814761D02*
X172737452Y-142862380D01*
X172927928Y-142862380D01*
X173023166Y-142814761D01*
X173070785Y-142719523D01*
X173070785Y-142671904D01*
X173023166Y-142576666D01*
X172927928Y-142529047D01*
X172785071Y-142529047D01*
X172689833Y-142481428D01*
X172642214Y-142386190D01*
X172642214Y-142338571D01*
X172689833Y-142243333D01*
X172785071Y-142195714D01*
X172927928Y-142195714D01*
X173023166Y-142243333D01*
X173499357Y-142767142D02*
X173546976Y-142814761D01*
X173499357Y-142862380D01*
X173451738Y-142814761D01*
X173499357Y-142767142D01*
X173499357Y-142862380D01*
X173499357Y-142243333D02*
X173546976Y-142290952D01*
X173499357Y-142338571D01*
X173451738Y-142290952D01*
X173499357Y-142243333D01*
X173499357Y-142338571D01*
X174737452Y-142862380D02*
X174737452Y-141862380D01*
X175166023Y-142862380D02*
X175166023Y-142338571D01*
X175118404Y-142243333D01*
X175023166Y-142195714D01*
X174880309Y-142195714D01*
X174785071Y-142243333D01*
X174737452Y-142290952D01*
X175499357Y-142195714D02*
X175880309Y-142195714D01*
X175642214Y-141862380D02*
X175642214Y-142719523D01*
X175689833Y-142814761D01*
X175785071Y-142862380D01*
X175880309Y-142862380D01*
X176070785Y-142195714D02*
X176451738Y-142195714D01*
X176213642Y-141862380D02*
X176213642Y-142719523D01*
X176261261Y-142814761D01*
X176356500Y-142862380D01*
X176451738Y-142862380D01*
X176785071Y-142195714D02*
X176785071Y-143195714D01*
X176785071Y-142243333D02*
X176880309Y-142195714D01*
X177070785Y-142195714D01*
X177166023Y-142243333D01*
X177213642Y-142290952D01*
X177261261Y-142386190D01*
X177261261Y-142671904D01*
X177213642Y-142767142D01*
X177166023Y-142814761D01*
X177070785Y-142862380D01*
X176880309Y-142862380D01*
X176785071Y-142814761D01*
X177642214Y-142814761D02*
X177737452Y-142862380D01*
X177927928Y-142862380D01*
X178023166Y-142814761D01*
X178070785Y-142719523D01*
X178070785Y-142671904D01*
X178023166Y-142576666D01*
X177927928Y-142529047D01*
X177785071Y-142529047D01*
X177689833Y-142481428D01*
X177642214Y-142386190D01*
X177642214Y-142338571D01*
X177689833Y-142243333D01*
X177785071Y-142195714D01*
X177927928Y-142195714D01*
X178023166Y-142243333D01*
X178499357Y-142767142D02*
X178546976Y-142814761D01*
X178499357Y-142862380D01*
X178451738Y-142814761D01*
X178499357Y-142767142D01*
X178499357Y-142862380D01*
X178499357Y-142243333D02*
X178546976Y-142290952D01*
X178499357Y-142338571D01*
X178451738Y-142290952D01*
X178499357Y-142243333D01*
X178499357Y-142338571D01*
X179689833Y-141814761D02*
X178832690Y-143100476D01*
X180737452Y-141814761D02*
X179880309Y-143100476D01*
X181499357Y-142195714D02*
X181499357Y-143005238D01*
X181451738Y-143100476D01*
X181404119Y-143148095D01*
X181308880Y-143195714D01*
X181166023Y-143195714D01*
X181070785Y-143148095D01*
X181499357Y-142814761D02*
X181404119Y-142862380D01*
X181213642Y-142862380D01*
X181118404Y-142814761D01*
X181070785Y-142767142D01*
X181023166Y-142671904D01*
X181023166Y-142386190D01*
X181070785Y-142290952D01*
X181118404Y-142243333D01*
X181213642Y-142195714D01*
X181404119Y-142195714D01*
X181499357Y-142243333D01*
X181975547Y-142862380D02*
X181975547Y-142195714D01*
X181975547Y-141862380D02*
X181927928Y-141910000D01*
X181975547Y-141957619D01*
X182023166Y-141910000D01*
X181975547Y-141862380D01*
X181975547Y-141957619D01*
X182308880Y-142195714D02*
X182689833Y-142195714D01*
X182451738Y-141862380D02*
X182451738Y-142719523D01*
X182499357Y-142814761D01*
X182594595Y-142862380D01*
X182689833Y-142862380D01*
X183023166Y-142862380D02*
X183023166Y-141862380D01*
X183451738Y-142862380D02*
X183451738Y-142338571D01*
X183404119Y-142243333D01*
X183308880Y-142195714D01*
X183166023Y-142195714D01*
X183070785Y-142243333D01*
X183023166Y-142290952D01*
X184356500Y-142195714D02*
X184356500Y-142862380D01*
X183927928Y-142195714D02*
X183927928Y-142719523D01*
X183975547Y-142814761D01*
X184070785Y-142862380D01*
X184213642Y-142862380D01*
X184308880Y-142814761D01*
X184356500Y-142767142D01*
X184832690Y-142862380D02*
X184832690Y-141862380D01*
X184832690Y-142243333D02*
X184927928Y-142195714D01*
X185118404Y-142195714D01*
X185213642Y-142243333D01*
X185261261Y-142290952D01*
X185308880Y-142386190D01*
X185308880Y-142671904D01*
X185261261Y-142767142D01*
X185213642Y-142814761D01*
X185118404Y-142862380D01*
X184927928Y-142862380D01*
X184832690Y-142814761D01*
X185737452Y-142767142D02*
X185785071Y-142814761D01*
X185737452Y-142862380D01*
X185689833Y-142814761D01*
X185737452Y-142767142D01*
X185737452Y-142862380D01*
X186642214Y-142814761D02*
X186546976Y-142862380D01*
X186356500Y-142862380D01*
X186261261Y-142814761D01*
X186213642Y-142767142D01*
X186166023Y-142671904D01*
X186166023Y-142386190D01*
X186213642Y-142290952D01*
X186261261Y-142243333D01*
X186356500Y-142195714D01*
X186546976Y-142195714D01*
X186642214Y-142243333D01*
X187213642Y-142862380D02*
X187118404Y-142814761D01*
X187070785Y-142767142D01*
X187023166Y-142671904D01*
X187023166Y-142386190D01*
X187070785Y-142290952D01*
X187118404Y-142243333D01*
X187213642Y-142195714D01*
X187356500Y-142195714D01*
X187451738Y-142243333D01*
X187499357Y-142290952D01*
X187546976Y-142386190D01*
X187546976Y-142671904D01*
X187499357Y-142767142D01*
X187451738Y-142814761D01*
X187356500Y-142862380D01*
X187213642Y-142862380D01*
X187975547Y-142862380D02*
X187975547Y-142195714D01*
X187975547Y-142290952D02*
X188023166Y-142243333D01*
X188118404Y-142195714D01*
X188261261Y-142195714D01*
X188356500Y-142243333D01*
X188404119Y-142338571D01*
X188404119Y-142862380D01*
X188404119Y-142338571D02*
X188451738Y-142243333D01*
X188546976Y-142195714D01*
X188689833Y-142195714D01*
X188785071Y-142243333D01*
X188832690Y-142338571D01*
X188832690Y-142862380D01*
X190023166Y-141814761D02*
X189166023Y-143100476D01*
X190546976Y-141862380D02*
X190737452Y-141862380D01*
X190832690Y-141910000D01*
X190927928Y-142005238D01*
X190975547Y-142195714D01*
X190975547Y-142529047D01*
X190927928Y-142719523D01*
X190832690Y-142814761D01*
X190737452Y-142862380D01*
X190546976Y-142862380D01*
X190451738Y-142814761D01*
X190356500Y-142719523D01*
X190308880Y-142529047D01*
X190308880Y-142195714D01*
X190356500Y-142005238D01*
X190451738Y-141910000D01*
X190546976Y-141862380D01*
X191404119Y-142195714D02*
X191404119Y-143195714D01*
X191404119Y-142243333D02*
X191499357Y-142195714D01*
X191689833Y-142195714D01*
X191785071Y-142243333D01*
X191832690Y-142290952D01*
X191880309Y-142386190D01*
X191880309Y-142671904D01*
X191832690Y-142767142D01*
X191785071Y-142814761D01*
X191689833Y-142862380D01*
X191499357Y-142862380D01*
X191404119Y-142814761D01*
X192689833Y-142814761D02*
X192594595Y-142862380D01*
X192404119Y-142862380D01*
X192308880Y-142814761D01*
X192261261Y-142719523D01*
X192261261Y-142338571D01*
X192308880Y-142243333D01*
X192404119Y-142195714D01*
X192594595Y-142195714D01*
X192689833Y-142243333D01*
X192737452Y-142338571D01*
X192737452Y-142433809D01*
X192261261Y-142529047D01*
X193166023Y-142195714D02*
X193166023Y-142862380D01*
X193166023Y-142290952D02*
X193213642Y-142243333D01*
X193308880Y-142195714D01*
X193451738Y-142195714D01*
X193546976Y-142243333D01*
X193594595Y-142338571D01*
X193594595Y-142862380D01*
X194070785Y-142862380D02*
X194070785Y-141862380D01*
X194070785Y-142338571D02*
X194642214Y-142338571D01*
X194642214Y-142862380D02*
X194642214Y-141862380D01*
X195118404Y-142862380D02*
X195118404Y-142195714D01*
X195118404Y-141862380D02*
X195070785Y-141910000D01*
X195118404Y-141957619D01*
X195166023Y-141910000D01*
X195118404Y-141862380D01*
X195118404Y-141957619D01*
X195546976Y-142814761D02*
X195642214Y-142862380D01*
X195832690Y-142862380D01*
X195927928Y-142814761D01*
X195975547Y-142719523D01*
X195975547Y-142671904D01*
X195927928Y-142576666D01*
X195832690Y-142529047D01*
X195689833Y-142529047D01*
X195594595Y-142481428D01*
X195546976Y-142386190D01*
X195546976Y-142338571D01*
X195594595Y-142243333D01*
X195689833Y-142195714D01*
X195832690Y-142195714D01*
X195927928Y-142243333D01*
X196404119Y-142862380D02*
X196404119Y-142195714D01*
X196404119Y-141862380D02*
X196356500Y-141910000D01*
X196404119Y-141957619D01*
X196451738Y-141910000D01*
X196404119Y-141862380D01*
X196404119Y-141957619D01*
X196880309Y-142862380D02*
X196880309Y-141862380D01*
X197356500Y-142195714D02*
X197356500Y-143195714D01*
X197356500Y-142243333D02*
X197451738Y-142195714D01*
X197642214Y-142195714D01*
X197737452Y-142243333D01*
X197785071Y-142290952D01*
X197832690Y-142386190D01*
X197832690Y-142671904D01*
X197785071Y-142767142D01*
X197737452Y-142814761D01*
X197642214Y-142862380D01*
X197451738Y-142862380D01*
X197356500Y-142814761D01*
X198832690Y-142767142D02*
X198785071Y-142814761D01*
X198642214Y-142862380D01*
X198546976Y-142862380D01*
X198404119Y-142814761D01*
X198308880Y-142719523D01*
X198261261Y-142624285D01*
X198213642Y-142433809D01*
X198213642Y-142290952D01*
X198261261Y-142100476D01*
X198308880Y-142005238D01*
X198404119Y-141910000D01*
X198546976Y-141862380D01*
X198642214Y-141862380D01*
X198785071Y-141910000D01*
X198832690Y-141957619D01*
X199689833Y-142862380D02*
X199689833Y-142338571D01*
X199642214Y-142243333D01*
X199546976Y-142195714D01*
X199356500Y-142195714D01*
X199261261Y-142243333D01*
X199689833Y-142814761D02*
X199594595Y-142862380D01*
X199356500Y-142862380D01*
X199261261Y-142814761D01*
X199213642Y-142719523D01*
X199213642Y-142624285D01*
X199261261Y-142529047D01*
X199356500Y-142481428D01*
X199594595Y-142481428D01*
X199689833Y-142433809D01*
X200166023Y-142862380D02*
X200166023Y-142195714D01*
X200166023Y-142290952D02*
X200213642Y-142243333D01*
X200308880Y-142195714D01*
X200451738Y-142195714D01*
X200546976Y-142243333D01*
X200594595Y-142338571D01*
X200594595Y-142862380D01*
X200594595Y-142338571D02*
X200642214Y-142243333D01*
X200737452Y-142195714D01*
X200880309Y-142195714D01*
X200975547Y-142243333D01*
X201023166Y-142338571D01*
X201023166Y-142862380D01*
X202213642Y-141814761D02*
X201356500Y-143100476D01*
X202975547Y-142814761D02*
X202880309Y-142862380D01*
X202689833Y-142862380D01*
X202594595Y-142814761D01*
X202546976Y-142767142D01*
X202499357Y-142671904D01*
X202499357Y-142386190D01*
X202546976Y-142290952D01*
X202594595Y-142243333D01*
X202689833Y-142195714D01*
X202880309Y-142195714D01*
X202975547Y-142243333D01*
X203832690Y-142862380D02*
X203832690Y-142338571D01*
X203785071Y-142243333D01*
X203689833Y-142195714D01*
X203499357Y-142195714D01*
X203404119Y-142243333D01*
X203832690Y-142814761D02*
X203737452Y-142862380D01*
X203499357Y-142862380D01*
X203404119Y-142814761D01*
X203356500Y-142719523D01*
X203356500Y-142624285D01*
X203404119Y-142529047D01*
X203499357Y-142481428D01*
X203737452Y-142481428D01*
X203832690Y-142433809D01*
X204308880Y-142862380D02*
X204308880Y-142195714D01*
X204308880Y-142290952D02*
X204356500Y-142243333D01*
X204451738Y-142195714D01*
X204594595Y-142195714D01*
X204689833Y-142243333D01*
X204737452Y-142338571D01*
X204737452Y-142862380D01*
X204737452Y-142338571D02*
X204785071Y-142243333D01*
X204880309Y-142195714D01*
X205023166Y-142195714D01*
X205118404Y-142243333D01*
X205166023Y-142338571D01*
X205166023Y-142862380D01*
X206023166Y-142814761D02*
X205927928Y-142862380D01*
X205737452Y-142862380D01*
X205642214Y-142814761D01*
X205594595Y-142719523D01*
X205594595Y-142338571D01*
X205642214Y-142243333D01*
X205737452Y-142195714D01*
X205927928Y-142195714D01*
X206023166Y-142243333D01*
X206070785Y-142338571D01*
X206070785Y-142433809D01*
X205594595Y-142529047D01*
X206499357Y-142862380D02*
X206499357Y-142195714D01*
X206499357Y-142386190D02*
X206546976Y-142290952D01*
X206594595Y-142243333D01*
X206689833Y-142195714D01*
X206785071Y-142195714D01*
X207546976Y-142862380D02*
X207546976Y-142338571D01*
X207499357Y-142243333D01*
X207404119Y-142195714D01*
X207213642Y-142195714D01*
X207118404Y-142243333D01*
X207546976Y-142814761D02*
X207451738Y-142862380D01*
X207213642Y-142862380D01*
X207118404Y-142814761D01*
X207070785Y-142719523D01*
X207070785Y-142624285D01*
X207118404Y-142529047D01*
X207213642Y-142481428D01*
X207451738Y-142481428D01*
X207546976Y-142433809D01*
X208023166Y-142481428D02*
X208785071Y-142481428D01*
X209689833Y-142862380D02*
X209689833Y-141862380D01*
X209689833Y-142814761D02*
X209594595Y-142862380D01*
X209404119Y-142862380D01*
X209308880Y-142814761D01*
X209261261Y-142767142D01*
X209213642Y-142671904D01*
X209213642Y-142386190D01*
X209261261Y-142290952D01*
X209308880Y-142243333D01*
X209404119Y-142195714D01*
X209594595Y-142195714D01*
X209689833Y-142243333D01*
X210546976Y-142814761D02*
X210451738Y-142862380D01*
X210261261Y-142862380D01*
X210166023Y-142814761D01*
X210118404Y-142719523D01*
X210118404Y-142338571D01*
X210166023Y-142243333D01*
X210261261Y-142195714D01*
X210451738Y-142195714D01*
X210546976Y-142243333D01*
X210594595Y-142338571D01*
X210594595Y-142433809D01*
X210118404Y-142529047D01*
X211023166Y-142862380D02*
X211023166Y-141862380D01*
X211023166Y-142243333D02*
X211118404Y-142195714D01*
X211308880Y-142195714D01*
X211404119Y-142243333D01*
X211451738Y-142290952D01*
X211499357Y-142386190D01*
X211499357Y-142671904D01*
X211451738Y-142767142D01*
X211404119Y-142814761D01*
X211308880Y-142862380D01*
X211118404Y-142862380D01*
X211023166Y-142814761D01*
X212356500Y-142195714D02*
X212356500Y-142862380D01*
X211927928Y-142195714D02*
X211927928Y-142719523D01*
X211975547Y-142814761D01*
X212070785Y-142862380D01*
X212213642Y-142862380D01*
X212308880Y-142814761D01*
X212356500Y-142767142D01*
X213261261Y-142195714D02*
X213261261Y-143005238D01*
X213213642Y-143100476D01*
X213166023Y-143148095D01*
X213070785Y-143195714D01*
X212927928Y-143195714D01*
X212832690Y-143148095D01*
X213261261Y-142814761D02*
X213166023Y-142862380D01*
X212975547Y-142862380D01*
X212880309Y-142814761D01*
X212832690Y-142767142D01*
X212785071Y-142671904D01*
X212785071Y-142386190D01*
X212832690Y-142290952D01*
X212880309Y-142243333D01*
X212975547Y-142195714D01*
X213166023Y-142195714D01*
X213261261Y-142243333D01*
X213737452Y-142481428D02*
X214499357Y-142481428D01*
X214832690Y-142195714D02*
X215213642Y-142195714D01*
X214975547Y-142862380D02*
X214975547Y-142005238D01*
X215023166Y-141910000D01*
X215118404Y-141862380D01*
X215213642Y-141862380D01*
X215975547Y-142862380D02*
X215975547Y-142338571D01*
X215927928Y-142243333D01*
X215832690Y-142195714D01*
X215642214Y-142195714D01*
X215546976Y-142243333D01*
X215975547Y-142814761D02*
X215880309Y-142862380D01*
X215642214Y-142862380D01*
X215546976Y-142814761D01*
X215499357Y-142719523D01*
X215499357Y-142624285D01*
X215546976Y-142529047D01*
X215642214Y-142481428D01*
X215880309Y-142481428D01*
X215975547Y-142433809D01*
X216880309Y-142814761D02*
X216785071Y-142862380D01*
X216594595Y-142862380D01*
X216499357Y-142814761D01*
X216451738Y-142767142D01*
X216404119Y-142671904D01*
X216404119Y-142386190D01*
X216451738Y-142290952D01*
X216499357Y-142243333D01*
X216594595Y-142195714D01*
X216785071Y-142195714D01*
X216880309Y-142243333D01*
X217308880Y-142862380D02*
X217308880Y-142195714D01*
X217308880Y-141862380D02*
X217261261Y-141910000D01*
X217308880Y-141957619D01*
X217356500Y-141910000D01*
X217308880Y-141862380D01*
X217308880Y-141957619D01*
X217927928Y-142862380D02*
X217832690Y-142814761D01*
X217785071Y-142719523D01*
X217785071Y-141862380D01*
X218308880Y-142862380D02*
X218308880Y-142195714D01*
X218308880Y-141862380D02*
X218261261Y-141910000D01*
X218308880Y-141957619D01*
X218356500Y-141910000D01*
X218308880Y-141862380D01*
X218308880Y-141957619D01*
X218642214Y-142195714D02*
X219023166Y-142195714D01*
X218785071Y-141862380D02*
X218785071Y-142719523D01*
X218832690Y-142814761D01*
X218927928Y-142862380D01*
X219023166Y-142862380D01*
X219261261Y-142195714D02*
X219499357Y-142862380D01*
X219737452Y-142195714D02*
X219499357Y-142862380D01*
X219404119Y-143100476D01*
X219356500Y-143148095D01*
X219261261Y-143195714D01*
X167594595Y-144472380D02*
X167594595Y-143472380D01*
X167832690Y-143472380D01*
X167975547Y-143520000D01*
X168070785Y-143615238D01*
X168118404Y-143710476D01*
X168166023Y-143900952D01*
X168166023Y-144043809D01*
X168118404Y-144234285D01*
X168070785Y-144329523D01*
X167975547Y-144424761D01*
X167832690Y-144472380D01*
X167594595Y-144472380D01*
X168737452Y-144472380D02*
X168642214Y-144424761D01*
X168594595Y-144377142D01*
X168546976Y-144281904D01*
X168546976Y-143996190D01*
X168594595Y-143900952D01*
X168642214Y-143853333D01*
X168737452Y-143805714D01*
X168880309Y-143805714D01*
X168975547Y-143853333D01*
X169023166Y-143900952D01*
X169070785Y-143996190D01*
X169070785Y-144281904D01*
X169023166Y-144377142D01*
X168975547Y-144424761D01*
X168880309Y-144472380D01*
X168737452Y-144472380D01*
X169927928Y-144424761D02*
X169832690Y-144472380D01*
X169642214Y-144472380D01*
X169546976Y-144424761D01*
X169499357Y-144377142D01*
X169451738Y-144281904D01*
X169451738Y-143996190D01*
X169499357Y-143900952D01*
X169546976Y-143853333D01*
X169642214Y-143805714D01*
X169832690Y-143805714D01*
X169927928Y-143853333D01*
X170785071Y-143805714D02*
X170785071Y-144472380D01*
X170356500Y-143805714D02*
X170356500Y-144329523D01*
X170404119Y-144424761D01*
X170499357Y-144472380D01*
X170642214Y-144472380D01*
X170737452Y-144424761D01*
X170785071Y-144377142D01*
X171261261Y-144472380D02*
X171261261Y-143805714D01*
X171261261Y-143900952D02*
X171308880Y-143853333D01*
X171404119Y-143805714D01*
X171546976Y-143805714D01*
X171642214Y-143853333D01*
X171689833Y-143948571D01*
X171689833Y-144472380D01*
X171689833Y-143948571D02*
X171737452Y-143853333D01*
X171832690Y-143805714D01*
X171975547Y-143805714D01*
X172070785Y-143853333D01*
X172118404Y-143948571D01*
X172118404Y-144472380D01*
X172975547Y-144424761D02*
X172880309Y-144472380D01*
X172689833Y-144472380D01*
X172594595Y-144424761D01*
X172546976Y-144329523D01*
X172546976Y-143948571D01*
X172594595Y-143853333D01*
X172689833Y-143805714D01*
X172880309Y-143805714D01*
X172975547Y-143853333D01*
X173023166Y-143948571D01*
X173023166Y-144043809D01*
X172546976Y-144139047D01*
X173451738Y-143805714D02*
X173451738Y-144472380D01*
X173451738Y-143900952D02*
X173499357Y-143853333D01*
X173594595Y-143805714D01*
X173737452Y-143805714D01*
X173832690Y-143853333D01*
X173880309Y-143948571D01*
X173880309Y-144472380D01*
X174213642Y-143805714D02*
X174594595Y-143805714D01*
X174356500Y-143472380D02*
X174356500Y-144329523D01*
X174404119Y-144424761D01*
X174499357Y-144472380D01*
X174594595Y-144472380D01*
X175356500Y-144472380D02*
X175356500Y-143948571D01*
X175308880Y-143853333D01*
X175213642Y-143805714D01*
X175023166Y-143805714D01*
X174927928Y-143853333D01*
X175356500Y-144424761D02*
X175261261Y-144472380D01*
X175023166Y-144472380D01*
X174927928Y-144424761D01*
X174880309Y-144329523D01*
X174880309Y-144234285D01*
X174927928Y-144139047D01*
X175023166Y-144091428D01*
X175261261Y-144091428D01*
X175356500Y-144043809D01*
X175689833Y-143805714D02*
X176070785Y-143805714D01*
X175832690Y-143472380D02*
X175832690Y-144329523D01*
X175880309Y-144424761D01*
X175975547Y-144472380D01*
X176070785Y-144472380D01*
X176404119Y-144472380D02*
X176404119Y-143805714D01*
X176404119Y-143472380D02*
X176356500Y-143520000D01*
X176404119Y-143567619D01*
X176451738Y-143520000D01*
X176404119Y-143472380D01*
X176404119Y-143567619D01*
X177023166Y-144472380D02*
X176927928Y-144424761D01*
X176880309Y-144377142D01*
X176832690Y-144281904D01*
X176832690Y-143996190D01*
X176880309Y-143900952D01*
X176927928Y-143853333D01*
X177023166Y-143805714D01*
X177166023Y-143805714D01*
X177261261Y-143853333D01*
X177308880Y-143900952D01*
X177356500Y-143996190D01*
X177356500Y-144281904D01*
X177308880Y-144377142D01*
X177261261Y-144424761D01*
X177166023Y-144472380D01*
X177023166Y-144472380D01*
X177785071Y-143805714D02*
X177785071Y-144472380D01*
X177785071Y-143900952D02*
X177832690Y-143853333D01*
X177927928Y-143805714D01*
X178070785Y-143805714D01*
X178166023Y-143853333D01*
X178213642Y-143948571D01*
X178213642Y-144472380D01*
X178689833Y-144377142D02*
X178737452Y-144424761D01*
X178689833Y-144472380D01*
X178642214Y-144424761D01*
X178689833Y-144377142D01*
X178689833Y-144472380D01*
X178689833Y-143853333D02*
X178737452Y-143900952D01*
X178689833Y-143948571D01*
X178642214Y-143900952D01*
X178689833Y-143853333D01*
X178689833Y-143948571D01*
X179927928Y-144472380D02*
X179927928Y-143472380D01*
X180356500Y-144472380D02*
X180356500Y-143948571D01*
X180308880Y-143853333D01*
X180213642Y-143805714D01*
X180070785Y-143805714D01*
X179975547Y-143853333D01*
X179927928Y-143900952D01*
X180689833Y-143805714D02*
X181070785Y-143805714D01*
X180832690Y-143472380D02*
X180832690Y-144329523D01*
X180880309Y-144424761D01*
X180975547Y-144472380D01*
X181070785Y-144472380D01*
X181261261Y-143805714D02*
X181642214Y-143805714D01*
X181404119Y-143472380D02*
X181404119Y-144329523D01*
X181451738Y-144424761D01*
X181546976Y-144472380D01*
X181642214Y-144472380D01*
X181975547Y-143805714D02*
X181975547Y-144805714D01*
X181975547Y-143853333D02*
X182070785Y-143805714D01*
X182261261Y-143805714D01*
X182356500Y-143853333D01*
X182404119Y-143900952D01*
X182451738Y-143996190D01*
X182451738Y-144281904D01*
X182404119Y-144377142D01*
X182356500Y-144424761D01*
X182261261Y-144472380D01*
X182070785Y-144472380D01*
X181975547Y-144424761D01*
X182832690Y-144424761D02*
X182927928Y-144472380D01*
X183118404Y-144472380D01*
X183213642Y-144424761D01*
X183261261Y-144329523D01*
X183261261Y-144281904D01*
X183213642Y-144186666D01*
X183118404Y-144139047D01*
X182975547Y-144139047D01*
X182880309Y-144091428D01*
X182832690Y-143996190D01*
X182832690Y-143948571D01*
X182880309Y-143853333D01*
X182975547Y-143805714D01*
X183118404Y-143805714D01*
X183213642Y-143853333D01*
X183689833Y-144377142D02*
X183737452Y-144424761D01*
X183689833Y-144472380D01*
X183642214Y-144424761D01*
X183689833Y-144377142D01*
X183689833Y-144472380D01*
X183689833Y-143853333D02*
X183737452Y-143900952D01*
X183689833Y-143948571D01*
X183642214Y-143900952D01*
X183689833Y-143853333D01*
X183689833Y-143948571D01*
X184880309Y-143424761D02*
X184023166Y-144710476D01*
X185927928Y-143424761D02*
X185070785Y-144710476D01*
X186166023Y-143805714D02*
X186356500Y-144472380D01*
X186546976Y-143996190D01*
X186737452Y-144472380D01*
X186927928Y-143805714D01*
X187213642Y-143805714D02*
X187404119Y-144472380D01*
X187594595Y-143996190D01*
X187785071Y-144472380D01*
X187975547Y-143805714D01*
X188261261Y-143805714D02*
X188451738Y-144472380D01*
X188642214Y-143996190D01*
X188832690Y-144472380D01*
X189023166Y-143805714D01*
X189404119Y-144377142D02*
X189451738Y-144424761D01*
X189404119Y-144472380D01*
X189356500Y-144424761D01*
X189404119Y-144377142D01*
X189404119Y-144472380D01*
X190023166Y-144472380D02*
X189927928Y-144424761D01*
X189880309Y-144377142D01*
X189832690Y-144281904D01*
X189832690Y-143996190D01*
X189880309Y-143900952D01*
X189927928Y-143853333D01*
X190023166Y-143805714D01*
X190166023Y-143805714D01*
X190261261Y-143853333D01*
X190308880Y-143900952D01*
X190356500Y-143996190D01*
X190356500Y-144281904D01*
X190308880Y-144377142D01*
X190261261Y-144424761D01*
X190166023Y-144472380D01*
X190023166Y-144472380D01*
X190785071Y-143805714D02*
X190785071Y-144805714D01*
X190785071Y-143853333D02*
X190880309Y-143805714D01*
X191070785Y-143805714D01*
X191166023Y-143853333D01*
X191213642Y-143900952D01*
X191261261Y-143996190D01*
X191261261Y-144281904D01*
X191213642Y-144377142D01*
X191166023Y-144424761D01*
X191070785Y-144472380D01*
X190880309Y-144472380D01*
X190785071Y-144424761D01*
X192070785Y-144424761D02*
X191975547Y-144472380D01*
X191785071Y-144472380D01*
X191689833Y-144424761D01*
X191642214Y-144329523D01*
X191642214Y-143948571D01*
X191689833Y-143853333D01*
X191785071Y-143805714D01*
X191975547Y-143805714D01*
X192070785Y-143853333D01*
X192118404Y-143948571D01*
X192118404Y-144043809D01*
X191642214Y-144139047D01*
X192546976Y-143805714D02*
X192546976Y-144472380D01*
X192546976Y-143900952D02*
X192594595Y-143853333D01*
X192689833Y-143805714D01*
X192832690Y-143805714D01*
X192927928Y-143853333D01*
X192975547Y-143948571D01*
X192975547Y-144472380D01*
X193451738Y-144472380D02*
X193451738Y-143472380D01*
X193880309Y-144472380D02*
X193880309Y-143948571D01*
X193832690Y-143853333D01*
X193737452Y-143805714D01*
X193594595Y-143805714D01*
X193499357Y-143853333D01*
X193451738Y-143900952D01*
X194356500Y-144472380D02*
X194356500Y-143805714D01*
X194356500Y-143472380D02*
X194308880Y-143520000D01*
X194356500Y-143567619D01*
X194404119Y-143520000D01*
X194356500Y-143472380D01*
X194356500Y-143567619D01*
X194785071Y-144424761D02*
X194880309Y-144472380D01*
X195070785Y-144472380D01*
X195166023Y-144424761D01*
X195213642Y-144329523D01*
X195213642Y-144281904D01*
X195166023Y-144186666D01*
X195070785Y-144139047D01*
X194927928Y-144139047D01*
X194832690Y-144091428D01*
X194785071Y-143996190D01*
X194785071Y-143948571D01*
X194832690Y-143853333D01*
X194927928Y-143805714D01*
X195070785Y-143805714D01*
X195166023Y-143853333D01*
X195642214Y-144472380D02*
X195642214Y-143805714D01*
X195642214Y-143472380D02*
X195594595Y-143520000D01*
X195642214Y-143567619D01*
X195689833Y-143520000D01*
X195642214Y-143472380D01*
X195642214Y-143567619D01*
X196118404Y-144472380D02*
X196118404Y-143805714D01*
X196118404Y-143472380D02*
X196070785Y-143520000D01*
X196118404Y-143567619D01*
X196166023Y-143520000D01*
X196118404Y-143472380D01*
X196118404Y-143567619D01*
X196594595Y-143805714D02*
X196594595Y-144805714D01*
X196594595Y-143853333D02*
X196689833Y-143805714D01*
X196880309Y-143805714D01*
X196975547Y-143853333D01*
X197023166Y-143900952D01*
X197070785Y-143996190D01*
X197070785Y-144281904D01*
X197023166Y-144377142D01*
X196975547Y-144424761D01*
X196880309Y-144472380D01*
X196689833Y-144472380D01*
X196594595Y-144424761D01*
X197927928Y-144424761D02*
X197832690Y-144472380D01*
X197642214Y-144472380D01*
X197546976Y-144424761D01*
X197499357Y-144377142D01*
X197451738Y-144281904D01*
X197451738Y-143996190D01*
X197499357Y-143900952D01*
X197546976Y-143853333D01*
X197642214Y-143805714D01*
X197832690Y-143805714D01*
X197927928Y-143853333D01*
X198785071Y-144472380D02*
X198785071Y-143948571D01*
X198737452Y-143853333D01*
X198642214Y-143805714D01*
X198451738Y-143805714D01*
X198356500Y-143853333D01*
X198785071Y-144424761D02*
X198689833Y-144472380D01*
X198451738Y-144472380D01*
X198356500Y-144424761D01*
X198308880Y-144329523D01*
X198308880Y-144234285D01*
X198356500Y-144139047D01*
X198451738Y-144091428D01*
X198689833Y-144091428D01*
X198785071Y-144043809D01*
X199261261Y-144472380D02*
X199261261Y-143805714D01*
X199261261Y-143900952D02*
X199308880Y-143853333D01*
X199404119Y-143805714D01*
X199546976Y-143805714D01*
X199642214Y-143853333D01*
X199689833Y-143948571D01*
X199689833Y-144472380D01*
X199689833Y-143948571D02*
X199737452Y-143853333D01*
X199832690Y-143805714D01*
X199975547Y-143805714D01*
X200070785Y-143853333D01*
X200118404Y-143948571D01*
X200118404Y-144472380D01*
X200594595Y-144377142D02*
X200642214Y-144424761D01*
X200594595Y-144472380D01*
X200546976Y-144424761D01*
X200594595Y-144377142D01*
X200594595Y-144472380D01*
X201213642Y-144472380D02*
X201118404Y-144424761D01*
X201070785Y-144377142D01*
X201023166Y-144281904D01*
X201023166Y-143996190D01*
X201070785Y-143900952D01*
X201118404Y-143853333D01*
X201213642Y-143805714D01*
X201356500Y-143805714D01*
X201451738Y-143853333D01*
X201499357Y-143900952D01*
X201546976Y-143996190D01*
X201546976Y-144281904D01*
X201499357Y-144377142D01*
X201451738Y-144424761D01*
X201356500Y-144472380D01*
X201213642Y-144472380D01*
X201975547Y-144472380D02*
X201975547Y-143805714D01*
X201975547Y-143996190D02*
X202023166Y-143900952D01*
X202070785Y-143853333D01*
X202166023Y-143805714D01*
X202261261Y-143805714D01*
X203023166Y-143805714D02*
X203023166Y-144615238D01*
X202975547Y-144710476D01*
X202927928Y-144758095D01*
X202832690Y-144805714D01*
X202689833Y-144805714D01*
X202594595Y-144758095D01*
X203023166Y-144424761D02*
X202927928Y-144472380D01*
X202737452Y-144472380D01*
X202642214Y-144424761D01*
X202594595Y-144377142D01*
X202546976Y-144281904D01*
X202546976Y-143996190D01*
X202594595Y-143900952D01*
X202642214Y-143853333D01*
X202737452Y-143805714D01*
X202927928Y-143805714D01*
X203023166Y-143853333D01*
X204213642Y-143424761D02*
X203356500Y-144710476D01*
X204975547Y-144424761D02*
X204880309Y-144472380D01*
X204689833Y-144472380D01*
X204594595Y-144424761D01*
X204546976Y-144377142D01*
X204499357Y-144281904D01*
X204499357Y-143996190D01*
X204546976Y-143900952D01*
X204594595Y-143853333D01*
X204689833Y-143805714D01*
X204880309Y-143805714D01*
X204975547Y-143853333D01*
X205832690Y-144472380D02*
X205832690Y-143948571D01*
X205785071Y-143853333D01*
X205689833Y-143805714D01*
X205499357Y-143805714D01*
X205404119Y-143853333D01*
X205832690Y-144424761D02*
X205737452Y-144472380D01*
X205499357Y-144472380D01*
X205404119Y-144424761D01*
X205356500Y-144329523D01*
X205356500Y-144234285D01*
X205404119Y-144139047D01*
X205499357Y-144091428D01*
X205737452Y-144091428D01*
X205832690Y-144043809D01*
X206308880Y-144472380D02*
X206308880Y-143805714D01*
X206308880Y-143900952D02*
X206356500Y-143853333D01*
X206451738Y-143805714D01*
X206594595Y-143805714D01*
X206689833Y-143853333D01*
X206737452Y-143948571D01*
X206737452Y-144472380D01*
X206737452Y-143948571D02*
X206785071Y-143853333D01*
X206880309Y-143805714D01*
X207023166Y-143805714D01*
X207118404Y-143853333D01*
X207166023Y-143948571D01*
X207166023Y-144472380D01*
X208023166Y-144424761D02*
X207927928Y-144472380D01*
X207737452Y-144472380D01*
X207642214Y-144424761D01*
X207594595Y-144329523D01*
X207594595Y-143948571D01*
X207642214Y-143853333D01*
X207737452Y-143805714D01*
X207927928Y-143805714D01*
X208023166Y-143853333D01*
X208070785Y-143948571D01*
X208070785Y-144043809D01*
X207594595Y-144139047D01*
X208499357Y-144472380D02*
X208499357Y-143805714D01*
X208499357Y-143996190D02*
X208546976Y-143900952D01*
X208594595Y-143853333D01*
X208689833Y-143805714D01*
X208785071Y-143805714D01*
X209546976Y-144472380D02*
X209546976Y-143948571D01*
X209499357Y-143853333D01*
X209404119Y-143805714D01*
X209213642Y-143805714D01*
X209118404Y-143853333D01*
X209546976Y-144424761D02*
X209451738Y-144472380D01*
X209213642Y-144472380D01*
X209118404Y-144424761D01*
X209070785Y-144329523D01*
X209070785Y-144234285D01*
X209118404Y-144139047D01*
X209213642Y-144091428D01*
X209451738Y-144091428D01*
X209546976Y-144043809D01*
X210023166Y-144091428D02*
X210785071Y-144091428D01*
X211689833Y-144472380D02*
X211689833Y-143472380D01*
X211689833Y-144424761D02*
X211594595Y-144472380D01*
X211404119Y-144472380D01*
X211308880Y-144424761D01*
X211261261Y-144377142D01*
X211213642Y-144281904D01*
X211213642Y-143996190D01*
X211261261Y-143900952D01*
X211308880Y-143853333D01*
X211404119Y-143805714D01*
X211594595Y-143805714D01*
X211689833Y-143853333D01*
X212546976Y-144424761D02*
X212451738Y-144472380D01*
X212261261Y-144472380D01*
X212166023Y-144424761D01*
X212118404Y-144329523D01*
X212118404Y-143948571D01*
X212166023Y-143853333D01*
X212261261Y-143805714D01*
X212451738Y-143805714D01*
X212546976Y-143853333D01*
X212594595Y-143948571D01*
X212594595Y-144043809D01*
X212118404Y-144139047D01*
X213023166Y-144472380D02*
X213023166Y-143472380D01*
X213023166Y-143853333D02*
X213118404Y-143805714D01*
X213308880Y-143805714D01*
X213404119Y-143853333D01*
X213451738Y-143900952D01*
X213499357Y-143996190D01*
X213499357Y-144281904D01*
X213451738Y-144377142D01*
X213404119Y-144424761D01*
X213308880Y-144472380D01*
X213118404Y-144472380D01*
X213023166Y-144424761D01*
X214356500Y-143805714D02*
X214356500Y-144472380D01*
X213927928Y-143805714D02*
X213927928Y-144329523D01*
X213975547Y-144424761D01*
X214070785Y-144472380D01*
X214213642Y-144472380D01*
X214308880Y-144424761D01*
X214356500Y-144377142D01*
X215261261Y-143805714D02*
X215261261Y-144615238D01*
X215213642Y-144710476D01*
X215166023Y-144758095D01*
X215070785Y-144805714D01*
X214927928Y-144805714D01*
X214832690Y-144758095D01*
X215261261Y-144424761D02*
X215166023Y-144472380D01*
X214975547Y-144472380D01*
X214880309Y-144424761D01*
X214832690Y-144377142D01*
X214785071Y-144281904D01*
X214785071Y-143996190D01*
X214832690Y-143900952D01*
X214880309Y-143853333D01*
X214975547Y-143805714D01*
X215166023Y-143805714D01*
X215261261Y-143853333D01*
X215737452Y-144091428D02*
X216499357Y-144091428D01*
X216832690Y-143805714D02*
X217213642Y-143805714D01*
X216975547Y-144472380D02*
X216975547Y-143615238D01*
X217023166Y-143520000D01*
X217118404Y-143472380D01*
X217213642Y-143472380D01*
X217975547Y-144472380D02*
X217975547Y-143948571D01*
X217927928Y-143853333D01*
X217832690Y-143805714D01*
X217642214Y-143805714D01*
X217546976Y-143853333D01*
X217975547Y-144424761D02*
X217880309Y-144472380D01*
X217642214Y-144472380D01*
X217546976Y-144424761D01*
X217499357Y-144329523D01*
X217499357Y-144234285D01*
X217546976Y-144139047D01*
X217642214Y-144091428D01*
X217880309Y-144091428D01*
X217975547Y-144043809D01*
X218880309Y-144424761D02*
X218785071Y-144472380D01*
X218594595Y-144472380D01*
X218499357Y-144424761D01*
X218451738Y-144377142D01*
X218404119Y-144281904D01*
X218404119Y-143996190D01*
X218451738Y-143900952D01*
X218499357Y-143853333D01*
X218594595Y-143805714D01*
X218785071Y-143805714D01*
X218880309Y-143853333D01*
X219308880Y-144472380D02*
X219308880Y-143805714D01*
X219308880Y-143472380D02*
X219261261Y-143520000D01*
X219308880Y-143567619D01*
X219356500Y-143520000D01*
X219308880Y-143472380D01*
X219308880Y-143567619D01*
X219927928Y-144472380D02*
X219832690Y-144424761D01*
X219785071Y-144329523D01*
X219785071Y-143472380D01*
X220308880Y-144472380D02*
X220308880Y-143805714D01*
X220308880Y-143472380D02*
X220261261Y-143520000D01*
X220308880Y-143567619D01*
X220356500Y-143520000D01*
X220308880Y-143472380D01*
X220308880Y-143567619D01*
X220642214Y-143805714D02*
X221023166Y-143805714D01*
X220785071Y-143472380D02*
X220785071Y-144329523D01*
X220832690Y-144424761D01*
X220927928Y-144472380D01*
X221023166Y-144472380D01*
X221261261Y-143805714D02*
X221499357Y-144472380D01*
X221737452Y-143805714D02*
X221499357Y-144472380D01*
X221404119Y-144710476D01*
X221356500Y-144758095D01*
X221261261Y-144805714D01*
%TO.C,J3*%
X153395666Y-130932380D02*
X153395666Y-131646666D01*
X153348047Y-131789523D01*
X153252809Y-131884761D01*
X153109952Y-131932380D01*
X153014714Y-131932380D01*
X153776619Y-130932380D02*
X154395666Y-130932380D01*
X154062333Y-131313333D01*
X154205190Y-131313333D01*
X154300428Y-131360952D01*
X154348047Y-131408571D01*
X154395666Y-131503809D01*
X154395666Y-131741904D01*
X154348047Y-131837142D01*
X154300428Y-131884761D01*
X154205190Y-131932380D01*
X153919476Y-131932380D01*
X153824238Y-131884761D01*
X153776619Y-131837142D01*
%TO.C,J7*%
X170296380Y-109553333D02*
X171010666Y-109553333D01*
X171153523Y-109600952D01*
X171248761Y-109696190D01*
X171296380Y-109839047D01*
X171296380Y-109934285D01*
X170296380Y-109172380D02*
X170296380Y-108505714D01*
X171296380Y-108934285D01*
%TO.C,SW2*%
X243534561Y-126688333D02*
X243582180Y-126545476D01*
X243582180Y-126307380D01*
X243534561Y-126212142D01*
X243486942Y-126164523D01*
X243391704Y-126116904D01*
X243296466Y-126116904D01*
X243201228Y-126164523D01*
X243153609Y-126212142D01*
X243105990Y-126307380D01*
X243058371Y-126497857D01*
X243010752Y-126593095D01*
X242963133Y-126640714D01*
X242867895Y-126688333D01*
X242772657Y-126688333D01*
X242677419Y-126640714D01*
X242629800Y-126593095D01*
X242582180Y-126497857D01*
X242582180Y-126259761D01*
X242629800Y-126116904D01*
X242582180Y-125783571D02*
X243582180Y-125545476D01*
X242867895Y-125355000D01*
X243582180Y-125164523D01*
X242582180Y-124926428D01*
X242677419Y-124593095D02*
X242629800Y-124545476D01*
X242582180Y-124450238D01*
X242582180Y-124212142D01*
X242629800Y-124116904D01*
X242677419Y-124069285D01*
X242772657Y-124021666D01*
X242867895Y-124021666D01*
X243010752Y-124069285D01*
X243582180Y-124640714D01*
X243582180Y-124021666D01*
D11*
%TO.C,D9*%
X163759000Y-95332500D02*
X165679000Y-95332500D01*
X163759000Y-92647500D02*
X163759000Y-95332500D01*
X165679000Y-95332500D02*
X165679000Y-92647500D01*
%TO.C,D10*%
X178655000Y-94417000D02*
X178655000Y-96337000D01*
X181340000Y-94417000D02*
X178655000Y-94417000D01*
X178655000Y-96337000D02*
X181340000Y-96337000D01*
%TO.C,D11*%
X178655000Y-89845000D02*
X178655000Y-91765000D01*
X178655000Y-91765000D02*
X181340000Y-91765000D01*
X181340000Y-89845000D02*
X178655000Y-89845000D01*
%TO.C,J3*%
X163279000Y-121980000D02*
X163279000Y-120930000D01*
X148379000Y-130330000D02*
X148379000Y-121130000D01*
X163079000Y-130330000D02*
X161179000Y-130330000D01*
X163079000Y-127630000D02*
X163079000Y-130330000D01*
X157179000Y-130330000D02*
X148379000Y-130330000D01*
X163079000Y-121130000D02*
X163079000Y-123730000D01*
X162229000Y-120930000D02*
X163279000Y-120930000D01*
X148379000Y-121130000D02*
X163079000Y-121130000D01*
%TO.C,J17*%
X241539000Y-42030000D02*
X241539000Y-50140000D01*
X227569000Y-41510000D02*
X227569000Y-42030000D01*
X241539000Y-56990000D02*
X228219000Y-56990000D01*
X228219000Y-56990000D02*
X228219000Y-53660000D01*
X241539000Y-42030000D02*
X242189000Y-42030000D01*
X239279000Y-57210000D02*
X237479000Y-57210000D01*
X228219000Y-50140000D02*
X228219000Y-42030000D01*
X241539000Y-56990000D02*
X241539000Y-53660000D01*
X242189000Y-41510000D02*
X227569000Y-41510000D01*
X242189000Y-42030000D02*
X242189000Y-41510000D01*
X227569000Y-42030000D02*
X228219000Y-42030000D01*
%TO.C,JP1*%
X183829000Y-130808000D02*
X183829000Y-131378000D01*
X183829000Y-128268000D02*
X183829000Y-131378000D01*
X181169000Y-123638000D02*
X183829000Y-123638000D01*
X183829000Y-123638000D02*
X183829000Y-126748000D01*
X181169000Y-123638000D02*
X181169000Y-124208000D01*
X181169000Y-131378000D02*
X183829000Y-131378000D01*
X181169000Y-125728000D02*
X181169000Y-129288000D01*
X181169000Y-124208000D02*
X179649000Y-124208000D01*
%TO.C,JP4*%
X171129000Y-90745000D02*
X171129000Y-93855000D01*
X168469000Y-90745000D02*
X168469000Y-91315000D01*
X168469000Y-95945000D02*
X171129000Y-95945000D01*
X168469000Y-92835000D02*
X168469000Y-95945000D01*
X171129000Y-95375000D02*
X171129000Y-95945000D01*
X168469000Y-90745000D02*
X171129000Y-90745000D01*
X168469000Y-91315000D02*
X166949000Y-91315000D01*
%TO.C,J5*%
X170374000Y-125220000D02*
X170374000Y-128330000D01*
X173034000Y-127760000D02*
X173034000Y-128330000D01*
X170374000Y-128330000D02*
X173034000Y-128330000D01*
X170374000Y-123700000D02*
X168854000Y-123700000D01*
X170374000Y-123130000D02*
X170374000Y-123700000D01*
X173034000Y-123130000D02*
X173034000Y-126240000D01*
X170374000Y-123130000D02*
X173034000Y-123130000D01*
%TO.C,JP5*%
X192599000Y-73720000D02*
X195259000Y-73720000D01*
X192599000Y-68520000D02*
X195259000Y-68520000D01*
X195259000Y-73150000D02*
X195259000Y-73720000D01*
X192599000Y-70610000D02*
X192599000Y-73720000D01*
X192599000Y-68520000D02*
X192599000Y-69090000D01*
X195259000Y-68520000D02*
X195259000Y-71630000D01*
X192599000Y-69090000D02*
X191079000Y-69090000D01*
%TO.C,JP8*%
X195259000Y-58360000D02*
X195259000Y-61470000D01*
X192599000Y-66100000D02*
X195259000Y-66100000D01*
X192599000Y-58360000D02*
X195259000Y-58360000D01*
X192599000Y-60450000D02*
X192599000Y-64010000D01*
X192599000Y-58360000D02*
X192599000Y-58930000D01*
X195259000Y-65530000D02*
X195259000Y-66100000D01*
X195259000Y-62990000D02*
X195259000Y-66100000D01*
X192599000Y-58930000D02*
X191079000Y-58930000D01*
%TO.C,D5*%
X189809000Y-55025000D02*
X189809000Y-52340000D01*
X187889000Y-52340000D02*
X187889000Y-55025000D01*
X187889000Y-55025000D02*
X189809000Y-55025000D01*
%TO.C,JP6*%
X192599000Y-51310000D02*
X191079000Y-51310000D01*
X192599000Y-50740000D02*
X195259000Y-50740000D01*
X192599000Y-55940000D02*
X195259000Y-55940000D01*
X195259000Y-55370000D02*
X195259000Y-55940000D01*
X192599000Y-50740000D02*
X192599000Y-51310000D01*
X192599000Y-52830000D02*
X192599000Y-55940000D01*
X195259000Y-50740000D02*
X195259000Y-53850000D01*
%TO.C,D8*%
X189809000Y-69435000D02*
X187889000Y-69435000D01*
X187889000Y-69435000D02*
X187889000Y-72120000D01*
X189809000Y-72120000D02*
X189809000Y-69435000D01*
%TO.C,D18*%
X170496500Y-80320000D02*
X167811500Y-80320000D01*
X167811500Y-80320000D02*
X167811500Y-82240000D01*
X167811500Y-82240000D02*
X170496500Y-82240000D01*
%TO.C,J1*%
X157125500Y-92915000D02*
X157125500Y-93365000D01*
X154725500Y-98515000D02*
X156575500Y-98515000D01*
X152175500Y-90715000D02*
X152425500Y-90715000D01*
X157125500Y-92915000D02*
X156675500Y-92915000D01*
X154725500Y-90715000D02*
X156575500Y-90715000D01*
X152175500Y-98515000D02*
X152425500Y-98515000D01*
X156575500Y-98515000D02*
X156575500Y-98065000D01*
X156575500Y-90715000D02*
X156575500Y-91165000D01*
%TO.C,J10*%
X204816400Y-67430000D02*
X215096400Y-67430000D01*
X212606400Y-67370000D02*
X212606400Y-57090000D01*
X215096400Y-67430000D02*
X215096400Y-57030000D01*
X208956400Y-57090000D02*
X207306400Y-57090000D01*
X212606400Y-57090000D02*
X210956400Y-57090000D01*
X215096400Y-57030000D02*
X204816400Y-57030000D01*
X207306400Y-57090000D02*
X207306400Y-67370000D01*
X207306400Y-67370000D02*
X212606400Y-67370000D01*
X204816400Y-57030000D02*
X204816400Y-67430000D01*
X208956400Y-57090000D02*
G75*
G03*
X210956400Y-57090000I1000000J0D01*
G01*
%TO.C,J6*%
X175525000Y-57210000D02*
X173725000Y-57210000D01*
X177785000Y-42030000D02*
X177785000Y-50140000D01*
X177785000Y-56990000D02*
X164465000Y-56990000D01*
X178435000Y-41510000D02*
X163815000Y-41510000D01*
X163815000Y-41510000D02*
X163815000Y-42030000D01*
X178435000Y-42030000D02*
X178435000Y-41510000D01*
X164465000Y-56990000D02*
X164465000Y-53660000D01*
X177785000Y-42030000D02*
X178435000Y-42030000D01*
X177785000Y-56990000D02*
X177785000Y-53660000D01*
X164465000Y-50140000D02*
X164465000Y-42030000D01*
X163815000Y-42030000D02*
X164465000Y-42030000D01*
%TO.C,JP3*%
X160865000Y-84503000D02*
X160865000Y-85073000D01*
X158205000Y-79873000D02*
X160865000Y-79873000D01*
X158205000Y-79873000D02*
X158205000Y-80443000D01*
X160865000Y-79873000D02*
X160865000Y-82983000D01*
X158205000Y-85073000D02*
X160865000Y-85073000D01*
X158205000Y-81963000D02*
X158205000Y-85073000D01*
X158205000Y-80443000D02*
X156685000Y-80443000D01*
%TO.C,J7*%
X148024000Y-117195000D02*
X148024000Y-101245000D01*
X166354000Y-101045000D02*
X164354000Y-101045000D01*
X160464000Y-117195000D02*
X148024000Y-117195000D01*
X169944000Y-117195000D02*
X163664000Y-117195000D01*
X148024000Y-101245000D02*
X160464000Y-101245000D01*
X163664000Y-101245000D02*
X169944000Y-101245000D01*
X169944000Y-101245000D02*
X169944000Y-117195000D01*
%TO.C,SW2*%
X241829800Y-128055000D02*
X241829800Y-123955000D01*
X230029800Y-128055000D02*
X230029800Y-123955000D01*
X240029800Y-122255000D02*
X240029800Y-122855000D01*
X241829800Y-123955000D02*
X230029800Y-123955000D01*
X232429800Y-136155000D02*
X230029800Y-136155000D01*
X241829800Y-132055000D02*
X241829800Y-136155000D01*
X235929800Y-129555000D02*
X235929800Y-130555000D01*
X239729800Y-122555000D02*
X240029800Y-122255000D01*
X230029800Y-136155000D02*
X230029800Y-132055000D01*
X237229800Y-136155000D02*
X234629800Y-136155000D01*
X236429800Y-130055000D02*
X235429800Y-130055000D01*
X240029800Y-122855000D02*
X239729800Y-122555000D01*
X241829800Y-136155000D02*
X239429800Y-136155000D01*
X238929800Y-130055000D02*
G75*
G03*
X238929800Y-130055000I-3000000J0D01*
G01*
%TO.C,J20*%
X238954000Y-85785000D02*
X241614000Y-85785000D01*
X238954000Y-80585000D02*
X241614000Y-80585000D01*
X238954000Y-80585000D02*
X238954000Y-81155000D01*
X241614000Y-85215000D02*
X241614000Y-85785000D01*
X238954000Y-82675000D02*
X238954000Y-85785000D01*
X238954000Y-81155000D02*
X237434000Y-81155000D01*
X241614000Y-80585000D02*
X241614000Y-83695000D01*
%TO.C,JP12*%
X241614000Y-60265000D02*
X241614000Y-63375000D01*
X238954000Y-60265000D02*
X241614000Y-60265000D01*
X238954000Y-60835000D02*
X237434000Y-60835000D01*
X238954000Y-62355000D02*
X238954000Y-65465000D01*
X241614000Y-64895000D02*
X241614000Y-65465000D01*
X238954000Y-60265000D02*
X238954000Y-60835000D01*
X238954000Y-65465000D02*
X241614000Y-65465000D01*
%TO.C,JP14*%
X241614000Y-70044000D02*
X241614000Y-73154000D01*
X238954000Y-75244000D02*
X241614000Y-75244000D01*
X238954000Y-70614000D02*
X237434000Y-70614000D01*
X238954000Y-72134000D02*
X238954000Y-75244000D01*
X241614000Y-74674000D02*
X241614000Y-75244000D01*
X238954000Y-70044000D02*
X241614000Y-70044000D01*
X238954000Y-70044000D02*
X238954000Y-70614000D01*
%TO.C,D13*%
X234244000Y-61865000D02*
X234244000Y-64550000D01*
X234244000Y-64550000D02*
X236164000Y-64550000D01*
X236164000Y-64550000D02*
X236164000Y-61865000D01*
%TO.C,D17*%
X236164000Y-74329000D02*
X236164000Y-71644000D01*
X234244000Y-71644000D02*
X234244000Y-74329000D01*
X234244000Y-74329000D02*
X236164000Y-74329000D01*
%TO.C,J15*%
X228025000Y-85596000D02*
X228025000Y-86166000D01*
X225365000Y-80516000D02*
X225365000Y-84076000D01*
X228025000Y-83056000D02*
X228025000Y-86166000D01*
X225365000Y-86166000D02*
X228025000Y-86166000D01*
X225365000Y-78426000D02*
X228025000Y-78426000D01*
X225365000Y-78996000D02*
X223845000Y-78996000D01*
X225365000Y-78426000D02*
X225365000Y-78996000D01*
X228025000Y-78426000D02*
X228025000Y-81536000D01*
%TO.C,JP11*%
X228279000Y-67250000D02*
X228279000Y-70360000D01*
X228279000Y-71880000D02*
X228279000Y-74990000D01*
X225619000Y-67250000D02*
X228279000Y-67250000D01*
X228279000Y-74420000D02*
X228279000Y-74990000D01*
X225619000Y-67250000D02*
X225619000Y-67820000D01*
X225619000Y-69340000D02*
X225619000Y-72900000D01*
X225619000Y-67820000D02*
X224099000Y-67820000D01*
X225619000Y-74990000D02*
X228279000Y-74990000D01*
%TO.C,D12*%
X227949000Y-61905000D02*
X225264000Y-61905000D01*
X225264000Y-61905000D02*
X225264000Y-63825000D01*
X225264000Y-63825000D02*
X227949000Y-63825000D01*
%TO.C,JP16*%
X174304000Y-64010000D02*
X174304000Y-62990000D01*
X174304000Y-61470000D02*
X174304000Y-60900000D01*
X175744000Y-68070000D02*
X174304000Y-68070000D01*
X169104000Y-66550000D02*
X169104000Y-65530000D01*
X169104000Y-61470000D02*
X169104000Y-60900000D01*
X169104000Y-68640000D02*
X169104000Y-68070000D01*
X169104000Y-64010000D02*
X169104000Y-62990000D01*
X174304000Y-60900000D02*
X169104000Y-60900000D01*
X174304000Y-66550000D02*
X174304000Y-65530000D01*
X174304000Y-68640000D02*
X174304000Y-68070000D01*
X174304000Y-68640000D02*
X169104000Y-68640000D01*
%TO.C,D1*%
X167811500Y-85415000D02*
X170496500Y-85415000D01*
X170496500Y-83495000D02*
X167811500Y-83495000D01*
X167811500Y-83495000D02*
X167811500Y-85415000D01*
%TO.C,SW1*%
X156330000Y-73768000D02*
X156330000Y-76368000D01*
X156330000Y-71838000D02*
X162790000Y-71838000D01*
X162790000Y-78298000D02*
X162790000Y-78268000D01*
X162790000Y-73768000D02*
X162790000Y-76368000D01*
X162790000Y-71838000D02*
X162790000Y-71868000D01*
X156330000Y-78298000D02*
X156330000Y-78268000D01*
X156330000Y-78298000D02*
X162790000Y-78298000D01*
X156330000Y-71868000D02*
X156330000Y-71838000D01*
%TO.C,J4*%
X173034000Y-78230000D02*
X173034000Y-78800000D01*
X173034000Y-71060000D02*
X173034000Y-74170000D01*
X170374000Y-73150000D02*
X170374000Y-76710000D01*
X173034000Y-75690000D02*
X173034000Y-78800000D01*
X170374000Y-71630000D02*
X168854000Y-71630000D01*
X170374000Y-71060000D02*
X173034000Y-71060000D01*
X170374000Y-78800000D02*
X173034000Y-78800000D01*
X170374000Y-71060000D02*
X170374000Y-71630000D01*
%TO.C,J13*%
X193869000Y-125220000D02*
X193869000Y-128330000D01*
X193869000Y-128330000D02*
X196529000Y-128330000D01*
X193869000Y-123700000D02*
X192349000Y-123700000D01*
X196529000Y-123130000D02*
X196529000Y-126240000D01*
X193869000Y-123130000D02*
X193869000Y-123700000D01*
X196529000Y-127760000D02*
X196529000Y-128330000D01*
X193869000Y-123130000D02*
X196529000Y-123130000D01*
%TO.C,D3*%
X191079000Y-127415000D02*
X191079000Y-124730000D01*
X189159000Y-127415000D02*
X191079000Y-127415000D01*
X189159000Y-124730000D02*
X189159000Y-127415000D01*
%TD*%
M02*
