G04*
G04 #@! TF.GenerationSoftware,Altium Limited,Altium Designer,19.1.6 (110)*
G04*
G04 Layer_Physical_Order=1*
G04 Layer_Color=255*
%FSLAX43Y43*%
%MOMM*%
G71*
G01*
G75*
G04:AMPARAMS|DCode=10|XSize=1.78mm|YSize=0.72mm|CornerRadius=0.18mm|HoleSize=0mm|Usage=FLASHONLY|Rotation=0.000|XOffset=0mm|YOffset=0mm|HoleType=Round|Shape=RoundedRectangle|*
%AMROUNDEDRECTD10*
21,1,1.780,0.360,0,0,0.0*
21,1,1.420,0.720,0,0,0.0*
1,1,0.360,0.710,-0.180*
1,1,0.360,-0.710,-0.180*
1,1,0.360,-0.710,0.180*
1,1,0.360,0.710,0.180*
%
%ADD10ROUNDEDRECTD10*%
%ADD12C,0.300*%
%ADD13C,0.600*%
D10*
X34544Y30302D02*
D03*
Y31572D02*
D03*
Y32842D02*
D03*
Y34112D02*
D03*
X27178Y30302D02*
D03*
Y31572D02*
D03*
Y32842D02*
D03*
Y34112D02*
D03*
D12*
Y30302D02*
X30277D01*
X31191D02*
X34544D01*
X31217Y31521D02*
X31242Y31547D01*
X34519D01*
X34544Y31572D01*
X27178D02*
X30277D01*
X30213Y32829D02*
X30226Y32817D01*
X27191Y32829D02*
X30213D01*
X27178Y32842D02*
X27191Y32829D01*
X31217Y32842D02*
X34544D01*
X31191Y34087D02*
X31204Y34099D01*
X34531D01*
X34544Y34112D01*
X27178D02*
X30226D01*
D13*
X30277Y30302D02*
D03*
X31191D02*
D03*
X31217Y31521D02*
D03*
X30277Y31572D02*
D03*
X30226Y32817D02*
D03*
X31217Y32842D02*
D03*
X31191Y34087D02*
D03*
X30226Y34112D02*
D03*
M02*
