G04*
G04 #@! TF.GenerationSoftware,Altium Limited,Altium Designer,19.1.6 (110)*
G04*
G04 Layer_Physical_Order=2*
G04 Layer_Color=16711680*
%FSLAX43Y43*%
%MOMM*%
G71*
G01*
G75*
%ADD12C,0.300*%
%ADD13C,0.600*%
%ADD14R,2.500X0.600*%
G04:AMPARAMS|DCode=15|XSize=0.6mm|YSize=2.5mm|CornerRadius=0.03mm|HoleSize=0mm|Usage=FLASHONLY|Rotation=270.000|XOffset=0mm|YOffset=0mm|HoleType=Round|Shape=RoundedRectangle|*
%AMROUNDEDRECTD15*
21,1,0.600,2.440,0,0,270.0*
21,1,0.540,2.500,0,0,270.0*
1,1,0.060,-1.220,-0.270*
1,1,0.060,-1.220,0.270*
1,1,0.060,1.220,0.270*
1,1,0.060,1.220,-0.270*
%
%ADD15ROUNDEDRECTD15*%
D12*
X30251Y30277D02*
X30277Y30302D01*
X28486Y30277D02*
X30251D01*
X31191Y30302D02*
X31204Y30289D01*
X32918D01*
X32931Y30277D01*
X31217Y31521D02*
X32906D01*
X32931Y31547D01*
X30264Y31559D02*
X30277Y31572D01*
X28499Y31559D02*
X30264D01*
X28486Y31547D02*
X28499Y31559D01*
X28486Y32817D02*
X30226D01*
X31217Y32842D02*
X31229Y32829D01*
X32918D01*
X32931Y32817D01*
X31191Y34087D02*
X32931D01*
X30213Y34099D02*
X30226Y34112D01*
X28499Y34099D02*
X30213D01*
X28486Y34087D02*
X28499Y34099D01*
D13*
X30277Y30302D02*
D03*
X31191D02*
D03*
X31217Y31521D02*
D03*
X30277Y31572D02*
D03*
X30226Y32817D02*
D03*
X31217Y32842D02*
D03*
X31191Y34087D02*
D03*
X30226Y34112D02*
D03*
D14*
X28486Y30277D02*
D03*
X32931D02*
D03*
X28486Y31547D02*
D03*
X32931D02*
D03*
X28486Y32817D02*
D03*
X32931D02*
D03*
X28486Y34087D02*
D03*
D15*
X32931D02*
D03*
M02*
