G04*
G04 #@! TF.GenerationSoftware,Altium Limited,Altium Designer,19.1.6 (110)*
G04*
G04 Layer_Color=65535*
%FSLAX43Y43*%
%MOMM*%
G71*
G01*
G75*
%ADD10C,0.100*%
G36*
X28972Y35203D02*
X28975Y35203D01*
X28984Y35200D01*
X28989Y35197D01*
X28993Y35193D01*
X29116Y35070D01*
X29117Y35069D01*
X29120Y35066D01*
X29124Y35061D01*
X29128Y35056D01*
X29128Y35054D01*
X29130Y35050D01*
X29132Y35044D01*
X29133Y35036D01*
Y35034D01*
X29131Y35029D01*
X29128Y35021D01*
X29125Y35017D01*
X29121Y35012D01*
X29120Y35011D01*
X29119Y35010D01*
X29116Y35008D01*
X29113Y35007D01*
X29103Y35004D01*
X29096Y35002D01*
X29090D01*
X28539D01*
X28538D01*
X28536D01*
X28532Y35003D01*
X28528D01*
X28518Y35007D01*
X28514Y35009D01*
X28509Y35013D01*
Y35014D01*
X28507Y35015D01*
X28506Y35018D01*
X28504Y35021D01*
X28501Y35031D01*
X28500Y35035D01*
X28499Y35042D01*
Y35044D01*
X28500Y35047D01*
Y35052D01*
X28503Y35061D01*
X28508Y35070D01*
X28509D01*
X28510Y35072D01*
X28513Y35074D01*
X28515Y35076D01*
X28520Y35078D01*
X28526Y35080D01*
X28531Y35081D01*
X28539Y35081D01*
X29006D01*
X28938Y35137D01*
Y35138D01*
X28936Y35139D01*
X28934Y35142D01*
X28932Y35145D01*
X28929Y35154D01*
X28928Y35159D01*
X28927Y35165D01*
Y35167D01*
X28928Y35170D01*
X28929Y35174D01*
X28931Y35182D01*
X28934Y35188D01*
X28938Y35192D01*
X28939Y35193D01*
X28940Y35194D01*
X28943Y35196D01*
X28946Y35198D01*
X28956Y35203D01*
X28961Y35203D01*
X28967Y35204D01*
X28968D01*
X28969D01*
X28972Y35203D01*
D02*
G37*
D10*
X27051Y35560D02*
X35306D01*
X27051Y27940D02*
Y35560D01*
Y27940D02*
X35306D01*
Y35560D01*
M02*
