G04*
G04 #@! TF.GenerationSoftware,Altium Limited,Altium Designer,19.1.6 (110)*
G04*
G04 Layer_Physical_Order=1*
G04 Layer_Color=255*
%FSLAX43Y43*%
%MOMM*%
G71*
G01*
G75*
%ADD11R,2.500X0.600*%
G04:AMPARAMS|DCode=12|XSize=0.6mm|YSize=2.5mm|CornerRadius=0.03mm|HoleSize=0mm|Usage=FLASHONLY|Rotation=270.000|XOffset=0mm|YOffset=0mm|HoleType=Round|Shape=RoundedRectangle|*
%AMROUNDEDRECTD12*
21,1,0.600,2.440,0,0,270.0*
21,1,0.540,2.500,0,0,270.0*
1,1,0.060,-1.220,-0.270*
1,1,0.060,-1.220,0.270*
1,1,0.060,1.220,0.270*
1,1,0.060,1.220,-0.270*
%
%ADD12ROUNDEDRECTD12*%
%ADD15C,0.381*%
%ADD16C,0.600*%
G36*
X35838Y33852D02*
X35711Y33839D01*
X35668Y34056D01*
X35535Y34255D01*
X35524Y34262D01*
X35523Y34269D01*
X35415Y34432D01*
X35202Y34644D01*
X35040Y34752D01*
X34951Y34770D01*
Y34890D01*
X31851D01*
Y34674D01*
X31724Y34636D01*
X31700Y34672D01*
X31502Y34804D01*
X31267Y34851D01*
X31033Y34804D01*
X30974Y34765D01*
X30436D01*
X30414Y34798D01*
X30305Y34871D01*
X30176Y34896D01*
X27736D01*
X27607Y34871D01*
X27498Y34798D01*
X27425Y34689D01*
X27400Y34560D01*
Y34020D01*
X27425Y33891D01*
X27498Y33782D01*
X27551Y33747D01*
X27512Y33620D01*
X27406D01*
Y33505D01*
X27291Y33482D01*
X27129Y33374D01*
X27033Y33278D01*
X26918Y33255D01*
X26720Y33122D01*
X26587Y32924D01*
X26541Y32690D01*
X26587Y32456D01*
X26720Y32257D01*
X26918Y32125D01*
X27153Y32078D01*
X27325Y32112D01*
X27452Y32027D01*
Y31877D01*
X28956D01*
Y31750D01*
X29083D01*
Y31196D01*
X30460D01*
Y31422D01*
X30587Y31460D01*
X30682Y31317D01*
X30881Y31185D01*
X31115Y31138D01*
X31349Y31185D01*
X31447Y31250D01*
X31761D01*
X31851Y31160D01*
X31851Y30728D01*
X31830Y30714D01*
X31658Y30747D01*
X31598Y30836D01*
X31400Y30969D01*
X31166Y31016D01*
X30932Y30969D01*
X30733Y30836D01*
X30601Y30638D01*
X30587Y30569D01*
X30460Y30582D01*
Y31034D01*
X29083D01*
Y30480D01*
Y29926D01*
X30460D01*
Y30226D01*
X30587Y30238D01*
X30601Y30170D01*
X30666Y30072D01*
Y29820D01*
X30704Y29628D01*
X30812Y29466D01*
X31422Y28856D01*
X31584Y28748D01*
X31775Y28710D01*
X31851D01*
Y28610D01*
X34951D01*
Y29534D01*
X35049Y29615D01*
X35179Y29589D01*
X35413Y29635D01*
X35612Y29768D01*
X35711Y29917D01*
X35838Y29879D01*
Y27662D01*
X26392D01*
Y35838D01*
X35838D01*
Y33852D01*
D02*
G37*
G36*
Y33792D02*
Y30523D01*
X35711Y30484D01*
X35612Y30633D01*
X35413Y30766D01*
X35298Y30789D01*
X35253Y30834D01*
X35091Y30942D01*
X34951Y30970D01*
X34951Y31115D01*
X34951Y31207D01*
Y32293D01*
X34951Y32385D01*
X34951Y32477D01*
Y33140D01*
X35049Y33221D01*
X35103Y33210D01*
X35337Y33257D01*
X35535Y33389D01*
X35668Y33588D01*
X35711Y33805D01*
X35838Y33792D01*
D02*
G37*
%LPC*%
G36*
X28829Y31623D02*
X27452D01*
Y31196D01*
X28829D01*
Y31623D01*
D02*
G37*
G36*
Y31034D02*
X27452D01*
Y30607D01*
X28829D01*
Y31034D01*
D02*
G37*
G36*
Y30353D02*
X27452D01*
Y29926D01*
X28829D01*
Y30353D01*
D02*
G37*
G36*
X30460Y29764D02*
X29083D01*
Y29337D01*
X30460D01*
Y29764D01*
D02*
G37*
G36*
X28829D02*
X27452D01*
Y29337D01*
X28829D01*
Y29764D01*
D02*
G37*
G36*
X30460Y29083D02*
X29083D01*
Y28656D01*
X30460D01*
Y29083D01*
D02*
G37*
G36*
X28829D02*
X27452D01*
Y28656D01*
X28829D01*
Y29083D01*
D02*
G37*
%LPD*%
D11*
X33401Y29210D02*
D03*
X28956D02*
D03*
X33401Y30480D02*
D03*
X28956D02*
D03*
X33401Y31750D02*
D03*
X28956D02*
D03*
X33401Y33020D02*
D03*
X28956D02*
D03*
X33401Y34290D02*
D03*
D12*
X28956D02*
D03*
D15*
X26924Y30480D02*
X28956D01*
X26924Y29972D02*
Y30480D01*
Y29591D02*
X27305Y29210D01*
X26924Y29591D02*
Y29972D01*
X27305Y29210D02*
X28956D01*
X34900Y30480D02*
X35179Y30201D01*
X33401Y30480D02*
X34900D01*
X34849Y34290D02*
X35061Y34078D01*
X33401Y34290D02*
X34849D01*
X27483Y33020D02*
X28956D01*
X27153Y32690D02*
X27483Y33020D01*
X31775Y29210D02*
X33401D01*
X31166Y29820D02*
X31775Y29210D01*
X31166Y29820D02*
Y30404D01*
X31242Y34265D02*
X31267Y34239D01*
X28981Y34265D02*
X31242D01*
X28956Y34290D02*
X28981Y34265D01*
X31217Y33020D02*
X33401D01*
X31115Y31750D02*
X33401D01*
D16*
X26924Y29972D02*
D03*
X32512Y28194D02*
D03*
X30734D02*
D03*
X28956D02*
D03*
X26924Y34290D02*
D03*
X27940Y35306D02*
D03*
X30226D02*
D03*
X31750D02*
D03*
X33274D02*
D03*
X27153Y32690D02*
D03*
X35103Y33822D02*
D03*
X35179Y30201D02*
D03*
X31166Y30404D02*
D03*
X31267Y34239D02*
D03*
X31217Y33020D02*
D03*
X31115Y31750D02*
D03*
M02*
