G04*
G04 #@! TF.GenerationSoftware,Altium Limited,Altium Designer,19.1.6 (110)*
G04*
G04 Layer_Color=32896*
%FSLAX43Y43*%
%MOMM*%
G71*
G01*
G75*
%ADD10C,0.100*%
G36*
X29077Y34643D02*
X29087Y34640D01*
X29091Y34638D01*
X29094Y34637D01*
X29095Y34636D01*
X29096Y34635D01*
X29099Y34630D01*
X29103Y34625D01*
X29106Y34618D01*
X29108Y34613D01*
Y34611D01*
X29107Y34603D01*
X29105Y34597D01*
X29103Y34593D01*
X29102Y34591D01*
X29098Y34586D01*
X29095Y34581D01*
X29092Y34577D01*
X29091Y34576D01*
X28968Y34453D01*
X28963Y34450D01*
X28959Y34447D01*
X28950Y34444D01*
X28947Y34443D01*
X28944Y34442D01*
X28942D01*
X28941D01*
X28936Y34443D01*
X28930Y34444D01*
X28921Y34449D01*
X28917Y34451D01*
X28914Y34453D01*
X28913Y34453D01*
X28913Y34454D01*
X28909Y34459D01*
X28906Y34465D01*
X28903Y34473D01*
X28902Y34477D01*
X28901Y34479D01*
Y34482D01*
X28902Y34488D01*
X28903Y34493D01*
X28907Y34502D01*
X28909Y34505D01*
X28911Y34508D01*
X28913Y34509D01*
Y34510D01*
X28981Y34565D01*
X28513D01*
X28506Y34566D01*
X28500Y34567D01*
X28495Y34569D01*
X28490Y34571D01*
X28487Y34573D01*
X28484Y34575D01*
X28484Y34576D01*
X28483D01*
X28477Y34586D01*
X28474Y34595D01*
Y34600D01*
X28473Y34602D01*
Y34605D01*
X28474Y34612D01*
X28475Y34616D01*
X28479Y34625D01*
X28481Y34629D01*
X28482Y34632D01*
X28484Y34633D01*
Y34634D01*
X28488Y34637D01*
X28493Y34640D01*
X28503Y34644D01*
X28507D01*
X28510Y34645D01*
X28512D01*
X28513D01*
X29064D01*
X29071D01*
X29077Y34643D01*
D02*
G37*
D10*
X27305Y28575D02*
X35560D01*
X27305D02*
Y34925D01*
X35560D01*
Y28575D02*
Y34925D01*
M02*
