G04*
G04 #@! TF.GenerationSoftware,Altium Limited,Altium Designer,19.1.6 (110)*
G04*
G04 Layer_Color=32896*
%FSLAX43Y43*%
%MOMM*%
G71*
G01*
G75*
%ADD10C,0.100*%
%ADD11C,0.254*%
G36*
X41341Y36978D02*
X41361Y36972D01*
X41369Y36969D01*
X41374Y36965D01*
X41376Y36963D01*
X41378Y36961D01*
X41386Y36952D01*
X41393Y36943D01*
X41399Y36928D01*
X41402Y36917D01*
Y36913D01*
X41400Y36898D01*
X41397Y36885D01*
X41393Y36878D01*
X41391Y36874D01*
X41384Y36863D01*
X41376Y36854D01*
X41371Y36846D01*
X41369Y36844D01*
X41123Y36598D01*
X41113Y36591D01*
X41104Y36585D01*
X41086Y36580D01*
X41080Y36578D01*
X41074Y36576D01*
X41071D01*
X41069D01*
X41058Y36578D01*
X41047Y36580D01*
X41028Y36589D01*
X41021Y36593D01*
X41015Y36596D01*
X41013Y36598D01*
X41012Y36600D01*
X41004Y36609D01*
X40999Y36620D01*
X40993Y36637D01*
X40991Y36645D01*
X40989Y36650D01*
Y36656D01*
X40991Y36667D01*
X40993Y36678D01*
X41000Y36695D01*
X41004Y36702D01*
X41008Y36707D01*
X41012Y36709D01*
Y36711D01*
X41149Y36822D01*
X40212D01*
X40197Y36824D01*
X40186Y36826D01*
X40175Y36830D01*
X40165Y36833D01*
X40160Y36837D01*
X40154Y36841D01*
X40152Y36844D01*
X40151D01*
X40139Y36863D01*
X40134Y36882D01*
Y36891D01*
X40132Y36896D01*
Y36902D01*
X40134Y36915D01*
X40136Y36924D01*
X40143Y36943D01*
X40147Y36950D01*
X40149Y36956D01*
X40152Y36957D01*
Y36959D01*
X40162Y36967D01*
X40171Y36972D01*
X40191Y36980D01*
X40199D01*
X40206Y36982D01*
X40210D01*
X40212D01*
X41315D01*
X41328D01*
X41341Y36978D01*
D02*
G37*
G36*
X31181D02*
X31201Y36972D01*
X31209Y36969D01*
X31214Y36965D01*
X31216Y36963D01*
X31218Y36961D01*
X31226Y36952D01*
X31233Y36943D01*
X31239Y36928D01*
X31242Y36917D01*
Y36913D01*
X31240Y36898D01*
X31237Y36885D01*
X31233Y36878D01*
X31231Y36874D01*
X31224Y36863D01*
X31216Y36854D01*
X31211Y36846D01*
X31209Y36844D01*
X30963Y36598D01*
X30953Y36591D01*
X30944Y36585D01*
X30926Y36580D01*
X30920Y36578D01*
X30914Y36576D01*
X30911D01*
X30909D01*
X30898Y36578D01*
X30887Y36580D01*
X30868Y36589D01*
X30861Y36593D01*
X30855Y36596D01*
X30853Y36598D01*
X30852Y36600D01*
X30844Y36609D01*
X30839Y36620D01*
X30833Y36637D01*
X30831Y36645D01*
X30829Y36650D01*
Y36656D01*
X30831Y36667D01*
X30833Y36678D01*
X30840Y36695D01*
X30844Y36702D01*
X30848Y36707D01*
X30852Y36709D01*
Y36711D01*
X30989Y36822D01*
X30052D01*
X30037Y36824D01*
X30026Y36826D01*
X30015Y36830D01*
X30005Y36833D01*
X30000Y36837D01*
X29994Y36841D01*
X29992Y36844D01*
X29991D01*
X29979Y36863D01*
X29974Y36882D01*
Y36891D01*
X29972Y36896D01*
Y36902D01*
X29974Y36915D01*
X29976Y36924D01*
X29983Y36943D01*
X29987Y36950D01*
X29989Y36956D01*
X29992Y36957D01*
Y36959D01*
X30002Y36967D01*
X30011Y36972D01*
X30031Y36980D01*
X30039D01*
X30046Y36982D01*
X30050D01*
X30052D01*
X31155D01*
X31168D01*
X31181Y36978D01*
D02*
G37*
D10*
X41834Y27864D02*
Y38176D01*
Y27864D02*
X44526D01*
Y38176D01*
X41834D02*
X44526D01*
X26594Y27864D02*
Y38176D01*
Y27864D02*
X29286D01*
Y38176D01*
X26594D02*
X29286D01*
D11*
X41148Y29972D02*
X39624Y30988D01*
X41148D02*
X39624Y29972D01*
X40894Y32511D02*
X41148Y32257D01*
Y31749D01*
X40894Y31496D01*
X40640D01*
X40386Y31749D01*
Y32257D01*
X40132Y32511D01*
X39878D01*
X39624Y32257D01*
Y31749D01*
X39878Y31496D01*
X39624Y34035D02*
Y33019D01*
X40640Y34035D01*
X40894D01*
X41148Y33781D01*
Y33273D01*
X40894Y33019D01*
X31496Y30480D02*
X29972Y31496D01*
X31496D02*
X29972Y30480D01*
X31242Y33019D02*
X31496Y32765D01*
Y32257D01*
X31242Y32004D01*
X30988D01*
X30734Y32257D01*
Y32765D01*
X30480Y33019D01*
X30226D01*
X29972Y32765D01*
Y32257D01*
X30226Y32004D01*
X29972Y33527D02*
Y34035D01*
Y33781D01*
X31496D01*
X31242Y33527D01*
M02*
