G04*
G04 #@! TF.GenerationSoftware,Altium Limited,Altium Designer,19.1.6 (110)*
G04*
G04 Layer_Color=32896*
%FSLAX43Y43*%
%MOMM*%
G71*
G01*
G75*
%ADD10C,0.100*%
G36*
X29052Y35253D02*
X29062Y35250D01*
X29066Y35248D01*
X29068Y35246D01*
X29069Y35245D01*
X29070Y35244D01*
X29074Y35240D01*
X29078Y35235D01*
X29080Y35228D01*
X29082Y35222D01*
Y35220D01*
X29081Y35213D01*
X29079Y35206D01*
X29078Y35203D01*
X29077Y35201D01*
X29073Y35195D01*
X29069Y35191D01*
X29067Y35187D01*
X29066Y35186D01*
X28943Y35063D01*
X28938Y35059D01*
X28933Y35057D01*
X28924Y35054D01*
X28921Y35053D01*
X28919Y35052D01*
X28917D01*
X28916D01*
X28910Y35053D01*
X28905Y35054D01*
X28895Y35058D01*
X28892Y35060D01*
X28889Y35062D01*
X28888Y35063D01*
X28887Y35064D01*
X28883Y35069D01*
X28881Y35074D01*
X28878Y35083D01*
X28877Y35086D01*
X28876Y35089D01*
Y35092D01*
X28877Y35097D01*
X28878Y35103D01*
X28882Y35111D01*
X28883Y35115D01*
X28885Y35118D01*
X28887Y35119D01*
Y35119D01*
X28956Y35175D01*
X28488D01*
X28480Y35176D01*
X28475Y35177D01*
X28469Y35179D01*
X28465Y35181D01*
X28462Y35182D01*
X28459Y35184D01*
X28458Y35186D01*
X28457D01*
X28452Y35195D01*
X28449Y35205D01*
Y35209D01*
X28448Y35212D01*
Y35215D01*
X28449Y35221D01*
X28450Y35226D01*
X28454Y35235D01*
X28455Y35239D01*
X28456Y35242D01*
X28458Y35242D01*
Y35243D01*
X28463Y35247D01*
X28467Y35250D01*
X28478Y35254D01*
X28481D01*
X28485Y35254D01*
X28487D01*
X28488D01*
X29039D01*
X29045D01*
X29052Y35253D01*
D02*
G37*
D10*
X35560Y27940D02*
Y35560D01*
X27305D02*
X35560D01*
X27305Y27940D02*
Y35560D01*
Y27940D02*
X35560D01*
M02*
