G04*
G04 #@! TF.GenerationSoftware,Altium Limited,Altium Designer,19.1.6 (110)*
G04*
G04 Layer_Physical_Order=1*
G04 Layer_Color=255*
%FSLAX43Y43*%
%MOMM*%
G71*
G01*
G75*
%ADD11R,2.500X0.600*%
G04:AMPARAMS|DCode=12|XSize=0.6mm|YSize=2.5mm|CornerRadius=0.03mm|HoleSize=0mm|Usage=FLASHONLY|Rotation=270.000|XOffset=0mm|YOffset=0mm|HoleType=Round|Shape=RoundedRectangle|*
%AMROUNDEDRECTD12*
21,1,0.600,2.440,0,0,270.0*
21,1,0.540,2.500,0,0,270.0*
1,1,0.060,-1.220,-0.270*
1,1,0.060,-1.220,0.270*
1,1,0.060,1.220,0.270*
1,1,0.060,1.220,-0.270*
%
%ADD12ROUNDEDRECTD12*%
%ADD15C,0.300*%
%ADD16C,0.600*%
G36*
X35940Y33971D02*
X35823Y33922D01*
X35203Y34542D01*
X35087Y34620D01*
X34950Y34647D01*
X34851D01*
Y34790D01*
X31951D01*
Y33790D01*
X34851D01*
Y33790D01*
X34918Y33818D01*
X35095Y33641D01*
X35031Y33526D01*
X34978Y33515D01*
X34851Y33520D01*
X34851Y33520D01*
X34851Y33520D01*
X31951D01*
Y33096D01*
X31834Y33047D01*
X31650Y33231D01*
Y33985D01*
X31622Y34122D01*
X31545Y34238D01*
X31497Y34286D01*
X31498Y34290D01*
X31459Y34485D01*
X31348Y34650D01*
X31183Y34761D01*
X30988Y34800D01*
X30793Y34761D01*
X30628Y34650D01*
X30538Y34516D01*
X30411Y34551D01*
Y34560D01*
X30393Y34650D01*
X30342Y34726D01*
X30266Y34777D01*
X30176Y34794D01*
X27736D01*
X27646Y34777D01*
X27570Y34726D01*
X27519Y34650D01*
X27519Y34647D01*
X27211D01*
X27075Y34620D01*
X26959Y34542D01*
X26407Y33990D01*
X26290Y34039D01*
Y35940D01*
X35940D01*
Y33971D01*
D02*
G37*
G36*
X30628Y33930D02*
X30793Y33819D01*
X30936Y33791D01*
Y33248D01*
X30809Y33196D01*
X30732Y33272D01*
X30617Y33350D01*
X30480Y33377D01*
X30406D01*
Y33520D01*
X27506D01*
Y32520D01*
X30406D01*
X30504Y32450D01*
Y32360D01*
X30519Y32283D01*
X30396Y32250D01*
X30299Y32250D01*
X29056D01*
Y31850D01*
X30406D01*
Y32119D01*
X30429Y32138D01*
X30533Y32174D01*
X30580Y32131D01*
X30619Y31936D01*
X30729Y31771D01*
X30895Y31660D01*
X31036Y31632D01*
Y31502D01*
X30945Y31484D01*
X30780Y31374D01*
X30669Y31208D01*
X30631Y31013D01*
X30669Y30818D01*
X30780Y30653D01*
X30945Y30542D01*
X31140Y30504D01*
X31145Y30504D01*
X31421Y30228D01*
X31537Y30150D01*
X31674Y30123D01*
X31951D01*
Y29980D01*
X34851D01*
Y30980D01*
X31951D01*
Y30837D01*
X31822D01*
X31649Y31009D01*
X31650Y31013D01*
X31611Y31208D01*
X31501Y31374D01*
X31335Y31484D01*
X31194Y31513D01*
Y31642D01*
X31285Y31660D01*
X31386Y31728D01*
X31495Y31747D01*
X31563Y31711D01*
X31777Y31498D01*
X31893Y31420D01*
X31951Y31409D01*
Y31250D01*
X34851D01*
Y32250D01*
X32132D01*
Y32520D01*
X34851D01*
X34851Y32520D01*
Y32520D01*
X34978Y32525D01*
X35052Y32510D01*
X35247Y32549D01*
X35311Y32592D01*
X35438Y32524D01*
Y32387D01*
X35308Y32256D01*
X35230Y32141D01*
X35203Y32004D01*
Y31859D01*
X35200Y31856D01*
X35089Y31691D01*
X35050Y31496D01*
X35089Y31301D01*
X35200Y31136D01*
X35365Y31025D01*
X35560Y30986D01*
X35755Y31025D01*
X35813Y31064D01*
X35940Y30996D01*
Y27560D01*
X26290D01*
Y28716D01*
X26407Y28765D01*
X27027Y28145D01*
X27143Y28068D01*
X27280Y28040D01*
X31971D01*
X31974Y28037D01*
X32139Y27926D01*
X32334Y27887D01*
X32529Y27926D01*
X32695Y28037D01*
X32805Y28202D01*
X32844Y28397D01*
X32807Y28583D01*
X32809Y28612D01*
X32861Y28710D01*
X34851D01*
Y29710D01*
X31951D01*
Y29567D01*
X31351D01*
X31348Y29570D01*
X31183Y29681D01*
X30988Y29720D01*
X30793Y29681D01*
X30628Y29570D01*
X30533Y29429D01*
X30413Y29447D01*
X30406Y29450D01*
Y29710D01*
X29056D01*
Y29210D01*
X28956D01*
Y29110D01*
X27506D01*
Y28855D01*
X27379Y28802D01*
X26796Y29385D01*
Y33370D01*
X27359Y33933D01*
X27519D01*
X27519Y33930D01*
X27570Y33854D01*
X27646Y33803D01*
X27736Y33785D01*
X30176D01*
X30266Y33803D01*
X30342Y33854D01*
X30393Y33930D01*
X30411Y34020D01*
Y34029D01*
X30538Y34064D01*
X30628Y33930D01*
D02*
G37*
%LPC*%
G36*
X28856Y32250D02*
X27506D01*
Y31850D01*
X28856D01*
Y32250D01*
D02*
G37*
G36*
X30406Y31650D02*
X29056D01*
Y31250D01*
X30406D01*
Y31650D01*
D02*
G37*
G36*
X28856D02*
X27506D01*
Y31250D01*
X28856D01*
Y31650D01*
D02*
G37*
G36*
X30406Y30980D02*
X29056D01*
Y30580D01*
X30406D01*
Y30980D01*
D02*
G37*
G36*
X28856D02*
X27506D01*
Y30580D01*
X28856D01*
Y30980D01*
D02*
G37*
G36*
X30406Y30380D02*
X29056D01*
Y29980D01*
X30406D01*
Y30380D01*
D02*
G37*
G36*
X28856D02*
X27506D01*
Y29980D01*
X28856D01*
Y30380D01*
D02*
G37*
G36*
Y29710D02*
X27506D01*
Y29310D01*
X28856D01*
Y29710D01*
D02*
G37*
%LPD*%
D11*
X33401Y29210D02*
D03*
X28956D02*
D03*
X33401Y30480D02*
D03*
X28956D02*
D03*
X33401Y31750D02*
D03*
X28956D02*
D03*
X33401Y33020D02*
D03*
X28956D02*
D03*
X33401Y34290D02*
D03*
D12*
X28956D02*
D03*
D15*
X35795Y32239D02*
Y33445D01*
X35560Y32004D02*
X35795Y32239D01*
X35560Y31496D02*
Y32004D01*
X27127Y29566D02*
Y30480D01*
Y29566D02*
X27483Y29210D01*
X27127Y30480D02*
Y31600D01*
X27278Y31750D01*
X34950Y34290D02*
X35795Y33445D01*
X33401Y33020D02*
X35052D01*
X27278Y31750D02*
X28956D01*
X27127Y30480D02*
X28956D01*
X27483Y29210D02*
X28956D01*
X27280Y28397D02*
X32334D01*
X26440Y29237D02*
X27280Y28397D01*
X26440Y29237D02*
Y33518D01*
X27211Y34290D01*
X28956D01*
X33401D02*
X34950D01*
X32029Y31750D02*
X33401D01*
X31775Y32004D02*
X32029Y31750D01*
X31775Y32004D02*
Y32601D01*
X31293Y33083D02*
X31775Y32601D01*
X31293Y33083D02*
Y33985D01*
X30988Y34290D02*
X31293Y33985D01*
X31674Y30480D02*
X33401D01*
X31140Y31013D02*
X31674Y30480D01*
X30861Y32360D02*
X31090Y32131D01*
X30861Y32360D02*
Y32639D01*
X30480Y33020D02*
X30861Y32639D01*
X30988Y29210D02*
X33401D01*
X28956Y33020D02*
X30480D01*
D16*
X27127Y30480D02*
D03*
X33528Y27940D02*
D03*
X35306D02*
D03*
Y29718D02*
D03*
X35560Y31496D02*
D03*
X35052Y33020D02*
D03*
X27178Y35560D02*
D03*
X29464D02*
D03*
X31496D02*
D03*
X33528D02*
D03*
X27178Y33020D02*
D03*
X35306Y35560D02*
D03*
X32334Y28397D02*
D03*
X31140Y31013D02*
D03*
X31090Y32131D02*
D03*
X30988Y29210D02*
D03*
Y34290D02*
D03*
M02*
