G04*
G04 #@! TF.GenerationSoftware,Altium Limited,Altium Designer,19.1.6 (110)*
G04*
G04 Layer_Physical_Order=2*
G04 Layer_Color=16711680*
%FSLAX43Y43*%
%MOMM*%
G71*
G01*
G75*
%ADD11R,2.500X0.600*%
G04:AMPARAMS|DCode=12|XSize=0.6mm|YSize=2.5mm|CornerRadius=0.03mm|HoleSize=0mm|Usage=FLASHONLY|Rotation=270.000|XOffset=0mm|YOffset=0mm|HoleType=Round|Shape=RoundedRectangle|*
%AMROUNDEDRECTD12*
21,1,0.600,2.440,0,0,270.0*
21,1,0.540,2.500,0,0,270.0*
1,1,0.060,-1.220,-0.270*
1,1,0.060,-1.220,0.270*
1,1,0.060,1.220,0.270*
1,1,0.060,1.220,-0.270*
%
%ADD12ROUNDEDRECTD12*%
%ADD15C,0.300*%
%ADD16C,0.600*%
G36*
X35940Y31996D02*
X35813Y31928D01*
X35755Y31967D01*
X35560Y32006D01*
X35365Y31967D01*
X35200Y31856D01*
X35089Y31691D01*
X35050Y31496D01*
X35089Y31301D01*
X35146Y31216D01*
Y31078D01*
X34904Y30837D01*
X34470D01*
Y30980D01*
X31678D01*
X31650Y31013D01*
X31628Y31123D01*
X31725Y31250D01*
X34470D01*
Y32250D01*
X31576D01*
X31561Y32326D01*
X31495Y32424D01*
X31576Y32511D01*
X31627Y32520D01*
X31688Y32520D01*
X34470D01*
Y32663D01*
X34689D01*
X34692Y32660D01*
X34857Y32549D01*
X35052Y32510D01*
X35247Y32549D01*
X35412Y32660D01*
X35523Y32825D01*
X35562Y33020D01*
X35523Y33215D01*
X35412Y33380D01*
X35247Y33491D01*
X35052Y33530D01*
X34857Y33491D01*
X34692Y33380D01*
X34689Y33377D01*
X34470D01*
Y33520D01*
X31570D01*
Y32643D01*
X31570Y32541D01*
X31512Y32504D01*
X31468Y32494D01*
X31450Y32491D01*
X31410Y32519D01*
X31285Y32602D01*
X31090Y32641D01*
X30895Y32602D01*
X30787Y32530D01*
X30660Y32598D01*
X30660Y32619D01*
X30660Y32619D01*
X30660Y32620D01*
Y32920D01*
X29310D01*
Y32520D01*
X30565Y32520D01*
X30572D01*
D01*
X30595Y32520D01*
X30620Y32475D01*
X30665Y32395D01*
X30619Y32326D01*
X30603Y32250D01*
X27760D01*
Y31250D01*
X30480D01*
X30623Y31107D01*
X30593Y30980D01*
X29310D01*
Y30580D01*
X30660D01*
Y30604D01*
X30748Y30640D01*
X30787Y30648D01*
X30945Y30542D01*
X31140Y30504D01*
X31335Y30542D01*
X31443Y30614D01*
X31570Y30546D01*
Y29980D01*
X34470D01*
Y30123D01*
X35052D01*
X35189Y30150D01*
X35304Y30228D01*
X35755Y30678D01*
X35813Y30765D01*
X35940Y30735D01*
Y27560D01*
X26290D01*
Y35940D01*
X35940D01*
Y31996D01*
D02*
G37*
%LPC*%
G36*
X30988Y34800D02*
X30793Y34761D01*
X30707Y34704D01*
X30596Y34726D01*
X30520Y34777D01*
X30430Y34794D01*
X27990D01*
X27900Y34777D01*
X27824Y34726D01*
X27773Y34650D01*
X27755Y34560D01*
Y34020D01*
X27773Y33930D01*
X27824Y33854D01*
X27900Y33803D01*
X27990Y33785D01*
X30430D01*
X30520Y33803D01*
X30596Y33854D01*
X30707Y33876D01*
X30793Y33819D01*
X30988Y33780D01*
X31183Y33819D01*
X31348Y33930D01*
X31443Y34071D01*
X31563Y34053D01*
X31570Y34050D01*
Y33790D01*
X32920D01*
Y34290D01*
Y34790D01*
X31570D01*
Y34530D01*
X31563Y34527D01*
X31443Y34509D01*
X31348Y34650D01*
X31183Y34761D01*
X30988Y34800D01*
D02*
G37*
G36*
X34470Y34790D02*
X33120D01*
Y34390D01*
X34470D01*
Y34790D01*
D02*
G37*
G36*
Y34190D02*
X33120D01*
Y33790D01*
X34470D01*
Y34190D01*
D02*
G37*
G36*
X30660Y33520D02*
X29310D01*
Y33120D01*
X30660D01*
Y33520D01*
D02*
G37*
G36*
X29110D02*
X27760D01*
Y33120D01*
X29110D01*
Y33520D01*
D02*
G37*
G36*
Y32920D02*
X27760D01*
Y32520D01*
X29110D01*
Y32920D01*
D02*
G37*
G36*
Y30980D02*
X27760D01*
Y30580D01*
X29110D01*
Y30980D01*
D02*
G37*
G36*
X30660Y30380D02*
X29310D01*
Y29980D01*
X30660D01*
Y30380D01*
D02*
G37*
G36*
X29110D02*
X27760D01*
Y29980D01*
X29110D01*
Y30380D01*
D02*
G37*
G36*
X30988Y29720D02*
X30793Y29681D01*
X30758Y29658D01*
X30660Y29710D01*
Y29710D01*
X27760D01*
Y28710D01*
X30660D01*
Y28710D01*
X30758Y28762D01*
X30793Y28739D01*
X30988Y28700D01*
X31183Y28739D01*
X31348Y28850D01*
X31443Y28991D01*
X31563Y28973D01*
X31570Y28970D01*
Y28710D01*
X31807D01*
X31860Y28612D01*
X31861Y28583D01*
X31824Y28397D01*
X31863Y28202D01*
X31974Y28037D01*
X32139Y27926D01*
X32334Y27887D01*
X32529Y27926D01*
X32695Y28037D01*
X32805Y28202D01*
X32844Y28397D01*
X32807Y28583D01*
X32809Y28612D01*
X32861Y28710D01*
X34470D01*
Y29710D01*
X31570D01*
Y29450D01*
X31563Y29447D01*
X31443Y29429D01*
X31348Y29570D01*
X31183Y29681D01*
X30988Y29720D01*
D02*
G37*
%LPD*%
D11*
X33020Y29210D02*
D03*
X29210D02*
D03*
X33020Y34290D02*
D03*
X29210Y33020D02*
D03*
X33020D02*
D03*
X29210Y31750D02*
D03*
X33020D02*
D03*
X29210Y30480D02*
D03*
X33020D02*
D03*
D12*
X29210Y34290D02*
D03*
D15*
X27448Y33020D02*
X29210D01*
X27127Y32699D02*
X27448Y33020D01*
X27127Y30480D02*
Y32699D01*
X35052Y30480D02*
X35503Y30931D01*
Y31439D01*
X35560Y31496D01*
X33020Y30480D02*
X35052D01*
X33020Y33020D02*
X35052D01*
X27127Y30480D02*
X29210D01*
X32334Y29009D02*
X32535Y29210D01*
X32334Y28397D02*
Y29009D01*
X32535Y29210D02*
X33020D01*
X30510Y31725D02*
X31140Y31095D01*
X29235Y31725D02*
X30510D01*
X31140Y31013D02*
Y31095D01*
X29210Y31750D02*
X29235Y31725D01*
X31471Y31750D02*
X33020D01*
X31090Y32131D02*
X31471Y31750D01*
X29210Y29210D02*
X30988D01*
X29210Y34290D02*
X30988D01*
D16*
X27127Y30480D02*
D03*
X33528Y27940D02*
D03*
X35306D02*
D03*
Y29718D02*
D03*
X35560Y31496D02*
D03*
X35052Y33020D02*
D03*
X27178Y35560D02*
D03*
X29464D02*
D03*
X31496D02*
D03*
X33528D02*
D03*
X27178Y33020D02*
D03*
X35306Y35560D02*
D03*
X32334Y28397D02*
D03*
X31140Y31013D02*
D03*
X31090Y32131D02*
D03*
X30988Y29210D02*
D03*
Y34290D02*
D03*
M02*
