M48
;Layer_Color=9474304
;FILE_FORMAT=4:3
METRIC,LZ
;TYPE=PLATED
T1F00S00C0.300
T2F00S00C1.000
%
T01
X003048Y003048
X003175
X003302
X003429
X003048Y003175
X002921
Y003429
Y003683
X003048Y00381
X003175
X003302
X003429
X004064Y003556
X0040132Y003429
X004191
X004064Y003302
T02
X002794Y003048
Y003302
Y003556
Y00381
X004318
Y003556
Y003302
Y003048
M30
