G04*
G04 #@! TF.GenerationSoftware,Altium Limited,Altium Designer,19.1.6 (110)*
G04*
G04 Layer_Physical_Order=2*
G04 Layer_Color=16711680*
%FSLAX43Y43*%
%MOMM*%
G71*
G01*
G75*
%ADD18C,0.381*%
%ADD19O,1.800X1.600*%
G04:AMPARAMS|DCode=20|XSize=1.6mm|YSize=1.8mm|CornerRadius=0.08mm|HoleSize=0mm|Usage=FLASHONLY|Rotation=270.000|XOffset=0mm|YOffset=0mm|HoleType=Round|Shape=RoundedRectangle|*
%AMROUNDEDRECTD20*
21,1,1.600,1.640,0,0,270.0*
21,1,1.440,1.800,0,0,270.0*
1,1,0.160,-0.820,-0.720*
1,1,0.160,-0.820,0.720*
1,1,0.160,0.820,0.720*
1,1,0.160,0.820,-0.720*
%
%ADD20ROUNDEDRECTD20*%
%ADD21C,0.600*%
G36*
X44450Y39059D02*
X44323Y39021D01*
X44274Y39094D01*
X44148Y39178D01*
X44000Y39207D01*
X42360D01*
X42212Y39178D01*
X42086Y39094D01*
X42002Y38968D01*
X41973Y38820D01*
Y37380D01*
X42002Y37232D01*
X42086Y37106D01*
X42212Y37022D01*
X42360Y36993D01*
X44000D01*
X44148Y37022D01*
X44274Y37106D01*
X44323Y37179D01*
X44450Y37141D01*
Y35942D01*
X44323Y35916D01*
X44241Y36115D01*
X44065Y36345D01*
X43835Y36521D01*
X43567Y36632D01*
X43280Y36669D01*
X43080D01*
X42793Y36632D01*
X42525Y36521D01*
X42295Y36345D01*
X42119Y36115D01*
X42008Y35847D01*
X41971Y35560D01*
X42008Y35273D01*
X42119Y35005D01*
X42295Y34775D01*
X42525Y34599D01*
X42793Y34488D01*
X43080Y34451D01*
X43280D01*
X43567Y34488D01*
X43835Y34599D01*
X44065Y34775D01*
X44241Y35005D01*
X44323Y35204D01*
X44450Y35178D01*
X44450Y33402D01*
X44323Y33376D01*
X44241Y33575D01*
X44065Y33805D01*
X43835Y33981D01*
X43567Y34092D01*
X43280Y34129D01*
X43080D01*
X42793Y34092D01*
X42525Y33981D01*
X42295Y33805D01*
X42119Y33575D01*
X42008Y33307D01*
X41971Y33020D01*
X42008Y32733D01*
X42119Y32465D01*
X42295Y32235D01*
X42525Y32059D01*
X42793Y31948D01*
X43080Y31911D01*
X43280D01*
X43567Y31948D01*
X43835Y32059D01*
X44065Y32235D01*
X44241Y32465D01*
X44323Y32664D01*
X44450Y32638D01*
Y30862D01*
X44323Y30836D01*
X44241Y31035D01*
X44065Y31265D01*
X43835Y31441D01*
X43567Y31552D01*
X43280Y31589D01*
X43080D01*
X42793Y31552D01*
X42525Y31441D01*
X42295Y31265D01*
X42119Y31035D01*
X42008Y30767D01*
X41971Y30480D01*
X42008Y30193D01*
X42119Y29925D01*
X42295Y29695D01*
X42525Y29519D01*
X42793Y29408D01*
X43080Y29371D01*
X43280D01*
X43567Y29408D01*
X43835Y29519D01*
X44065Y29695D01*
X44241Y29925D01*
X44323Y30124D01*
X44450Y30098D01*
Y29210D01*
X26670D01*
Y30319D01*
X26797Y30327D01*
X26813Y30205D01*
X26919Y29948D01*
X27088Y29728D01*
X27308Y29559D01*
X27565Y29453D01*
X27813Y29420D01*
Y30480D01*
Y31540D01*
X27565Y31507D01*
X27308Y31401D01*
X27088Y31232D01*
X26919Y31012D01*
X26813Y30755D01*
X26797Y30633D01*
X26670Y30641D01*
Y32638D01*
X26797Y32664D01*
X26879Y32465D01*
X27055Y32235D01*
X27285Y32059D01*
X27553Y31948D01*
X27840Y31911D01*
X28040D01*
X28327Y31948D01*
X28595Y32059D01*
X28825Y32235D01*
X29001Y32465D01*
X29112Y32733D01*
X29149Y33020D01*
X29112Y33307D01*
X29001Y33575D01*
X28825Y33805D01*
X28595Y33981D01*
X28327Y34092D01*
X28040Y34129D01*
X27840D01*
X27553Y34092D01*
X27285Y33981D01*
X27055Y33805D01*
X26879Y33575D01*
X26797Y33376D01*
X26670Y33402D01*
X26670Y35178D01*
X26797Y35204D01*
X26879Y35005D01*
X27055Y34775D01*
X27285Y34599D01*
X27553Y34488D01*
X27840Y34451D01*
X28040D01*
X28327Y34488D01*
X28595Y34599D01*
X28825Y34775D01*
X29001Y35005D01*
X29023Y35060D01*
X38655D01*
X39544Y34171D01*
X39567Y34056D01*
X39699Y33857D01*
X39898Y33725D01*
X40132Y33678D01*
X40366Y33725D01*
X40565Y33857D01*
X40697Y34056D01*
X40744Y34290D01*
X40697Y34524D01*
X40565Y34723D01*
X40366Y34855D01*
X40251Y34878D01*
X39506Y35624D01*
X39554Y35741D01*
X39752D01*
X40052Y35441D01*
X40075Y35326D01*
X40207Y35127D01*
X40406Y34995D01*
X40640Y34948D01*
X40874Y34995D01*
X41073Y35127D01*
X41205Y35326D01*
X41252Y35560D01*
X41205Y35794D01*
X41073Y35993D01*
X40874Y36125D01*
X40759Y36148D01*
X40313Y36595D01*
X40150Y36703D01*
X39959Y36741D01*
X31276D01*
X29564Y38454D01*
X29401Y38562D01*
X29210Y38600D01*
X29147D01*
Y38820D01*
X29118Y38968D01*
X29034Y39094D01*
X28908Y39178D01*
X28760Y39207D01*
X27120D01*
X26972Y39178D01*
X26846Y39094D01*
X26797Y39021D01*
X26670Y39059D01*
Y39370D01*
X44450D01*
Y39059D01*
D02*
G37*
G36*
X30425Y36177D02*
X30377Y36060D01*
X29023D01*
X29001Y36115D01*
X28825Y36345D01*
X28595Y36521D01*
X28327Y36632D01*
X28040Y36669D01*
X27840D01*
X27553Y36632D01*
X27285Y36521D01*
X27055Y36345D01*
X26879Y36115D01*
X26797Y35916D01*
X26670Y35942D01*
Y37141D01*
X26797Y37179D01*
X26846Y37106D01*
X26972Y37022D01*
X27120Y36993D01*
X28760D01*
X28908Y37022D01*
X29034Y37106D01*
X29118Y37232D01*
X29130Y37293D01*
X29268Y37335D01*
X30425Y36177D01*
D02*
G37*
%LPC*%
G36*
X28067Y31540D02*
Y30607D01*
X29086D01*
X29067Y30755D01*
X28961Y31012D01*
X28792Y31232D01*
X28572Y31401D01*
X28315Y31507D01*
X28067Y31540D01*
D02*
G37*
G36*
X29086Y30353D02*
X28067D01*
Y29420D01*
X28315Y29453D01*
X28572Y29559D01*
X28792Y29728D01*
X28961Y29948D01*
X29067Y30205D01*
X29086Y30353D01*
D02*
G37*
%LPD*%
D18*
X29210Y38100D02*
X31069Y36241D01*
X27940Y38100D02*
X29210D01*
X31069Y36241D02*
X39959D01*
X40640Y35560D01*
X38862D02*
X40132Y34290D01*
X27940Y35560D02*
X38862D01*
D19*
X43180Y30480D02*
D03*
Y33020D02*
D03*
Y35560D02*
D03*
X27940Y30480D02*
D03*
Y33020D02*
D03*
Y35560D02*
D03*
D20*
X43180Y38100D02*
D03*
X27940D02*
D03*
D21*
X41910Y34290D02*
D03*
X40640Y33020D02*
D03*
X34290Y38100D02*
D03*
Y30480D02*
D03*
X33020Y38100D02*
D03*
Y30480D02*
D03*
X31750Y38100D02*
D03*
Y30480D02*
D03*
X30480Y38100D02*
D03*
Y31750D02*
D03*
Y30480D02*
D03*
X29210Y36830D02*
D03*
Y34290D02*
D03*
Y31750D02*
D03*
X40640Y35560D02*
D03*
X40132Y34290D02*
D03*
M02*
