G04*
G04 #@! TF.GenerationSoftware,Altium Limited,Altium Designer,19.1.6 (110)*
G04*
G04 Layer_Color=32896*
%FSLAX43Y43*%
%MOMM*%
G71*
G01*
G75*
%ADD10C,0.100*%
%ADD11C,0.254*%
G36*
X30818Y30980D02*
X30828Y30975D01*
X30834Y30971D01*
X30835Y30970D01*
X30836Y30969D01*
X30841Y30963D01*
X30844Y30956D01*
X30848Y30944D01*
X30849Y30939D01*
X30850Y30935D01*
Y30932D01*
Y30931D01*
Y30274D01*
X30849Y30265D01*
X30848Y30258D01*
X30845Y30252D01*
X30843Y30246D01*
X30841Y30243D01*
X30839Y30239D01*
X30836Y30238D01*
Y30237D01*
X30825Y30230D01*
X30814Y30227D01*
X30809D01*
X30805Y30226D01*
X30802D01*
X30794Y30227D01*
X30789Y30228D01*
X30778Y30233D01*
X30773Y30235D01*
X30770Y30236D01*
X30769Y30238D01*
X30768D01*
X30763Y30244D01*
X30760Y30249D01*
X30755Y30262D01*
Y30266D01*
X30754Y30270D01*
Y30273D01*
Y30274D01*
Y30777D01*
X30475Y30248D01*
X30469Y30240D01*
X30462Y30235D01*
X30456Y30232D01*
X30448Y30229D01*
X30442Y30227D01*
X30437Y30226D01*
X30432D01*
X30426Y30227D01*
X30420Y30228D01*
X30416Y30229D01*
X30415D01*
X30400Y30240D01*
X30396Y30246D01*
X30392Y30253D01*
X30388Y30265D01*
Y30269D01*
X30387Y30274D01*
Y30276D01*
Y30277D01*
Y30934D01*
X30388Y30942D01*
X30389Y30950D01*
X30395Y30961D01*
X30398Y30965D01*
X30401Y30969D01*
X30402Y30970D01*
X30404Y30971D01*
X30415Y30977D01*
X30425Y30981D01*
X30429Y30982D01*
X30435D01*
X30442Y30981D01*
X30449Y30980D01*
X30460Y30975D01*
X30465Y30972D01*
X30467Y30970D01*
X30469Y30969D01*
X30470Y30967D01*
X30475Y30962D01*
X30477Y30956D01*
X30481Y30945D01*
Y30941D01*
X30482Y30938D01*
Y30935D01*
Y30934D01*
Y30431D01*
X30762Y30956D01*
X30768Y30965D01*
X30774Y30971D01*
X30782Y30975D01*
X30789Y30979D01*
X30794Y30981D01*
X30800Y30982D01*
X30811D01*
X30818Y30980D01*
D02*
G37*
G36*
X31317D02*
X31338Y30974D01*
X31357Y30967D01*
X31374Y30959D01*
X31387Y30950D01*
X31397Y30943D01*
X31403Y30938D01*
X31405Y30935D01*
X31420Y30918D01*
X31431Y30899D01*
X31439Y30880D01*
X31445Y30863D01*
X31448Y30848D01*
X31449Y30835D01*
X31450Y30831D01*
Y30828D01*
Y30825D01*
Y30824D01*
Y30384D01*
X31448Y30359D01*
X31443Y30338D01*
X31436Y30319D01*
X31427Y30303D01*
X31418Y30289D01*
X31411Y30279D01*
X31406Y30274D01*
X31404Y30272D01*
X31386Y30256D01*
X31367Y30245D01*
X31348Y30237D01*
X31330Y30232D01*
X31316Y30228D01*
X31304Y30227D01*
X31299Y30226D01*
X31036D01*
X31027Y30227D01*
X31020Y30228D01*
X31009Y30234D01*
X31000Y30242D01*
X30993Y30250D01*
X30990Y30258D01*
X30989Y30266D01*
X30987Y30272D01*
Y30274D01*
Y30640D01*
Y30649D01*
X30990Y30656D01*
X30995Y30668D01*
X31003Y30677D01*
X31011Y30682D01*
X31020Y30686D01*
X31027Y30687D01*
X31033Y30688D01*
X31108D01*
X31116Y30687D01*
X31124Y30686D01*
X31135Y30680D01*
X31138Y30677D01*
X31142Y30674D01*
X31143Y30673D01*
X31144Y30672D01*
X31148Y30667D01*
X31151Y30661D01*
X31155Y30651D01*
X31156Y30643D01*
Y30642D01*
Y30641D01*
X31155Y30633D01*
X31154Y30627D01*
X31149Y30616D01*
X31147Y30611D01*
X31146Y30609D01*
X31144Y30607D01*
Y30606D01*
X31138Y30601D01*
X31133Y30599D01*
X31121Y30595D01*
X31116D01*
X31112Y30593D01*
X31083D01*
Y30320D01*
X31293D01*
X31302Y30321D01*
X31309Y30323D01*
X31315Y30324D01*
X31317D01*
X31325Y30328D01*
X31332Y30333D01*
X31336Y30337D01*
X31338Y30338D01*
X31344Y30345D01*
X31348Y30353D01*
X31350Y30360D01*
X31353Y30368D01*
X31354Y30374D01*
X31355Y30379D01*
Y30383D01*
Y30384D01*
Y30824D01*
X31354Y30834D01*
X31353Y30842D01*
X31352Y30846D01*
Y30849D01*
X31347Y30856D01*
X31343Y30863D01*
X31339Y30868D01*
X31338Y30869D01*
X31330Y30875D01*
X31323Y30880D01*
X31316Y30883D01*
X31308Y30885D01*
X31302Y30886D01*
X31297Y30888D01*
X31036D01*
X31027Y30889D01*
X31021Y30890D01*
X31014Y30892D01*
X31009Y30895D01*
X31005Y30899D01*
X31002Y30901D01*
X31000Y30902D01*
Y30903D01*
X30995Y30909D01*
X30993Y30914D01*
X30989Y30925D01*
Y30930D01*
X30987Y30932D01*
Y30934D01*
Y30935D01*
X30989Y30942D01*
X30990Y30947D01*
X30994Y30957D01*
X31000Y30964D01*
X31001Y30965D01*
X31002Y30966D01*
X31007Y30972D01*
X31013Y30975D01*
X31024Y30980D01*
X31029Y30981D01*
X31033Y30982D01*
X31293D01*
X31317Y30980D01*
D02*
G37*
G36*
X30217D02*
X30229Y30974D01*
X30237Y30966D01*
X30244Y30959D01*
X30247Y30950D01*
X30248Y30942D01*
X30249Y30936D01*
Y30935D01*
Y30934D01*
Y30274D01*
X30248Y30265D01*
X30247Y30258D01*
X30242Y30246D01*
X30234Y30238D01*
X30225Y30232D01*
X30217Y30228D01*
X30209Y30227D01*
X30204Y30226D01*
X29945D01*
X29922Y30228D01*
X29900Y30233D01*
X29881Y30240D01*
X29864Y30249D01*
X29851Y30257D01*
X29841Y30265D01*
X29835Y30269D01*
X29833Y30272D01*
X29818Y30289D01*
X29806Y30309D01*
X29798Y30327D01*
X29792Y30345D01*
X29789Y30360D01*
X29788Y30373D01*
X29786Y30377D01*
Y30380D01*
Y30383D01*
Y30384D01*
Y30824D01*
X29789Y30848D01*
X29794Y30869D01*
X29801Y30888D01*
X29810Y30904D01*
X29819Y30918D01*
X29825Y30928D01*
X29831Y30933D01*
X29833Y30935D01*
X29851Y30951D01*
X29870Y30962D01*
X29889Y30971D01*
X29906Y30976D01*
X29922Y30980D01*
X29934Y30981D01*
X29939Y30982D01*
X30210D01*
X30217Y30980D01*
D02*
G37*
G36*
X31033Y33521D02*
X31040Y33520D01*
X31051Y33514D01*
X31055Y33511D01*
X31058Y33509D01*
X31060Y33507D01*
X31061Y33506D01*
X31065Y33501D01*
X31068Y33495D01*
X31072Y33485D01*
X31073Y33481D01*
X31074Y33479D01*
Y33476D01*
Y33475D01*
Y33464D01*
X30927Y32804D01*
X30922Y32792D01*
X30915Y32782D01*
X30908Y32775D01*
X30900Y32770D01*
X30892Y32768D01*
X30885Y32767D01*
X30881Y32766D01*
X30880D01*
X30869Y32767D01*
X30860Y32770D01*
X30854Y32773D01*
X30852Y32774D01*
X30844Y32783D01*
X30839Y32790D01*
X30835Y32796D01*
X30834Y32798D01*
X30733Y33099D01*
X30631Y32796D01*
X30626Y32786D01*
X30618Y32778D01*
X30611Y32774D01*
X30603Y32769D01*
X30597Y32767D01*
X30591Y32766D01*
X30586D01*
X30573Y32767D01*
X30563Y32772D01*
X30557Y32775D01*
X30556Y32776D01*
X30555D01*
X30547Y32785D01*
X30541Y32794D01*
X30539Y32802D01*
Y32803D01*
Y32804D01*
X30392Y33464D01*
X30391Y33475D01*
X30392Y33483D01*
X30394Y33490D01*
X30398Y33500D01*
X30404Y33505D01*
X30405Y33507D01*
X30406D01*
X30411Y33512D01*
X30417Y33516D01*
X30428Y33520D01*
X30434Y33521D01*
X30437Y33522D01*
X30440D01*
X30452Y33521D01*
X30464Y33516D01*
X30471Y33510D01*
X30477Y33503D01*
X30481Y33496D01*
X30484Y33490D01*
X30486Y33485D01*
Y33484D01*
X30598Y32957D01*
X30687Y33230D01*
X30693Y33243D01*
X30701Y33253D01*
X30709Y33260D01*
X30717Y33265D01*
X30723Y33268D01*
X30729Y33269D01*
X30732Y33270D01*
X30733D01*
X30744Y33269D01*
X30753Y33264D01*
X30761Y33259D01*
X30767Y33252D01*
X30772Y33244D01*
X30775Y33239D01*
X30777Y33234D01*
X30778Y33233D01*
X30869Y32957D01*
X30980Y33485D01*
X30986Y33497D01*
X30992Y33506D01*
X30996Y33512D01*
X30999Y33513D01*
X31007Y33519D01*
X31016Y33521D01*
X31023Y33522D01*
X31026D01*
X31033Y33521D01*
D02*
G37*
G36*
X30217Y33520D02*
X30229Y33514D01*
X30237Y33506D01*
X30244Y33499D01*
X30247Y33490D01*
X30248Y33482D01*
X30249Y33476D01*
Y33475D01*
Y33474D01*
Y32814D01*
X30248Y32805D01*
X30247Y32798D01*
X30245Y32792D01*
X30243Y32786D01*
X30240Y32783D01*
X30238Y32779D01*
X30236Y32778D01*
Y32777D01*
X30225Y32770D01*
X30214Y32767D01*
X30208D01*
X30205Y32766D01*
X30202D01*
X30194Y32767D01*
X30188Y32768D01*
X30177Y32773D01*
X30173Y32775D01*
X30169Y32776D01*
X30168Y32778D01*
X30167D01*
X30163Y32784D01*
X30159Y32789D01*
X30155Y32802D01*
Y32806D01*
X30154Y32810D01*
Y32813D01*
Y32814D01*
Y33060D01*
X29945D01*
X29922Y33062D01*
X29900Y33067D01*
X29881Y33075D01*
X29864Y33083D01*
X29851Y33091D01*
X29841Y33099D01*
X29835Y33103D01*
X29833Y33106D01*
X29818Y33123D01*
X29806Y33143D01*
X29798Y33161D01*
X29792Y33179D01*
X29789Y33194D01*
X29788Y33207D01*
X29786Y33211D01*
Y33214D01*
Y33217D01*
Y33218D01*
Y33364D01*
X29789Y33388D01*
X29794Y33409D01*
X29801Y33428D01*
X29810Y33444D01*
X29819Y33458D01*
X29825Y33468D01*
X29831Y33473D01*
X29833Y33475D01*
X29851Y33491D01*
X29870Y33502D01*
X29889Y33511D01*
X29906Y33516D01*
X29922Y33520D01*
X29934Y33521D01*
X29939Y33522D01*
X30210D01*
X30217Y33520D01*
D02*
G37*
G36*
X41361Y38601D02*
X41368Y38600D01*
X41379Y38594D01*
X41383Y38591D01*
X41386Y38589D01*
X41388Y38587D01*
X41389Y38586D01*
X41393Y38581D01*
X41396Y38575D01*
X41400Y38565D01*
X41401Y38561D01*
X41402Y38557D01*
Y38555D01*
Y38554D01*
X41400Y38540D01*
X41179Y37885D01*
X41172Y37872D01*
X41164Y37863D01*
X41158Y37856D01*
X41150Y37850D01*
X41143Y37848D01*
X41138Y37847D01*
X41133Y37846D01*
X41132D01*
X41120Y37849D01*
X41112Y37854D01*
X41107Y37856D01*
X41106Y37857D01*
X41098Y37867D01*
X41093Y37876D01*
X41090Y37883D01*
X41089Y37884D01*
Y37885D01*
X40868Y38540D01*
X40866Y38555D01*
X40867Y38562D01*
X40868Y38569D01*
X40873Y38580D01*
X40878Y38586D01*
X40879Y38587D01*
X40880Y38589D01*
X40887Y38593D01*
X40893Y38596D01*
X40904Y38601D01*
X40908D01*
X40911Y38602D01*
X40915D01*
X40925Y38601D01*
X40934Y38597D01*
X40939Y38593D01*
X40940Y38592D01*
X40941D01*
X40949Y38584D01*
X40955Y38577D01*
X40958Y38571D01*
X40959Y38570D01*
Y38569D01*
X41134Y38027D01*
X41310Y38571D01*
X41317Y38583D01*
X41323Y38591D01*
X41328Y38596D01*
X41329Y38597D01*
X41330D01*
X41343Y38602D01*
X41354D01*
X41361Y38601D01*
D02*
G37*
G36*
X40594Y38600D02*
X40615Y38594D01*
X40634Y38587D01*
X40651Y38579D01*
X40664Y38570D01*
X40674Y38563D01*
X40679Y38557D01*
X40682Y38555D01*
X40697Y38538D01*
X40708Y38519D01*
X40716Y38500D01*
X40722Y38483D01*
X40725Y38468D01*
X40726Y38455D01*
X40727Y38451D01*
Y38448D01*
Y38445D01*
Y38444D01*
Y38004D01*
X40725Y37979D01*
X40719Y37958D01*
X40713Y37939D01*
X40704Y37923D01*
X40695Y37909D01*
X40688Y37899D01*
X40683Y37894D01*
X40681Y37892D01*
X40663Y37876D01*
X40644Y37865D01*
X40625Y37857D01*
X40607Y37852D01*
X40593Y37848D01*
X40581Y37847D01*
X40576Y37846D01*
X40386D01*
X40377Y37847D01*
X40371Y37848D01*
X40364Y37850D01*
X40359Y37854D01*
X40355Y37857D01*
X40352Y37859D01*
X40350Y37860D01*
Y37862D01*
X40345Y37867D01*
X40343Y37873D01*
X40339Y37884D01*
Y37888D01*
X40338Y37890D01*
Y37893D01*
Y37894D01*
X40339Y37900D01*
X40340Y37906D01*
X40344Y37916D01*
X40350Y37923D01*
X40351Y37924D01*
X40352Y37925D01*
X40358Y37930D01*
X40363Y37934D01*
X40374Y37938D01*
X40379Y37939D01*
X40383Y37940D01*
X40570D01*
X40578Y37941D01*
X40586Y37943D01*
X40592Y37944D01*
X40594D01*
X40602Y37948D01*
X40608Y37953D01*
X40613Y37957D01*
X40615Y37958D01*
X40621Y37965D01*
X40625Y37973D01*
X40627Y37980D01*
X40629Y37988D01*
X40631Y37994D01*
X40632Y37999D01*
Y38003D01*
Y38004D01*
Y38444D01*
X40631Y38454D01*
X40629Y38462D01*
X40628Y38466D01*
Y38469D01*
X40624Y38476D01*
X40619Y38483D01*
X40616Y38488D01*
X40615Y38489D01*
X40607Y38495D01*
X40599Y38500D01*
X40593Y38503D01*
X40585Y38505D01*
X40578Y38506D01*
X40574Y38508D01*
X40386D01*
X40377Y38509D01*
X40371Y38510D01*
X40364Y38512D01*
X40359Y38515D01*
X40355Y38519D01*
X40352Y38521D01*
X40350Y38522D01*
Y38523D01*
X40345Y38529D01*
X40343Y38534D01*
X40339Y38545D01*
Y38550D01*
X40338Y38552D01*
Y38554D01*
Y38555D01*
X40339Y38562D01*
X40340Y38567D01*
X40344Y38577D01*
X40350Y38584D01*
X40351Y38585D01*
X40352Y38586D01*
X40358Y38592D01*
X40363Y38595D01*
X40374Y38600D01*
X40379Y38601D01*
X40383Y38602D01*
X40570D01*
X40594Y38600D01*
D02*
G37*
G36*
X40069D02*
X40090Y38594D01*
X40109Y38587D01*
X40126Y38579D01*
X40139Y38570D01*
X40149Y38563D01*
X40154Y38557D01*
X40157Y38555D01*
X40172Y38538D01*
X40183Y38519D01*
X40191Y38500D01*
X40197Y38483D01*
X40200Y38468D01*
X40201Y38455D01*
X40202Y38451D01*
Y38448D01*
Y38445D01*
Y38444D01*
Y38004D01*
X40200Y37979D01*
X40194Y37958D01*
X40188Y37939D01*
X40179Y37923D01*
X40170Y37909D01*
X40163Y37899D01*
X40158Y37894D01*
X40155Y37892D01*
X40138Y37876D01*
X40119Y37865D01*
X40100Y37857D01*
X40082Y37852D01*
X40068Y37848D01*
X40056Y37847D01*
X40051Y37846D01*
X39861D01*
X39852Y37847D01*
X39846Y37848D01*
X39839Y37850D01*
X39834Y37854D01*
X39830Y37857D01*
X39827Y37859D01*
X39825Y37860D01*
Y37862D01*
X39820Y37867D01*
X39818Y37873D01*
X39814Y37884D01*
Y37888D01*
X39813Y37890D01*
Y37893D01*
Y37894D01*
X39814Y37900D01*
X39815Y37906D01*
X39819Y37916D01*
X39825Y37923D01*
X39826Y37924D01*
X39827Y37925D01*
X39832Y37930D01*
X39838Y37934D01*
X39849Y37938D01*
X39854Y37939D01*
X39858Y37940D01*
X40044D01*
X40053Y37941D01*
X40061Y37943D01*
X40067Y37944D01*
X40069D01*
X40077Y37948D01*
X40083Y37953D01*
X40088Y37957D01*
X40090Y37958D01*
X40096Y37965D01*
X40100Y37973D01*
X40102Y37980D01*
X40104Y37988D01*
X40106Y37994D01*
X40107Y37999D01*
Y38003D01*
Y38004D01*
Y38444D01*
X40106Y38454D01*
X40104Y38462D01*
X40103Y38466D01*
Y38469D01*
X40099Y38476D01*
X40094Y38483D01*
X40091Y38488D01*
X40090Y38489D01*
X40082Y38495D01*
X40074Y38500D01*
X40068Y38503D01*
X40060Y38505D01*
X40053Y38506D01*
X40049Y38508D01*
X39861D01*
X39852Y38509D01*
X39846Y38510D01*
X39839Y38512D01*
X39834Y38515D01*
X39830Y38519D01*
X39827Y38521D01*
X39825Y38522D01*
Y38523D01*
X39820Y38529D01*
X39818Y38534D01*
X39814Y38545D01*
Y38550D01*
X39813Y38552D01*
Y38554D01*
Y38555D01*
X39814Y38562D01*
X39815Y38567D01*
X39819Y38577D01*
X39825Y38584D01*
X39826Y38585D01*
X39827Y38586D01*
X39832Y38592D01*
X39838Y38595D01*
X39849Y38600D01*
X39854Y38601D01*
X39858Y38602D01*
X40044D01*
X40069Y38600D01*
D02*
G37*
G36*
X40239Y33267D02*
X40245Y33266D01*
X40257Y33261D01*
X40261Y33258D01*
X40264Y33256D01*
X40265Y33255D01*
X40266Y33253D01*
X40271Y33248D01*
X40274Y33242D01*
X40278Y33232D01*
X40279Y33228D01*
X40280Y33225D01*
Y33222D01*
Y33221D01*
Y32560D01*
X40279Y32551D01*
X40278Y32544D01*
X40275Y32538D01*
X40273Y32532D01*
X40271Y32529D01*
X40269Y32525D01*
X40266Y32524D01*
Y32523D01*
X40255Y32516D01*
X40244Y32513D01*
X40239D01*
X40235Y32512D01*
X40232D01*
X40224Y32513D01*
X40219Y32514D01*
X40208Y32519D01*
X40203Y32521D01*
X40200Y32522D01*
X40199Y32524D01*
X40198D01*
X40193Y32530D01*
X40190Y32535D01*
X40185Y32548D01*
Y32552D01*
X40184Y32556D01*
Y32559D01*
Y32560D01*
Y32834D01*
X40111Y32914D01*
X39902Y32536D01*
X39896Y32529D01*
X39889Y32522D01*
X39882Y32518D01*
X39876Y32515D01*
X39870Y32513D01*
X39866Y32512D01*
X39862D01*
X39855Y32513D01*
X39848Y32514D01*
X39837Y32520D01*
X39832Y32522D01*
X39829Y32524D01*
X39828Y32525D01*
X39827Y32526D01*
X39822Y32531D01*
X39818Y32536D01*
X39815Y32548D01*
X39814Y32552D01*
X39813Y32555D01*
Y32558D01*
Y32559D01*
X39818Y32581D01*
X40043Y32975D01*
X39827Y33187D01*
X39822Y33194D01*
X39819Y33200D01*
X39815Y33210D01*
X39814Y33217D01*
Y33219D01*
X39815Y33227D01*
X39816Y33232D01*
X39821Y33243D01*
X39825Y33248D01*
X39827Y33251D01*
X39828Y33252D01*
X39829Y33253D01*
X39835Y33258D01*
X39840Y33262D01*
X39850Y33266D01*
X39855Y33267D01*
X39858Y33268D01*
X39861D01*
X39868Y33267D01*
X39875Y33266D01*
X39886Y33260D01*
X39890Y33257D01*
X39894Y33255D01*
X39896Y33253D01*
X39897Y33252D01*
X40184Y32952D01*
Y33221D01*
X40185Y33229D01*
X40187Y33236D01*
X40192Y33247D01*
X40198Y33253D01*
X40199Y33256D01*
X40200D01*
X40205Y33260D01*
X40211Y33262D01*
X40221Y33267D01*
X40225D01*
X40229Y33268D01*
X40232D01*
X40239Y33267D01*
D02*
G37*
G36*
X40672Y33266D02*
X40693Y33260D01*
X40712Y33253D01*
X40728Y33245D01*
X40742Y33236D01*
X40752Y33229D01*
X40757Y33223D01*
X40759Y33221D01*
X40775Y33204D01*
X40786Y33185D01*
X40794Y33166D01*
X40799Y33149D01*
X40803Y33134D01*
X40804Y33121D01*
X40805Y33117D01*
Y33114D01*
Y33111D01*
Y33110D01*
Y32670D01*
X40803Y32645D01*
X40797Y32624D01*
X40790Y32605D01*
X40782Y32589D01*
X40773Y32575D01*
X40766Y32565D01*
X40760Y32560D01*
X40758Y32558D01*
X40740Y32542D01*
X40722Y32531D01*
X40703Y32523D01*
X40685Y32518D01*
X40671Y32514D01*
X40658Y32513D01*
X40654Y32512D01*
X40464D01*
X40455Y32513D01*
X40449Y32514D01*
X40442Y32516D01*
X40436Y32520D01*
X40433Y32523D01*
X40430Y32525D01*
X40427Y32526D01*
Y32528D01*
X40423Y32533D01*
X40421Y32539D01*
X40416Y32550D01*
Y32554D01*
X40415Y32556D01*
Y32559D01*
Y32560D01*
X40416Y32566D01*
X40417Y32572D01*
X40422Y32582D01*
X40427Y32589D01*
X40429Y32590D01*
X40430Y32591D01*
X40435Y32596D01*
X40441Y32600D01*
X40452Y32604D01*
X40456Y32605D01*
X40461Y32606D01*
X40647D01*
X40656Y32607D01*
X40664Y32609D01*
X40669Y32610D01*
X40672D01*
X40679Y32614D01*
X40686Y32619D01*
X40690Y32623D01*
X40693Y32624D01*
X40698Y32631D01*
X40703Y32639D01*
X40705Y32646D01*
X40707Y32654D01*
X40708Y32660D01*
X40709Y32665D01*
Y32669D01*
Y32670D01*
Y33110D01*
X40708Y33120D01*
X40707Y33128D01*
X40706Y33132D01*
Y33135D01*
X40702Y33142D01*
X40697Y33149D01*
X40694Y33154D01*
X40693Y33155D01*
X40685Y33161D01*
X40677Y33166D01*
X40671Y33169D01*
X40663Y33171D01*
X40656Y33172D01*
X40652Y33174D01*
X40464D01*
X40455Y33175D01*
X40449Y33176D01*
X40442Y33178D01*
X40436Y33181D01*
X40433Y33185D01*
X40430Y33187D01*
X40427Y33188D01*
Y33189D01*
X40423Y33195D01*
X40421Y33200D01*
X40416Y33211D01*
Y33216D01*
X40415Y33218D01*
Y33220D01*
Y33221D01*
X40416Y33228D01*
X40417Y33233D01*
X40422Y33243D01*
X40427Y33250D01*
X40429Y33251D01*
X40430Y33252D01*
X40435Y33258D01*
X40441Y33261D01*
X40452Y33266D01*
X40456Y33267D01*
X40461Y33268D01*
X40647D01*
X40672Y33266D01*
D02*
G37*
G36*
X41202Y33267D02*
X41227Y33263D01*
X41249Y33258D01*
X41268Y33253D01*
X41283Y33248D01*
X41294Y33242D01*
X41299Y33241D01*
X41302Y33239D01*
X41303Y33238D01*
X41304D01*
X41323Y33227D01*
X41340Y33216D01*
X41352Y33206D01*
X41363Y33196D01*
X41371Y33187D01*
X41375Y33180D01*
X41379Y33175D01*
X41380Y33174D01*
X41386Y33160D01*
X41391Y33146D01*
X41395Y33132D01*
X41398Y33120D01*
X41399Y33110D01*
X41400Y33101D01*
Y33097D01*
Y33095D01*
X41399Y33083D01*
X41398Y33070D01*
X41395Y33059D01*
X41392Y33050D01*
X41390Y33041D01*
X41388Y33036D01*
X41386Y33031D01*
X41385Y33030D01*
X41379Y33020D01*
X41373Y33010D01*
X41366Y33003D01*
X41361Y32996D01*
X41355Y32992D01*
X41351Y32988D01*
X41349Y32986D01*
X41348Y32985D01*
X41072Y32782D01*
X41065Y32775D01*
X41059Y32770D01*
X41053Y32764D01*
X41050Y32758D01*
X41047Y32754D01*
X41045Y32751D01*
X41043Y32750D01*
Y32748D01*
X41037Y32731D01*
X41035Y32722D01*
X41033Y32715D01*
X41032Y32710D01*
Y32705D01*
Y32702D01*
Y32701D01*
Y32693D01*
X41033Y32685D01*
X41035Y32681D01*
X41036Y32679D01*
X41038Y32672D01*
X41040Y32665D01*
X41041Y32661D01*
X41042Y32660D01*
X41051Y32646D01*
X41060Y32637D01*
X41067Y32633D01*
X41069Y32631D01*
X41070D01*
X41090Y32622D01*
X41110Y32615D01*
X41129Y32610D01*
X41144Y32606D01*
X41158Y32604D01*
X41169Y32603D01*
X41178D01*
X41192Y32604D01*
X41207Y32605D01*
X41219Y32607D01*
X41231Y32610D01*
X41240Y32612D01*
X41248Y32614D01*
X41252Y32616D01*
X41254D01*
X41282Y32629D01*
X41294Y32635D01*
X41305Y32641D01*
X41315Y32646D01*
X41323Y32651D01*
X41328Y32654D01*
X41330Y32655D01*
X41340Y32661D01*
X41348Y32663D01*
X41353Y32664D01*
X41355D01*
X41363Y32663D01*
X41370Y32662D01*
X41381Y32656D01*
X41384Y32653D01*
X41388Y32651D01*
X41389Y32650D01*
X41390Y32649D01*
X41394Y32643D01*
X41396Y32637D01*
X41401Y32626D01*
Y32622D01*
X41402Y32619D01*
Y32616D01*
Y32615D01*
X41401Y32606D01*
X41399Y32599D01*
X41395Y32592D01*
X41391Y32586D01*
X41388Y32582D01*
X41384Y32579D01*
X41382Y32577D01*
X41381Y32576D01*
X41370Y32569D01*
X41360Y32562D01*
X41351Y32558D01*
X41343Y32552D01*
X41338Y32549D01*
X41333Y32546D01*
X41331Y32544D01*
X41330D01*
X41313Y32536D01*
X41295Y32530D01*
X41289Y32528D01*
X41283Y32525D01*
X41279Y32524D01*
X41278D01*
X41261Y32519D01*
X41243Y32515D01*
X41228Y32512D01*
X41212Y32511D01*
X41199Y32510D01*
X41189Y32509D01*
X41180D01*
X41152Y32510D01*
X41140Y32512D01*
X41128Y32513D01*
X41118Y32515D01*
X41110Y32516D01*
X41106Y32518D01*
X41103D01*
X41088Y32523D01*
X41072Y32529D01*
X41059Y32534D01*
X41047Y32539D01*
X41037Y32543D01*
X41029Y32546D01*
X41025Y32549D01*
X41022Y32550D01*
X41008Y32559D01*
X40996Y32569D01*
X40985Y32580D01*
X40976Y32590D01*
X40969Y32599D01*
X40965Y32606D01*
X40961Y32611D01*
X40960Y32613D01*
X40954Y32629D01*
X40948Y32644D01*
X40945Y32660D01*
X40941Y32673D01*
X40940Y32685D01*
X40939Y32695D01*
Y32701D01*
Y32703D01*
X40940Y32720D01*
X40942Y32735D01*
X40946Y32751D01*
X40950Y32764D01*
X40955Y32775D01*
X40958Y32783D01*
X40960Y32788D01*
X40961Y32791D01*
X40970Y32806D01*
X40979Y32819D01*
X40989Y32832D01*
X40997Y32842D01*
X41005Y32848D01*
X41011Y32854D01*
X41016Y32857D01*
X41017Y32858D01*
X41289Y33059D01*
X41295Y33065D01*
X41300Y33070D01*
X41303Y33076D01*
X41305Y33081D01*
X41307Y33086D01*
X41308Y33090D01*
Y33093D01*
Y33094D01*
Y33100D01*
X41307Y33106D01*
Y33108D01*
Y33109D01*
X41298Y33127D01*
X41289Y33138D01*
X41279Y33146D01*
X41272Y33150D01*
X41270Y33152D01*
X41269D01*
X41252Y33160D01*
X41236Y33166D01*
X41220Y33169D01*
X41206Y33172D01*
X41193Y33174D01*
X41183Y33175D01*
X41174D01*
X41146Y33172D01*
X41118Y33168D01*
X41093Y33162D01*
X41072Y33155D01*
X41055Y33147D01*
X41048Y33144D01*
X41041Y33141D01*
X41037Y33138D01*
X41033Y33137D01*
X41031Y33135D01*
X41030D01*
X41023Y33129D01*
X41018Y33125D01*
X41012Y33121D01*
X41007Y33119D01*
X41000Y33117D01*
X40998D01*
X40990Y33118D01*
X40985Y33119D01*
X40974Y33125D01*
X40969Y33128D01*
X40966Y33130D01*
X40965Y33131D01*
X40964Y33132D01*
X40959Y33139D01*
X40955Y33145D01*
X40951Y33156D01*
X40950Y33159D01*
X40949Y33162D01*
Y33165D01*
Y33166D01*
X40950Y33174D01*
X40951Y33180D01*
X40954Y33185D01*
X40955Y33186D01*
X40959Y33194D01*
X40964Y33198D01*
X40968Y33201D01*
X40969Y33202D01*
X40987Y33214D01*
X41005Y33223D01*
X41021Y33232D01*
X41036Y33239D01*
X41049Y33245D01*
X41059Y33248D01*
X41066Y33250D01*
X41067Y33251D01*
X41068D01*
X41088Y33257D01*
X41107Y33261D01*
X41125Y33263D01*
X41141Y33266D01*
X41154Y33267D01*
X41166Y33268D01*
X41174D01*
X41202Y33267D01*
D02*
G37*
G36*
X31712Y36063D02*
X31719Y36062D01*
X31728Y36057D01*
X31734Y36052D01*
X31736Y36051D01*
X31737Y36050D01*
X31741Y36044D01*
X31744Y36039D01*
X31748Y36025D01*
X31749Y36020D01*
X31750Y36015D01*
Y36012D01*
Y36011D01*
Y35354D01*
X31749Y35345D01*
X31748Y35338D01*
X31746Y35332D01*
X31743Y35326D01*
X31741Y35323D01*
X31739Y35319D01*
X31737Y35318D01*
Y35317D01*
X31726Y35310D01*
X31714Y35307D01*
X31709D01*
X31706Y35306D01*
X31702D01*
X31694Y35307D01*
X31689Y35308D01*
X31678Y35313D01*
X31673Y35315D01*
X31670Y35316D01*
X31669Y35318D01*
X31668D01*
X31663Y35324D01*
X31660Y35329D01*
X31656Y35342D01*
Y35346D01*
X31655Y35350D01*
Y35353D01*
Y35354D01*
Y35867D01*
X31522Y35617D01*
X31515Y35608D01*
X31508Y35601D01*
X31501Y35596D01*
X31495Y35592D01*
X31489Y35590D01*
X31485Y35589D01*
X31481D01*
X31472Y35590D01*
X31465Y35595D01*
X31457Y35601D01*
X31450Y35608D01*
X31446Y35615D01*
X31441Y35621D01*
X31439Y35626D01*
X31438Y35627D01*
X31308Y35867D01*
Y35354D01*
X31307Y35345D01*
X31306Y35338D01*
X31304Y35332D01*
X31300Y35326D01*
X31297Y35323D01*
X31295Y35319D01*
X31294Y35318D01*
X31293Y35317D01*
X31282Y35310D01*
X31270Y35307D01*
X31266D01*
X31264Y35306D01*
X31260D01*
X31253Y35307D01*
X31247Y35308D01*
X31236Y35313D01*
X31232Y35315D01*
X31228Y35316D01*
X31227Y35318D01*
X31226D01*
X31222Y35324D01*
X31218Y35329D01*
X31214Y35342D01*
Y35346D01*
X31213Y35350D01*
Y35353D01*
Y35354D01*
Y36011D01*
Y36019D01*
X31215Y36026D01*
X31218Y36039D01*
X31221Y36043D01*
X31223Y36046D01*
X31224Y36047D01*
X31225Y36049D01*
X31231Y36054D01*
X31236Y36057D01*
X31246Y36062D01*
X31251Y36063D01*
X31254Y36064D01*
X31257D01*
X31268Y36063D01*
X31277Y36060D01*
X31285Y36054D01*
X31292Y36049D01*
X31297Y36042D01*
X31300Y36037D01*
X31303Y36033D01*
X31304Y36032D01*
X31481Y35727D01*
X31661Y36033D01*
X31669Y36044D01*
X31676Y36051D01*
X31680Y36055D01*
X31682Y36056D01*
X31690Y36061D01*
X31698Y36063D01*
X31703Y36064D01*
X31706D01*
X31712Y36063D01*
D02*
G37*
G36*
X31035Y36061D02*
X31042Y36060D01*
X31053Y36055D01*
X31057Y36052D01*
X31060Y36050D01*
X31062Y36049D01*
X31063Y36047D01*
X31067Y36042D01*
X31070Y36036D01*
X31074Y36025D01*
Y36021D01*
X31075Y36018D01*
Y36015D01*
Y36014D01*
Y35354D01*
X31074Y35345D01*
X31073Y35338D01*
X31071Y35332D01*
X31068Y35326D01*
X31066Y35323D01*
X31064Y35319D01*
X31062Y35318D01*
Y35317D01*
X31051Y35310D01*
X31040Y35307D01*
X31034D01*
X31031Y35306D01*
X31027D01*
X31020Y35307D01*
X31014Y35308D01*
X31003Y35313D01*
X30999Y35315D01*
X30995Y35316D01*
X30994Y35318D01*
X30993D01*
X30989Y35324D01*
X30985Y35329D01*
X30981Y35342D01*
Y35346D01*
X30980Y35350D01*
Y35353D01*
Y35354D01*
Y36014D01*
X30981Y36022D01*
X30982Y36030D01*
X30987Y36041D01*
X30991Y36044D01*
X30993Y36047D01*
X30994Y36050D01*
X30995D01*
X31001Y36054D01*
X31006Y36056D01*
X31016Y36061D01*
X31021D01*
X31024Y36062D01*
X31027D01*
X31035Y36061D01*
D02*
G37*
G36*
X30116Y36060D02*
X30137Y36054D01*
X30156Y36047D01*
X30173Y36039D01*
X30186Y36030D01*
X30196Y36023D01*
X30202Y36018D01*
X30204Y36015D01*
X30219Y35998D01*
X30230Y35979D01*
X30238Y35960D01*
X30244Y35943D01*
X30247Y35928D01*
X30248Y35915D01*
X30249Y35911D01*
Y35908D01*
Y35905D01*
Y35904D01*
Y35464D01*
X30247Y35439D01*
X30242Y35418D01*
X30235Y35399D01*
X30226Y35383D01*
X30217Y35369D01*
X30210Y35359D01*
X30205Y35354D01*
X30203Y35352D01*
X30185Y35336D01*
X30166Y35325D01*
X30147Y35317D01*
X30129Y35312D01*
X30115Y35308D01*
X30103Y35307D01*
X30098Y35306D01*
X29945D01*
X29922Y35308D01*
X29900Y35313D01*
X29881Y35320D01*
X29864Y35329D01*
X29851Y35337D01*
X29841Y35345D01*
X29835Y35349D01*
X29833Y35352D01*
X29818Y35369D01*
X29806Y35389D01*
X29798Y35407D01*
X29792Y35425D01*
X29789Y35440D01*
X29788Y35453D01*
X29786Y35457D01*
Y35460D01*
Y35463D01*
Y35464D01*
Y35904D01*
X29789Y35928D01*
X29794Y35949D01*
X29801Y35968D01*
X29810Y35984D01*
X29819Y35998D01*
X29825Y36008D01*
X29831Y36013D01*
X29833Y36015D01*
X29851Y36031D01*
X29870Y36042D01*
X29889Y36051D01*
X29906Y36056D01*
X29922Y36060D01*
X29934Y36061D01*
X29939Y36062D01*
X30092D01*
X30116Y36060D01*
D02*
G37*
G36*
X30647Y36061D02*
X30671Y36057D01*
X30693Y36052D01*
X30712Y36047D01*
X30728Y36042D01*
X30739Y36036D01*
X30743Y36035D01*
X30747Y36033D01*
X30748Y36032D01*
X30749D01*
X30768Y36021D01*
X30784Y36010D01*
X30797Y36000D01*
X30808Y35990D01*
X30815Y35981D01*
X30820Y35974D01*
X30823Y35969D01*
X30824Y35968D01*
X30831Y35954D01*
X30835Y35940D01*
X30840Y35926D01*
X30842Y35914D01*
X30843Y35904D01*
X30844Y35895D01*
Y35891D01*
Y35889D01*
X30843Y35877D01*
X30842Y35864D01*
X30840Y35853D01*
X30836Y35844D01*
X30834Y35835D01*
X30832Y35830D01*
X30831Y35825D01*
X30830Y35824D01*
X30823Y35814D01*
X30818Y35804D01*
X30811Y35797D01*
X30805Y35790D01*
X30800Y35786D01*
X30795Y35782D01*
X30793Y35780D01*
X30792Y35779D01*
X30517Y35576D01*
X30509Y35569D01*
X30503Y35564D01*
X30498Y35558D01*
X30495Y35552D01*
X30491Y35548D01*
X30489Y35545D01*
X30488Y35544D01*
Y35542D01*
X30481Y35525D01*
X30479Y35516D01*
X30478Y35509D01*
X30477Y35504D01*
Y35499D01*
Y35496D01*
Y35495D01*
Y35487D01*
X30478Y35479D01*
X30479Y35475D01*
X30480Y35472D01*
X30482Y35466D01*
X30485Y35459D01*
X30486Y35455D01*
X30487Y35454D01*
X30496Y35440D01*
X30505Y35431D01*
X30511Y35427D01*
X30513Y35425D01*
X30515D01*
X30535Y35416D01*
X30555Y35409D01*
X30573Y35404D01*
X30589Y35400D01*
X30602Y35398D01*
X30613Y35397D01*
X30622D01*
X30637Y35398D01*
X30651Y35399D01*
X30663Y35401D01*
X30676Y35404D01*
X30684Y35406D01*
X30692Y35408D01*
X30697Y35410D01*
X30699D01*
X30727Y35423D01*
X30739Y35429D01*
X30750Y35435D01*
X30760Y35440D01*
X30768Y35445D01*
X30772Y35448D01*
X30774Y35449D01*
X30784Y35455D01*
X30792Y35457D01*
X30798Y35458D01*
X30800D01*
X30808Y35457D01*
X30814Y35456D01*
X30825Y35450D01*
X30829Y35447D01*
X30832Y35445D01*
X30833Y35444D01*
X30834Y35443D01*
X30839Y35437D01*
X30841Y35431D01*
X30845Y35420D01*
Y35416D01*
X30846Y35413D01*
Y35410D01*
Y35409D01*
X30845Y35400D01*
X30843Y35393D01*
X30840Y35386D01*
X30835Y35380D01*
X30832Y35376D01*
X30829Y35373D01*
X30826Y35371D01*
X30825Y35370D01*
X30814Y35363D01*
X30804Y35356D01*
X30795Y35352D01*
X30788Y35346D01*
X30782Y35343D01*
X30778Y35340D01*
X30775Y35338D01*
X30774D01*
X30758Y35330D01*
X30740Y35324D01*
X30733Y35322D01*
X30728Y35319D01*
X30723Y35318D01*
X30722D01*
X30706Y35313D01*
X30688Y35309D01*
X30672Y35306D01*
X30657Y35305D01*
X30643Y35304D01*
X30633Y35303D01*
X30624D01*
X30597Y35304D01*
X30585Y35306D01*
X30572Y35307D01*
X30562Y35309D01*
X30555Y35310D01*
X30550Y35312D01*
X30548D01*
X30532Y35317D01*
X30517Y35323D01*
X30503Y35328D01*
X30491Y35333D01*
X30481Y35337D01*
X30474Y35340D01*
X30469Y35343D01*
X30467Y35344D01*
X30452Y35353D01*
X30440Y35363D01*
X30429Y35374D01*
X30420Y35384D01*
X30414Y35393D01*
X30409Y35400D01*
X30406Y35405D01*
X30405Y35407D01*
X30398Y35423D01*
X30392Y35438D01*
X30389Y35454D01*
X30386Y35467D01*
X30385Y35479D01*
X30384Y35489D01*
Y35495D01*
Y35497D01*
X30385Y35514D01*
X30387Y35529D01*
X30390Y35545D01*
X30395Y35558D01*
X30399Y35569D01*
X30402Y35577D01*
X30405Y35582D01*
X30406Y35585D01*
X30415Y35600D01*
X30424Y35613D01*
X30434Y35626D01*
X30441Y35636D01*
X30449Y35642D01*
X30456Y35648D01*
X30460Y35651D01*
X30461Y35652D01*
X30733Y35853D01*
X30740Y35859D01*
X30744Y35864D01*
X30748Y35870D01*
X30750Y35875D01*
X30751Y35880D01*
X30752Y35884D01*
Y35887D01*
Y35888D01*
Y35894D01*
X30751Y35900D01*
Y35902D01*
Y35903D01*
X30742Y35921D01*
X30733Y35932D01*
X30723Y35940D01*
X30717Y35944D01*
X30714Y35946D01*
X30713D01*
X30697Y35954D01*
X30680Y35960D01*
X30664Y35963D01*
X30650Y35966D01*
X30638Y35968D01*
X30628Y35969D01*
X30619D01*
X30590Y35966D01*
X30562Y35962D01*
X30538Y35956D01*
X30517Y35949D01*
X30499Y35941D01*
X30492Y35938D01*
X30486Y35935D01*
X30481Y35932D01*
X30478Y35931D01*
X30476Y35929D01*
X30475D01*
X30468Y35923D01*
X30462Y35919D01*
X30457Y35915D01*
X30451Y35913D01*
X30445Y35911D01*
X30442D01*
X30435Y35912D01*
X30429Y35913D01*
X30418Y35919D01*
X30414Y35922D01*
X30410Y35924D01*
X30409Y35925D01*
X30408Y35926D01*
X30404Y35933D01*
X30399Y35939D01*
X30396Y35950D01*
X30395Y35953D01*
X30394Y35956D01*
Y35959D01*
Y35960D01*
X30395Y35968D01*
X30396Y35974D01*
X30398Y35979D01*
X30399Y35980D01*
X30404Y35988D01*
X30408Y35992D01*
X30412Y35995D01*
X30414Y35996D01*
X30431Y36008D01*
X30449Y36018D01*
X30466Y36026D01*
X30480Y36033D01*
X30493Y36039D01*
X30503Y36042D01*
X30510Y36044D01*
X30511Y36045D01*
X30512D01*
X30532Y36051D01*
X30551Y36055D01*
X30569Y36057D01*
X30586Y36060D01*
X30599Y36061D01*
X30610Y36062D01*
X30619D01*
X30647Y36061D01*
D02*
G37*
G36*
X41364Y30983D02*
X41371Y30982D01*
X41380Y30977D01*
X41386Y30972D01*
X41388Y30971D01*
X41389Y30970D01*
X41393Y30964D01*
X41396Y30959D01*
X41400Y30945D01*
X41401Y30940D01*
X41402Y30935D01*
Y30932D01*
Y30931D01*
Y30274D01*
X41401Y30265D01*
X41400Y30258D01*
X41398Y30252D01*
X41395Y30246D01*
X41393Y30243D01*
X41391Y30239D01*
X41389Y30238D01*
Y30237D01*
X41378Y30230D01*
X41366Y30227D01*
X41361D01*
X41358Y30226D01*
X41354D01*
X41347Y30227D01*
X41341Y30228D01*
X41330Y30233D01*
X41325Y30235D01*
X41322Y30236D01*
X41321Y30238D01*
X41320D01*
X41315Y30244D01*
X41312Y30249D01*
X41308Y30262D01*
Y30266D01*
X41307Y30270D01*
Y30273D01*
Y30274D01*
Y30787D01*
X41174Y30537D01*
X41167Y30528D01*
X41160Y30521D01*
X41153Y30516D01*
X41147Y30512D01*
X41141Y30510D01*
X41137Y30509D01*
X41133D01*
X41125Y30510D01*
X41117Y30515D01*
X41109Y30521D01*
X41102Y30528D01*
X41098Y30535D01*
X41093Y30541D01*
X41091Y30546D01*
X41090Y30547D01*
X40960Y30787D01*
Y30274D01*
X40959Y30265D01*
X40958Y30258D01*
X40956Y30252D01*
X40952Y30246D01*
X40949Y30243D01*
X40947Y30239D01*
X40946Y30238D01*
X40945Y30237D01*
X40934Y30230D01*
X40922Y30227D01*
X40918D01*
X40916Y30226D01*
X40912D01*
X40905Y30227D01*
X40899Y30228D01*
X40888Y30233D01*
X40884Y30235D01*
X40880Y30236D01*
X40879Y30238D01*
X40878D01*
X40874Y30244D01*
X40870Y30249D01*
X40866Y30262D01*
Y30266D01*
X40865Y30270D01*
Y30273D01*
Y30274D01*
Y30931D01*
Y30939D01*
X40867Y30946D01*
X40870Y30959D01*
X40873Y30963D01*
X40875Y30966D01*
X40876Y30967D01*
X40877Y30969D01*
X40883Y30974D01*
X40888Y30977D01*
X40898Y30982D01*
X40903Y30983D01*
X40906Y30984D01*
X40909D01*
X40920Y30983D01*
X40929Y30980D01*
X40937Y30974D01*
X40944Y30969D01*
X40949Y30962D01*
X40952Y30957D01*
X40955Y30953D01*
X40956Y30952D01*
X41133Y30647D01*
X41313Y30953D01*
X41321Y30964D01*
X41328Y30971D01*
X41332Y30975D01*
X41334Y30976D01*
X41342Y30981D01*
X41350Y30983D01*
X41355Y30984D01*
X41358D01*
X41364Y30983D01*
D02*
G37*
G36*
X40594Y30980D02*
X40615Y30974D01*
X40634Y30967D01*
X40651Y30959D01*
X40664Y30950D01*
X40674Y30943D01*
X40679Y30938D01*
X40682Y30935D01*
X40697Y30918D01*
X40708Y30899D01*
X40716Y30880D01*
X40722Y30863D01*
X40725Y30848D01*
X40726Y30835D01*
X40727Y30831D01*
Y30828D01*
Y30825D01*
Y30824D01*
Y30384D01*
X40725Y30359D01*
X40719Y30338D01*
X40713Y30319D01*
X40704Y30303D01*
X40695Y30289D01*
X40688Y30279D01*
X40683Y30274D01*
X40681Y30272D01*
X40663Y30256D01*
X40644Y30245D01*
X40625Y30237D01*
X40607Y30232D01*
X40593Y30228D01*
X40581Y30227D01*
X40576Y30226D01*
X40423D01*
X40400Y30228D01*
X40377Y30233D01*
X40359Y30240D01*
X40342Y30249D01*
X40329Y30257D01*
X40319Y30265D01*
X40313Y30269D01*
X40311Y30272D01*
X40295Y30289D01*
X40284Y30309D01*
X40275Y30327D01*
X40270Y30345D01*
X40266Y30360D01*
X40265Y30373D01*
X40264Y30377D01*
Y30380D01*
Y30383D01*
Y30384D01*
Y30824D01*
X40266Y30848D01*
X40272Y30869D01*
X40279Y30888D01*
X40288Y30904D01*
X40296Y30918D01*
X40303Y30928D01*
X40309Y30933D01*
X40311Y30935D01*
X40329Y30951D01*
X40348Y30962D01*
X40366Y30971D01*
X40384Y30976D01*
X40400Y30980D01*
X40412Y30981D01*
X40416Y30982D01*
X40570D01*
X40594Y30980D01*
D02*
G37*
G36*
X39486Y30981D02*
X39493Y30980D01*
X39504Y30975D01*
X39508Y30972D01*
X39511Y30970D01*
X39513Y30969D01*
X39514Y30967D01*
X39518Y30962D01*
X39521Y30956D01*
X39525Y30945D01*
Y30941D01*
X39526Y30938D01*
Y30935D01*
Y30934D01*
Y30274D01*
X39525Y30265D01*
X39524Y30258D01*
X39522Y30252D01*
X39519Y30246D01*
X39517Y30243D01*
X39515Y30239D01*
X39513Y30238D01*
Y30237D01*
X39502Y30230D01*
X39491Y30227D01*
X39485D01*
X39482Y30226D01*
X39478D01*
X39471Y30227D01*
X39465Y30228D01*
X39454Y30233D01*
X39450Y30235D01*
X39446Y30236D01*
X39445Y30238D01*
X39444D01*
X39440Y30244D01*
X39436Y30249D01*
X39432Y30262D01*
Y30266D01*
X39431Y30270D01*
Y30273D01*
Y30274D01*
Y30934D01*
X39432Y30942D01*
X39433Y30950D01*
X39438Y30961D01*
X39442Y30964D01*
X39444Y30967D01*
X39445Y30970D01*
X39446D01*
X39452Y30974D01*
X39457Y30976D01*
X39467Y30981D01*
X39472D01*
X39475Y30982D01*
X39478D01*
X39486Y30981D01*
D02*
G37*
G36*
X39924D02*
X39948Y30977D01*
X39970Y30972D01*
X39989Y30967D01*
X40005Y30962D01*
X40016Y30956D01*
X40020Y30955D01*
X40023Y30953D01*
X40025Y30952D01*
X40026D01*
X40044Y30941D01*
X40061Y30930D01*
X40073Y30920D01*
X40084Y30910D01*
X40092Y30901D01*
X40097Y30894D01*
X40100Y30889D01*
X40101Y30888D01*
X40108Y30874D01*
X40112Y30860D01*
X40117Y30846D01*
X40119Y30834D01*
X40120Y30824D01*
X40121Y30815D01*
Y30811D01*
Y30809D01*
X40120Y30797D01*
X40119Y30784D01*
X40117Y30773D01*
X40113Y30764D01*
X40111Y30755D01*
X40109Y30750D01*
X40108Y30745D01*
X40107Y30744D01*
X40100Y30734D01*
X40094Y30724D01*
X40088Y30717D01*
X40082Y30710D01*
X40077Y30706D01*
X40072Y30702D01*
X40070Y30700D01*
X40069Y30699D01*
X39794Y30496D01*
X39786Y30489D01*
X39780Y30484D01*
X39775Y30478D01*
X39771Y30472D01*
X39768Y30468D01*
X39766Y30465D01*
X39765Y30464D01*
Y30462D01*
X39758Y30445D01*
X39756Y30436D01*
X39755Y30429D01*
X39754Y30424D01*
Y30419D01*
Y30416D01*
Y30415D01*
Y30407D01*
X39755Y30399D01*
X39756Y30395D01*
X39757Y30392D01*
X39759Y30386D01*
X39761Y30379D01*
X39763Y30375D01*
X39764Y30374D01*
X39773Y30360D01*
X39781Y30351D01*
X39788Y30347D01*
X39790Y30345D01*
X39791D01*
X39811Y30336D01*
X39831Y30329D01*
X39850Y30324D01*
X39866Y30320D01*
X39879Y30318D01*
X39890Y30317D01*
X39899D01*
X39914Y30318D01*
X39928Y30319D01*
X39940Y30321D01*
X39952Y30324D01*
X39961Y30326D01*
X39969Y30328D01*
X39973Y30330D01*
X39976D01*
X40003Y30343D01*
X40016Y30349D01*
X40027Y30355D01*
X40037Y30360D01*
X40044Y30365D01*
X40049Y30368D01*
X40051Y30369D01*
X40061Y30375D01*
X40069Y30377D01*
X40074Y30378D01*
X40077D01*
X40084Y30377D01*
X40091Y30376D01*
X40102Y30370D01*
X40106Y30367D01*
X40109Y30365D01*
X40110Y30364D01*
X40111Y30363D01*
X40116Y30357D01*
X40118Y30351D01*
X40122Y30340D01*
Y30336D01*
X40123Y30333D01*
Y30330D01*
Y30329D01*
X40122Y30320D01*
X40120Y30313D01*
X40117Y30306D01*
X40112Y30300D01*
X40109Y30296D01*
X40106Y30293D01*
X40103Y30291D01*
X40102Y30290D01*
X40091Y30283D01*
X40081Y30276D01*
X40072Y30272D01*
X40064Y30266D01*
X40059Y30263D01*
X40054Y30260D01*
X40052Y30258D01*
X40051D01*
X40035Y30250D01*
X40017Y30244D01*
X40010Y30242D01*
X40005Y30239D01*
X40000Y30238D01*
X39999D01*
X39982Y30233D01*
X39965Y30229D01*
X39949Y30226D01*
X39933Y30225D01*
X39920Y30224D01*
X39910Y30223D01*
X39901D01*
X39874Y30224D01*
X39861Y30226D01*
X39849Y30227D01*
X39839Y30229D01*
X39831Y30230D01*
X39827Y30232D01*
X39825D01*
X39809Y30237D01*
X39794Y30243D01*
X39780Y30248D01*
X39768Y30253D01*
X39758Y30257D01*
X39750Y30260D01*
X39746Y30263D01*
X39744Y30264D01*
X39729Y30273D01*
X39717Y30283D01*
X39706Y30294D01*
X39697Y30304D01*
X39690Y30313D01*
X39686Y30320D01*
X39683Y30325D01*
X39682Y30327D01*
X39675Y30343D01*
X39669Y30358D01*
X39666Y30374D01*
X39663Y30387D01*
X39662Y30399D01*
X39660Y30409D01*
Y30415D01*
Y30417D01*
X39662Y30434D01*
X39664Y30449D01*
X39667Y30465D01*
X39672Y30478D01*
X39676Y30489D01*
X39679Y30497D01*
X39682Y30502D01*
X39683Y30505D01*
X39692Y30520D01*
X39700Y30533D01*
X39710Y30546D01*
X39718Y30556D01*
X39726Y30562D01*
X39733Y30568D01*
X39737Y30571D01*
X39738Y30572D01*
X40010Y30773D01*
X40017Y30779D01*
X40021Y30784D01*
X40025Y30790D01*
X40027Y30795D01*
X40028Y30800D01*
X40029Y30804D01*
Y30807D01*
Y30808D01*
Y30814D01*
X40028Y30820D01*
Y30822D01*
Y30823D01*
X40019Y30841D01*
X40010Y30852D01*
X40000Y30860D01*
X39993Y30864D01*
X39991Y30866D01*
X39990D01*
X39973Y30874D01*
X39957Y30880D01*
X39941Y30883D01*
X39927Y30886D01*
X39915Y30888D01*
X39905Y30889D01*
X39896D01*
X39867Y30886D01*
X39839Y30882D01*
X39815Y30876D01*
X39794Y30869D01*
X39776Y30861D01*
X39769Y30858D01*
X39763Y30855D01*
X39758Y30852D01*
X39755Y30851D01*
X39753Y30849D01*
X39751D01*
X39745Y30843D01*
X39739Y30839D01*
X39734Y30835D01*
X39728Y30833D01*
X39721Y30831D01*
X39719D01*
X39711Y30832D01*
X39706Y30833D01*
X39695Y30839D01*
X39690Y30842D01*
X39687Y30844D01*
X39686Y30845D01*
X39685Y30846D01*
X39680Y30853D01*
X39676Y30859D01*
X39673Y30870D01*
X39672Y30873D01*
X39670Y30876D01*
Y30879D01*
Y30880D01*
X39672Y30888D01*
X39673Y30894D01*
X39675Y30899D01*
X39676Y30900D01*
X39680Y30908D01*
X39685Y30912D01*
X39689Y30915D01*
X39690Y30916D01*
X39708Y30928D01*
X39726Y30938D01*
X39743Y30946D01*
X39757Y30953D01*
X39770Y30959D01*
X39780Y30962D01*
X39787Y30964D01*
X39788Y30965D01*
X39789D01*
X39809Y30971D01*
X39828Y30975D01*
X39846Y30977D01*
X39862Y30980D01*
X39876Y30981D01*
X39887Y30982D01*
X39896D01*
X39924Y30981D01*
D02*
G37*
G36*
X30644Y38600D02*
X30666Y38594D01*
X30684Y38587D01*
X30701Y38579D01*
X30714Y38570D01*
X30724Y38563D01*
X30730Y38557D01*
X30732Y38555D01*
X30748Y38538D01*
X30759Y38519D01*
X30767Y38500D01*
X30772Y38483D01*
X30775Y38468D01*
X30777Y38455D01*
X30778Y38451D01*
Y38448D01*
Y38445D01*
Y38444D01*
Y38004D01*
X30775Y37979D01*
X30770Y37958D01*
X30763Y37939D01*
X30754Y37923D01*
X30745Y37909D01*
X30739Y37899D01*
X30733Y37894D01*
X30731Y37892D01*
X30713Y37876D01*
X30694Y37865D01*
X30676Y37857D01*
X30658Y37852D01*
X30643Y37848D01*
X30631Y37847D01*
X30627Y37846D01*
X30437D01*
X30428Y37847D01*
X30421Y37848D01*
X30415Y37850D01*
X30409Y37854D01*
X30406Y37857D01*
X30402Y37859D01*
X30400Y37860D01*
Y37862D01*
X30396Y37867D01*
X30394Y37873D01*
X30389Y37884D01*
Y37888D01*
X30388Y37890D01*
Y37893D01*
Y37894D01*
X30389Y37900D01*
X30390Y37906D01*
X30395Y37916D01*
X30400Y37923D01*
X30401Y37924D01*
X30402Y37925D01*
X30408Y37930D01*
X30414Y37934D01*
X30425Y37938D01*
X30429Y37939D01*
X30434Y37940D01*
X30620D01*
X30629Y37941D01*
X30637Y37943D01*
X30642Y37944D01*
X30644D01*
X30652Y37948D01*
X30659Y37953D01*
X30663Y37957D01*
X30666Y37958D01*
X30671Y37965D01*
X30676Y37973D01*
X30678Y37980D01*
X30680Y37988D01*
X30681Y37994D01*
X30682Y37999D01*
Y38003D01*
Y38004D01*
Y38444D01*
X30681Y38454D01*
X30680Y38462D01*
X30679Y38466D01*
Y38469D01*
X30674Y38476D01*
X30670Y38483D01*
X30667Y38488D01*
X30666Y38489D01*
X30658Y38495D01*
X30650Y38500D01*
X30643Y38503D01*
X30636Y38505D01*
X30629Y38506D01*
X30624Y38508D01*
X30437D01*
X30428Y38509D01*
X30421Y38510D01*
X30415Y38512D01*
X30409Y38515D01*
X30406Y38519D01*
X30402Y38521D01*
X30400Y38522D01*
Y38523D01*
X30396Y38529D01*
X30394Y38534D01*
X30389Y38545D01*
Y38550D01*
X30388Y38552D01*
Y38554D01*
Y38555D01*
X30389Y38562D01*
X30390Y38567D01*
X30395Y38577D01*
X30400Y38584D01*
X30401Y38585D01*
X30402Y38586D01*
X30408Y38592D01*
X30414Y38595D01*
X30425Y38600D01*
X30429Y38601D01*
X30434Y38602D01*
X30620D01*
X30644Y38600D01*
D02*
G37*
G36*
X30050Y38601D02*
X30074Y38597D01*
X30096Y38592D01*
X30115Y38587D01*
X30131Y38582D01*
X30142Y38576D01*
X30146Y38575D01*
X30149Y38573D01*
X30151Y38572D01*
X30152D01*
X30170Y38561D01*
X30187Y38550D01*
X30199Y38540D01*
X30210Y38530D01*
X30218Y38521D01*
X30223Y38514D01*
X30226Y38509D01*
X30227Y38508D01*
X30234Y38494D01*
X30238Y38480D01*
X30243Y38466D01*
X30245Y38454D01*
X30246Y38444D01*
X30247Y38435D01*
Y38431D01*
Y38429D01*
X30246Y38417D01*
X30245Y38404D01*
X30243Y38393D01*
X30239Y38384D01*
X30237Y38375D01*
X30235Y38370D01*
X30234Y38365D01*
X30233Y38364D01*
X30226Y38354D01*
X30220Y38344D01*
X30214Y38337D01*
X30208Y38330D01*
X30203Y38326D01*
X30198Y38322D01*
X30196Y38320D01*
X30195Y38319D01*
X29920Y38116D01*
X29912Y38109D01*
X29906Y38104D01*
X29901Y38098D01*
X29897Y38092D01*
X29894Y38088D01*
X29892Y38085D01*
X29891Y38084D01*
Y38082D01*
X29884Y38065D01*
X29882Y38056D01*
X29881Y38049D01*
X29880Y38044D01*
Y38039D01*
Y38036D01*
Y38035D01*
Y38027D01*
X29881Y38019D01*
X29882Y38015D01*
X29883Y38013D01*
X29885Y38006D01*
X29887Y37999D01*
X29889Y37995D01*
X29890Y37994D01*
X29899Y37980D01*
X29907Y37971D01*
X29914Y37967D01*
X29916Y37965D01*
X29917D01*
X29937Y37956D01*
X29957Y37949D01*
X29976Y37944D01*
X29992Y37940D01*
X30005Y37938D01*
X30016Y37937D01*
X30025D01*
X30040Y37938D01*
X30054Y37939D01*
X30066Y37941D01*
X30078Y37944D01*
X30087Y37946D01*
X30095Y37948D01*
X30099Y37950D01*
X30102D01*
X30129Y37963D01*
X30142Y37969D01*
X30153Y37975D01*
X30163Y37980D01*
X30170Y37985D01*
X30175Y37988D01*
X30177Y37989D01*
X30187Y37995D01*
X30195Y37997D01*
X30200Y37998D01*
X30203D01*
X30210Y37997D01*
X30217Y37996D01*
X30228Y37990D01*
X30232Y37987D01*
X30235Y37985D01*
X30236Y37984D01*
X30237Y37983D01*
X30242Y37977D01*
X30244Y37971D01*
X30248Y37960D01*
Y37956D01*
X30249Y37953D01*
Y37950D01*
Y37949D01*
X30248Y37940D01*
X30246Y37933D01*
X30243Y37926D01*
X30238Y37920D01*
X30235Y37916D01*
X30232Y37913D01*
X30229Y37911D01*
X30228Y37910D01*
X30217Y37903D01*
X30207Y37896D01*
X30198Y37892D01*
X30190Y37886D01*
X30185Y37883D01*
X30180Y37880D01*
X30178Y37878D01*
X30177D01*
X30161Y37870D01*
X30143Y37864D01*
X30136Y37862D01*
X30131Y37859D01*
X30126Y37858D01*
X30125D01*
X30108Y37853D01*
X30091Y37849D01*
X30075Y37846D01*
X30059Y37845D01*
X30046Y37844D01*
X30036Y37843D01*
X30027D01*
X30000Y37844D01*
X29987Y37846D01*
X29975Y37847D01*
X29965Y37849D01*
X29957Y37850D01*
X29953Y37852D01*
X29951D01*
X29935Y37857D01*
X29920Y37863D01*
X29906Y37868D01*
X29894Y37873D01*
X29884Y37877D01*
X29876Y37880D01*
X29872Y37883D01*
X29870Y37884D01*
X29855Y37893D01*
X29843Y37903D01*
X29832Y37914D01*
X29823Y37924D01*
X29816Y37933D01*
X29812Y37940D01*
X29809Y37945D01*
X29808Y37947D01*
X29801Y37963D01*
X29795Y37978D01*
X29792Y37994D01*
X29789Y38007D01*
X29788Y38019D01*
X29786Y38029D01*
Y38035D01*
Y38037D01*
X29788Y38054D01*
X29790Y38069D01*
X29793Y38085D01*
X29798Y38098D01*
X29802Y38109D01*
X29805Y38117D01*
X29808Y38122D01*
X29809Y38125D01*
X29818Y38140D01*
X29826Y38153D01*
X29836Y38166D01*
X29844Y38176D01*
X29852Y38182D01*
X29859Y38188D01*
X29863Y38191D01*
X29864Y38192D01*
X30136Y38393D01*
X30143Y38399D01*
X30147Y38404D01*
X30151Y38410D01*
X30153Y38415D01*
X30154Y38420D01*
X30155Y38424D01*
Y38427D01*
Y38428D01*
Y38434D01*
X30154Y38440D01*
Y38442D01*
Y38443D01*
X30145Y38461D01*
X30136Y38472D01*
X30126Y38480D01*
X30119Y38484D01*
X30117Y38486D01*
X30116D01*
X30099Y38494D01*
X30083Y38500D01*
X30067Y38503D01*
X30053Y38506D01*
X30041Y38508D01*
X30031Y38509D01*
X30022D01*
X29993Y38506D01*
X29965Y38502D01*
X29941Y38496D01*
X29920Y38489D01*
X29902Y38481D01*
X29895Y38478D01*
X29889Y38475D01*
X29884Y38472D01*
X29881Y38471D01*
X29879Y38469D01*
X29877D01*
X29871Y38463D01*
X29865Y38459D01*
X29860Y38455D01*
X29854Y38453D01*
X29847Y38451D01*
X29845D01*
X29837Y38452D01*
X29832Y38453D01*
X29821Y38459D01*
X29816Y38462D01*
X29813Y38464D01*
X29812Y38465D01*
X29811Y38466D01*
X29806Y38473D01*
X29802Y38479D01*
X29799Y38490D01*
X29798Y38493D01*
X29796Y38496D01*
Y38499D01*
Y38500D01*
X29798Y38508D01*
X29799Y38514D01*
X29801Y38519D01*
X29802Y38520D01*
X29806Y38528D01*
X29811Y38532D01*
X29815Y38535D01*
X29816Y38536D01*
X29834Y38548D01*
X29852Y38557D01*
X29869Y38566D01*
X29883Y38573D01*
X29896Y38579D01*
X29906Y38582D01*
X29913Y38584D01*
X29914Y38585D01*
X29915D01*
X29935Y38591D01*
X29954Y38595D01*
X29972Y38597D01*
X29988Y38600D01*
X30002Y38601D01*
X30013Y38602D01*
X30022D01*
X30050Y38601D01*
D02*
G37*
G36*
X40994Y36062D02*
X41000Y36061D01*
X41011Y36056D01*
X41016Y36053D01*
X41019Y36051D01*
X41020Y36050D01*
X41021Y36049D01*
X41026Y36043D01*
X41029Y36037D01*
X41032Y36026D01*
X41033Y36022D01*
X41035Y36019D01*
Y36016D01*
Y36015D01*
Y35768D01*
X41307D01*
Y36014D01*
X41308Y36022D01*
X41309Y36030D01*
X41311Y36035D01*
X41314Y36040D01*
X41320Y36046D01*
X41321Y36049D01*
X41322D01*
X41328Y36053D01*
X41333Y36055D01*
X41343Y36060D01*
X41348D01*
X41351Y36061D01*
X41362D01*
X41369Y36059D01*
X41380Y36054D01*
X41384Y36052D01*
X41386Y36050D01*
X41389Y36049D01*
X41390Y36047D01*
X41394Y36042D01*
X41396Y36036D01*
X41401Y36025D01*
Y36021D01*
X41402Y36018D01*
Y36015D01*
Y36014D01*
Y35354D01*
X41401Y35345D01*
X41400Y35338D01*
X41398Y35332D01*
X41395Y35326D01*
X41393Y35323D01*
X41391Y35319D01*
X41389Y35318D01*
Y35317D01*
X41378Y35310D01*
X41366Y35307D01*
X41361D01*
X41358Y35306D01*
X41354D01*
X41347Y35307D01*
X41341Y35308D01*
X41330Y35313D01*
X41325Y35315D01*
X41322Y35316D01*
X41321Y35318D01*
X41320D01*
X41315Y35324D01*
X41312Y35329D01*
X41308Y35342D01*
Y35346D01*
X41307Y35350D01*
Y35353D01*
Y35354D01*
Y35673D01*
X41035D01*
Y35353D01*
X41033Y35345D01*
X41032Y35337D01*
X41027Y35326D01*
X41025Y35322D01*
X41022Y35318D01*
X41021Y35317D01*
X41020Y35316D01*
X41009Y35310D01*
X40999Y35307D01*
X40995D01*
X40991Y35306D01*
X40988D01*
X40981Y35307D01*
X40976Y35308D01*
X40965Y35313D01*
X40961Y35315D01*
X40958Y35317D01*
X40956Y35319D01*
X40955D01*
X40949Y35325D01*
X40946Y35332D01*
X40941Y35343D01*
X40940Y35347D01*
X40939Y35352D01*
Y35354D01*
Y35355D01*
Y36015D01*
X40940Y36023D01*
X40941Y36031D01*
X40947Y36042D01*
X40950Y36045D01*
X40952Y36049D01*
X40954Y36051D01*
X40955D01*
X40960Y36055D01*
X40966Y36057D01*
X40976Y36062D01*
X40980D01*
X40984Y36063D01*
X40987D01*
X40994Y36062D01*
D02*
G37*
G36*
X40668Y36060D02*
X40689Y36054D01*
X40708Y36047D01*
X40725Y36039D01*
X40738Y36030D01*
X40748Y36023D01*
X40754Y36018D01*
X40756Y36015D01*
X40772Y35998D01*
X40783Y35979D01*
X40790Y35960D01*
X40796Y35943D01*
X40799Y35928D01*
X40800Y35915D01*
X40801Y35911D01*
Y35908D01*
Y35905D01*
Y35904D01*
Y35464D01*
X40799Y35439D01*
X40794Y35418D01*
X40787Y35399D01*
X40778Y35383D01*
X40769Y35369D01*
X40763Y35359D01*
X40757Y35354D01*
X40755Y35352D01*
X40737Y35336D01*
X40718Y35325D01*
X40699Y35317D01*
X40682Y35312D01*
X40667Y35308D01*
X40655Y35307D01*
X40651Y35306D01*
X40497D01*
X40474Y35308D01*
X40452Y35313D01*
X40433Y35320D01*
X40416Y35329D01*
X40403Y35337D01*
X40393Y35345D01*
X40387Y35349D01*
X40385Y35352D01*
X40370Y35369D01*
X40359Y35389D01*
X40350Y35407D01*
X40344Y35425D01*
X40341Y35440D01*
X40340Y35453D01*
X40339Y35457D01*
Y35460D01*
Y35463D01*
Y35464D01*
Y35904D01*
X40341Y35928D01*
X40346Y35949D01*
X40353Y35968D01*
X40362Y35984D01*
X40371Y35998D01*
X40377Y36008D01*
X40383Y36013D01*
X40385Y36015D01*
X40403Y36031D01*
X40422Y36042D01*
X40441Y36051D01*
X40459Y36056D01*
X40474Y36060D01*
X40486Y36061D01*
X40491Y36062D01*
X40644D01*
X40668Y36060D01*
D02*
G37*
G36*
X40161Y36061D02*
X40168Y36060D01*
X40179Y36055D01*
X40183Y36052D01*
X40185Y36050D01*
X40188Y36049D01*
X40189Y36047D01*
X40193Y36042D01*
X40195Y36036D01*
X40200Y36025D01*
Y36021D01*
X40201Y36018D01*
Y36015D01*
Y36014D01*
Y35354D01*
X40200Y35345D01*
X40199Y35338D01*
X40193Y35326D01*
X40185Y35318D01*
X40177Y35312D01*
X40169Y35308D01*
X40161Y35307D01*
X40155Y35306D01*
X39860D01*
X39851Y35307D01*
X39845Y35308D01*
X39838Y35310D01*
X39832Y35314D01*
X39829Y35317D01*
X39826Y35319D01*
X39824Y35320D01*
Y35322D01*
X39819Y35327D01*
X39817Y35333D01*
X39813Y35344D01*
Y35348D01*
X39811Y35350D01*
Y35353D01*
Y35354D01*
X39813Y35360D01*
X39814Y35366D01*
X39818Y35376D01*
X39824Y35383D01*
X39825Y35384D01*
X39826Y35385D01*
X39831Y35390D01*
X39837Y35394D01*
X39848Y35398D01*
X39852Y35399D01*
X39857Y35400D01*
X40106D01*
Y36014D01*
X40107Y36022D01*
X40108Y36030D01*
X40113Y36041D01*
X40117Y36044D01*
X40119Y36047D01*
X40120Y36050D01*
X40121D01*
X40127Y36054D01*
X40132Y36056D01*
X40142Y36061D01*
X40147D01*
X40150Y36062D01*
X40153D01*
X40161Y36061D01*
D02*
G37*
G36*
X39644Y36060D02*
X39656Y36054D01*
X39664Y36046D01*
X39670Y36039D01*
X39674Y36030D01*
X39675Y36022D01*
X39676Y36016D01*
Y36015D01*
Y36014D01*
Y35354D01*
X39675Y35345D01*
X39674Y35338D01*
X39668Y35326D01*
X39660Y35318D01*
X39652Y35312D01*
X39644Y35308D01*
X39636Y35307D01*
X39630Y35306D01*
X39372D01*
X39349Y35308D01*
X39326Y35313D01*
X39307Y35320D01*
X39291Y35329D01*
X39278Y35337D01*
X39268Y35345D01*
X39262Y35349D01*
X39260Y35352D01*
X39244Y35369D01*
X39233Y35389D01*
X39224Y35407D01*
X39219Y35425D01*
X39215Y35440D01*
X39214Y35453D01*
X39213Y35457D01*
Y35460D01*
Y35463D01*
Y35464D01*
Y35904D01*
X39215Y35928D01*
X39221Y35949D01*
X39228Y35968D01*
X39236Y35984D01*
X39245Y35998D01*
X39252Y36008D01*
X39258Y36013D01*
X39260Y36015D01*
X39278Y36031D01*
X39296Y36042D01*
X39315Y36051D01*
X39333Y36056D01*
X39349Y36060D01*
X39361Y36061D01*
X39365Y36062D01*
X39637D01*
X39644Y36060D01*
D02*
G37*
%LPC*%
G36*
X30154Y30888D02*
X29945D01*
X29935Y30886D01*
X29926Y30884D01*
X29919Y30882D01*
X29912Y30879D01*
X29906Y30874D01*
X29903Y30872D01*
X29901Y30870D01*
X29900Y30869D01*
X29894Y30862D01*
X29890Y30854D01*
X29886Y30846D01*
X29884Y30840D01*
X29883Y30833D01*
X29882Y30829D01*
Y30825D01*
Y30824D01*
Y30384D01*
X29883Y30374D01*
X29885Y30365D01*
X29887Y30356D01*
X29891Y30349D01*
X29895Y30344D01*
X29897Y30340D01*
X29900Y30338D01*
X29901Y30337D01*
X29909Y30331D01*
X29915Y30327D01*
X29923Y30325D01*
X29930Y30323D01*
X29936Y30321D01*
X29941Y30320D01*
X30154D01*
Y30888D01*
D02*
G37*
G36*
Y33428D02*
X29945D01*
X29935Y33426D01*
X29926Y33424D01*
X29919Y33422D01*
X29912Y33419D01*
X29906Y33414D01*
X29903Y33412D01*
X29901Y33410D01*
X29900Y33409D01*
X29894Y33402D01*
X29890Y33394D01*
X29886Y33386D01*
X29884Y33380D01*
X29883Y33373D01*
X29882Y33369D01*
Y33365D01*
Y33364D01*
Y33218D01*
X29883Y33208D01*
X29885Y33199D01*
X29887Y33190D01*
X29891Y33183D01*
X29895Y33178D01*
X29897Y33174D01*
X29900Y33172D01*
X29901Y33171D01*
X29909Y33166D01*
X29915Y33161D01*
X29923Y33159D01*
X29930Y33157D01*
X29936Y33156D01*
X29941Y33154D01*
X30154D01*
Y33428D01*
D02*
G37*
G36*
X30096Y35968D02*
X29945D01*
X29935Y35966D01*
X29926Y35964D01*
X29919Y35962D01*
X29912Y35959D01*
X29906Y35954D01*
X29903Y35952D01*
X29901Y35950D01*
X29900Y35949D01*
X29894Y35942D01*
X29890Y35934D01*
X29886Y35926D01*
X29884Y35920D01*
X29883Y35913D01*
X29882Y35909D01*
Y35905D01*
Y35904D01*
Y35464D01*
X29883Y35454D01*
X29885Y35445D01*
X29887Y35436D01*
X29891Y35429D01*
X29895Y35424D01*
X29897Y35420D01*
X29900Y35418D01*
X29901Y35417D01*
X29909Y35411D01*
X29915Y35407D01*
X29923Y35405D01*
X29930Y35403D01*
X29936Y35401D01*
X29941Y35400D01*
X30092D01*
X30101Y35401D01*
X30108Y35403D01*
X30114Y35404D01*
X30116D01*
X30124Y35408D01*
X30131Y35413D01*
X30135Y35417D01*
X30137Y35418D01*
X30143Y35425D01*
X30147Y35433D01*
X30149Y35440D01*
X30152Y35448D01*
X30153Y35454D01*
X30154Y35459D01*
Y35463D01*
Y35464D01*
Y35904D01*
X30153Y35914D01*
X30152Y35922D01*
X30151Y35926D01*
Y35929D01*
X30146Y35936D01*
X30142Y35943D01*
X30138Y35948D01*
X30137Y35949D01*
X30129Y35955D01*
X30122Y35960D01*
X30115Y35963D01*
X30107Y35965D01*
X30101Y35966D01*
X30096Y35968D01*
D02*
G37*
G36*
X40574Y30888D02*
X40423D01*
X40413Y30886D01*
X40404Y30884D01*
X40396Y30882D01*
X40390Y30879D01*
X40384Y30874D01*
X40381Y30872D01*
X40379Y30870D01*
X40377Y30869D01*
X40372Y30862D01*
X40368Y30854D01*
X40364Y30846D01*
X40362Y30840D01*
X40361Y30833D01*
X40360Y30829D01*
Y30825D01*
Y30824D01*
Y30384D01*
X40361Y30374D01*
X40363Y30365D01*
X40365Y30356D01*
X40369Y30349D01*
X40373Y30344D01*
X40375Y30340D01*
X40377Y30338D01*
X40379Y30337D01*
X40386Y30331D01*
X40393Y30327D01*
X40401Y30325D01*
X40407Y30323D01*
X40414Y30321D01*
X40419Y30320D01*
X40570D01*
X40578Y30321D01*
X40586Y30323D01*
X40592Y30324D01*
X40594D01*
X40602Y30328D01*
X40608Y30333D01*
X40613Y30337D01*
X40615Y30338D01*
X40621Y30345D01*
X40625Y30353D01*
X40627Y30360D01*
X40629Y30368D01*
X40631Y30374D01*
X40632Y30379D01*
Y30383D01*
Y30384D01*
Y30824D01*
X40631Y30834D01*
X40629Y30842D01*
X40628Y30846D01*
Y30849D01*
X40624Y30856D01*
X40619Y30863D01*
X40616Y30868D01*
X40615Y30869D01*
X40607Y30875D01*
X40599Y30880D01*
X40593Y30883D01*
X40585Y30885D01*
X40578Y30886D01*
X40574Y30888D01*
D02*
G37*
G36*
X40648Y35968D02*
X40497D01*
X40487Y35966D01*
X40479Y35964D01*
X40471Y35962D01*
X40464Y35959D01*
X40459Y35954D01*
X40455Y35952D01*
X40453Y35950D01*
X40452Y35949D01*
X40446Y35942D01*
X40442Y35934D01*
X40439Y35926D01*
X40436Y35920D01*
X40435Y35913D01*
X40434Y35909D01*
Y35905D01*
Y35904D01*
Y35464D01*
X40435Y35454D01*
X40437Y35445D01*
X40440Y35436D01*
X40443Y35429D01*
X40447Y35424D01*
X40450Y35420D01*
X40452Y35418D01*
X40453Y35417D01*
X40461Y35411D01*
X40467Y35407D01*
X40475Y35405D01*
X40482Y35403D01*
X40488Y35401D01*
X40493Y35400D01*
X40644D01*
X40653Y35401D01*
X40661Y35403D01*
X40666Y35404D01*
X40668D01*
X40676Y35408D01*
X40683Y35413D01*
X40687Y35417D01*
X40689Y35418D01*
X40695Y35425D01*
X40699Y35433D01*
X40702Y35440D01*
X40704Y35448D01*
X40705Y35454D01*
X40706Y35459D01*
Y35463D01*
Y35464D01*
Y35904D01*
X40705Y35914D01*
X40704Y35922D01*
X40703Y35926D01*
Y35929D01*
X40698Y35936D01*
X40694Y35943D01*
X40690Y35948D01*
X40689Y35949D01*
X40682Y35955D01*
X40674Y35960D01*
X40667Y35963D01*
X40659Y35965D01*
X40653Y35966D01*
X40648Y35968D01*
D02*
G37*
G36*
X39581D02*
X39372D01*
X39362Y35966D01*
X39353Y35964D01*
X39345Y35962D01*
X39339Y35959D01*
X39333Y35954D01*
X39330Y35952D01*
X39327Y35950D01*
X39326Y35949D01*
X39321Y35942D01*
X39316Y35934D01*
X39313Y35926D01*
X39311Y35920D01*
X39310Y35913D01*
X39309Y35909D01*
Y35905D01*
Y35904D01*
Y35464D01*
X39310Y35454D01*
X39312Y35445D01*
X39314Y35436D01*
X39317Y35429D01*
X39322Y35424D01*
X39324Y35420D01*
X39326Y35418D01*
X39327Y35417D01*
X39335Y35411D01*
X39342Y35407D01*
X39350Y35405D01*
X39356Y35403D01*
X39363Y35401D01*
X39367Y35400D01*
X39581D01*
Y35968D01*
D02*
G37*
%LPD*%
D10*
X42545Y29210D02*
X43815D01*
X41910Y29845D02*
X42545Y29210D01*
X43815D02*
X44450Y29845D01*
X41910Y31115D02*
X42545Y31750D01*
X41910Y29845D02*
Y31115D01*
X44450Y29845D02*
Y31115D01*
X43815Y31750D02*
X44450Y31115D01*
X41910Y36830D02*
Y39370D01*
Y36830D02*
X44450D01*
Y39370D01*
X41910D02*
X44450D01*
X41910Y36195D02*
X42545Y36830D01*
X41910Y34925D02*
Y36195D01*
Y34925D02*
X42545Y34290D01*
X41910Y33655D02*
X42545Y34290D01*
X41910Y32385D02*
Y33655D01*
Y32385D02*
X42545Y31750D01*
X43815D02*
X44450Y32385D01*
Y33655D01*
X43815Y34290D02*
X44450Y33655D01*
X43815Y34290D02*
X44450Y34925D01*
Y36195D01*
X43815Y36830D02*
X44450Y36195D01*
X27305Y29210D02*
X28575D01*
X26670Y29845D02*
X27305Y29210D01*
X28575D02*
X29210Y29845D01*
X26670Y31115D02*
X27305Y31750D01*
X26670Y29845D02*
Y31115D01*
X29210Y29845D02*
Y31115D01*
X28575Y31750D02*
X29210Y31115D01*
X26670Y36830D02*
Y39370D01*
Y36830D02*
X29210D01*
Y39370D01*
X26670D02*
X29210D01*
X26670Y36195D02*
X27305Y36830D01*
X26670Y34925D02*
Y36195D01*
Y34925D02*
X27305Y34290D01*
X26670Y33655D02*
X27305Y34290D01*
X26670Y32385D02*
Y33655D01*
Y32385D02*
X27305Y31750D01*
X28575D02*
X29210Y32385D01*
Y33655D01*
X28575Y34290D02*
X29210Y33655D01*
X28575Y34290D02*
X29210Y34925D01*
Y36195D01*
X28575Y36830D02*
X29210Y36195D01*
D11*
X38354Y32004D02*
X37338Y30480D01*
Y32004D02*
X38354Y30480D01*
X35815Y31750D02*
X36069Y32004D01*
X36577D01*
X36830Y31750D01*
Y31496D01*
X36577Y31242D01*
X36069D01*
X35815Y30988D01*
Y30734D01*
X36069Y30480D01*
X36577D01*
X36830Y30734D01*
X34291Y30480D02*
X35307D01*
X34291Y31496D01*
Y31750D01*
X34545Y32004D01*
X35053D01*
X35307Y31750D01*
X35560Y38862D02*
X34544Y37338D01*
Y38862D02*
X35560Y37338D01*
X33021Y38608D02*
X33275Y38862D01*
X33783D01*
X34036Y38608D01*
Y38354D01*
X33783Y38100D01*
X33275D01*
X33021Y37846D01*
Y37592D01*
X33275Y37338D01*
X33783D01*
X34036Y37592D01*
X32513Y37338D02*
X32005D01*
X32259D01*
Y38862D01*
X32513Y38608D01*
M02*
